<svg width="23" height="22" viewBox="0 0 23 22" fill="none" xmlns="http://www.w3.org/2000/svg">
<path fill-rule="evenodd" clip-rule="evenodd" d="M11.9999 2.00488C11.4964 2.00488 11.0009 2.13165 10.5592 2.37351C10.1175 2.61536 9.74373 2.96452 9.47245 3.38879C9.24584 3.7432 8.82166 3.9179 8.41118 3.82587C7.91831 3.71537 7.40551 3.73111 6.92034 3.87162C6.43516 4.01213 5.99332 4.27287 5.63578 4.62967C5.27824 4.98646 5.01658 5.42775 4.87505 5.91263C4.73352 6.39751 4.71671 6.91027 4.82618 7.40337C4.91755 7.81496 4.74097 8.23964 4.38471 8.4651C3.95718 8.73567 3.60503 9.10997 3.361 9.55319C3.11698 9.99641 2.98901 10.4941 2.98901 11.0001C2.98901 11.5061 3.11698 12.0038 3.361 12.447C3.60503 12.8902 3.95718 13.2645 4.38471 13.5351C4.74097 13.7606 4.91755 14.1852 4.82618 14.5968C4.71671 15.0899 4.73352 15.6027 4.87505 16.0876C5.01658 16.5724 5.27824 17.0137 5.63578 17.3705C5.99332 17.7273 6.43516 17.9881 6.92034 18.1286C7.40551 18.2691 7.91831 18.2848 8.41118 18.1743C8.82249 18.0821 9.24746 18.2577 9.4737 18.6134C9.74463 19.0393 10.1186 19.3899 10.5611 19.6329C11.0036 19.8758 11.5002 20.0032 12.0049 20.0032C12.5097 20.0032 13.0063 19.8758 13.4488 19.6329C13.8913 19.3899 14.2653 19.0393 14.5362 18.6134C14.762 18.2584 15.1859 18.0827 15.5967 18.1739C16.0898 18.2833 16.6025 18.2665 17.0874 18.125C17.5723 17.9835 18.0136 17.7218 18.3704 17.3643C18.7272 17.0067 18.9879 16.5649 19.1284 16.0797C19.2689 15.5945 19.2847 15.0817 19.1742 14.5889C19.0821 14.1784 19.2568 13.7542 19.6113 13.5276C20.0355 13.2563 20.3847 12.8826 20.6265 12.4409C20.8684 11.9992 20.9952 11.5037 20.9952 11.0001C20.9952 10.4965 20.8684 10.001 20.6265 9.55931C20.3847 9.1176 20.0355 8.74388 19.6113 8.4726C19.2567 8.24587 19.082 7.82138 19.1743 7.41074C19.2853 6.91712 19.2696 6.40344 19.1288 5.91749C18.9879 5.43155 18.7264 4.98912 18.3687 4.63136C18.0109 4.2736 17.5685 4.01213 17.0826 3.87128C16.5966 3.73042 16.0829 3.71476 15.5893 3.82574C15.1787 3.91807 14.7542 3.74339 14.5274 3.38879C14.2562 2.96452 13.8824 2.61536 13.4407 2.37351C12.999 2.13165 12.5035 2.00488 11.9999 2.00488ZM9.59864 0.619258C10.3348 0.216167 11.1606 0.00488281 11.9999 0.00488281C12.8393 0.00488281 13.6651 0.216167 14.4013 0.619258C14.9404 0.914455 15.4187 1.30556 15.8138 1.77151C16.4262 1.7182 17.0452 1.77813 17.6393 1.95034C18.4493 2.1851 19.1866 2.62088 19.7829 3.21714C20.3792 3.81341 20.8149 4.55079 21.0497 5.3607C21.2219 5.95483 21.2818 6.57383 21.2285 7.18627C21.6945 7.5813 22.0856 8.05966 22.3808 8.59879C22.7839 9.33497 22.9952 10.1608 22.9952 11.0001C22.9952 11.8394 22.7839 12.6652 22.3808 13.4014C22.0855 13.9407 21.6943 14.4191 21.2282 14.8142C21.2811 15.4254 21.2212 16.0431 21.0495 16.6361C20.8153 17.4447 20.3807 18.1811 19.7861 18.777C19.1914 19.3729 18.4559 19.809 17.6478 20.0449C17.0553 20.2178 16.4377 20.279 15.8264 20.2275C15.4312 20.6959 14.9519 21.0892 14.4114 21.386C13.6739 21.7909 12.8462 22.0032 12.0049 22.0032C11.1637 22.0032 10.336 21.7909 9.59854 21.386C9.05836 21.0894 8.5794 20.6965 8.18434 20.2285C7.57362 20.2812 6.95644 20.2212 6.36397 20.0496C5.55535 19.8154 4.81895 19.3809 4.22305 18.7862C3.62715 18.1916 3.19104 17.4561 2.95516 16.6479C2.78235 16.0559 2.72111 15.4389 2.77246 14.8281C2.30213 14.4329 1.90714 13.9531 1.60899 13.4116C1.20229 12.6729 0.989014 11.8434 0.989014 11.0001C0.989014 10.1568 1.20229 9.32728 1.60899 8.58858C1.90714 8.04707 2.30213 7.56728 2.77246 7.17207C2.72111 6.56129 2.78235 5.94429 2.95516 5.35224C3.19104 4.54412 3.62715 3.80863 4.22305 3.21397C4.81895 2.61932 5.55535 2.18475 6.36397 1.95056C6.95693 1.77884 7.57464 1.71893 8.18586 1.77181C8.58094 1.30573 9.05939 0.914518 9.59864 0.619258ZM12.2582 7.0244C11.7927 6.94455 11.3139 7.03203 10.9067 7.27135C10.4995 7.51066 10.1902 7.88637 10.0334 8.33192C9.85015 8.85291 9.27923 9.12669 8.75824 8.94342C8.23726 8.76014 7.96348 8.18923 8.14675 7.66824C8.46023 6.77713 9.07896 6.02571 9.89336 5.54708C10.7078 5.06845 11.6653 4.89349 12.5963 5.05319C13.5274 5.21289 14.3718 5.69694 14.9802 6.41961C15.5884 7.14213 15.9214 8.05656 15.9201 9.00099C15.9196 10.5313 14.785 11.542 13.9748 12.0821C13.5392 12.3726 13.1106 12.5861 12.795 12.7264C12.6357 12.7972 12.5016 12.8509 12.405 12.8877C12.3566 12.9061 12.3174 12.9204 12.2888 12.9306L12.2541 12.9427L12.243 12.9465L12.2391 12.9478L12.2376 12.9483C12.2373 12.9484 12.2363 12.9488 11.9201 12.0001L12.2363 12.9488C11.7124 13.1234 11.1461 12.8403 10.9714 12.3163C10.7968 11.7925 11.0797 11.2264 11.6033 11.0516L11.6188 11.0461C11.6342 11.0407 11.6594 11.0315 11.693 11.0187C11.7604 10.993 11.8607 10.953 11.9827 10.8988C12.2295 10.7891 12.551 10.6276 12.8654 10.418C13.555 9.9583 13.9201 9.46922 13.9201 9.00008L13.9201 8.99859C13.9208 8.52627 13.7543 8.06895 13.4501 7.70761C13.146 7.34627 12.7237 7.10425 12.2582 7.0244ZM11 16C11 15.4477 11.4477 15 12 15H12.01C12.5623 15 13.01 15.4477 13.01 16C13.01 16.5523 12.5623 17 12.01 17H12C11.4477 17 11 16.5523 11 16Z" fill="#218E44"/>
</svg>
