<svg width="30" height="30" viewBox="0 0 30 30" fill="none" xmlns="http://www.w3.org/2000/svg">
<path d="M7.5 5C4.73875 5 2.5 7.23875 2.5 10V20C2.5 22.7612 4.73875 25 7.5 25L11.2613 25.0125C11.7938 25.0125 12.3512 25.2575 12.99 25.8462C13.2387 26.0762 13.5362 26.3638 13.7387 26.6325C13.9637 26.9325 14.2575 27.5037 15 27.5C15.7425 27.4962 15.9838 26.9913 16.25 26.64C16.4513 26.3925 16.6925 26.1563 16.9413 25.9263C17.5813 25.3375 18.2175 25 18.75 25H22.5C25.2612 25 27.5 22.7612 27.5 20V10C27.5 7.23875 25.2612 5 22.5 5H18.75C17.2362 5 15.9175 5.69501 15 6.75751C14.0825 5.69501 12.7638 5 11.25 5H7.5ZM18.75 7.5H22.5C23.8813 7.5 25 8.61875 25 10V20C25 21.3812 23.8813 22.5 22.5 22.5H18.75C17.86 22.5 17.025 22.8212 16.245 23.3275L16.25 10C16.25 8.61875 17.3687 7.5 18.75 7.5Z" fill="#A1A1AA"/>
</svg>
