<svg width="16" height="18" viewBox="0 0 16 18" fill="none" xmlns="http://www.w3.org/2000/svg">
<path d="M4.66669 7.33333V5.66667C4.66669 3.36583 5.69919 1.5 8.00002 1.5C9.74502 1.5 10.7609 2.57333 11.15 4.095M8.00002 12.125V11.7083M11.3334 12.125V11.7083M4.66669 12.125V11.7083M0.916687 13.8333V10C0.916687 9.06667 0.916687 8.6 1.09835 8.24417C1.258 7.93027 1.51297 7.675 1.82669 7.515C2.18335 7.33417 2.65002 7.33417 3.58335 7.33417H12.4167C13.35 7.33417 13.8167 7.33417 14.1734 7.515C14.4869 7.67479 14.7419 7.92974 14.9017 8.24333C15.0834 8.6 15.0834 9.06667 15.0834 10V13.8333C15.0834 14.7667 15.0834 15.2333 14.9017 15.59C14.7419 15.9036 14.4869 16.1585 14.1734 16.3183C13.8167 16.5 13.35 16.5 12.4167 16.5H3.58335C2.65002 16.5 2.18335 16.5 1.82669 16.3183C1.5131 16.1585 1.25814 15.9036 1.09835 15.59C0.916687 15.2342 0.916687 14.7675 0.916687 13.8333Z" stroke="#0077D4" stroke-width="1.25" stroke-linecap="round" stroke-linejoin="round"/>
</svg>
