<svg width="1823" height="300" viewBox="0 0 1823 300" fill="none" xmlns="http://www.w3.org/2000/svg">
<rect width="1823" height="300" fill="#0077D4"/>
<path d="M1483.4 9.56225C1480.05 9.89051 1478.53 10.4376 1474.43 12.8083C1469.22 15.7991 1466.02 18.5711 1461.67 23.7138C1458.01 28.0541 1457.55 28.4917 1455.53 29.3671C1453.45 30.2789 1453.01 30.3154 1445.75 30.4613C1438.45 30.5707 1438.05 30.6436 1435.72 31.5555C1432.21 32.9779 1431.1 33.7438 1429.61 35.7134C1427.99 37.9018 1427.4 39.2513 1426.19 43.5551C1423.71 52.3815 1420.6 57.4148 1416.41 59.2749C1415.23 59.822 1413.03 60.6244 1411.54 61.0621C1408.28 61.9739 1408.34 62.0834 1413 64.0164C1414.71 64.7094 1417.38 66.0224 1418.9 66.9343C1424.02 69.9251 1425.23 70.2168 1434.36 70.3627L1442.37 70.5086L1444.76 71.8216C1447.77 73.4994 1451.31 76.5996 1452.92 79.0068C1455.16 82.2894 1459.66 87.505 1461.61 89.0369C1463.88 90.8241 1466.92 91.9912 1469.22 91.9912C1471.45 91.9912 1476.67 90.7876 1478.59 89.8028C1479.56 89.3287 1480.8 88.2345 1481.76 87.0309C1483.5 84.8425 1485.45 80.5022 1485.64 78.2774C1485.7 77.475 1485.86 76.016 1485.95 75.0313C1486.11 73.7182 1486.01 72.8064 1485.67 71.8216C1484.52 68.685 1481.11 65.7307 1478.66 65.7671C1476.95 65.7671 1474.87 66.9343 1474.09 68.2838C1473.01 70.1074 1473.1 72.9523 1474.25 74.3018C1475.09 75.3231 1476.14 75.9431 1476.98 75.9431C1477.88 75.9431 1478.97 74.2289 1478.97 72.8429C1478.97 71.7852 1479.12 71.4934 1479.74 71.2016C1482.47 69.998 1484.24 74.4842 1482.19 77.402C1478.84 82.0706 1471.36 80.5022 1469.37 74.703C1468.81 73.1711 1468.69 72.1499 1468.78 70.3263C1468.88 67.992 1468.85 67.919 1468.01 67.5178C1466.98 67.0072 1464.03 63.3599 1463.01 61.2445C1462.11 59.4208 1460.84 55.2629 1460.34 52.4545C1460.09 50.9956 1460.09 49.5002 1460.31 47.0565C1460.56 44.2481 1460.84 43.1539 1461.89 40.7467C1463.51 36.9535 1466.08 33.5615 1468.35 32.212C1469.34 31.6284 1470.55 30.899 1471.08 30.5707C1471.61 30.2424 1473.13 29.6589 1474.46 29.2577C1485.02 26.0845 1493.21 33.598 1491.69 45.014C1490.98 50.5214 1488.25 53.9864 1483.68 55.117C1479.74 56.1018 1477.23 55.2629 1475.43 52.3451C1472.54 47.6401 1473.35 42.4244 1477.41 39.543C1479.71 37.9382 1481.88 37.9747 1482.85 39.7254C1483.56 40.9655 1483.16 41.9138 1481.6 42.7891C1479.96 43.701 1478.87 44.9411 1478.34 46.4364C1477.54 48.6613 1479.28 51.0685 1481.85 51.3968C1483.4 51.6156 1485.42 50.6308 1486.17 49.2449C1486.76 48.1871 1487.44 42.4244 1487.16 41.0384C1486.88 39.6525 1485.64 37.2088 1484.8 36.297C1482.19 33.5615 1477.23 33.5615 1472.57 36.224C1470.06 37.6829 1466.52 42.0597 1465.77 44.5398C1464.41 49.3178 1466.3 57.3419 1469.87 62.0469L1471.39 64.0529L1472.82 62.8858C1474.15 61.828 1475.8 61.0256 1477.79 60.4785C1479.06 60.1503 1482.97 61.281 1484.55 62.4481C1486.32 63.7611 1487.63 65.3659 1488.96 67.919C1490.36 70.5086 1491.07 72.7335 1491.07 74.3018C1491.07 75.0677 1491.23 75.5784 1491.48 75.5784C1491.66 75.5784 1493.21 74.776 1494.86 73.7912C1498.18 71.8216 1499.92 70.1074 1503.3 65.3659C1504.51 63.6517 1506.16 61.4633 1506.97 60.4785L1508.43 58.7278L1510.54 58.9467C1516.84 59.6761 1517.58 59.6397 1520.63 58.6184C1527.27 56.3936 1532.11 53.111 1535.53 48.5154C1539.19 43.5551 1540.74 40.4913 1541.21 37.2088L1541.39 35.8958L1539.47 36.5887C1536.09 37.8288 1532.45 38.0841 1527.24 37.4276C1521.87 36.8076 1519.82 36.224 1516.65 34.5462C1512.21 32.1755 1510.13 29.9507 1505.73 22.9843C1500.17 14.1578 1496.13 10.8753 1489.27 9.52578C1488.31 9.34341 1487.22 9.23399 1486.88 9.23399C1486.54 9.27047 1484.99 9.41636 1483.4 9.56225Z" fill="white" fill-opacity="0.12"/>
<path d="M1438.14 25.9752C1437.65 26.2301 1437.62 26.3029 1438.05 26.3029C1438.33 26.3393 1438.67 26.1573 1438.76 25.9752C1438.98 25.5746 1438.98 25.5746 1438.14 25.9752Z" fill="white" fill-opacity="0.12"/>
<path d="M1506.44 68.6857C1506.31 68.9042 1506.28 69.1227 1506.38 69.2319C1506.44 69.3412 1506.59 69.1591 1506.69 68.8314C1506.9 68.2123 1506.72 68.1031 1506.44 68.6857Z" fill="white" fill-opacity="0.12"/>
<path d="M1471.14 97.3539C1471.33 97.4263 1471.7 97.4263 1471.92 97.3539C1472.1 97.2453 1471.95 97.1729 1471.51 97.1729C1471.08 97.1729 1470.92 97.2453 1471.14 97.3539Z" fill="white" fill-opacity="0.12"/>
<path d="M1705.13 50.4236C1701.78 50.7518 1700.26 51.2989 1696.16 53.6697C1690.95 56.6605 1687.75 59.4324 1683.4 64.5751C1679.74 68.9154 1679.27 69.3531 1677.26 70.2284C1675.18 71.1402 1674.74 71.1767 1667.48 71.3226C1660.18 71.432 1659.78 71.505 1657.45 72.4168C1653.94 73.8392 1652.82 74.6052 1651.33 76.5747C1649.72 78.7631 1649.13 80.1126 1647.92 84.4164C1645.44 93.2429 1642.33 98.2761 1638.14 100.136C1636.96 100.683 1634.76 101.486 1633.27 101.923C1630.01 102.835 1630.07 102.945 1634.73 104.878C1636.43 105.571 1639.1 106.884 1640.62 107.796C1645.75 110.786 1646.96 111.078 1656.08 111.224L1664.09 111.37L1666.48 112.683C1669.49 114.361 1673.03 117.461 1674.65 119.868C1676.88 123.151 1681.38 128.366 1683.34 129.898C1685.61 131.685 1688.65 132.853 1690.95 132.853C1693.18 132.853 1698.4 131.649 1700.32 130.664C1701.28 130.19 1702.52 129.096 1703.49 127.892C1705.23 125.704 1707.18 121.364 1707.37 119.139C1707.43 118.336 1707.58 116.877 1707.68 115.893C1707.83 114.58 1707.74 113.668 1707.4 112.683C1706.25 109.546 1702.83 106.592 1700.38 106.628C1698.68 106.628 1696.6 107.796 1695.82 109.145C1694.73 110.969 1694.83 113.814 1695.97 115.163C1696.81 116.184 1697.87 116.804 1698.71 116.804C1699.61 116.804 1700.69 115.09 1700.69 113.704C1700.69 112.647 1700.85 112.355 1701.47 112.063C1704.2 110.859 1705.97 115.346 1703.92 118.263C1700.57 122.932 1693.09 121.364 1691.1 115.564C1690.54 114.032 1690.42 113.011 1690.51 111.188C1690.6 108.853 1690.57 108.78 1689.73 108.379C1688.71 107.869 1685.76 104.221 1684.74 102.106C1683.84 100.282 1682.56 96.1242 1682.07 93.3158C1681.82 91.8569 1681.82 90.3615 1682.04 87.9178C1682.28 85.1094 1682.56 84.0152 1683.62 81.608C1685.23 77.8148 1687.81 74.4228 1690.08 73.0733C1691.07 72.4897 1692.28 71.7603 1692.81 71.432C1693.34 71.1038 1694.86 70.5202 1696.19 70.119C1706.75 66.9458 1714.94 74.4593 1713.42 85.8753C1712.71 91.3827 1709.97 94.8477 1705.41 95.9783C1701.47 96.9631 1698.95 96.1242 1697.15 93.2064C1694.27 88.5014 1695.07 83.2857 1699.14 80.4044C1701.44 78.7996 1703.61 78.836 1704.57 80.5867C1705.29 81.8268 1704.88 82.7751 1703.33 83.6505C1701.69 84.5623 1700.6 85.8024 1700.07 87.2978C1699.26 89.5226 1701 91.9298 1703.58 92.2581C1705.13 92.4769 1707.15 91.4922 1707.89 90.1062C1708.48 89.0485 1709.17 83.2857 1708.89 81.8998C1708.61 80.5138 1707.37 78.0701 1706.53 77.1583C1703.92 74.4228 1698.95 74.4228 1694.3 77.0853C1691.78 78.5443 1688.24 82.921 1687.5 85.4012C1686.13 90.1791 1688.03 98.2032 1691.6 102.908L1693.12 104.914L1694.55 103.747C1695.88 102.689 1697.53 101.887 1699.51 101.34C1700.79 101.012 1704.7 102.142 1706.28 103.309C1708.05 104.622 1709.35 106.227 1710.69 108.78C1712.09 111.37 1712.8 113.595 1712.8 115.163C1712.8 115.929 1712.96 116.44 1713.2 116.44C1713.39 116.44 1714.94 115.637 1716.59 114.653C1719.91 112.683 1721.65 110.969 1725.03 106.227C1726.24 104.513 1727.89 102.325 1728.69 101.34L1730.15 99.5892L1732.26 99.808C1738.57 100.537 1739.31 100.501 1742.35 99.4798C1749 97.2549 1753.84 93.9723 1757.25 89.3767C1760.92 84.4164 1762.47 81.3527 1762.93 78.0701L1763.12 76.7571L1761.2 77.4501C1757.81 78.6901 1754.18 78.9455 1748.97 78.2889C1743.59 77.6689 1741.55 77.0853 1738.38 75.4076C1733.94 73.0368 1731.86 70.812 1727.45 63.8456C1721.9 55.0192 1717.86 51.7366 1711 50.3871C1710.04 50.2047 1708.95 50.0953 1708.61 50.0953C1708.27 50.1318 1706.72 50.2777 1705.13 50.4236Z" fill="white" fill-opacity="0.12"/>
<path d="M1659.87 66.8365C1659.37 67.0914 1659.34 67.1643 1659.78 67.1643C1660.06 67.2007 1660.4 67.0186 1660.49 66.8365C1660.71 66.436 1660.71 66.436 1659.87 66.8365Z" fill="white" fill-opacity="0.12"/>
<path d="M1728.17 109.548C1728.04 109.766 1728.01 109.985 1728.1 110.094C1728.17 110.203 1728.32 110.021 1728.41 109.694C1728.63 109.075 1728.45 108.965 1728.17 109.548Z" fill="white" fill-opacity="0.12"/>
<path d="M1692.87 138.215C1693.06 138.288 1693.43 138.288 1693.65 138.215C1693.83 138.107 1693.68 138.034 1693.24 138.034C1692.81 138.034 1692.65 138.107 1692.87 138.215Z" fill="white" fill-opacity="0.12"/>
<path d="M1271.28 38.78C1267.93 39.1083 1266.41 39.6554 1262.31 42.0261C1257.1 45.0169 1253.9 47.7889 1249.55 52.9315C1245.89 57.2718 1245.42 57.7095 1243.41 58.5849C1241.33 59.4967 1240.89 59.5332 1233.63 59.679C1226.33 59.7885 1225.93 59.8614 1223.6 60.7732C1220.09 62.1957 1218.98 62.9616 1217.49 64.9312C1215.87 67.1195 1215.28 68.469 1214.07 72.7729C1211.59 81.5993 1208.48 86.6326 1204.29 88.4927C1203.11 89.0398 1200.91 89.8422 1199.42 90.2799C1196.16 91.1917 1196.22 91.3011 1200.88 93.2342C1202.58 93.9272 1205.25 95.2402 1206.78 96.152C1211.9 99.1428 1213.11 99.4346 1222.23 99.5805L1230.24 99.7264L1232.63 101.039C1235.65 102.717 1239.18 105.817 1240.8 108.225C1243.03 111.507 1247.54 116.723 1249.49 118.255C1251.76 120.042 1254.8 121.209 1257.1 121.209C1259.33 121.209 1264.55 120.005 1266.47 119.021C1267.43 118.546 1268.68 117.452 1269.64 116.249C1271.38 114.06 1273.33 109.72 1273.52 107.495C1273.58 106.693 1273.74 105.234 1273.83 104.249C1273.98 102.936 1273.89 102.024 1273.55 101.039C1272.4 97.9027 1268.99 94.9484 1266.53 94.9849C1264.83 94.9849 1262.75 96.152 1261.97 97.5015C1260.88 99.3252 1260.98 102.17 1262.13 103.52C1262.96 104.541 1264.02 105.161 1264.86 105.161C1265.76 105.161 1266.84 103.447 1266.84 102.061C1266.84 101.003 1267 100.711 1267.62 100.419C1270.35 99.2158 1272.12 103.702 1270.07 106.62C1266.72 111.288 1259.24 109.72 1257.25 103.921C1256.69 102.389 1256.57 101.368 1256.66 99.544C1256.76 97.2098 1256.72 97.1368 1255.89 96.7356C1254.86 96.225 1251.91 92.5777 1250.89 90.4623C1249.99 88.6386 1248.72 84.4807 1248.22 81.6723C1247.97 80.2133 1247.97 78.7179 1248.19 76.2743C1248.44 73.4658 1248.72 72.3716 1249.77 69.9644C1251.38 66.1712 1253.96 62.7793 1256.23 61.4298C1257.22 60.8462 1258.43 60.1167 1258.96 59.7885C1259.49 59.4602 1261.01 58.8766 1262.34 58.4754C1272.9 55.3023 1281.09 62.8157 1279.57 74.2318C1278.86 79.7392 1276.13 83.2041 1271.56 84.3348C1267.62 85.3196 1265.11 84.4807 1263.31 81.5628C1260.42 76.8578 1261.23 71.6422 1265.29 68.7608C1267.59 67.156 1269.76 67.1925 1270.72 68.9432C1271.44 70.1833 1271.04 71.1316 1269.48 72.0069C1267.84 72.9187 1266.75 74.1588 1266.22 75.6542C1265.42 77.8791 1267.15 80.2863 1269.73 80.6145C1271.28 80.8334 1273.3 79.8486 1274.05 78.4626C1274.64 77.4049 1275.32 71.6422 1275.04 70.2562C1274.76 68.8702 1273.52 66.4266 1272.68 65.5147C1270.07 62.7793 1265.11 62.7793 1260.45 65.4418C1257.93 66.9007 1254.4 71.2775 1253.65 73.7576C1252.29 78.5356 1254.18 86.5596 1257.75 91.2647L1259.27 93.2707L1260.7 92.1035C1262.03 91.0458 1263.68 90.2434 1265.66 89.6963C1266.94 89.3681 1270.85 90.4987 1272.43 91.6659C1274.2 92.9789 1275.51 94.5837 1276.84 97.1368C1278.24 99.7264 1278.95 101.951 1278.95 103.52C1278.95 104.286 1279.11 104.796 1279.35 104.796C1279.54 104.796 1281.09 103.994 1282.74 103.009C1286.06 101.039 1287.8 99.3252 1291.18 94.5837C1292.39 92.8695 1294.04 90.6811 1294.85 89.6963L1296.3 87.9456L1298.42 88.1645C1304.72 88.8939 1305.46 88.8574 1308.5 87.8362C1315.15 85.6113 1319.99 82.3288 1323.41 77.7332C1327.07 72.7729 1328.62 69.7091 1329.09 66.4266L1329.27 65.1135L1327.35 65.8065C1323.96 67.0466 1320.33 67.3019 1315.12 66.6454C1309.75 66.0253 1307.7 65.4418 1304.53 63.764C1300.09 61.3933 1298.01 59.1684 1293.6 52.2021C1288.05 43.3756 1284.01 40.0931 1277.15 38.7436C1276.19 38.5612 1275.1 38.4518 1274.76 38.4518C1274.42 38.4882 1272.87 38.6341 1271.28 38.78Z" fill="white" fill-opacity="0.12"/>
<path d="M1226.02 55.193C1225.53 55.4479 1225.49 55.5207 1225.93 55.5207C1226.21 55.5571 1226.55 55.375 1226.64 55.193C1226.86 54.7924 1226.86 54.7924 1226.02 55.193Z" fill="white" fill-opacity="0.12"/>
<path d="M1294.32 97.9015C1294.19 98.12 1294.16 98.3385 1294.26 98.4477C1294.32 98.557 1294.47 98.3749 1294.57 98.0472C1294.78 97.4281 1294.6 97.3189 1294.32 97.9015Z" fill="white" fill-opacity="0.12"/>
<path d="M1259.02 126.571C1259.21 126.643 1259.58 126.643 1259.8 126.571C1259.98 126.462 1259.83 126.39 1259.39 126.39C1258.96 126.39 1258.8 126.462 1259.02 126.571Z" fill="white" fill-opacity="0.12"/>
<path d="M1270.07 175.787C1266.72 176.115 1265.2 176.662 1261.1 179.033C1255.88 182.024 1252.69 184.796 1248.34 189.938C1244.68 194.279 1244.21 194.716 1242.19 195.592C1240.11 196.504 1239.68 196.54 1232.42 196.686C1225.12 196.795 1224.72 196.868 1222.39 197.78C1218.88 199.203 1217.76 199.968 1216.27 201.938C1214.66 204.126 1214.07 205.476 1212.86 209.78C1210.38 218.606 1207.27 223.639 1203.08 225.5C1201.9 226.047 1199.7 226.849 1198.21 227.287C1194.95 228.199 1195.01 228.308 1199.67 230.241C1201.37 230.934 1204.04 232.247 1205.56 233.159C1210.69 236.15 1211.9 236.441 1221.02 236.587L1229.03 236.733L1231.42 238.046C1234.43 239.724 1237.97 242.824 1239.59 245.231C1241.82 248.514 1246.32 253.73 1248.28 255.262C1250.55 257.049 1253.59 258.216 1255.88 258.216C1258.12 258.216 1263.34 257.012 1265.26 256.027C1266.22 255.553 1267.46 254.459 1268.43 253.255C1270.16 251.067 1272.12 246.727 1272.31 244.502C1272.37 243.7 1272.52 242.241 1272.62 241.256C1272.77 239.943 1272.68 239.031 1272.34 238.046C1271.19 234.91 1267.77 231.955 1265.32 231.992C1263.61 231.992 1261.53 233.159 1260.76 234.508C1259.67 236.332 1259.77 239.177 1260.91 240.526C1261.75 241.548 1262.81 242.168 1263.65 242.168C1264.55 242.168 1265.63 240.453 1265.63 239.067C1265.63 238.01 1265.79 237.718 1266.41 237.426C1269.14 236.223 1270.91 240.709 1268.86 243.627C1265.51 248.295 1258.03 246.727 1256.04 240.928C1255.48 239.396 1255.36 238.375 1255.45 236.551C1255.54 234.217 1255.51 234.144 1254.67 233.742C1253.65 233.232 1250.7 229.585 1249.68 227.469C1248.78 225.645 1247.5 221.488 1247.01 218.679C1246.76 217.22 1246.76 215.725 1246.98 213.281C1247.22 210.473 1247.5 209.378 1248.56 206.971C1250.17 203.178 1252.75 199.786 1255.02 198.437C1256.01 197.853 1257.22 197.124 1257.75 196.795C1258.28 196.467 1259.8 195.883 1261.13 195.482C1271.69 192.309 1279.88 199.823 1278.36 211.239C1277.65 216.746 1274.91 220.211 1270.35 221.342C1266.41 222.326 1263.89 221.488 1262.09 218.57C1259.21 213.865 1260.01 208.649 1264.08 205.768C1266.38 204.163 1268.55 204.199 1269.51 205.95C1270.23 207.19 1269.82 208.138 1268.27 209.014C1266.63 209.926 1265.54 211.166 1265.01 212.661C1264.2 214.886 1265.94 217.293 1268.52 217.621C1270.07 217.84 1272.09 216.855 1272.83 215.469C1273.42 214.412 1274.11 208.649 1273.83 207.263C1273.55 205.877 1272.31 203.433 1271.47 202.522C1268.86 199.786 1263.89 199.786 1259.24 202.449C1256.72 203.908 1253.18 208.284 1252.44 210.764C1251.07 215.542 1252.97 223.566 1256.54 228.271L1258.06 230.278L1259.49 229.11C1260.82 228.053 1262.47 227.25 1264.45 226.703C1265.73 226.375 1269.64 227.506 1271.22 228.673C1272.99 229.986 1274.29 231.591 1275.63 234.144C1277.03 236.733 1277.74 238.958 1277.74 240.526C1277.74 241.292 1277.89 241.803 1278.14 241.803C1278.33 241.803 1279.88 241.001 1281.53 240.016C1284.85 238.046 1286.59 236.332 1289.97 231.591C1291.18 229.876 1292.83 227.688 1293.63 226.703L1295.09 224.952L1297.2 225.171C1303.51 225.901 1304.25 225.864 1307.29 224.843C1313.94 222.618 1318.78 219.336 1322.19 214.74C1325.86 209.78 1327.41 206.716 1327.87 203.433L1328.06 202.12L1326.14 202.813C1322.75 204.053 1319.12 204.309 1313.9 203.652C1308.53 203.032 1306.49 202.449 1303.32 200.771C1298.88 198.4 1296.8 196.175 1292.39 189.209C1286.83 180.382 1282.8 177.1 1275.94 175.75C1274.98 175.568 1273.89 175.459 1273.55 175.459C1273.21 175.495 1271.65 175.641 1270.07 175.787Z" fill="white" fill-opacity="0.12"/>
<path d="M1224.81 192.201C1224.31 192.456 1224.28 192.529 1224.72 192.529C1225 192.565 1225.34 192.383 1225.43 192.201C1225.65 191.8 1225.65 191.8 1224.81 192.201Z" fill="white" fill-opacity="0.12"/>
<path d="M1293.11 234.911C1292.98 235.13 1292.95 235.348 1293.04 235.457C1293.11 235.567 1293.26 235.385 1293.35 235.057C1293.57 234.438 1293.39 234.329 1293.11 234.911Z" fill="white" fill-opacity="0.12"/>
<path d="M1257.81 263.579C1258 263.651 1258.37 263.651 1258.58 263.579C1258.77 263.47 1258.62 263.398 1258.18 263.398C1257.75 263.398 1257.59 263.47 1257.81 263.579Z" fill="white" fill-opacity="0.12"/>
<path d="M1064.01 0.328853C1060.66 0.65711 1059.14 1.2042 1055.04 3.57495C1049.82 6.56573 1046.63 9.33768 1042.28 14.4804C1038.62 18.8207 1038.15 19.2583 1036.13 20.1337C1034.05 21.0455 1033.62 21.082 1026.36 21.2279C1019.06 21.3373 1018.66 21.4102 1016.33 22.3221C1012.82 23.7445 1011.7 24.5104 1010.21 26.48C1008.6 28.6684 1008.01 30.0179 1006.8 34.3217C1004.31 43.1481 1001.21 48.1814 997.019 50.0415C995.839 50.5886 993.635 51.391 992.145 51.8287C988.886 52.7405 988.948 52.85 993.604 54.783C995.312 55.476 997.981 56.789 999.503 57.7009C1004.62 60.6917 1005.84 60.9834 1014.96 61.1293L1022.97 61.2752L1025.36 62.5882C1028.37 64.266 1031.91 67.3662 1033.53 69.7734C1035.76 73.056 1040.26 78.2716 1042.22 79.8035C1044.48 81.5907 1047.53 82.7578 1049.82 82.7578C1052.06 82.7578 1057.27 81.5542 1059.2 80.5694C1060.16 80.0953 1061.4 79.0011 1062.37 77.7975C1064.1 75.6091 1066.06 71.2688 1066.25 69.044C1066.31 68.2416 1066.46 66.7826 1066.56 65.7979C1066.71 64.4848 1066.62 63.573 1066.28 62.5882C1065.13 59.4516 1061.71 56.4973 1059.26 56.5337C1057.55 56.5337 1055.47 57.7009 1054.7 59.0504C1053.61 60.874 1053.7 63.7189 1054.85 65.0684C1055.69 66.0897 1056.75 66.7097 1057.58 66.7097C1058.49 66.7097 1059.57 64.9955 1059.57 63.6095C1059.57 62.5518 1059.73 62.26 1060.35 61.9682C1063.08 60.7646 1064.85 65.2508 1062.8 68.1686C1059.45 72.8372 1051.97 71.2688 1049.98 65.4696C1049.42 63.9377 1049.3 62.9165 1049.39 61.0929C1049.48 58.7586 1049.45 58.6856 1048.61 58.2844C1047.59 57.7738 1044.64 54.1265 1043.62 52.0111C1042.72 50.1874 1041.44 46.0295 1040.95 43.2211C1040.7 41.7622 1040.7 40.2668 1040.91 37.8231C1041.16 35.0147 1041.44 33.9205 1042.5 31.5133C1044.11 27.7201 1046.69 24.3281 1048.95 22.9786C1049.95 22.395 1051.16 21.6656 1051.69 21.3373C1052.21 21.009 1053.74 20.4255 1055.07 20.0243C1065.63 16.8511 1073.82 24.3646 1072.3 35.7806C1071.59 41.288 1068.85 44.753 1064.29 45.8836C1060.35 46.8684 1057.83 46.0295 1056.03 43.1117C1053.15 38.4067 1053.95 33.191 1058.02 30.3097C1060.32 28.7048 1062.49 28.7413 1063.45 30.492C1064.17 31.7321 1063.76 32.6804 1062.21 33.5557C1060.56 34.4676 1059.48 35.7077 1058.95 37.203C1058.14 39.4279 1059.88 41.8351 1062.46 42.1634C1064.01 42.3822 1066.03 41.3974 1066.77 40.0115C1067.36 38.9538 1068.05 33.191 1067.77 31.805C1067.49 30.4191 1066.25 27.9754 1065.41 27.0636C1062.8 24.3281 1057.83 24.3281 1053.18 26.9906C1050.66 28.4495 1047.12 32.8263 1046.38 35.3065C1045.01 40.0844 1046.91 48.1085 1050.48 52.8135L1052 54.8195L1053.43 53.6524C1054.76 52.5946 1056.41 51.7922 1058.39 51.2451C1059.66 50.9169 1063.58 52.0476 1065.16 53.2147C1066.93 54.5277 1068.23 56.1325 1069.57 58.6856C1070.96 61.2752 1071.68 63.5001 1071.68 65.0684C1071.68 65.8343 1071.83 66.345 1072.08 66.345C1072.27 66.345 1073.82 65.5426 1075.47 64.5578C1078.79 62.5882 1080.53 60.874 1083.91 56.1325C1085.12 54.4183 1086.77 52.2299 1087.57 51.2451L1089.03 49.4944L1091.14 49.7133C1097.44 50.4427 1098.19 50.4063 1101.23 49.385C1107.88 47.1602 1112.72 43.8776 1116.13 39.282C1119.8 34.3217 1121.35 31.2579 1121.81 27.9754L1122 26.6624L1120.08 27.3553C1116.69 28.5954 1113.06 28.8507 1107.84 28.1942C1102.47 27.5742 1100.42 26.9906 1097.26 25.3129C1092.82 22.9421 1090.74 20.7173 1086.33 13.7509C1080.77 4.92445 1076.74 1.64188 1069.88 0.29238C1068.92 0.110015 1067.83 0.000595674 1067.49 0.000595674C1067.15 0.0370687 1065.59 0.182961 1064.01 0.328853Z" fill="white" fill-opacity="0.12"/>
<path d="M1018.75 16.7428C1018.25 16.9977 1018.22 17.0705 1018.66 17.0705C1018.94 17.1069 1019.28 16.9249 1019.37 16.7428C1019.59 16.3422 1019.59 16.3422 1018.75 16.7428Z" fill="white" fill-opacity="0.12"/>
<path d="M1087.05 59.4523C1086.92 59.6708 1086.89 59.8893 1086.98 59.9985C1087.05 60.1078 1087.2 59.9257 1087.29 59.598C1087.51 58.9789 1087.32 58.8697 1087.05 59.4523Z" fill="white" fill-opacity="0.12"/>
<path d="M1051.75 88.1205C1051.93 88.1929 1052.31 88.1929 1052.52 88.1205C1052.71 88.0119 1052.56 87.9395 1052.12 87.9395C1051.69 87.9395 1051.53 88.0119 1051.75 88.1205Z" fill="white" fill-opacity="0.12"/>
<path d="M1036.13 132.02C1032.78 132.349 1031.26 132.896 1027.16 135.266C1021.95 138.257 1018.75 141.029 1014.4 146.172C1010.74 150.512 1010.27 150.95 1008.26 151.825C1006.18 152.737 1005.74 152.773 998.476 152.919C991.181 153.029 990.778 153.102 988.449 154.013C984.941 155.436 983.824 156.202 982.334 158.171C980.72 160.36 980.13 161.709 978.919 166.013C976.436 174.84 973.331 179.873 969.14 181.733C967.961 182.28 965.757 183.082 964.267 183.52C961.007 184.432 961.069 184.541 965.726 186.474C967.433 187.167 970.103 188.48 971.624 189.392C976.746 192.383 977.957 192.675 987.083 192.821L995.093 192.967L997.483 194.28C1000.49 195.957 1004.03 199.058 1005.65 201.465C1007.88 204.747 1012.38 209.963 1014.34 211.495C1016.61 213.282 1019.65 214.449 1021.95 214.449C1024.18 214.449 1029.4 213.246 1031.32 212.261C1032.28 211.787 1033.52 210.693 1034.49 209.489C1036.23 207.301 1038.18 202.96 1038.37 200.735C1038.43 199.933 1038.58 198.474 1038.68 197.489C1038.83 196.176 1038.74 195.264 1038.4 194.28C1037.25 191.143 1033.83 188.189 1031.38 188.225C1029.68 188.225 1027.6 189.392 1026.82 190.742C1025.73 192.565 1025.83 195.41 1026.97 196.76C1027.81 197.781 1028.87 198.401 1029.71 198.401C1030.61 198.401 1031.69 196.687 1031.69 195.301C1031.69 194.243 1031.85 193.951 1032.47 193.66C1035.2 192.456 1036.97 196.942 1034.92 199.86C1031.57 204.529 1024.09 202.96 1022.1 197.161C1021.54 195.629 1021.42 194.608 1021.51 192.784C1021.6 190.45 1021.57 190.377 1020.73 189.976C1019.71 189.465 1016.76 185.818 1015.74 183.702C1014.84 181.879 1013.56 177.721 1013.07 174.912C1012.82 173.454 1012.82 171.958 1013.04 169.514C1013.28 166.706 1013.56 165.612 1014.62 163.205C1016.23 159.411 1018.81 156.019 1021.08 154.67C1022.07 154.086 1023.28 153.357 1023.81 153.029C1024.34 152.7 1025.86 152.117 1027.19 151.716C1037.75 148.543 1045.94 156.056 1044.42 167.472C1043.71 172.979 1040.97 176.444 1036.41 177.575C1032.47 178.56 1029.95 177.721 1028.15 174.803C1025.27 170.098 1026.07 164.882 1030.14 162.001C1032.44 160.396 1034.61 160.433 1035.57 162.183C1036.29 163.424 1035.88 164.372 1034.33 165.247C1032.69 166.159 1031.6 167.399 1031.07 168.894C1030.26 171.119 1032 173.527 1034.58 173.855C1036.13 174.074 1038.15 173.089 1038.89 171.703C1039.48 170.645 1040.17 164.882 1039.89 163.496C1039.61 162.11 1038.37 159.667 1037.53 158.755C1034.92 156.019 1029.95 156.019 1025.3 158.682C1022.78 160.141 1019.24 164.518 1018.5 166.998C1017.13 171.776 1019.03 179.8 1022.6 184.505L1024.12 186.511L1025.55 185.344C1026.88 184.286 1028.53 183.484 1030.51 182.937C1031.79 182.608 1035.7 183.739 1037.28 184.906C1039.05 186.219 1040.35 187.824 1041.69 190.377C1043.09 192.967 1043.8 195.191 1043.8 196.76C1043.8 197.526 1043.96 198.036 1044.2 198.036C1044.39 198.036 1045.94 197.234 1047.59 196.249C1050.91 194.28 1052.65 192.565 1056.03 187.824C1057.24 186.11 1058.89 183.921 1059.69 182.937L1061.15 181.186L1063.26 181.405C1069.57 182.134 1070.31 182.098 1073.35 181.076C1080 178.852 1084.84 175.569 1088.25 170.973C1091.92 166.013 1093.47 162.949 1093.93 159.667L1094.12 158.354L1092.2 159.047C1088.81 160.287 1085.18 160.542 1079.97 159.886C1074.59 159.266 1072.55 158.682 1069.38 157.004C1064.94 154.634 1062.86 152.409 1058.45 145.442C1052.9 136.616 1048.86 133.333 1042 131.984C1041.04 131.801 1039.95 131.692 1039.61 131.692C1039.27 131.728 1037.72 131.874 1036.13 132.02Z" fill="white" fill-opacity="0.12"/>
<path d="M990.87 148.434C990.374 148.689 990.343 148.762 990.777 148.762C991.057 148.798 991.398 148.616 991.491 148.434C991.709 148.034 991.709 148.034 990.87 148.434Z" fill="white" fill-opacity="0.12"/>
<path d="M1059.17 191.145C1059.04 191.363 1059.01 191.582 1059.1 191.691C1059.17 191.8 1059.32 191.618 1059.41 191.29C1059.63 190.671 1059.45 190.562 1059.17 191.145Z" fill="white" fill-opacity="0.12"/>
<path d="M1023.87 219.812C1024.06 219.884 1024.43 219.884 1024.65 219.812C1024.83 219.703 1024.68 219.631 1024.24 219.631C1023.81 219.631 1023.65 219.703 1023.87 219.812Z" fill="white" fill-opacity="0.12"/>
<path d="M1504.01 136.293C1500.66 136.621 1499.14 137.168 1495.04 139.539C1489.82 142.53 1486.63 145.302 1482.28 150.444C1478.62 154.785 1478.15 155.222 1476.13 156.098C1474.05 157.009 1473.62 157.046 1466.36 157.192C1459.06 157.301 1458.66 157.374 1456.33 158.286C1452.82 159.708 1451.7 160.474 1450.21 162.444C1448.6 164.632 1448.01 165.982 1446.8 170.286C1444.31 179.112 1441.21 184.145 1437.02 186.005C1435.84 186.553 1433.64 187.355 1432.15 187.793C1428.89 188.704 1428.95 188.814 1433.6 190.747C1435.31 191.44 1437.98 192.753 1439.5 193.665C1444.62 196.656 1445.84 196.947 1454.96 197.093L1462.97 197.239L1465.36 198.552C1468.37 200.23 1471.91 203.33 1473.53 205.737C1475.76 209.02 1480.26 214.236 1482.22 215.767C1484.48 217.555 1487.53 218.722 1489.82 218.722C1492.06 218.722 1497.27 217.518 1499.2 216.533C1500.16 216.059 1501.4 214.965 1502.37 213.761C1504.1 211.573 1506.06 207.233 1506.25 205.008C1506.31 204.205 1506.46 202.747 1506.56 201.762C1506.71 200.449 1506.62 199.537 1506.28 198.552C1505.13 195.415 1501.71 192.461 1499.26 192.498C1497.55 192.498 1495.47 193.665 1494.7 195.014C1493.61 196.838 1493.7 199.683 1494.85 201.032C1495.69 202.054 1496.75 202.674 1497.58 202.674C1498.49 202.674 1499.57 200.959 1499.57 199.573C1499.57 198.516 1499.73 198.224 1500.35 197.932C1503.08 196.728 1504.85 201.215 1502.8 204.132C1499.45 208.801 1491.97 207.233 1489.98 201.433C1489.42 199.902 1489.3 198.88 1489.39 197.057C1489.48 194.722 1489.45 194.65 1488.61 194.248C1487.59 193.738 1484.64 190.09 1483.62 187.975C1482.72 186.151 1481.44 181.993 1480.95 179.185C1480.7 177.726 1480.7 176.231 1480.91 173.787C1481.16 170.979 1481.44 169.884 1482.5 167.477C1484.11 163.684 1486.69 160.292 1488.95 158.942C1489.95 158.359 1491.16 157.629 1491.69 157.301C1492.21 156.973 1493.74 156.389 1495.07 155.988C1505.63 152.815 1513.82 160.328 1512.3 171.744C1511.59 177.252 1508.85 180.717 1504.29 181.847C1500.35 182.832 1497.83 181.993 1496.03 179.076C1493.15 174.371 1493.95 169.155 1498.02 166.274C1500.32 164.669 1502.49 164.705 1503.45 166.456C1504.17 167.696 1503.76 168.644 1502.21 169.52C1500.57 170.431 1499.48 171.672 1498.95 173.167C1498.14 175.392 1499.88 177.799 1502.46 178.127C1504.01 178.346 1506.03 177.361 1506.77 175.975C1507.36 174.918 1508.05 169.155 1507.77 167.769C1507.49 166.383 1506.25 163.939 1505.41 163.027C1502.8 160.292 1497.83 160.292 1493.18 162.954C1490.66 164.413 1487.12 168.79 1486.38 171.27C1485.01 176.048 1486.91 184.072 1490.48 188.777L1492 190.783L1493.43 189.616C1494.76 188.559 1496.41 187.756 1498.39 187.209C1499.66 186.881 1503.58 188.011 1505.16 189.179C1506.93 190.492 1508.23 192.096 1509.57 194.65C1510.96 197.239 1511.68 199.464 1511.68 201.032C1511.68 201.798 1511.83 202.309 1512.08 202.309C1512.27 202.309 1513.82 201.506 1515.47 200.522C1518.79 198.552 1520.53 196.838 1523.91 192.096C1525.12 190.382 1526.77 188.194 1527.57 187.209L1529.03 185.458L1531.14 185.677C1537.44 186.407 1538.19 186.37 1541.23 185.349C1547.88 183.124 1552.72 179.841 1556.13 175.246C1559.8 170.286 1561.35 167.222 1561.81 163.939L1562 162.626L1560.08 163.319C1556.69 164.559 1553.06 164.815 1547.84 164.158C1542.47 163.538 1540.42 162.954 1537.26 161.277C1532.82 158.906 1530.74 156.681 1526.33 149.715C1520.77 140.888 1516.74 137.606 1509.88 136.256C1508.92 136.074 1507.83 135.964 1507.49 135.964C1507.15 136.001 1505.59 136.147 1504.01 136.293Z" fill="white" fill-opacity="0.12"/>
<path d="M1458.75 152.706C1458.25 152.961 1458.22 153.033 1458.66 153.033C1458.94 153.07 1459.28 152.888 1459.37 152.706C1459.59 152.305 1459.59 152.305 1458.75 152.706Z" fill="white" fill-opacity="0.12"/>
<path d="M1527.05 195.417C1526.92 195.636 1526.89 195.854 1526.98 195.963C1527.05 196.073 1527.2 195.891 1527.29 195.563C1527.51 194.944 1527.32 194.835 1527.05 195.417Z" fill="white" fill-opacity="0.12"/>
<path d="M1491.75 224.084C1491.93 224.157 1492.31 224.157 1492.52 224.084C1492.71 223.976 1492.56 223.903 1492.12 223.903C1491.69 223.903 1491.53 223.976 1491.75 224.084Z" fill="white" fill-opacity="0.12"/>
<path d="M1725.74 177.143C1722.39 177.472 1720.86 178.019 1716.77 180.389C1711.55 183.38 1708.35 186.152 1704.01 191.295C1700.34 195.635 1699.88 196.073 1697.86 196.948C1695.78 197.86 1695.35 197.896 1688.08 198.042C1680.79 198.152 1680.38 198.225 1678.06 199.137C1674.55 200.559 1673.43 201.325 1671.94 203.294C1670.33 205.483 1669.74 206.832 1668.53 211.136C1666.04 219.963 1662.94 224.996 1658.75 226.856C1657.57 227.403 1655.36 228.205 1653.87 228.643C1650.61 229.555 1650.68 229.664 1655.33 231.597C1657.04 232.29 1659.71 233.603 1661.23 234.515C1666.35 237.506 1667.56 237.798 1676.69 237.944L1684.7 238.09L1687.09 239.403C1690.1 241.08 1693.64 244.181 1695.25 246.588C1697.49 249.87 1701.99 255.086 1703.95 256.618C1706.21 258.405 1709.25 259.572 1711.55 259.572C1713.79 259.572 1719 258.369 1720.93 257.384C1721.89 256.91 1723.13 255.816 1724.09 254.612C1725.83 252.424 1727.79 248.083 1727.97 245.858C1728.04 245.056 1728.19 243.597 1728.28 242.612C1728.44 241.299 1728.35 240.387 1728 239.403C1726.86 236.266 1723.44 233.312 1720.99 233.348C1719.28 233.348 1717.2 234.515 1716.43 235.865C1715.34 237.688 1715.43 240.533 1716.58 241.883C1717.42 242.904 1718.47 243.524 1719.31 243.524C1720.21 243.524 1721.3 241.81 1721.3 240.424C1721.3 239.366 1721.45 239.074 1722.08 238.783C1724.81 237.579 1726.58 242.065 1724.53 244.983C1721.17 249.652 1713.69 248.083 1711.71 242.284C1711.15 240.752 1711.02 239.731 1711.12 237.907C1711.21 235.573 1711.18 235.5 1710.34 235.099C1709.32 234.588 1706.37 230.941 1705.34 228.826C1704.44 227.002 1703.17 222.844 1702.67 220.036C1702.42 218.577 1702.42 217.081 1702.64 214.638C1702.89 211.829 1703.17 210.735 1704.23 208.328C1705.84 204.535 1708.42 201.143 1710.68 199.793C1711.68 199.209 1712.89 198.48 1713.41 198.152C1713.94 197.823 1715.46 197.24 1716.8 196.839C1727.35 193.666 1735.55 201.179 1734.03 212.595C1733.31 218.102 1730.58 221.567 1726.02 222.698C1722.08 223.683 1719.56 222.844 1717.76 219.926C1714.87 215.221 1715.68 210.005 1719.75 207.124C1722.04 205.519 1724.22 205.556 1725.18 207.306C1725.89 208.547 1725.49 209.495 1723.94 210.37C1722.29 211.282 1721.21 212.522 1720.68 214.017C1719.87 216.242 1721.61 218.65 1724.19 218.978C1725.74 219.197 1727.76 218.212 1728.5 216.826C1729.09 215.768 1729.77 210.005 1729.49 208.619C1729.22 207.234 1727.97 204.79 1727.14 203.878C1724.53 201.143 1719.56 201.143 1714.9 203.805C1712.39 205.264 1708.85 209.641 1708.11 212.121C1706.74 216.899 1708.63 224.923 1712.2 229.628L1713.72 231.634L1715.15 230.467C1716.49 229.409 1718.13 228.607 1720.12 228.06C1721.39 227.731 1725.3 228.862 1726.89 230.029C1728.66 231.342 1729.96 232.947 1731.29 235.5C1732.69 238.09 1733.41 240.315 1733.41 241.883C1733.41 242.649 1733.56 243.159 1733.81 243.159C1734 243.159 1735.55 242.357 1737.19 241.372C1740.51 239.403 1742.25 237.688 1745.64 232.947C1746.85 231.233 1748.49 229.044 1749.3 228.06L1750.76 226.309L1752.87 226.528C1759.17 227.257 1759.92 227.221 1762.96 226.199C1769.6 223.975 1774.45 220.692 1777.86 216.096C1781.52 211.136 1783.08 208.072 1783.54 204.79L1783.73 203.477L1781.8 204.17C1778.42 205.41 1774.79 205.665 1769.57 205.009C1764.2 204.389 1762.15 203.805 1758.99 202.127C1754.55 199.757 1752.47 197.532 1748.06 190.565C1742.5 181.739 1738.47 178.456 1731.61 177.107C1730.64 176.924 1729.56 176.815 1729.22 176.815C1728.87 176.852 1727.32 176.997 1725.74 177.143Z" fill="white" fill-opacity="0.12"/>
<path d="M1680.48 193.556C1679.98 193.811 1679.95 193.884 1680.38 193.884C1680.66 193.92 1681 193.738 1681.1 193.556C1681.31 193.156 1681.31 193.156 1680.48 193.556Z" fill="white" fill-opacity="0.12"/>
<path d="M1748.77 236.267C1748.65 236.485 1748.62 236.704 1748.71 236.813C1748.77 236.922 1748.93 236.74 1749.02 236.412C1749.24 235.793 1749.05 235.684 1748.77 236.267Z" fill="white" fill-opacity="0.12"/>
<path d="M1713.48 264.935C1713.66 265.007 1714.03 265.007 1714.25 264.935C1714.44 264.826 1714.28 264.754 1713.85 264.754C1713.41 264.754 1713.26 264.826 1713.48 264.935Z" fill="white" fill-opacity="0.12"/>
<path d="M556.405 10.5642C553.052 10.8925 551.531 11.4396 547.433 13.8103C542.218 16.8011 539.02 19.573 534.674 24.7157C531.011 29.056 530.546 29.4937 528.528 30.369C526.448 31.2809 526.013 31.3173 518.749 31.4632C511.454 31.5726 511.05 31.6456 508.722 32.5574C505.214 33.9799 504.097 34.7458 502.607 36.7153C500.992 38.9037 500.402 40.2532 499.192 44.557C496.708 53.3835 493.604 58.4168 489.413 60.2769C488.233 60.824 486.029 61.6264 484.539 62.0641C481.28 62.9759 481.342 63.0853 485.998 65.0184C487.706 65.7114 490.375 67.0244 491.897 67.9362C497.019 70.927 498.229 71.2188 507.356 71.3647L515.365 71.5106L517.756 72.8236C520.767 74.5014 524.306 77.6016 525.92 80.0088C528.155 83.2913 532.657 88.507 534.612 90.0389C536.878 91.826 539.921 92.9932 542.218 92.9932C544.453 92.9932 549.668 91.7896 551.593 90.8048C552.555 90.3306 553.797 89.2364 554.759 88.0328C556.498 85.8445 558.454 81.5042 558.64 79.2793C558.702 78.4769 558.857 77.018 558.95 76.0332C559.106 74.7202 559.012 73.8084 558.671 72.8236C557.522 69.6869 554.108 66.7326 551.655 66.7691C549.948 66.7691 547.868 67.9362 547.092 69.2857C546.005 71.1094 546.098 73.9543 547.247 75.3038C548.085 76.325 549.141 76.945 549.979 76.945C550.879 76.945 551.966 75.2308 551.966 73.8448C551.966 72.7871 552.121 72.4953 552.742 72.2036C555.473 71 557.243 75.4861 555.194 78.404C551.841 83.0725 544.36 81.5042 542.373 75.705C541.814 74.1731 541.69 73.1519 541.783 71.3282C541.876 68.9939 541.845 68.921 541.007 68.5198C539.983 68.0092 537.034 64.3619 536.009 62.2464C535.109 60.4228 533.836 56.2649 533.34 53.4564C533.091 51.9975 533.091 50.5021 533.308 48.0584C533.557 45.25 533.836 44.1558 534.892 41.7486C536.506 37.9554 539.083 34.5634 541.349 33.2139C542.342 32.6304 543.553 31.9009 544.081 31.5726C544.608 31.2444 546.129 30.6608 547.464 30.2596C558.019 27.0865 566.215 34.5999 564.693 46.016C563.979 51.5234 561.248 54.9883 556.684 56.119C552.742 57.1037 550.227 56.2649 548.427 53.347C545.54 48.642 546.347 43.4264 550.413 40.545C552.711 38.9402 554.884 38.9767 555.846 40.7274C556.56 41.9674 556.156 42.9157 554.604 43.7911C552.959 44.7029 551.872 45.943 551.345 47.4384C550.538 49.6633 552.276 52.0705 554.853 52.3987C556.405 52.6176 558.423 51.6328 559.168 50.2468C559.757 49.1891 560.44 43.4264 560.161 42.0404C559.882 40.6544 558.64 38.2107 557.802 37.2989C555.194 34.5634 550.227 34.5634 545.571 37.226C543.056 38.6849 539.517 43.0616 538.772 45.5418C537.406 50.3198 539.3 58.3438 542.87 63.0488L544.391 65.0549L545.819 63.8877C547.154 62.83 548.799 62.0276 550.786 61.4805C552.059 61.1522 555.97 62.2829 557.553 63.45C559.323 64.7631 560.627 66.3679 561.962 68.921C563.359 71.5106 564.073 73.7354 564.073 75.3038C564.073 76.0697 564.228 76.5803 564.476 76.5803C564.662 76.5803 566.215 75.7779 567.86 74.7931C571.181 72.8236 572.92 71.1094 576.304 66.3679C577.514 64.6536 579.16 62.4653 579.967 61.4805L581.426 59.7298L583.537 59.9486C589.839 60.6781 590.584 60.6416 593.626 59.6204C600.269 57.3955 605.112 54.113 608.527 49.5174C612.19 44.557 613.742 41.4933 614.208 38.2107L614.394 36.8977L612.469 37.5907C609.085 38.8308 605.453 39.0861 600.238 38.4296C594.868 37.8095 592.819 37.226 589.652 35.5482C585.213 33.1775 583.133 30.9526 578.725 23.9863C573.168 15.1598 569.133 11.8772 562.272 10.5277C561.31 10.3454 560.223 10.2359 559.882 10.2359C559.54 10.2724 557.988 10.4183 556.405 10.5642Z" fill="white" fill-opacity="0.12"/>
<path d="M511.143 26.9772C510.646 27.2321 510.615 27.3049 511.05 27.3049C511.329 27.3413 511.671 27.1592 511.764 26.9772C511.981 26.5766 511.981 26.5766 511.143 26.9772Z" fill="white" fill-opacity="0.12"/>
<path d="M579.439 69.6877C579.315 69.9061 579.284 70.1246 579.377 70.2339C579.439 70.3431 579.594 70.161 579.687 69.8333C579.905 69.2143 579.719 69.105 579.439 69.6877Z" fill="white" fill-opacity="0.12"/>
<path d="M544.142 98.3559C544.329 98.4283 544.701 98.4283 544.918 98.3559C545.105 98.2473 544.949 98.1749 544.515 98.1749C544.08 98.1749 543.925 98.2473 544.142 98.3559Z" fill="white" fill-opacity="0.12"/>
<path d="M778.132 51.4255C774.779 51.7538 773.258 52.3009 769.161 54.6716C763.945 57.6624 760.748 60.4344 756.402 65.5771C752.739 69.9173 752.273 70.355 750.255 71.2304C748.175 72.1422 747.741 72.1787 740.476 72.3246C733.181 72.434 732.778 72.5069 730.449 73.4187C726.941 74.8412 725.824 75.6071 724.334 77.5767C722.72 79.765 722.13 81.1145 720.919 85.4184C718.436 94.2448 715.331 99.2781 711.14 101.138C709.961 101.685 707.757 102.488 706.267 102.925C703.007 103.837 703.069 103.947 707.726 105.88C709.433 106.573 712.103 107.886 713.624 108.798C718.746 111.788 719.957 112.08 729.083 112.226L737.093 112.372L739.483 113.685C742.494 115.363 746.033 118.463 747.647 120.87C749.883 124.153 754.384 129.368 756.34 130.9C758.606 132.687 761.648 133.854 763.945 133.854C766.18 133.854 771.396 132.651 773.32 131.666C774.283 131.192 775.524 130.098 776.487 128.894C778.225 126.706 780.181 122.365 780.367 120.141C780.429 119.338 780.585 117.879 780.678 116.895C780.833 115.582 780.74 114.67 780.398 113.685C779.25 110.548 775.835 107.594 773.382 107.63C771.675 107.63 769.595 108.798 768.819 110.147C767.733 111.971 767.826 114.816 768.974 116.165C769.812 117.186 770.868 117.806 771.706 117.806C772.606 117.806 773.693 116.092 773.693 114.706C773.693 113.648 773.848 113.357 774.469 113.065C777.201 111.861 778.97 116.347 776.921 119.265C773.569 123.934 766.087 122.365 764.1 116.566C763.542 115.034 763.418 114.013 763.511 112.19C763.604 109.855 763.573 109.782 762.735 109.381C761.71 108.87 758.761 105.223 757.737 103.108C756.836 101.284 755.564 97.1262 755.067 94.3178C754.818 92.8589 754.818 91.3635 755.036 88.9198C755.284 86.1113 755.564 85.0172 756.619 82.6099C758.233 78.8167 760.81 75.4248 763.076 74.0753C764.069 73.4917 765.28 72.7622 765.808 72.434C766.336 72.1057 767.857 71.5222 769.192 71.1209C779.746 67.9478 787.942 75.4612 786.421 86.8773C785.707 92.3847 782.975 95.8496 778.411 96.9803C774.469 97.9651 771.954 97.1262 770.154 94.2084C767.267 89.5033 768.074 84.2877 772.141 81.4063C774.438 79.8015 776.611 79.838 777.573 81.5887C778.287 82.8288 777.884 83.7771 776.332 84.6524C774.686 85.5643 773.6 86.8043 773.072 88.2997C772.265 90.5246 774.003 92.9318 776.58 93.2601C778.132 93.4789 780.15 92.4941 780.895 91.1081C781.485 90.0504 782.168 84.2877 781.888 82.9017C781.609 81.5157 780.367 79.0721 779.529 78.1602C776.921 75.4248 771.954 75.4248 767.298 78.0873C764.783 79.5462 761.244 83.923 760.499 86.4031C759.134 91.1811 761.027 99.2052 764.597 103.91L766.118 105.916L767.546 104.749C768.881 103.691 770.526 102.889 772.513 102.342C773.786 102.014 777.697 103.144 779.281 104.311C781.05 105.624 782.354 107.229 783.689 109.782C785.086 112.372 785.8 114.597 785.8 116.165C785.8 116.931 785.955 117.442 786.203 117.442C786.39 117.442 787.942 116.639 789.587 115.654C792.909 113.685 794.647 111.971 798.031 107.229C799.242 105.515 800.887 103.327 801.694 102.342L803.153 100.591L805.264 100.81C811.566 101.539 812.311 101.503 815.353 100.482C821.996 98.2569 826.839 94.9743 830.254 90.3787C833.917 85.4184 835.469 82.3546 835.935 79.0721L836.121 77.759L834.197 78.452C830.813 79.6921 827.181 79.9474 821.965 79.2909C816.595 78.6709 814.546 78.0873 811.38 76.4095C806.94 74.0388 804.86 71.8139 800.452 64.8476C794.896 56.0211 790.86 52.7386 783.999 51.3891C783.037 51.2067 781.95 51.0973 781.609 51.0973C781.267 51.1337 779.715 51.2796 778.132 51.4255Z" fill="white" fill-opacity="0.12"/>
<path d="M732.87 67.8385C732.374 68.0934 732.343 68.1662 732.777 68.1662C733.057 68.2026 733.398 68.0206 733.491 67.8385C733.709 67.4379 733.709 67.4379 732.87 67.8385Z" fill="white" fill-opacity="0.12"/>
<path d="M801.166 110.55C801.042 110.768 801.011 110.987 801.104 111.096C801.166 111.205 801.322 111.023 801.415 110.696C801.632 110.077 801.446 109.967 801.166 110.55Z" fill="white" fill-opacity="0.12"/>
<path d="M765.87 139.217C766.056 139.29 766.428 139.29 766.646 139.217C766.832 139.109 766.677 139.036 766.242 139.036C765.807 139.036 765.652 139.109 765.87 139.217Z" fill="white" fill-opacity="0.12"/>
<path d="M344.284 39.781C340.931 40.1093 339.41 40.6564 335.312 43.0271C330.097 46.0179 326.899 48.7898 322.553 53.9325C318.89 58.2728 318.424 58.7105 316.407 59.5858C314.327 60.4977 313.892 60.5341 306.628 60.68C299.333 60.7894 298.929 60.8624 296.601 61.7742C293.093 63.1967 291.975 63.9626 290.485 65.9321C288.871 68.1205 288.281 69.47 287.071 73.7738C284.587 82.6003 281.483 87.6336 277.292 89.4937C276.112 90.0408 273.908 90.8432 272.418 91.2809C269.158 92.1927 269.221 92.3021 273.877 94.2352C275.584 94.9282 278.254 96.2412 279.775 97.153C284.898 100.144 286.108 100.436 295.235 100.581L303.244 100.727L305.635 102.04C308.646 103.718 312.185 106.818 313.799 109.226C316.034 112.508 320.535 117.724 322.491 119.256C324.757 121.043 327.8 122.21 330.097 122.21C332.332 122.21 337.547 121.006 339.472 120.022C340.434 119.547 341.676 118.453 342.638 117.25C344.377 115.061 346.332 110.721 346.519 108.496C346.581 107.694 346.736 106.235 346.829 105.25C346.984 103.937 346.891 103.025 346.55 102.04C345.401 98.9037 341.986 95.9494 339.534 95.9859C337.827 95.9859 335.747 97.153 334.971 98.5025C333.884 100.326 333.977 103.171 335.126 104.521C335.964 105.542 337.019 106.162 337.858 106.162C338.758 106.162 339.844 104.448 339.844 103.062C339.844 102.004 340 101.712 340.62 101.42C343.352 100.217 345.122 104.703 343.073 107.621C339.72 112.289 332.239 110.721 330.252 104.922C329.693 103.39 329.569 102.369 329.662 100.545C329.755 98.2107 329.724 98.1378 328.886 97.7366C327.862 97.226 324.912 93.5787 323.888 91.4632C322.988 89.6396 321.715 85.4817 321.218 82.6732C320.97 81.2143 320.97 79.7189 321.187 77.2752C321.436 74.4668 321.715 73.3726 322.77 70.9654C324.385 67.1722 326.961 63.7802 329.228 62.4307C330.221 61.8472 331.432 61.1177 331.959 60.7894C332.487 60.4612 334.008 59.8776 335.343 59.4764C345.898 56.3033 354.093 63.8167 352.572 75.2327C351.858 80.7402 349.126 84.2051 344.563 85.3358C340.62 86.3205 338.106 85.4817 336.305 82.5638C333.418 77.8588 334.226 72.6432 338.292 69.7618C340.589 68.157 342.762 68.1935 343.725 69.9442C344.439 71.1842 344.035 72.1325 342.483 73.0079C340.838 73.9197 339.751 75.1598 339.223 76.6552C338.416 78.88 340.155 81.2873 342.731 81.6155C344.284 81.8344 346.301 80.8496 347.046 79.4636C347.636 78.4059 348.319 72.6432 348.04 71.2572C347.76 69.8712 346.519 67.4275 345.681 66.5157C343.073 63.7802 338.106 63.7802 333.449 66.4428C330.935 67.9017 327.396 72.2784 326.651 74.7586C325.285 79.5366 327.179 87.5606 330.749 92.2656L332.27 94.2716L333.698 93.1045C335.033 92.0468 336.678 91.2444 338.665 90.6973C339.937 90.369 343.849 91.4997 345.432 92.6668C347.202 93.9799 348.505 95.5847 349.84 98.1378C351.237 100.727 351.951 102.952 351.951 104.521C351.951 105.286 352.107 105.797 352.355 105.797C352.541 105.797 354.093 104.995 355.739 104.01C359.06 102.04 360.799 100.326 364.182 95.5847C365.393 93.8704 367.038 91.6821 367.846 90.6973L369.305 88.9466L371.416 89.1654C377.717 89.8949 378.462 89.8584 381.505 88.8372C388.148 86.6123 392.991 83.3298 396.405 78.7342C400.069 73.7738 401.621 70.7101 402.086 67.4275L402.273 66.1145L400.348 66.8075C396.964 68.0476 393.332 68.3029 388.117 67.6464C382.746 67.0263 380.698 66.4428 377.531 64.765C373.092 62.3943 371.012 60.1694 366.604 53.2031C361.047 44.3766 357.011 41.094 350.151 39.7445C349.188 39.5622 348.102 39.4527 347.76 39.4527C347.419 39.4892 345.867 39.6351 344.284 39.781Z" fill="white" fill-opacity="0.12"/>
<path d="M299.022 56.194C298.525 56.4489 298.494 56.5217 298.929 56.5217C299.208 56.5581 299.55 56.376 299.643 56.194C299.86 55.7934 299.86 55.7934 299.022 56.194Z" fill="white" fill-opacity="0.12"/>
<path d="M367.318 98.9025C367.194 99.121 367.163 99.3395 367.256 99.4487C367.318 99.558 367.473 99.3759 367.566 99.0482C367.784 98.4291 367.597 98.3199 367.318 98.9025Z" fill="white" fill-opacity="0.12"/>
<path d="M332.021 127.572C332.207 127.644 332.58 127.644 332.797 127.572C332.983 127.463 332.828 127.391 332.394 127.391C331.959 127.391 331.804 127.463 332.021 127.572Z" fill="white" fill-opacity="0.12"/>
<path d="M343.072 176.793C339.719 177.121 338.198 177.668 334.1 180.039C328.885 183.03 325.687 185.802 321.341 190.944C317.678 195.285 317.212 195.722 315.195 196.598C313.115 197.509 312.68 197.546 305.416 197.692C298.121 197.801 297.717 197.874 295.389 198.786C291.881 200.208 290.763 200.974 289.273 202.944C287.659 205.132 287.069 206.482 285.859 210.786C283.375 219.612 280.271 224.645 276.08 226.505C274.9 227.053 272.696 227.855 271.206 228.293C267.946 229.204 268.009 229.314 272.665 231.247C274.372 231.94 277.042 233.253 278.563 234.165C283.685 237.156 284.896 237.447 294.023 237.593L302.032 237.739L304.422 239.052C307.434 240.73 310.973 243.83 312.587 246.237C314.822 249.52 319.323 254.736 321.279 256.267C323.545 258.055 326.587 259.222 328.885 259.222C331.12 259.222 336.335 258.018 338.26 257.033C339.222 256.559 340.464 255.465 341.426 254.261C343.165 252.073 345.12 247.733 345.307 245.508C345.369 244.705 345.524 243.247 345.617 242.262C345.772 240.949 345.679 240.037 345.338 239.052C344.189 235.915 340.774 232.961 338.322 232.998C336.615 232.998 334.535 234.165 333.759 235.514C332.672 237.338 332.765 240.183 333.914 241.532C334.752 242.554 335.807 243.174 336.646 243.174C337.546 243.174 338.632 241.459 338.632 240.073C338.632 239.016 338.788 238.724 339.408 238.432C342.14 237.228 343.91 241.715 341.861 244.632C338.508 249.301 331.027 247.733 329.04 241.933C328.481 240.402 328.357 239.38 328.45 237.557C328.543 235.222 328.512 235.15 327.674 234.748C326.65 234.238 323.7 230.59 322.676 228.475C321.776 226.651 320.503 222.493 320.006 219.685C319.758 218.226 319.758 216.731 319.975 214.287C320.224 211.479 320.503 210.384 321.558 207.977C323.173 204.184 325.749 200.792 328.015 199.442C329.009 198.859 330.22 198.129 330.747 197.801C331.275 197.473 332.796 196.889 334.131 196.488C344.686 193.315 352.881 200.828 351.36 212.244C350.646 217.752 347.914 221.217 343.351 222.347C339.408 223.332 336.894 222.493 335.093 219.576C332.206 214.871 333.013 209.655 337.08 206.774C339.377 205.169 341.55 205.205 342.513 206.956C343.227 208.196 342.823 209.144 341.271 210.02C339.626 210.931 338.539 212.172 338.011 213.667C337.204 215.892 338.943 218.299 341.519 218.627C343.072 218.846 345.089 217.861 345.834 216.475C346.424 215.418 347.107 209.655 346.828 208.269C346.548 206.883 345.307 204.439 344.468 203.527C341.861 200.792 336.894 200.792 332.237 203.454C329.723 204.913 326.184 209.29 325.439 211.77C324.073 216.548 325.967 224.572 329.537 229.277L331.058 231.283L332.486 230.116C333.821 229.059 335.466 228.256 337.453 227.709C338.725 227.381 342.637 228.511 344.22 229.679C345.99 230.992 347.293 232.596 348.628 235.15C350.025 237.739 350.739 239.964 350.739 241.532C350.739 242.298 350.894 242.809 351.143 242.809C351.329 242.809 352.881 242.006 354.527 241.022C357.848 239.052 359.587 237.338 362.97 232.596C364.181 230.882 365.826 228.694 366.634 227.709L368.093 225.958L370.203 226.177C376.505 226.907 377.25 226.87 380.293 225.849C386.936 223.624 391.779 220.341 395.193 215.746C398.857 210.786 400.409 207.722 400.874 204.439L401.061 203.126L399.136 203.819C395.752 205.059 392.12 205.315 386.905 204.658C381.534 204.038 379.485 203.454 376.319 201.777C371.88 199.406 369.8 197.181 365.392 190.215C359.835 181.388 355.799 178.106 348.939 176.756C347.976 176.574 346.89 176.464 346.548 176.464C346.207 176.501 344.655 176.647 343.072 176.793Z" fill="white" fill-opacity="0.12"/>
<path d="M297.81 193.207C297.313 193.462 297.282 193.534 297.717 193.534C297.996 193.571 298.337 193.389 298.431 193.207C298.648 192.806 298.648 192.806 297.81 193.207Z" fill="white" fill-opacity="0.12"/>
<path d="M366.106 235.917C365.982 236.136 365.951 236.354 366.044 236.463C366.106 236.573 366.261 236.391 366.354 236.063C366.571 235.444 366.385 235.335 366.106 235.917Z" fill="white" fill-opacity="0.12"/>
<path d="M330.809 264.584C330.995 264.657 331.368 264.657 331.585 264.584C331.771 264.476 331.616 264.403 331.181 264.403C330.747 264.403 330.592 264.476 330.809 264.584Z" fill="white" fill-opacity="0.12"/>
<path d="M137.011 1.32983C133.658 1.65809 132.137 2.20518 128.039 4.57593C122.824 7.56671 119.626 10.3387 115.28 15.4813C111.617 19.8216 111.152 20.2593 109.134 21.1347C107.054 22.0465 106.619 22.083 99.3551 22.2289C92.0599 22.3383 91.6564 22.4112 89.3281 23.323C85.8202 24.7455 84.7026 25.5114 83.2126 27.481C81.5983 29.6693 81.0085 31.0188 79.7978 35.3227C77.3143 44.1491 74.21 49.1824 70.0191 51.0425C68.8394 51.5896 66.6354 52.392 65.1453 52.8297C61.8857 53.7415 61.9478 53.8509 66.6043 55.784C68.3117 56.477 70.9814 57.79 72.5026 58.7018C77.6247 61.6926 78.8354 61.9844 87.9622 62.1303L95.9714 62.2762L98.3617 63.5892C101.373 65.267 104.912 68.3672 106.526 70.7744C108.761 74.057 113.263 79.2726 115.218 80.8045C117.484 82.5917 120.527 83.7588 122.824 83.7588C125.059 83.7588 130.274 82.5552 132.199 81.5704C133.161 81.0963 134.403 80.0021 135.366 78.7985C137.104 76.6101 139.06 72.2698 139.246 70.0449C139.308 69.2425 139.463 67.7836 139.556 66.7988C139.712 65.4858 139.618 64.574 139.277 63.5892C138.128 60.4525 134.714 57.4982 132.261 57.5347C130.554 57.5347 128.474 58.7018 127.698 60.0513C126.611 61.875 126.704 64.7199 127.853 66.0694C128.691 67.0906 129.747 67.7107 130.585 67.7107C131.485 67.7107 132.572 65.9964 132.572 64.6105C132.572 63.5528 132.727 63.261 133.348 62.9692C136.08 61.7656 137.849 66.2518 135.8 69.1696C132.447 73.8381 124.966 72.2698 122.979 66.4706C122.42 64.9387 122.296 63.9175 122.389 62.0938C122.482 59.7596 122.451 59.6866 121.613 59.2854C120.589 58.7748 117.64 55.1275 116.615 53.0121C115.715 51.1884 114.442 47.0305 113.946 44.2221C113.697 42.7631 113.697 41.2678 113.915 38.8241C114.163 36.0156 114.442 34.9215 115.498 32.5142C117.112 28.721 119.689 25.3291 121.955 23.9796C122.948 23.396 124.159 22.6665 124.687 22.3383C125.214 22.01 126.735 21.4264 128.07 21.0252C138.625 17.8521 146.821 25.3655 145.299 36.7816C144.585 42.289 141.854 45.7539 137.29 46.8846C133.348 47.8694 130.833 47.0305 129.033 44.1126C126.146 39.4076 126.953 34.192 131.019 31.3106C133.317 29.7058 135.49 29.7423 136.452 31.493C137.166 32.7331 136.762 33.6814 135.21 34.5567C133.565 35.4685 132.478 36.7086 131.951 38.204C131.144 40.4289 132.882 42.8361 135.459 43.1643C137.011 43.3832 139.029 42.3984 139.774 41.0124C140.364 39.9547 141.046 34.192 140.767 32.806C140.488 31.42 139.246 28.9764 138.408 28.0645C135.8 25.3291 130.833 25.3291 126.177 27.9916C123.662 29.4505 120.123 33.8273 119.378 36.3074C118.012 41.0854 119.906 49.1094 123.476 53.8145L124.997 55.8205L126.425 54.6533C127.76 53.5956 129.405 52.7932 131.392 52.2461C132.665 51.9179 136.576 53.0485 138.159 54.2157C139.929 55.5287 141.233 57.1335 142.568 59.6866C143.965 62.2762 144.679 64.501 144.679 66.0694C144.679 66.8353 144.834 67.3459 145.082 67.3459C145.268 67.3459 146.821 66.5435 148.466 65.5588C151.787 63.5892 153.526 61.875 156.91 57.1335C158.12 55.4193 159.766 53.2309 160.573 52.2461L162.032 50.4954L164.143 50.7143C170.445 51.4437 171.19 51.4072 174.232 50.386C180.875 48.1611 185.718 44.8786 189.133 40.283C192.796 35.3227 194.348 32.2589 194.814 28.9764L195 27.6633L193.075 28.3563C189.692 29.5964 186.059 29.8517 180.844 29.1952C175.474 28.5752 173.425 27.9916 170.258 26.3138C165.819 23.9431 163.739 21.7182 159.331 14.7519C153.774 5.92543 149.739 2.64286 142.878 1.29336C141.916 1.11099 140.829 1.00157 140.488 1.00157C140.146 1.03805 138.594 1.18394 137.011 1.32983Z" fill="white" fill-opacity="0.12"/>
<path d="M91.7492 17.7438C91.2525 17.9987 91.2214 18.0715 91.656 18.0715C91.9354 18.1079 92.2769 17.9258 92.37 17.7438C92.5873 17.3432 92.5873 17.3432 91.7492 17.7438Z" fill="white" fill-opacity="0.12"/>
<path d="M160.045 60.4533C159.921 60.6718 159.89 60.8902 159.983 60.9995C160.045 61.1087 160.2 60.9267 160.294 60.5989C160.511 59.9799 160.325 59.8707 160.045 60.4533Z" fill="white" fill-opacity="0.12"/>
<path d="M124.748 89.1215C124.935 89.1939 125.307 89.1939 125.524 89.1215C125.711 89.0129 125.555 88.9405 125.121 88.9405C124.686 88.9405 124.531 89.0129 124.748 89.1215Z" fill="white" fill-opacity="0.12"/>
<path d="M109.132 133.021C105.779 133.349 104.258 133.897 100.161 136.267C94.9452 139.258 91.7478 142.03 87.4017 147.173C83.7386 151.513 83.2729 151.951 81.2551 152.826C79.1752 153.738 78.7406 153.774 71.4764 153.92C64.1812 154.03 63.7776 154.103 61.4494 155.014C57.9415 156.437 56.8239 157.203 55.3338 159.172C53.7196 161.361 53.1297 162.71 51.9191 167.014C49.4356 175.841 46.3312 180.874 42.1404 182.734C40.9607 183.281 38.7566 184.083 37.2666 184.521C34.007 185.433 34.0691 185.542 38.7256 187.475C40.433 188.168 43.1027 189.481 44.6238 190.393C49.746 193.384 50.9567 193.676 60.0835 193.822L68.0927 193.968L70.483 195.281C73.4942 196.958 77.0332 200.059 78.6474 202.466C80.8826 205.748 85.3839 210.964 87.3396 212.496C89.6058 214.283 92.648 215.45 94.9452 215.45C97.1804 215.45 102.396 214.247 104.32 213.262C105.283 212.788 106.524 211.693 107.487 210.49C109.225 208.301 111.181 203.961 111.367 201.736C111.429 200.934 111.585 199.475 111.678 198.49C111.833 197.177 111.74 196.265 111.398 195.281C110.25 192.144 106.835 189.19 104.382 189.226C102.675 189.226 100.595 190.393 99.8191 191.743C98.7325 193.566 98.8257 196.411 99.9743 197.761C100.812 198.782 101.868 199.402 102.706 199.402C103.606 199.402 104.693 197.688 104.693 196.302C104.693 195.244 104.848 194.952 105.469 194.661C108.201 193.457 109.97 197.943 107.921 200.861C104.569 205.53 97.0872 203.961 95.1005 198.162C94.5417 196.63 94.4175 195.609 94.5106 193.785C94.6038 191.451 94.5727 191.378 93.7346 190.977C92.7101 190.466 89.761 186.819 88.7366 184.703C87.8363 182.88 86.5635 178.722 86.0668 175.913C85.8185 174.455 85.8185 172.959 86.0358 170.515C86.2841 167.707 86.5635 166.613 87.619 164.206C89.2333 160.412 91.8099 157.02 94.076 155.671C95.0694 155.087 96.2801 154.358 96.8078 154.03C97.3356 153.701 98.8567 153.118 100.192 152.717C110.746 149.544 118.942 157.057 117.421 168.473C116.707 173.98 113.975 177.445 109.411 178.576C105.469 179.561 102.954 178.722 101.154 175.804C98.2669 171.099 99.074 165.883 103.141 163.002C105.438 161.397 107.611 161.434 108.573 163.184C109.287 164.424 108.884 165.373 107.332 166.248C105.686 167.16 104.6 168.4 104.072 169.895C103.265 172.12 105.003 174.527 107.58 174.856C109.132 175.075 111.15 174.09 111.895 172.704C112.485 171.646 113.168 165.883 112.888 164.497C112.609 163.111 111.367 160.668 110.529 159.756C107.921 157.02 102.954 157.02 98.2979 159.683C95.7834 161.142 92.2445 165.519 91.4994 167.999C90.1335 172.777 92.0272 180.801 95.5972 185.506L97.1183 187.512L98.5463 186.345C99.8811 185.287 101.526 184.485 103.513 183.938C104.786 183.609 108.697 184.74 110.281 185.907C112.05 187.22 113.354 188.825 114.689 191.378C116.086 193.968 116.8 196.192 116.8 197.761C116.8 198.527 116.955 199.037 117.203 199.037C117.39 199.037 118.942 198.235 120.587 197.25C123.909 195.281 125.647 193.566 129.031 188.825C130.242 187.111 131.887 184.922 132.694 183.938L134.153 182.187L136.264 182.406C142.566 183.135 143.311 183.099 146.353 182.077C152.996 179.853 157.839 176.57 161.254 171.974C164.917 167.014 166.469 163.95 166.935 160.668L167.121 159.355L165.197 160.048C161.813 161.288 158.181 161.543 152.965 160.887C147.595 160.267 145.546 159.683 142.38 158.005C137.94 155.634 135.86 153.41 131.452 146.443C125.896 137.617 121.86 134.334 114.999 132.985C114.037 132.802 112.95 132.693 112.609 132.693C112.267 132.729 110.715 132.875 109.132 133.021Z" fill="white" fill-opacity="0.12"/>
<path d="M63.8704 149.435C63.3737 149.69 63.3426 149.763 63.7772 149.763C64.0566 149.799 64.3981 149.617 64.4912 149.435C64.7086 149.035 64.7086 149.035 63.8704 149.435Z" fill="white" fill-opacity="0.12"/>
<path d="M132.166 192.146C132.042 192.364 132.011 192.583 132.104 192.692C132.166 192.801 132.322 192.619 132.415 192.291C132.632 191.672 132.446 191.563 132.166 192.146Z" fill="white" fill-opacity="0.12"/>
<path d="M96.8696 220.813C97.0558 220.885 97.4283 220.885 97.6456 220.813C97.8319 220.704 97.6767 220.632 97.2421 220.632C96.8075 220.632 96.6522 220.704 96.8696 220.813Z" fill="white" fill-opacity="0.12"/>
<path d="M577.011 137.294C573.658 137.622 572.137 138.169 568.039 140.54C562.824 143.531 559.627 146.303 555.28 151.445C551.617 155.786 551.152 156.223 549.134 157.099C547.054 158.01 546.619 158.047 539.355 158.193C532.06 158.302 531.656 158.375 529.328 159.287C525.82 160.709 524.703 161.475 523.213 163.445C521.598 165.633 521.008 166.983 519.798 171.287C517.314 180.113 514.21 185.146 510.019 187.006C508.839 187.553 506.635 188.356 505.145 188.794C501.886 189.705 501.948 189.815 506.604 191.748C508.312 192.441 510.981 193.754 512.503 194.666C517.625 197.656 518.835 197.948 527.962 198.094L535.971 198.24L538.362 199.553C541.373 201.231 544.912 204.331 546.526 206.738C548.761 210.021 553.263 215.236 555.218 216.768C557.485 218.556 560.527 219.723 562.824 219.723C565.059 219.723 570.274 218.519 572.199 217.534C573.161 217.06 574.403 215.966 575.366 214.762C577.104 212.574 579.06 208.234 579.246 206.009C579.308 205.206 579.463 203.747 579.556 202.763C579.712 201.45 579.618 200.538 579.277 199.553C578.128 196.416 574.714 193.462 572.261 193.499C570.554 193.499 568.474 194.666 567.698 196.015C566.611 197.839 566.704 200.684 567.853 202.033C568.691 203.054 569.747 203.675 570.585 203.675C571.485 203.675 572.572 201.96 572.572 200.574C572.572 199.517 572.727 199.225 573.348 198.933C576.08 197.729 577.849 202.216 575.8 205.133C572.447 209.802 564.966 208.234 562.979 202.434C562.42 200.903 562.296 199.881 562.389 198.058C562.483 195.723 562.451 195.65 561.613 195.249C560.589 194.739 557.64 191.091 556.615 188.976C555.715 187.152 554.442 182.994 553.946 180.186C553.697 178.727 553.697 177.232 553.915 174.788C554.163 171.98 554.442 170.885 555.498 168.478C557.112 164.685 559.689 161.293 561.955 159.943C562.948 159.36 564.159 158.63 564.687 158.302C565.214 157.974 566.735 157.39 568.07 156.989C578.625 153.816 586.821 161.329 585.299 172.745C584.585 178.253 581.854 181.718 577.29 182.848C573.348 183.833 570.833 182.994 569.033 180.077C566.146 175.371 566.953 170.156 571.019 167.274C573.317 165.67 575.49 165.706 576.452 167.457C577.166 168.697 576.762 169.645 575.21 170.521C573.565 171.432 572.479 172.672 571.951 174.168C571.144 176.393 572.882 178.8 575.459 179.128C577.011 179.347 579.029 178.362 579.774 176.976C580.364 175.919 581.046 170.156 580.767 168.77C580.488 167.384 579.246 164.94 578.408 164.028C575.8 161.293 570.833 161.293 566.177 163.955C563.662 165.414 560.123 169.791 559.378 172.271C558.012 177.049 559.906 185.073 563.476 189.778L564.997 191.784L566.425 190.617C567.76 189.559 569.405 188.757 571.392 188.21C572.665 187.882 576.576 189.012 578.159 190.18C579.929 191.493 581.233 193.097 582.568 195.65C583.965 198.24 584.679 200.465 584.679 202.033C584.679 202.799 584.834 203.31 585.082 203.31C585.268 203.31 586.821 202.507 588.466 201.523C591.788 199.553 593.526 197.839 596.91 193.097C598.12 191.383 599.766 189.195 600.573 188.21L602.032 186.459L604.143 186.678C610.445 187.408 611.19 187.371 614.232 186.35C620.875 184.125 625.718 180.842 629.133 176.247C632.796 171.287 634.348 168.223 634.814 164.94L635 163.627L633.075 164.32C629.692 165.56 626.059 165.816 620.844 165.159C615.474 164.539 613.425 163.955 610.258 162.278C605.819 159.907 603.739 157.682 599.331 150.716C593.774 141.889 589.739 138.607 582.878 137.257C581.916 137.075 580.829 136.965 580.488 136.965C580.146 137.002 578.594 137.148 577.011 137.294Z" fill="white" fill-opacity="0.12"/>
<path d="M531.749 153.707C531.252 153.962 531.221 154.034 531.656 154.034C531.935 154.071 532.277 153.889 532.37 153.707C532.587 153.306 532.587 153.306 531.749 153.707Z" fill="white" fill-opacity="0.12"/>
<path d="M600.045 196.418C599.921 196.637 599.89 196.855 599.983 196.964C600.045 197.074 600.2 196.892 600.294 196.564C600.511 195.945 600.325 195.835 600.045 196.418Z" fill="white" fill-opacity="0.12"/>
<path d="M564.748 225.085C564.935 225.158 565.307 225.158 565.524 225.085C565.711 224.977 565.555 224.904 565.121 224.904C564.686 224.904 564.531 224.977 564.748 225.085Z" fill="white" fill-opacity="0.12"/>
<path d="M798.738 178.149C795.385 178.477 793.864 179.025 789.767 181.395C784.551 184.386 781.354 187.158 777.008 192.301C773.345 196.641 772.879 197.079 770.861 197.954C768.781 198.866 768.347 198.902 761.082 199.048C753.787 199.158 753.384 199.231 751.055 200.142C747.548 201.565 746.43 202.331 744.94 204.3C743.326 206.489 742.736 207.838 741.525 212.142C739.042 220.968 735.937 226.002 731.746 227.862C730.567 228.409 728.363 229.211 726.873 229.649C723.613 230.561 723.675 230.67 728.332 232.603C730.039 233.296 732.709 234.609 734.23 235.521C739.352 238.512 740.563 238.804 749.69 238.95L757.699 239.096L760.089 240.409C763.1 242.086 766.639 245.187 768.254 247.594C770.489 250.876 774.99 256.092 776.946 257.624C779.212 259.411 782.254 260.578 784.551 260.578C786.786 260.578 792.002 259.375 793.926 258.39C794.889 257.916 796.131 256.821 797.093 255.618C798.831 253.429 800.787 249.089 800.973 246.864C801.035 246.062 801.191 244.603 801.284 243.618C801.439 242.305 801.346 241.393 801.004 240.409C799.856 237.272 796.441 234.318 793.989 234.354C792.281 234.354 790.201 235.521 789.425 236.871C788.339 238.694 788.432 241.539 789.58 242.889C790.419 243.91 791.474 244.53 792.312 244.53C793.212 244.53 794.299 242.816 794.299 241.43C794.299 240.372 794.454 240.08 795.075 239.789C797.807 238.585 799.576 243.071 797.527 245.989C794.175 250.657 786.693 249.089 784.707 243.29C784.148 241.758 784.024 240.737 784.117 238.913C784.21 236.579 784.179 236.506 783.341 236.105C782.316 235.594 779.367 231.947 778.343 229.831C777.442 228.008 776.17 223.85 775.673 221.041C775.425 219.582 775.425 218.087 775.642 215.643C775.89 212.835 776.17 211.741 777.225 209.334C778.839 205.54 781.416 202.148 783.682 200.799C784.675 200.215 785.886 199.486 786.414 199.158C786.942 198.829 788.463 198.246 789.798 197.845C800.352 194.671 808.548 202.185 807.027 213.601C806.313 219.108 803.581 222.573 799.018 223.704C795.075 224.689 792.561 223.85 790.76 220.932C787.873 216.227 788.68 211.011 792.747 208.13C795.044 206.525 797.217 206.562 798.179 208.312C798.893 209.552 798.49 210.501 796.938 211.376C795.292 212.288 794.206 213.528 793.678 215.023C792.871 217.248 794.609 219.655 797.186 219.984C798.738 220.203 800.756 219.218 801.501 217.832C802.091 216.774 802.774 211.011 802.494 209.625C802.215 208.239 800.973 205.796 800.135 204.884C797.527 202.148 792.561 202.148 787.904 204.811C785.389 206.27 781.851 210.647 781.106 213.127C779.74 217.905 781.633 225.929 785.203 230.634L786.724 232.64L788.152 231.473C789.487 230.415 791.133 229.613 793.119 229.065C794.392 228.737 798.304 229.868 799.887 231.035C801.656 232.348 802.96 233.953 804.295 236.506C805.692 239.096 806.406 241.32 806.406 242.889C806.406 243.655 806.561 244.165 806.809 244.165C806.996 244.165 808.548 243.363 810.193 242.378C813.515 240.409 815.253 238.694 818.637 233.953C819.848 232.239 821.493 230.05 822.3 229.065L823.759 227.315L825.87 227.534C832.172 228.263 832.917 228.227 835.959 227.205C842.603 224.98 847.445 221.698 850.86 217.102C854.523 212.142 856.075 209.078 856.541 205.796L856.727 204.483L854.803 205.176C851.419 206.416 847.787 206.671 842.571 206.015C837.201 205.394 835.152 204.811 831.986 203.133C827.546 200.762 825.467 198.538 821.058 191.571C815.502 182.745 811.466 179.462 804.605 178.113C803.643 177.93 802.557 177.821 802.215 177.821C801.874 177.857 800.321 178.003 798.738 178.149Z" fill="white" fill-opacity="0.12"/>
<path d="M753.476 194.562C752.98 194.817 752.949 194.89 753.383 194.89C753.663 194.926 754.004 194.744 754.097 194.562C754.315 194.162 754.315 194.162 753.476 194.562Z" fill="white" fill-opacity="0.12"/>
<path d="M821.773 237.273C821.648 237.491 821.617 237.71 821.71 237.819C821.773 237.928 821.928 237.746 822.021 237.418C822.238 236.799 822.052 236.69 821.773 237.273Z" fill="white" fill-opacity="0.12"/>
<path d="M786.476 265.941C786.662 266.013 787.034 266.013 787.252 265.941C787.438 265.832 787.283 265.76 786.848 265.76C786.414 265.76 786.258 265.832 786.476 265.941Z" fill="white" fill-opacity="0.12"/>
</svg>
