<svg width="76" height="49" viewBox="0 0 76 49" fill="none" xmlns="http://www.w3.org/2000/svg">
<path d="M61.159 0.23037C58.393 0.460869 57.1381 0.845032 53.7574 2.50974C49.4548 4.60982 46.8169 6.55624 43.2314 10.1674C40.2093 13.2151 39.8252 13.5224 38.1604 14.1371C36.4445 14.7773 36.086 14.8029 30.093 14.9054C24.0745 14.9822 23.7416 15.0334 21.8207 15.6737C18.9267 16.6725 18.0047 17.2104 16.7754 18.5933C15.4436 20.13 14.957 21.0776 13.9582 24.0997C11.9094 30.2975 9.34827 33.8318 5.89081 35.1379C4.91759 35.5221 3.09923 36.0855 1.86991 36.3929C-0.819231 37.0331 -0.768009 37.11 3.07362 38.4673C4.48221 38.9539 6.68474 39.8759 7.93967 40.5162C12.1655 42.6163 13.1643 42.8212 20.6939 42.9236L27.3015 43.0261L29.2735 43.9481C31.7577 45.1262 34.6774 47.3031 36.0091 48.9934C37.8531 51.2984 41.5667 54.9607 43.1802 56.0364C45.0498 57.2913 47.5596 58.1108 49.4548 58.1108C51.2988 58.1108 55.6014 57.2657 57.1893 56.5742C57.9832 56.2412 59.0077 55.4729 59.8016 54.6278C61.2358 53.0911 62.8493 50.0434 63.003 48.4812C63.0542 47.9177 63.1822 46.8933 63.2591 46.2018C63.3871 45.2798 63.3103 44.6395 63.0286 43.9481C62.081 41.7455 59.2638 39.671 57.2405 39.6967C55.8319 39.6967 54.116 40.5162 53.4757 41.4638C52.5793 42.7443 52.6562 44.742 53.6038 45.6896C54.2953 46.4067 55.166 46.8421 55.8575 46.8421C56.6002 46.8421 57.4966 45.6384 57.4966 44.6652C57.4966 43.9224 57.6247 43.7176 58.1369 43.5127C60.3906 42.6675 61.8505 45.8176 60.1601 47.8665C57.3942 51.1447 51.222 50.0434 49.5829 45.9713C49.1219 44.8957 49.0194 44.1785 49.0963 42.898C49.1731 41.2589 49.1475 41.2077 48.456 40.926C47.6108 40.5674 45.1778 38.0063 44.3327 36.5209C43.5899 35.2404 42.5399 32.3207 42.1301 30.3487C41.9252 29.3243 41.9252 28.2742 42.1045 26.5583C42.3094 24.5863 42.5399 23.8179 43.4107 22.1276C44.7424 19.4641 46.8681 17.0823 48.7377 16.1347C49.5573 15.7249 50.5561 15.2127 50.9915 14.9822C51.4269 14.7517 52.6818 14.3419 53.7831 14.0602C62.4907 11.8321 69.252 17.1079 67.9971 25.1241C67.408 28.9913 65.1543 31.4244 61.3895 32.2183C58.1369 32.9098 56.0624 32.3207 54.577 30.2719C52.1952 26.9681 52.8611 23.3057 56.2161 21.2825C58.1113 20.1556 59.904 20.1812 60.698 21.4105C61.287 22.2813 60.9541 22.9472 59.6735 23.5618C58.3162 24.2021 57.4198 25.0729 56.9844 26.1229C56.3185 27.6852 57.7527 29.3755 59.8784 29.606C61.159 29.7597 62.8237 29.0682 63.4383 28.095C63.9249 27.3522 64.4884 23.3057 64.2579 22.3325C64.0274 21.3593 63.003 19.6434 62.3115 19.0031C60.1601 17.0823 56.0624 17.0823 52.2208 18.9519C50.1463 19.9763 47.2267 23.0496 46.612 24.7912C45.4851 28.1462 47.0474 33.7806 49.9927 37.0844L51.2476 38.4929L52.4257 37.6734C53.5269 36.9307 54.8843 36.3672 56.5234 35.9831C57.5735 35.7526 60.8004 36.5465 62.1066 37.3661C63.5664 38.2881 64.642 39.4149 65.7433 41.2077C66.8958 43.0261 67.4848 44.5883 67.4848 45.6896C67.4848 46.2274 67.6129 46.586 67.8178 46.586C67.9715 46.586 69.252 46.0225 70.6094 45.331C73.3497 43.9481 74.7839 42.7443 77.5755 39.4149C78.5743 38.2112 79.9317 36.6746 80.5976 35.9831L81.8013 34.7538L83.5428 34.9074C88.7418 35.4196 89.3565 35.394 91.8664 34.6769C97.3471 33.1147 101.342 30.8097 104.16 27.5827C107.182 24.0997 108.462 21.9484 108.846 19.6434L109 18.7214L107.412 19.208C104.621 20.0788 101.624 20.258 97.3215 19.797C92.8908 19.3617 91.2005 18.9519 88.5882 17.7738C84.9258 16.1091 83.2099 14.5468 79.5732 9.65516C74.9888 3.45734 71.6594 1.15236 65.9994 0.204762C65.2055 0.0767059 64.3091 -0.000125885 64.0274 -0.000125885C63.7457 0.025486 62.4651 0.127926 61.159 0.23037Z" fill="#0077D4" fill-opacity="0.12"/>
</svg>
