<svg width="72" height="59" viewBox="0 0 72 59" fill="none" xmlns="http://www.w3.org/2000/svg">
<path d="M24.159 0.23037C21.393 0.460869 20.1381 0.845032 16.7574 2.50974C12.4548 4.60982 9.81691 6.55624 6.2314 10.1674C3.20932 13.2151 2.82515 13.5224 1.16045 14.1371C-0.555473 14.7773 -0.914028 14.8029 -6.90696 14.9054C-12.9255 14.9822 -13.2584 15.0334 -15.1793 15.6737C-18.0733 16.6725 -18.9953 17.2104 -20.2246 18.5933C-21.5564 20.13 -22.043 21.0776 -23.0418 24.0997C-25.0906 30.2975 -27.6517 33.8318 -31.1092 35.1379C-32.0824 35.5221 -33.9008 36.0855 -35.1301 36.3929C-37.8192 37.0331 -37.768 37.11 -33.9264 38.4673C-32.5178 38.9539 -30.3153 39.8759 -29.0603 40.5162C-24.8345 42.6163 -23.8357 42.8212 -16.3061 42.9236L-9.69854 43.0261L-7.72651 43.9481C-5.24226 45.1262 -2.32262 47.3031 -0.99086 48.9934C0.853119 51.2984 4.56669 54.9607 6.18017 56.0364C8.04976 57.2913 10.5596 58.1108 12.4548 58.1108C14.2988 58.1108 18.6014 57.2657 20.1893 56.5742C20.9832 56.2412 22.0077 55.4729 22.8016 54.6278C24.2358 53.0911 25.8493 50.0434 26.003 48.4812C26.0542 47.9177 26.1822 46.8933 26.2591 46.2018C26.3871 45.2798 26.3103 44.6395 26.0286 43.9481C25.081 41.7455 22.2638 39.671 20.2405 39.6967C18.8319 39.6967 17.116 40.5162 16.4757 41.4638C15.5793 42.7443 15.6562 44.742 16.6038 45.6896C17.2953 46.4067 18.166 46.8421 18.8575 46.8421C19.6002 46.8421 20.4966 45.6384 20.4966 44.6652C20.4966 43.9224 20.6247 43.7176 21.1369 43.5127C23.3906 42.6675 24.8505 45.8176 23.1601 47.8665C20.3942 51.1447 14.222 50.0434 12.5829 45.9713C12.1219 44.8957 12.0194 44.1785 12.0963 42.898C12.1731 41.2589 12.1475 41.2077 11.456 40.926C10.6108 40.5674 8.17782 38.0063 7.33266 36.5209C6.58995 35.2404 5.5399 32.3207 5.13013 30.3487C4.92524 29.3243 4.92524 28.2742 5.10452 26.5583C5.30941 24.5863 5.5399 23.8179 6.41067 22.1276C7.74244 19.4641 9.86813 17.0823 11.7377 16.1347C12.5573 15.7249 13.5561 15.2127 13.9915 14.9822C14.4269 14.7517 15.6818 14.3419 16.7831 14.0602C25.4907 11.8321 32.252 17.1079 30.9971 25.1241C30.408 28.9913 28.1543 31.4244 24.3895 32.2183C21.1369 32.9098 19.0624 32.3207 17.577 30.2719C15.1952 26.9681 15.8611 23.3057 19.2161 21.2825C21.1113 20.1556 22.904 20.1812 23.698 21.4105C24.287 22.2813 23.9541 22.9472 22.6735 23.5618C21.3162 24.2021 20.4198 25.0729 19.9844 26.1229C19.3185 27.6852 20.7527 29.3755 22.8784 29.606C24.159 29.7597 25.8237 29.0682 26.4383 28.095C26.9249 27.3522 27.4884 23.3057 27.2579 22.3325C27.0274 21.3593 26.003 19.6434 25.3115 19.0031C23.1601 17.0823 19.0624 17.0823 15.2208 18.9519C13.1463 19.9763 10.2267 23.0496 9.61202 24.7912C8.48515 28.1462 10.0474 33.7806 12.9927 37.0844L14.2476 38.4929L15.4257 37.6734C16.5269 36.9307 17.8843 36.3672 19.5234 35.9831C20.5735 35.7526 23.8004 36.5465 25.1066 37.3661C26.5664 38.2881 27.642 39.4149 28.7433 41.2077C29.8958 43.0261 30.4848 44.5883 30.4848 45.6896C30.4848 46.2274 30.6129 46.586 30.8178 46.586C30.9715 46.586 32.252 46.0225 33.6094 45.331C36.3497 43.9481 37.7839 42.7443 40.5755 39.4149C41.5743 38.2112 42.9317 36.6746 43.5976 35.9831L44.8013 34.7538L46.5428 34.9074C51.7418 35.4196 52.3565 35.394 54.8664 34.6769C60.3471 33.1147 64.3424 30.8097 67.1596 27.5827C70.1816 24.0997 71.4622 21.9484 71.8463 19.6434L72 18.7214L70.4121 19.208C67.6205 20.0788 64.6241 20.258 60.3215 19.797C55.8908 19.3617 54.2005 18.9519 51.5882 17.7738C47.9258 16.1091 46.2099 14.5468 42.5732 9.65516C37.9888 3.45734 34.6594 1.15236 28.9994 0.204762C28.2055 0.0767059 27.3091 -0.000125885 27.0274 -0.000125885C26.7457 0.025486 25.4651 0.127926 24.159 0.23037Z" fill="#0077D4" fill-opacity="0.12"/>
</svg>
