<svg width="495" height="233" viewBox="0 0 495 233" fill="none" xmlns="http://www.w3.org/2000/svg">
<path d="M430.159 9.29871C427.393 9.58701 426.138 10.0675 422.757 12.1497C418.455 14.7764 415.817 17.211 412.231 21.7277C409.209 25.5397 408.825 25.9241 407.16 26.6929C405.445 27.4937 405.086 27.5258 399.093 27.6539C393.074 27.75 392.742 27.8141 390.821 28.6149C387.927 29.8642 387.005 30.5369 385.775 32.2667C384.444 34.1887 383.957 35.3739 382.958 39.1539C380.909 46.906 378.348 51.3266 374.891 52.9603C373.918 53.4408 372.099 54.1456 370.87 54.53C368.181 55.3308 368.232 55.4269 372.074 57.1247C373.482 57.7333 375.685 58.8865 376.94 59.6873C381.165 62.3141 382.164 62.5704 389.694 62.6985L396.301 62.8266L398.273 63.9798C400.758 65.4534 403.677 68.1762 405.009 70.2904C406.853 73.1734 410.567 77.7542 412.18 79.0996C414.05 80.6693 416.56 81.6943 418.455 81.6943C420.299 81.6943 424.601 80.6372 426.189 79.7723C426.983 79.3559 428.008 78.3949 428.802 77.3378C430.236 75.4158 431.849 71.6038 432.003 69.6498C432.054 68.945 432.182 67.6637 432.259 66.7988C432.387 65.6456 432.31 64.8447 432.029 63.9798C431.081 61.225 428.264 58.6302 426.241 58.6623C424.832 58.6623 423.116 59.6873 422.476 60.8726C421.579 62.4743 421.656 64.9729 422.604 66.1581C423.295 67.055 424.166 67.5996 424.858 67.5996C425.6 67.5996 426.497 66.094 426.497 64.8768C426.497 63.9478 426.625 63.6915 427.137 63.4353C429.391 62.3782 430.85 66.3183 429.16 68.881C426.394 72.9812 420.222 71.6038 418.583 66.5105C418.122 65.1651 418.019 64.2681 418.096 62.6665C418.173 60.6163 418.147 60.5523 417.456 60.1999C416.611 59.7514 414.178 56.5481 413.333 54.6901C412.59 53.0885 411.54 49.4366 411.13 46.9701C410.925 45.6887 410.925 44.3754 411.105 42.2291C411.309 39.7625 411.54 38.8015 412.411 36.6873C413.742 33.3558 415.868 30.3767 417.738 29.1915C418.557 28.679 419.556 28.0383 419.991 27.75C420.427 27.4617 421.682 26.9491 422.783 26.5968C431.491 23.8099 438.252 30.4088 436.997 40.4352C436.408 45.2723 434.154 48.3155 430.389 49.3085C427.137 50.1734 425.062 49.4366 423.577 46.874C421.195 42.7416 421.861 38.1609 425.216 35.6302C427.111 34.2207 428.904 34.2528 429.698 35.7904C430.287 36.8795 429.954 37.7124 428.674 38.4812C427.316 39.282 426.42 40.3712 425.984 41.6845C425.319 43.6386 426.753 45.7528 428.878 46.0411C430.159 46.2333 431.824 45.3684 432.438 44.1511C432.925 43.2221 433.488 38.1609 433.258 36.9436C433.027 35.7263 432.003 33.5801 431.311 32.7792C429.16 30.3767 425.062 30.3767 421.221 32.7152C419.146 33.9965 416.227 37.8405 415.612 40.0188C414.485 44.2152 416.047 51.2625 418.993 55.3949L420.248 57.1567L421.426 56.1316C422.527 55.2027 423.884 54.4979 425.523 54.0174C426.573 53.7291 429.8 54.7222 431.107 55.7472C432.566 56.9004 433.642 58.3099 434.743 60.5523C435.896 62.8266 436.485 64.7807 436.485 66.1581C436.485 66.8308 436.613 67.2793 436.818 67.2793C436.971 67.2793 438.252 66.5745 439.609 65.7096C442.35 63.9798 443.784 62.4743 446.576 58.3099C447.574 56.8043 448.932 54.8823 449.598 54.0174L450.801 52.4798L452.543 52.672C457.742 53.3127 458.356 53.2807 460.866 52.3837C466.347 50.4297 470.342 47.5467 473.16 43.5104C476.182 39.1539 477.462 36.4631 477.846 33.5801L478 32.4269L476.412 33.0355C473.621 34.1246 470.624 34.3489 466.321 33.7723C461.891 33.2277 460.2 32.7152 457.588 31.2416C453.926 29.1595 452.21 27.2054 448.573 21.087C443.989 13.3349 440.659 10.4519 434.999 9.26668C434.205 9.10651 433.309 9.01041 433.027 9.01041C432.746 9.04244 431.465 9.17058 430.159 9.29871Z" fill="white" fill-opacity="0.12"/>
<path d="M392.818 23.7139C392.408 23.9378 392.383 24.0017 392.741 24.0017C392.972 24.0337 393.253 23.8738 393.33 23.7139C393.51 23.3621 393.51 23.3621 392.818 23.7139Z" fill="white" fill-opacity="0.12"/>
<path d="M449.162 61.2258C449.06 61.4177 449.034 61.6096 449.111 61.7055C449.162 61.8015 449.29 61.6415 449.367 61.3537C449.546 60.81 449.393 60.7141 449.162 61.2258Z" fill="white" fill-opacity="0.12"/>
<path d="M420.042 86.4035C420.196 86.4671 420.503 86.4671 420.683 86.4035C420.836 86.3081 420.708 86.2445 420.35 86.2445C419.991 86.2445 419.863 86.3081 420.042 86.4035Z" fill="white" fill-opacity="0.12"/>
<path d="M255.159 34.9608C252.393 35.2491 251.138 35.7296 247.757 37.8118C243.455 40.4385 240.817 42.8731 237.231 47.3898C234.209 51.2018 233.825 51.5862 232.16 52.355C230.445 53.1558 230.086 53.1879 224.093 53.316C218.074 53.4121 217.742 53.4762 215.821 54.277C212.927 55.5263 212.005 56.199 210.775 57.9288C209.444 59.8508 208.957 61.0361 207.958 64.816C205.909 72.5681 203.348 76.9887 199.891 78.6224C198.918 79.1029 197.099 79.8077 195.87 80.1921C193.181 80.9929 193.232 81.089 197.074 82.7868C198.482 83.3954 200.685 84.5486 201.94 85.3495C206.165 87.9762 207.164 88.2325 214.694 88.3606L221.301 88.4887L223.273 89.6419C225.758 91.1155 228.677 93.8383 230.009 95.9525C231.853 98.8355 235.567 103.416 237.18 104.762C239.05 106.331 241.56 107.356 243.455 107.356C245.299 107.356 249.601 106.299 251.189 105.434C251.983 105.018 253.008 104.057 253.802 103C255.236 101.078 256.849 97.2659 257.003 95.3119C257.054 94.6071 257.182 93.3258 257.259 92.4609C257.387 91.3077 257.31 90.5068 257.029 89.6419C256.081 86.8871 253.264 84.2924 251.241 84.3244C249.832 84.3244 248.116 85.3495 247.476 86.5347C246.579 88.1364 246.656 90.635 247.604 91.8202C248.295 92.7172 249.166 93.2617 249.858 93.2617C250.6 93.2617 251.497 91.7561 251.497 90.5389C251.497 89.6099 251.625 89.3536 252.137 89.0974C254.391 88.0403 255.85 91.9804 254.16 94.5431C251.394 98.6433 245.222 97.2659 243.583 92.1726C243.122 90.8272 243.019 89.9302 243.096 88.3286C243.173 86.2784 243.147 86.2144 242.456 85.862C241.611 85.4135 239.178 82.2102 238.333 80.3522C237.59 78.7506 236.54 75.0987 236.13 72.6322C235.925 71.3508 235.925 70.0375 236.105 67.8912C236.309 65.4246 236.54 64.4636 237.411 62.3494C238.742 59.018 240.868 56.0388 242.738 54.8536C243.557 54.3411 244.556 53.7004 244.991 53.4121C245.427 53.1238 246.682 52.6113 247.783 52.2589C256.491 49.472 263.252 56.0709 261.997 66.0973C261.408 70.9344 259.154 73.9776 255.389 74.9706C252.137 75.8355 250.062 75.0987 248.577 72.5361C246.195 68.4038 246.861 63.823 250.216 61.2923C252.111 59.8829 253.904 59.9149 254.698 61.4525C255.287 62.5416 254.954 63.3745 253.674 64.1433C252.316 64.9441 251.42 66.0333 250.984 67.3467C250.319 69.3007 251.753 71.4149 253.878 71.7032C255.159 71.8954 256.824 71.0305 257.438 69.8132C257.925 68.8843 258.488 63.823 258.258 62.6057C258.027 61.3884 257.003 59.2422 256.311 58.4413C254.16 56.0388 250.062 56.0388 246.221 58.3773C244.146 59.6586 241.227 63.5026 240.612 65.6809C239.485 69.8773 241.047 76.9247 243.993 81.057L245.248 82.8188L246.426 81.7937C247.527 80.8648 248.884 80.16 250.523 79.6795C251.573 79.3912 254.8 80.3843 256.107 81.4093C257.566 82.5625 258.642 83.972 259.743 86.2144C260.896 88.4887 261.485 90.4428 261.485 91.8202C261.485 92.4929 261.613 92.9414 261.818 92.9414C261.971 92.9414 263.252 92.2367 264.609 91.3717C267.35 89.6419 268.784 88.1364 271.576 83.972C272.574 82.4664 273.932 80.5444 274.598 79.6795L275.801 78.1419L277.543 78.3341C282.742 78.9748 283.356 78.9428 285.866 78.0458C291.347 76.0918 295.342 73.2088 298.16 69.1726C301.182 64.816 302.462 62.1252 302.846 59.2422L303 58.089L301.412 58.6976C298.621 59.7868 295.624 60.011 291.321 59.4344C286.891 58.8898 285.2 58.3773 282.588 56.9037C278.926 54.8216 277.21 52.8675 273.573 46.7491C268.989 38.997 265.659 36.114 259.999 34.9288C259.205 34.7686 258.309 34.6725 258.027 34.6725C257.746 34.7046 256.465 34.8327 255.159 34.9608Z" fill="white" fill-opacity="0.12"/>
<path d="M217.818 49.376C217.408 49.5999 217.383 49.6639 217.741 49.6639C217.972 49.6958 218.253 49.5359 218.33 49.376C218.51 49.0242 218.51 49.0242 217.818 49.376Z" fill="white" fill-opacity="0.12"/>
<path d="M274.162 86.8869C274.06 87.0788 274.034 87.2707 274.111 87.3666C274.162 87.4626 274.29 87.3027 274.367 87.0148C274.546 86.4711 274.393 86.3752 274.162 86.8869Z" fill="white" fill-opacity="0.12"/>
<path d="M245.042 112.066C245.196 112.129 245.503 112.129 245.683 112.066C245.836 111.97 245.708 111.907 245.35 111.907C244.991 111.907 244.863 111.97 245.042 112.066Z" fill="white" fill-opacity="0.12"/>
<path d="M254.159 155.299C251.393 155.587 250.138 156.068 246.757 158.15C242.455 160.776 239.817 163.211 236.231 167.728C233.209 171.54 232.825 171.924 231.16 172.693C229.445 173.494 229.086 173.526 223.093 173.654C217.074 173.75 216.742 173.814 214.821 174.615C211.927 175.864 211.005 176.537 209.775 178.267C208.444 180.189 207.957 181.374 206.958 185.154C204.909 192.906 202.348 197.327 198.891 198.96C197.918 199.441 196.099 200.146 194.87 200.53C192.181 201.331 192.232 201.427 196.074 203.125C197.482 203.733 199.685 204.887 200.94 205.687C205.165 208.314 206.164 208.57 213.694 208.698L220.301 208.827L222.273 209.98C224.758 211.453 227.677 214.176 229.009 216.29C230.853 219.173 234.567 223.754 236.18 225.1C238.05 226.669 240.56 227.694 242.455 227.694C244.299 227.694 248.601 226.637 250.189 225.772C250.983 225.356 252.008 224.395 252.802 223.338C254.236 221.416 255.849 217.604 256.003 215.65C256.054 214.945 256.182 213.664 256.259 212.799C256.387 211.646 256.31 210.845 256.029 209.98C255.081 207.225 252.264 204.63 250.241 204.662C248.832 204.662 247.116 205.687 246.476 206.873C245.579 208.474 245.656 210.973 246.604 212.158C247.295 213.055 248.166 213.6 248.858 213.6C249.6 213.6 250.497 212.094 250.497 210.877C250.497 209.948 250.625 209.692 251.137 209.435C253.391 208.378 254.85 212.318 253.16 214.881C250.394 218.981 244.222 217.604 242.583 212.51C242.122 211.165 242.019 210.268 242.096 208.666C242.173 206.616 242.147 206.552 241.456 206.2C240.611 205.751 238.178 202.548 237.333 200.69C236.59 199.088 235.54 195.437 235.13 192.97C234.925 191.689 234.925 190.375 235.105 188.229C235.309 185.763 235.54 184.802 236.411 182.687C237.742 179.356 239.868 176.377 241.738 175.191C242.557 174.679 243.556 174.038 243.991 173.75C244.427 173.462 245.682 172.949 246.783 172.597C255.491 169.81 262.252 176.409 260.997 186.435C260.408 191.272 258.154 194.315 254.389 195.309C251.137 196.173 249.062 195.437 247.577 192.874C245.195 188.742 245.861 184.161 249.216 181.63C251.111 180.221 252.904 180.253 253.698 181.79C254.287 182.88 253.954 183.712 252.674 184.481C251.316 185.282 250.42 186.371 249.984 187.685C249.319 189.639 250.753 191.753 252.878 192.041C254.159 192.233 255.824 191.368 256.438 190.151C256.925 189.222 257.488 184.161 257.258 182.944C257.027 181.726 256.003 179.58 255.311 178.779C253.16 176.377 249.062 176.377 245.221 178.715C243.146 179.997 240.227 183.841 239.612 186.019C238.485 190.215 240.047 197.263 242.993 201.395L244.248 203.157L245.426 202.132C246.527 201.203 247.884 200.498 249.523 200.017C250.573 199.729 253.8 200.722 255.107 201.747C256.566 202.9 257.642 204.31 258.743 206.552C259.896 208.827 260.485 210.781 260.485 212.158C260.485 212.831 260.613 213.279 260.818 213.279C260.971 213.279 262.252 212.575 263.609 211.71C266.35 209.98 267.784 208.474 270.576 204.31C271.574 202.804 272.932 200.882 273.598 200.017L274.801 198.48L276.543 198.672C281.742 199.313 282.356 199.281 284.866 198.384C290.347 196.43 294.342 193.547 297.16 189.51C300.182 185.154 301.462 182.463 301.846 179.58L302 178.427L300.412 179.036C297.621 180.125 294.624 180.349 290.321 179.772C285.891 179.228 284.2 178.715 281.588 177.242C277.926 175.159 276.21 173.205 272.573 167.087C267.989 159.335 264.659 156.452 258.999 155.267C258.205 155.107 257.309 155.01 257.027 155.01C256.746 155.042 255.465 155.171 254.159 155.299Z" fill="white" fill-opacity="0.12"/>
<path d="M216.818 169.715C216.408 169.939 216.383 170.003 216.741 170.003C216.972 170.035 217.253 169.875 217.33 169.715C217.51 169.363 217.51 169.363 216.818 169.715Z" fill="white" fill-opacity="0.12"/>
<path d="M273.162 207.227C273.06 207.419 273.034 207.611 273.111 207.706C273.162 207.802 273.29 207.643 273.367 207.355C273.546 206.811 273.393 206.715 273.162 207.227Z" fill="white" fill-opacity="0.12"/>
<path d="M244.042 232.404C244.196 232.468 244.503 232.468 244.683 232.404C244.836 232.309 244.708 232.245 244.35 232.245C243.991 232.245 243.863 232.309 244.042 232.404Z" fill="white" fill-opacity="0.12"/>
<path d="M84.159 1.18836C81.393 1.47666 80.1381 1.95716 76.7574 4.03934C72.4548 6.66608 69.8169 9.10063 66.2314 13.6173C63.2093 17.4293 62.8252 17.8137 61.1605 18.5825C59.4445 19.3834 59.086 19.4154 53.093 19.5435C47.0745 19.6396 46.7416 19.7037 44.8207 20.5045C41.9267 21.7538 41.0047 22.4265 39.7754 24.1564C38.4436 26.0784 37.957 27.2636 36.9582 31.0435C34.9094 38.7956 32.3483 43.2163 28.8908 44.85C27.9176 45.3305 26.0992 46.0352 24.8699 46.4196C22.1808 47.2204 22.232 47.3165 26.0736 49.0143C27.4822 49.623 29.6847 50.7762 30.9397 51.577C35.1655 54.2037 36.1643 54.46 43.6939 54.5881L50.3015 54.7163L52.2735 55.8695C54.7577 57.343 57.6774 60.0659 59.0091 62.1801C60.8531 65.0631 64.5667 69.6439 66.1802 70.9893C68.0498 72.5589 70.5596 73.584 72.4548 73.584C74.2988 73.584 78.6014 72.5269 80.1893 71.662C80.9832 71.2455 82.0077 70.2845 82.8016 69.2274C84.2358 67.3054 85.8493 63.4934 86.003 61.5394C86.0542 60.8347 86.1822 59.5533 86.2591 58.6884C86.3871 57.5352 86.3103 56.7344 86.0286 55.8695C85.081 53.1146 82.2638 50.5199 80.2405 50.5519C78.8319 50.5519 77.116 51.577 76.4757 52.7622C75.5793 54.3639 75.6562 56.8625 76.6038 58.0478C77.2953 58.9447 78.166 59.4893 78.8575 59.4893C79.6002 59.4893 80.4966 57.9837 80.4966 56.7664C80.4966 55.8374 80.6247 55.5812 81.1369 55.3249C83.3906 54.2678 84.8505 58.2079 83.1601 60.7706C80.3942 64.8709 74.222 63.4934 72.5829 58.4001C72.1219 57.0547 72.0194 56.1578 72.0963 54.5561C72.1731 52.506 72.1475 52.4419 71.456 52.0895C70.6108 51.6411 68.1778 48.4377 67.3327 46.5798C66.5899 44.9781 65.5399 41.3263 65.1301 38.8597C64.9252 37.5784 64.9252 36.265 65.1045 34.1188C65.3094 31.6522 65.5399 30.6912 66.4107 28.577C67.7424 25.2455 69.8681 22.2664 71.7377 21.0811C72.5573 20.5686 73.5561 19.9279 73.9915 19.6396C74.4269 19.3513 75.6818 18.8388 76.7831 18.4864C85.4907 15.6995 92.252 22.2984 90.9971 32.3249C90.408 37.1619 88.1543 40.2051 84.3895 41.1982C81.1369 42.0631 79.0624 41.3263 77.577 38.7636C75.1952 34.6313 75.8611 30.0505 79.2161 27.5199C81.1113 26.1104 82.904 26.1424 83.698 27.68C84.287 28.7692 83.9541 29.602 82.6735 30.3708C81.3162 31.1717 80.4198 32.2608 79.9844 33.5742C79.3185 35.5282 80.7527 37.6424 82.8784 37.9307C84.159 38.1229 85.8237 37.258 86.4383 36.0408C86.9249 35.1118 87.4884 30.0505 87.2579 28.8332C87.0274 27.616 86.003 25.4697 85.3115 24.6689C83.1601 22.2664 79.0624 22.2664 75.2208 24.6048C73.1463 25.8862 70.2267 29.7302 69.612 31.9085C68.4851 36.1048 70.0474 43.1522 72.9927 47.2845L74.2476 49.0464L75.4257 48.0213C76.5269 47.0923 77.8843 46.3876 79.5234 45.9071C80.5735 45.6188 83.8004 46.6118 85.1066 47.6369C86.5664 48.7901 87.642 50.1996 88.7433 52.4419C89.8958 54.7163 90.4848 56.6703 90.4848 58.0478C90.4848 58.7205 90.6129 59.1689 90.8178 59.1689C90.9715 59.1689 92.252 58.4642 93.6094 57.5993C96.3497 55.8695 97.7839 54.3639 100.576 50.1996C101.574 48.694 102.932 46.772 103.598 45.9071L104.801 44.3695L106.543 44.5617C111.742 45.2023 112.356 45.1703 114.866 44.2734C120.347 42.3193 124.342 39.4363 127.16 35.4001C130.182 31.0435 131.462 28.3527 131.846 25.4697L132 24.3165L130.412 24.9252C127.621 26.0143 124.624 26.2385 120.321 25.6619C115.891 25.1174 114.2 24.6048 111.588 23.1313C107.926 21.0491 106.21 19.0951 102.573 12.9767C97.9888 5.22458 94.6594 2.34156 88.9994 1.15633C88.2055 0.996159 87.3091 0.900059 87.0274 0.900059C86.7457 0.932092 85.4651 1.06023 84.159 1.18836Z" fill="white" fill-opacity="0.12"/>
<path d="M46.8181 15.6045C46.4083 15.8284 46.3827 15.8924 46.7412 15.8924C46.9717 15.9243 47.2534 15.7644 47.3303 15.6045C47.5095 15.2527 47.5095 15.2527 46.8181 15.6045Z" fill="white" fill-opacity="0.12"/>
<path d="M103.162 53.1154C103.06 53.3073 103.034 53.4992 103.111 53.5952C103.162 53.6911 103.29 53.5312 103.367 53.2434C103.546 52.6997 103.393 52.6037 103.162 53.1154Z" fill="white" fill-opacity="0.12"/>
<path d="M74.0424 78.2941C74.196 78.3577 74.5034 78.3577 74.6826 78.2941C74.8363 78.1987 74.7082 78.1351 74.3497 78.1351C73.9911 78.1351 73.8631 78.1987 74.0424 78.2941Z" fill="white" fill-opacity="0.12"/>
<path d="M61.159 116.851C58.393 117.14 57.1381 117.62 53.7574 119.702C49.4548 122.329 46.8169 124.764 43.2314 129.28C40.2093 133.092 39.8252 133.477 38.1605 134.246C36.4445 135.046 36.086 135.078 30.093 135.207C24.0745 135.303 23.7416 135.367 21.8207 136.168C18.9267 137.417 18.0047 138.09 16.7754 139.819C15.4436 141.741 14.957 142.927 13.9582 146.707C11.9094 154.459 9.34827 158.879 5.89081 160.513C4.91759 160.994 3.09923 161.698 1.86991 162.083C-0.819231 162.884 -0.768009 162.98 3.07362 164.677C4.48221 165.286 6.68474 166.439 7.93967 167.24C12.1655 169.867 13.1643 170.123 20.6939 170.251L27.3015 170.379L29.2735 171.533C31.7577 173.006 34.6774 175.729 36.0091 177.843C37.8531 180.726 41.5667 185.307 43.1802 186.652C45.0498 188.222 47.5596 189.247 49.4548 189.247C51.2988 189.247 55.6014 188.19 57.1893 187.325C57.9832 186.909 59.0077 185.948 59.8016 184.891C61.2358 182.969 62.8493 179.157 63.003 177.202C63.0542 176.498 63.1822 175.216 63.2591 174.352C63.3871 173.198 63.3103 172.397 63.0286 171.533C62.081 168.778 59.2638 166.183 57.2405 166.215C55.8319 166.215 54.116 167.24 53.4757 168.425C52.5793 170.027 52.6562 172.526 53.6038 173.711C54.2953 174.608 55.166 175.152 55.8575 175.152C56.6002 175.152 57.4966 173.647 57.4966 172.43C57.4966 171.501 57.6247 171.244 58.1369 170.988C60.3906 169.931 61.8505 173.871 60.1601 176.434C57.3942 180.534 51.222 179.157 49.5829 174.063C49.1219 172.718 49.0194 171.821 49.0963 170.219C49.1731 168.169 49.1475 168.105 48.456 167.753C47.6108 167.304 45.1778 164.101 44.3327 162.243C43.5899 160.641 42.5399 156.989 42.1301 154.523C41.9252 153.241 41.9252 151.928 42.1045 149.782C42.3094 147.315 42.5399 146.354 43.4107 144.24C44.7424 140.909 46.8681 137.929 48.7377 136.744C49.5573 136.232 50.5561 135.591 50.9915 135.303C51.4269 135.014 52.6818 134.502 53.7831 134.15C62.4907 131.363 69.252 137.961 67.9971 147.988C67.408 152.825 65.1543 155.868 61.3895 156.861C58.1369 157.726 56.0624 156.989 54.577 154.427C52.1952 150.294 52.8611 145.714 56.2161 143.183C58.1113 141.773 59.904 141.806 60.698 143.343C61.287 144.432 60.9541 145.265 59.6735 146.034C58.3162 146.835 57.4198 147.924 56.9844 149.237C56.3185 151.191 57.7527 153.306 59.8784 153.594C61.159 153.786 62.8237 152.921 63.4383 151.704C63.9249 150.775 64.4884 145.714 64.2579 144.496C64.0274 143.279 63.003 141.133 62.3115 140.332C60.1601 137.929 56.0624 137.929 52.2208 140.268C50.1463 141.549 47.2267 145.393 46.612 147.572C45.4851 151.768 47.0474 158.815 49.9927 162.948L51.2476 164.709L52.4257 163.684C53.5269 162.755 54.8843 162.051 56.5234 161.57C57.5735 161.282 60.8004 162.275 62.1066 163.3C63.5664 164.453 64.642 165.863 65.7433 168.105C66.8958 170.379 67.4848 172.333 67.4848 173.711C67.4848 174.384 67.6129 174.832 67.8178 174.832C67.9715 174.832 69.252 174.127 70.6094 173.262C73.3497 171.533 74.7839 170.027 77.5755 165.863C78.5743 164.357 79.9317 162.435 80.5976 161.57L81.8013 160.033L83.5428 160.225C88.7418 160.865 89.3565 160.833 91.8664 159.936C97.3471 157.982 101.342 155.099 104.16 151.063C107.182 146.707 108.462 144.016 108.846 141.133L109 139.98L107.412 140.588C104.621 141.677 101.624 141.902 97.3215 141.325C92.8908 140.78 91.2005 140.268 88.5882 138.794C84.9258 136.712 83.2099 134.758 79.5732 128.64C74.9888 120.888 71.6594 118.005 65.9994 116.819C65.2055 116.659 64.3091 116.563 64.0274 116.563C63.7457 116.595 62.4651 116.723 61.159 116.851Z" fill="white" fill-opacity="0.12"/>
<path d="M23.8181 131.267C23.4083 131.491 23.3827 131.554 23.7412 131.554C23.9717 131.586 24.2534 131.427 24.3303 131.267C24.5095 130.915 24.5095 130.915 23.8181 131.267Z" fill="white" fill-opacity="0.12"/>
<path d="M80.1623 168.779C80.0599 168.97 80.0342 169.162 80.1111 169.258C80.1623 169.354 80.2904 169.194 80.3672 168.906C80.5465 168.363 80.3928 168.267 80.1623 168.779Z" fill="white" fill-opacity="0.12"/>
<path d="M51.0424 193.956C51.196 194.02 51.5034 194.02 51.6826 193.956C51.8363 193.861 51.7082 193.797 51.3497 193.797C50.9911 193.797 50.8631 193.861 51.0424 193.956Z" fill="white" fill-opacity="0.12"/>
<path d="M447.159 120.603C444.393 120.892 443.138 121.372 439.757 123.454C435.455 126.081 432.817 128.516 429.231 133.032C426.209 136.844 425.825 137.229 424.16 137.998C422.445 138.798 422.086 138.83 416.093 138.959C410.074 139.055 409.742 139.119 407.821 139.92C404.927 141.169 404.005 141.842 402.775 143.571C401.444 145.493 400.957 146.679 399.958 150.459C397.909 158.211 395.348 162.631 391.891 164.265C390.918 164.746 389.099 165.45 387.87 165.835C385.181 166.635 385.232 166.732 389.074 168.429C390.482 169.038 392.685 170.191 393.94 170.992C398.165 173.619 399.164 173.875 406.694 174.003L413.301 174.131L415.273 175.285C417.758 176.758 420.677 179.481 422.009 181.595C423.853 184.478 427.567 189.059 429.18 190.404C431.05 191.974 433.56 192.999 435.455 192.999C437.299 192.999 441.601 191.942 443.189 191.077C443.983 190.661 445.008 189.7 445.802 188.642C447.236 186.72 448.849 182.908 449.003 180.954C449.054 180.25 449.182 178.968 449.259 178.103C449.387 176.95 449.31 176.149 449.029 175.285C448.081 172.53 445.264 169.935 443.241 169.967C441.832 169.967 440.116 170.992 439.476 172.177C438.579 173.779 438.656 176.278 439.604 177.463C440.295 178.36 441.166 178.904 441.858 178.904C442.6 178.904 443.497 177.399 443.497 176.181C443.497 175.252 443.625 174.996 444.137 174.74C446.391 173.683 447.85 177.623 446.16 180.186C443.394 184.286 437.222 182.908 435.583 177.815C435.122 176.47 435.019 175.573 435.096 173.971C435.173 171.921 435.147 171.857 434.456 171.505C433.611 171.056 431.178 167.853 430.333 165.995C429.59 164.393 428.54 160.741 428.13 158.275C427.925 156.993 427.925 155.68 428.105 153.534C428.309 151.067 428.54 150.106 429.411 147.992C430.742 144.661 432.868 141.681 434.738 140.496C435.557 139.984 436.556 139.343 436.991 139.055C437.427 138.766 438.682 138.254 439.783 137.901C448.491 135.115 455.252 141.713 453.997 151.74C453.408 156.577 451.154 159.62 447.389 160.613C444.137 161.478 442.062 160.741 440.577 158.179C438.195 154.046 438.861 149.466 442.216 146.935C444.111 145.525 445.904 145.557 446.698 147.095C447.287 148.184 446.954 149.017 445.674 149.786C444.316 150.587 443.42 151.676 442.984 152.989C442.319 154.943 443.753 157.057 445.878 157.346C447.159 157.538 448.824 156.673 449.438 155.456C449.925 154.527 450.488 149.466 450.258 148.248C450.027 147.031 449.003 144.885 448.311 144.084C446.16 141.681 442.062 141.681 438.221 144.02C436.146 145.301 433.227 149.145 432.612 151.323C431.485 155.52 433.047 162.567 435.993 166.7L437.248 168.461L438.426 167.436C439.527 166.507 440.884 165.803 442.523 165.322C443.573 165.034 446.8 166.027 448.107 167.052C449.566 168.205 450.642 169.615 451.743 171.857C452.896 174.131 453.485 176.085 453.485 177.463C453.485 178.135 453.613 178.584 453.818 178.584C453.971 178.584 455.252 177.879 456.609 177.014C459.35 175.285 460.784 173.779 463.576 169.615C464.574 168.109 465.932 166.187 466.598 165.322L467.801 163.785L469.543 163.977C474.742 164.617 475.356 164.585 477.866 163.688C483.347 161.734 487.342 158.851 490.16 154.815C493.182 150.459 494.462 147.768 494.846 144.885L495 143.732L493.412 144.34C490.621 145.429 487.624 145.654 483.321 145.077C478.891 144.532 477.2 144.02 474.588 142.546C470.926 140.464 469.21 138.51 465.573 132.392C460.989 124.64 457.659 121.757 451.999 120.571C451.205 120.411 450.309 120.315 450.027 120.315C449.746 120.347 448.465 120.475 447.159 120.603Z" fill="white" fill-opacity="0.12"/>
<path d="M409.818 135.019C409.408 135.242 409.383 135.306 409.741 135.306C409.972 135.338 410.253 135.179 410.33 135.019C410.51 134.667 410.51 134.667 409.818 135.019Z" fill="white" fill-opacity="0.12"/>
<path d="M466.162 172.53C466.06 172.722 466.034 172.914 466.111 173.01C466.162 173.106 466.29 172.946 466.367 172.658C466.546 172.115 466.393 172.019 466.162 172.53Z" fill="white" fill-opacity="0.12"/>
<path d="M437.042 197.709C437.196 197.773 437.503 197.773 437.683 197.709C437.836 197.614 437.708 197.55 437.35 197.55C436.991 197.55 436.863 197.614 437.042 197.709Z" fill="white" fill-opacity="0.12"/>
</svg>
