<svg width="35" height="35" viewBox="0 0 35 35" fill="none" xmlns="http://www.w3.org/2000/svg">
<path fill-rule="evenodd" clip-rule="evenodd" d="M18.322 4.6427C17.9652 4.6427 17.602 5.00599 17.602 5.3627V18.3227C17.602 18.6794 17.9652 19.0427 18.322 19.0427H28.402C28.7587 19.0427 29.122 18.6794 29.122 18.3227V11.8427H26.242C25.0962 11.8427 23.9974 11.3876 23.1873 10.5774C22.3771 9.76724 21.922 8.66843 21.922 7.5227V4.6427H18.322ZM18.322 1.7627C16.3747 1.7627 14.722 3.41541 14.722 5.3627V18.3227C14.722 20.27 16.3747 21.9227 18.322 21.9227H28.402C30.3492 21.9227 32.002 20.27 32.002 18.3227V8.9627C32.002 8.58078 31.8502 8.21451 31.5802 7.94446L25.8202 2.18446C25.5501 1.91441 25.1839 1.7627 24.802 1.7627H18.322ZM28.5255 8.9627L24.802 5.23916V7.5227C24.802 7.90461 24.9537 8.27088 25.2237 8.54093C25.4938 8.81098 25.86 8.9627 26.242 8.9627H28.5255ZM10.402 10.4027C11.1972 10.4027 11.842 11.0474 11.842 11.8427V24.4473C11.8432 24.4497 11.8446 24.4524 11.8461 24.4551C11.8598 24.4802 11.8801 24.512 11.9078 24.548C11.9353 24.5837 11.9658 24.6181 11.9962 24.6485C12.0265 24.6788 12.0609 24.7093 12.0967 24.7368C12.1327 24.7645 12.1645 24.7849 12.1895 24.7985C12.1923 24.8001 12.1949 24.8014 12.1973 24.8027H21.922C22.7172 24.8027 23.362 25.4474 23.362 26.2427C23.362 27.038 22.7172 27.6827 21.922 27.6827H12.13C11.1233 27.6827 10.3412 27.0664 9.95972 26.6849C9.57824 26.3035 8.96195 25.5213 8.96195 24.5147V11.8427C8.96195 11.0474 9.60666 10.4027 10.402 10.4027ZM4.64195 16.1627C5.43724 16.1627 6.08195 16.8074 6.08195 17.6027V30.2073C6.08321 30.2097 6.0846 30.2124 6.08612 30.2151C6.09976 30.2402 6.12014 30.272 6.14783 30.308C6.17535 30.3437 6.20583 30.3781 6.23619 30.4085C6.26655 30.4388 6.30092 30.4693 6.33669 30.4968C6.37269 30.5245 6.4045 30.5449 6.4295 30.5585C6.4323 30.5601 6.43491 30.5614 6.43733 30.5627H16.162C16.9572 30.5627 17.602 31.2074 17.602 32.0027C17.602 32.798 16.9572 33.4427 16.162 33.4427H6.36995C5.36333 33.4427 4.58119 32.8264 4.19972 32.4449C3.81824 32.0635 3.20195 31.2813 3.20195 30.2747V17.6027C3.20195 16.8074 3.84666 16.1627 4.64195 16.1627Z" fill="white"/>
</svg>
