<svg width="360" height="88" viewBox="0 0 360 88" fill="none" xmlns="http://www.w3.org/2000/svg">
<g clip-path="url(#clip0_6317_2488)">
<path d="M0 12C0 5.37258 5.37258 0 12 0H348C354.627 0 360 5.37258 360 12V76C360 82.6274 354.627 88 348 88H12C5.37259 88 0 82.6274 0 76V12Z" fill="url(#paint0_linear_6317_2488)"/>
<path d="M21.54 42V27.1H26.96C27.96 27.1 28.84 27.2867 29.6 27.66C30.36 28.02 30.9533 28.5533 31.38 29.26C31.82 29.9533 32.04 30.7867 32.04 31.76C32.04 32.7867 31.78 33.6667 31.26 34.4C30.7533 35.1333 30.0667 35.6667 29.2 36L32.64 42H29.96L26.3 35.5L27.84 36.4H23.9V42H21.54ZM23.9 34.3H27C27.5467 34.3 28.02 34.1933 28.42 33.98C28.82 33.7667 29.1267 33.4733 29.34 33.1C29.5667 32.7133 29.68 32.26 29.68 31.74C29.68 31.22 29.5667 30.7733 29.34 30.4C29.1267 30.0133 28.82 29.72 28.42 29.52C28.02 29.3067 27.5467 29.2 27 29.2H23.9V34.3ZM38.7805 42.24C37.7005 42.24 36.7405 41.9933 35.9005 41.5C35.0738 40.9933 34.4271 40.3133 33.9605 39.46C33.4938 38.5933 33.2605 37.6267 33.2605 36.56C33.2605 35.4667 33.4938 34.5 33.9605 33.66C34.4405 32.82 35.0805 32.16 35.8805 31.68C36.6805 31.1867 37.5871 30.94 38.6005 30.94C39.4138 30.94 40.1405 31.08 40.7805 31.36C41.4205 31.64 41.9605 32.0267 42.4005 32.52C42.8405 33 43.1738 33.5533 43.4005 34.18C43.6405 34.8067 43.7605 35.4733 43.7605 36.18C43.7605 36.3533 43.7538 36.5333 43.7405 36.72C43.7271 36.9067 43.7005 37.08 43.6605 37.24H35.0405V35.44H42.3805L41.3005 36.26C41.4338 35.6067 41.3871 35.0267 41.1605 34.52C40.9471 34 40.6138 33.5933 40.1605 33.3C39.7205 32.9933 39.2005 32.84 38.6005 32.84C38.0005 32.84 37.4671 32.9933 37.0005 33.3C36.5338 33.5933 36.1738 34.02 35.9205 34.58C35.6671 35.1267 35.5671 35.7933 35.6205 36.58C35.5538 37.3133 35.6538 37.9533 35.9205 38.5C36.2005 39.0467 36.5871 39.4733 37.0805 39.78C37.5871 40.0867 38.1605 40.24 38.8005 40.24C39.4538 40.24 40.0071 40.0933 40.4605 39.8C40.9271 39.5067 41.2938 39.1267 41.5605 38.66L43.4005 39.56C43.1871 40.0667 42.8538 40.5267 42.4005 40.94C41.9605 41.34 41.4271 41.66 40.8005 41.9C40.1871 42.1267 39.5138 42.24 38.7805 42.24ZM49.0084 42.24C48.2751 42.24 47.6284 42.1133 47.0684 41.86C46.5218 41.5933 46.0951 41.2333 45.7884 40.78C45.4818 40.3133 45.3284 39.7667 45.3284 39.14C45.3284 38.5533 45.4551 38.0267 45.7084 37.56C45.9751 37.0933 46.3818 36.7 46.9284 36.38C47.4751 36.06 48.1618 35.8333 48.9884 35.7L52.7484 35.08V36.86L49.4284 37.44C48.8284 37.5467 48.3884 37.74 48.1084 38.02C47.8284 38.2867 47.6884 38.6333 47.6884 39.06C47.6884 39.4733 47.8418 39.8133 48.1484 40.08C48.4684 40.3333 48.8751 40.46 49.3684 40.46C49.9818 40.46 50.5151 40.3267 50.9684 40.06C51.4351 39.7933 51.7951 39.44 52.0484 39C52.3018 38.5467 52.4284 38.0467 52.4284 37.5V34.72C52.4284 34.1867 52.2284 33.7533 51.8284 33.42C51.4418 33.0733 50.9218 32.9 50.2684 32.9C49.6684 32.9 49.1418 33.06 48.6884 33.38C48.2484 33.6867 47.9218 34.0867 47.7084 34.58L45.8284 33.64C46.0284 33.1067 46.3551 32.64 46.8084 32.24C47.2618 31.8267 47.7884 31.5067 48.3884 31.28C49.0018 31.0533 49.6484 30.94 50.3284 30.94C51.1818 30.94 51.9351 31.1 52.5884 31.42C53.2551 31.74 53.7684 32.1867 54.1284 32.76C54.5018 33.32 54.6884 33.9733 54.6884 34.72V42H52.5284V40.04L52.9884 40.1C52.7351 40.54 52.4084 40.92 52.0084 41.24C51.6218 41.56 51.1751 41.8067 50.6684 41.98C50.1751 42.1533 49.6218 42.24 49.0084 42.24ZM62.2309 42.24C61.1909 42.24 60.2576 41.9933 59.4309 41.5C58.6176 40.9933 57.9709 40.3133 57.4909 39.46C57.0243 38.6067 56.7909 37.6467 56.7909 36.58C56.7909 35.5133 57.0309 34.5533 57.5109 33.7C57.9909 32.8467 58.6376 32.1733 59.4509 31.68C60.2643 31.1867 61.1843 30.94 62.2109 30.94C63.0776 30.94 63.8443 31.1133 64.5109 31.46C65.1776 31.8067 65.7043 32.2867 66.0909 32.9L65.7509 33.42V26.86H67.9909V42H65.8509V39.8L66.1109 40.22C65.7376 40.8733 65.2043 41.3733 64.5109 41.72C63.8176 42.0667 63.0576 42.24 62.2309 42.24ZM62.4509 40.14C63.0776 40.14 63.6376 39.9867 64.1309 39.68C64.6376 39.3733 65.0309 38.9533 65.3109 38.42C65.6043 37.8733 65.7509 37.26 65.7509 36.58C65.7509 35.9 65.6043 35.2933 65.3109 34.76C65.0309 34.2267 64.6376 33.8067 64.1309 33.5C63.6376 33.1933 63.0776 33.04 62.4509 33.04C61.8243 33.04 61.2576 33.1933 60.7509 33.5C60.2443 33.8067 59.8509 34.2267 59.5709 34.76C59.2909 35.2933 59.1509 35.9 59.1509 36.58C59.1509 37.26 59.2909 37.8733 59.5709 38.42C59.8509 38.9533 60.2376 39.3733 60.7309 39.68C61.2376 39.9867 61.8109 40.14 62.4509 40.14ZM71.4894 46.4C71.2227 46.4 70.956 46.3733 70.6894 46.32C70.436 46.28 70.2027 46.2133 69.9894 46.12V44.18C70.1494 44.22 70.3427 44.2533 70.5694 44.28C70.796 44.32 71.016 44.34 71.2294 44.34C71.856 44.34 72.316 44.2 72.6094 43.92C72.916 43.6533 73.1894 43.24 73.4294 42.68L74.1494 41.04L74.1094 42.94L69.4294 31.18H71.8494L75.3094 40.2H74.4894L77.9294 31.18H80.3694L75.5894 43.18C75.336 43.82 75.016 44.38 74.6294 44.86C74.256 45.3533 73.8094 45.7333 73.2894 46C72.7827 46.2667 72.1827 46.4 71.4894 46.4ZM89.8922 42.12C88.7589 42.12 87.8789 41.8 87.2522 41.16C86.6255 40.52 86.3122 39.62 86.3122 38.46V33.22H84.4122V31.18H84.7122C85.2189 31.18 85.6122 31.0333 85.8922 30.74C86.1722 30.4467 86.3122 30.0467 86.3122 29.54V28.7H88.5722V31.18H91.0322V33.22H88.5722V38.36C88.5722 38.7333 88.6322 39.0533 88.7522 39.32C88.8722 39.5733 89.0655 39.7733 89.3322 39.92C89.5989 40.0533 89.9455 40.12 90.3722 40.12C90.4789 40.12 90.5989 40.1133 90.7322 40.1C90.8655 40.0867 90.9922 40.0733 91.1122 40.06V42C90.9255 42.0267 90.7189 42.0533 90.4922 42.08C90.2655 42.1067 90.0655 42.12 89.8922 42.12ZM98.2423 42.24C97.2023 42.24 96.249 41.9933 95.3823 41.5C94.529 41.0067 93.849 40.3333 93.3423 39.48C92.8357 38.6267 92.5823 37.66 92.5823 36.58C92.5823 35.4867 92.8357 34.52 93.3423 33.68C93.849 32.8267 94.529 32.16 95.3823 31.68C96.2357 31.1867 97.189 30.94 98.2423 30.94C99.309 30.94 100.262 31.1867 101.102 31.68C101.956 32.16 102.629 32.8267 103.122 33.68C103.629 34.52 103.882 35.4867 103.882 36.58C103.882 37.6733 103.629 38.6467 103.122 39.5C102.616 40.3533 101.936 41.0267 101.082 41.52C100.229 42 99.2823 42.24 98.2423 42.24ZM98.2423 40.14C98.8823 40.14 99.449 39.9867 99.9423 39.68C100.436 39.3733 100.822 38.9533 101.102 38.42C101.396 37.8733 101.542 37.26 101.542 36.58C101.542 35.9 101.396 35.2933 101.102 34.76C100.822 34.2267 100.436 33.8067 99.9423 33.5C99.449 33.1933 98.8823 33.04 98.2423 33.04C97.6157 33.04 97.049 33.1933 96.5423 33.5C96.049 33.8067 95.6557 34.2267 95.3623 34.76C95.0823 35.2933 94.9423 35.9 94.9423 36.58C94.9423 37.26 95.0823 37.8733 95.3623 38.42C95.6557 38.9533 96.049 39.3733 96.5423 39.68C97.049 39.9867 97.6157 40.14 98.2423 40.14ZM114.065 42.12C112.932 42.12 112.052 41.8 111.425 41.16C110.798 40.52 110.485 39.62 110.485 38.46V33.22H108.585V31.18H108.885C109.392 31.18 109.785 31.0333 110.065 30.74C110.345 30.4467 110.485 30.0467 110.485 29.54V28.7H112.745V31.18H115.205V33.22H112.745V38.36C112.745 38.7333 112.805 39.0533 112.925 39.32C113.045 39.5733 113.238 39.7733 113.505 39.92C113.772 40.0533 114.118 40.12 114.545 40.12C114.652 40.12 114.772 40.1133 114.905 40.1C115.038 40.0867 115.165 40.0733 115.285 40.06V42C115.098 42.0267 114.892 42.0533 114.665 42.08C114.438 42.1067 114.238 42.12 114.065 42.12ZM122.275 42.24C121.195 42.24 120.235 41.9933 119.395 41.5C118.568 40.9933 117.922 40.3133 117.455 39.46C116.988 38.5933 116.755 37.6267 116.755 36.56C116.755 35.4667 116.988 34.5 117.455 33.66C117.935 32.82 118.575 32.16 119.375 31.68C120.175 31.1867 121.082 30.94 122.095 30.94C122.908 30.94 123.635 31.08 124.275 31.36C124.915 31.64 125.455 32.0267 125.895 32.52C126.335 33 126.668 33.5533 126.895 34.18C127.135 34.8067 127.255 35.4733 127.255 36.18C127.255 36.3533 127.248 36.5333 127.235 36.72C127.222 36.9067 127.195 37.08 127.155 37.24H118.535V35.44H125.875L124.795 36.26C124.928 35.6067 124.882 35.0267 124.655 34.52C124.442 34 124.108 33.5933 123.655 33.3C123.215 32.9933 122.695 32.84 122.095 32.84C121.495 32.84 120.962 32.9933 120.495 33.3C120.028 33.5933 119.668 34.02 119.415 34.58C119.162 35.1267 119.062 35.7933 119.115 36.58C119.048 37.3133 119.148 37.9533 119.415 38.5C119.695 39.0467 120.082 39.4733 120.575 39.78C121.082 40.0867 121.655 40.24 122.295 40.24C122.948 40.24 123.502 40.0933 123.955 39.8C124.422 39.5067 124.788 39.1267 125.055 38.66L126.895 39.56C126.682 40.0667 126.348 40.5267 125.895 40.94C125.455 41.34 124.922 41.66 124.295 41.9C123.682 42.1267 123.008 42.24 122.275 42.24ZM133.361 42.24C132.254 42.24 131.281 41.9667 130.441 41.42C129.614 40.8733 129.034 40.14 128.701 39.22L130.441 38.4C130.734 39.0133 131.134 39.5 131.641 39.86C132.161 40.22 132.734 40.4 133.361 40.4C133.894 40.4 134.327 40.28 134.661 40.04C134.994 39.8 135.161 39.4733 135.161 39.06C135.161 38.7933 135.087 38.58 134.941 38.42C134.794 38.2467 134.607 38.1067 134.381 38C134.167 37.8933 133.947 37.8133 133.721 37.76L132.021 37.28C131.087 37.0133 130.387 36.6133 129.921 36.08C129.467 35.5333 129.241 34.9 129.241 34.18C129.241 33.5267 129.407 32.96 129.741 32.48C130.074 31.9867 130.534 31.6067 131.121 31.34C131.707 31.0733 132.367 30.94 133.101 30.94C134.087 30.94 134.967 31.1867 135.741 31.68C136.514 32.16 137.061 32.8333 137.381 33.7L135.641 34.52C135.427 34 135.087 33.5867 134.621 33.28C134.167 32.9733 133.654 32.82 133.081 32.82C132.587 32.82 132.194 32.94 131.901 33.18C131.607 33.4067 131.461 33.7067 131.461 34.08C131.461 34.3333 131.527 34.5467 131.661 34.72C131.794 34.88 131.967 35.0133 132.181 35.12C132.394 35.2133 132.614 35.2933 132.841 35.36L134.601 35.88C135.494 36.1333 136.181 36.5333 136.661 37.08C137.141 37.6133 137.381 38.2533 137.381 39C137.381 39.64 137.207 40.2067 136.861 40.7C136.527 41.18 136.061 41.56 135.461 41.84C134.861 42.1067 134.161 42.24 133.361 42.24ZM144.175 42.12C143.042 42.12 142.162 41.8 141.535 41.16C140.908 40.52 140.595 39.62 140.595 38.46V33.22H138.695V31.18H138.995C139.502 31.18 139.895 31.0333 140.175 30.74C140.455 30.4467 140.595 30.0467 140.595 29.54V28.7H142.855V31.18H145.315V33.22H142.855V38.36C142.855 38.7333 142.915 39.0533 143.035 39.32C143.155 39.5733 143.348 39.7733 143.615 39.92C143.882 40.0533 144.228 40.12 144.655 40.12C144.762 40.12 144.882 40.1133 145.015 40.1C145.148 40.0867 145.275 40.0733 145.395 40.06V42C145.208 42.0267 145.002 42.0533 144.775 42.08C144.548 42.1067 144.348 42.12 144.175 42.12ZM151.857 46.4C151.59 46.4 151.323 46.3733 151.057 46.32C150.803 46.28 150.57 46.2133 150.357 46.12V44.18C150.517 44.22 150.71 44.2533 150.937 44.28C151.163 44.32 151.383 44.34 151.597 44.34C152.223 44.34 152.683 44.2 152.977 43.92C153.283 43.6533 153.557 43.24 153.797 42.68L154.517 41.04L154.477 42.94L149.797 31.18H152.217L155.677 40.2H154.857L158.297 31.18H160.737L155.957 43.18C155.703 43.82 155.383 44.38 154.997 44.86C154.623 45.3533 154.177 45.7333 153.657 46C153.15 46.2667 152.55 46.4 151.857 46.4ZM167.208 42.24C166.168 42.24 165.215 41.9933 164.348 41.5C163.495 41.0067 162.815 40.3333 162.308 39.48C161.801 38.6267 161.548 37.66 161.548 36.58C161.548 35.4867 161.801 34.52 162.308 33.68C162.815 32.8267 163.495 32.16 164.348 31.68C165.201 31.1867 166.155 30.94 167.208 30.94C168.275 30.94 169.228 31.1867 170.068 31.68C170.921 32.16 171.595 32.8267 172.088 33.68C172.595 34.52 172.848 35.4867 172.848 36.58C172.848 37.6733 172.595 38.6467 172.088 39.5C171.581 40.3533 170.901 41.0267 170.048 41.52C169.195 42 168.248 42.24 167.208 42.24ZM167.208 40.14C167.848 40.14 168.415 39.9867 168.908 39.68C169.401 39.3733 169.788 38.9533 170.068 38.42C170.361 37.8733 170.508 37.26 170.508 36.58C170.508 35.9 170.361 35.2933 170.068 34.76C169.788 34.2267 169.401 33.8067 168.908 33.5C168.415 33.1933 167.848 33.04 167.208 33.04C166.581 33.04 166.015 33.1933 165.508 33.5C165.015 33.8067 164.621 34.2267 164.328 34.76C164.048 35.2933 163.908 35.9 163.908 36.58C163.908 37.26 164.048 37.8733 164.328 38.42C164.621 38.9533 165.015 39.3733 165.508 39.68C166.015 39.9867 166.581 40.14 167.208 40.14ZM178.814 42.24C178.001 42.24 177.288 42.06 176.674 41.7C176.061 41.3267 175.581 40.8133 175.234 40.16C174.901 39.4933 174.734 38.7267 174.734 37.86V31.18H176.994V37.66C176.994 38.1533 177.094 38.5867 177.294 38.96C177.494 39.3333 177.774 39.6267 178.134 39.84C178.494 40.04 178.908 40.14 179.374 40.14C179.854 40.14 180.274 40.0333 180.634 39.82C180.994 39.6067 181.274 39.3067 181.474 38.92C181.688 38.5333 181.794 38.08 181.794 37.56V31.18H184.034V42H181.894V39.88L182.134 40.16C181.881 40.8267 181.461 41.34 180.874 41.7C180.288 42.06 179.601 42.24 178.814 42.24ZM186.573 42V31.18H188.733V33.36L188.533 33.04C188.773 32.3333 189.16 31.8267 189.693 31.52C190.226 31.2 190.866 31.04 191.613 31.04H192.273V33.1H191.333C190.586 33.1 189.98 33.3333 189.513 33.8C189.06 34.2533 188.833 34.9067 188.833 35.76V42H186.573ZM201.115 42.24C200.009 42.24 199.035 41.9667 198.195 41.42C197.369 40.8733 196.789 40.14 196.455 39.22L198.195 38.4C198.489 39.0133 198.889 39.5 199.395 39.86C199.915 40.22 200.489 40.4 201.115 40.4C201.649 40.4 202.082 40.28 202.415 40.04C202.749 39.8 202.915 39.4733 202.915 39.06C202.915 38.7933 202.842 38.58 202.695 38.42C202.549 38.2467 202.362 38.1067 202.135 38C201.922 37.8933 201.702 37.8133 201.475 37.76L199.775 37.28C198.842 37.0133 198.142 36.6133 197.675 36.08C197.222 35.5333 196.995 34.9 196.995 34.18C196.995 33.5267 197.162 32.96 197.495 32.48C197.829 31.9867 198.289 31.6067 198.875 31.34C199.462 31.0733 200.122 30.94 200.855 30.94C201.842 30.94 202.722 31.1867 203.495 31.68C204.269 32.16 204.815 32.8333 205.135 33.7L203.395 34.52C203.182 34 202.842 33.5867 202.375 33.28C201.922 32.9733 201.409 32.82 200.835 32.82C200.342 32.82 199.949 32.94 199.655 33.18C199.362 33.4067 199.215 33.7067 199.215 34.08C199.215 34.3333 199.282 34.5467 199.415 34.72C199.549 34.88 199.722 35.0133 199.935 35.12C200.149 35.2133 200.369 35.2933 200.595 35.36L202.355 35.88C203.249 36.1333 203.935 36.5333 204.415 37.08C204.895 37.6133 205.135 38.2533 205.135 39C205.135 39.64 204.962 40.2067 204.615 40.7C204.282 41.18 203.815 41.56 203.215 41.84C202.615 42.1067 201.915 42.24 201.115 42.24ZM207.25 42V26.86H209.51V37L208.63 36.78L214.05 31.18H216.87L212.79 35.52L217.05 42H214.45L210.65 36.26L211.99 36.08L208.79 39.48L209.51 37.98V42H207.25ZM218.497 42V31.18H220.757V42H218.497ZM218.497 29.7V27.1H220.757V29.7H218.497ZM223.3 42V26.86H225.56V42H223.3ZM228.102 42V26.86H230.362V42H228.102ZM235.504 37.56V37.22C235.504 36.6333 235.598 36.1133 235.784 35.66C235.984 35.2067 236.231 34.8 236.524 34.44C236.831 34.0667 237.144 33.7267 237.464 33.42C237.918 32.9933 238.318 32.58 238.664 32.18C239.024 31.78 239.204 31.3133 239.204 30.78C239.204 30.4467 239.124 30.1467 238.964 29.88C238.804 29.6 238.564 29.38 238.244 29.22C237.938 29.0467 237.558 28.96 237.104 28.96C236.478 28.96 235.938 29.1533 235.484 29.54C235.044 29.9133 234.764 30.42 234.644 31.06L232.544 30.56C232.664 29.8267 232.931 29.1867 233.344 28.64C233.771 28.08 234.304 27.6467 234.944 27.34C235.598 27.02 236.331 26.86 237.144 26.86C238.064 26.86 238.851 27.0467 239.504 27.42C240.171 27.78 240.678 28.2533 241.024 28.84C241.371 29.4267 241.544 30.06 241.544 30.74C241.544 31.2867 241.431 31.78 241.204 32.22C240.991 32.6467 240.711 33.04 240.364 33.4C240.031 33.76 239.684 34.1133 239.324 34.46C238.898 34.8733 238.518 35.3067 238.184 35.76C237.864 36.2 237.704 36.72 237.704 37.32V37.56H235.504ZM235.504 42V39.4H237.804V42H235.504Z" fill="white"/>
<path d="M24.056 65.144C23.496 65.144 22.976 65.04 22.496 64.832C22.016 64.616 21.608 64.324 21.272 63.956C20.936 63.588 20.688 63.164 20.528 62.684L21.728 62.18C21.944 62.732 22.26 63.156 22.676 63.452C23.092 63.748 23.572 63.896 24.116 63.896C24.436 63.896 24.716 63.848 24.956 63.752C25.196 63.648 25.38 63.504 25.508 63.32C25.644 63.136 25.712 62.924 25.712 62.684C25.712 62.356 25.62 62.096 25.436 61.904C25.252 61.712 24.98 61.56 24.62 61.448L22.94 60.92C22.268 60.712 21.756 60.396 21.404 59.972C21.052 59.54 20.876 59.036 20.876 58.46C20.876 57.956 21 57.516 21.248 57.14C21.496 56.756 21.836 56.456 22.268 56.24C22.708 56.024 23.208 55.916 23.768 55.916C24.304 55.916 24.792 56.012 25.232 56.204C25.672 56.388 26.048 56.644 26.36 56.972C26.68 57.3 26.912 57.68 27.056 58.112L25.88 58.628C25.704 58.156 25.428 57.792 25.052 57.536C24.684 57.28 24.256 57.152 23.768 57.152C23.472 57.152 23.212 57.204 22.988 57.308C22.764 57.404 22.588 57.548 22.46 57.74C22.34 57.924 22.28 58.14 22.28 58.388C22.28 58.676 22.372 58.932 22.556 59.156C22.74 59.38 23.02 59.548 23.396 59.66L24.956 60.152C25.668 60.368 26.204 60.68 26.564 61.088C26.924 61.488 27.104 61.988 27.104 62.588C27.104 63.084 26.972 63.524 26.708 63.908C26.452 64.292 26.096 64.596 25.64 64.82C25.184 65.036 24.656 65.144 24.056 65.144ZM31.6095 65.144C30.9615 65.144 30.3855 64.996 29.8815 64.7C29.3855 64.396 28.9975 63.988 28.7175 63.476C28.4375 62.956 28.2975 62.376 28.2975 61.736C28.2975 61.08 28.4375 60.5 28.7175 59.996C29.0055 59.492 29.3895 59.096 29.8695 58.808C30.3495 58.512 30.8935 58.364 31.5015 58.364C31.9895 58.364 32.4255 58.448 32.8095 58.616C33.1935 58.784 33.5175 59.016 33.7815 59.312C34.0455 59.6 34.2455 59.932 34.3815 60.308C34.5255 60.684 34.5975 61.084 34.5975 61.508C34.5975 61.612 34.5935 61.72 34.5855 61.832C34.5775 61.944 34.5615 62.048 34.5375 62.144H29.3655V61.064H33.7695L33.1215 61.556C33.2015 61.164 33.1735 60.816 33.0375 60.512C32.9095 60.2 32.7095 59.956 32.4375 59.78C32.1735 59.596 31.8615 59.504 31.5015 59.504C31.1415 59.504 30.8215 59.596 30.5415 59.78C30.2615 59.956 30.0455 60.212 29.8935 60.548C29.7415 60.876 29.6815 61.276 29.7135 61.748C29.6735 62.188 29.7335 62.572 29.8935 62.9C30.0615 63.228 30.2935 63.484 30.5895 63.668C30.8935 63.852 31.2375 63.944 31.6215 63.944C32.0135 63.944 32.3455 63.856 32.6175 63.68C32.8975 63.504 33.1175 63.276 33.2775 62.996L34.3815 63.536C34.2535 63.84 34.0535 64.116 33.7815 64.364C33.5175 64.604 33.1975 64.796 32.8215 64.94C32.4535 65.076 32.0495 65.144 31.6095 65.144ZM38.9689 65.144C38.3209 65.144 37.7449 64.996 37.2409 64.7C36.7449 64.396 36.3569 63.988 36.0769 63.476C35.7969 62.956 35.6569 62.376 35.6569 61.736C35.6569 61.08 35.7969 60.5 36.0769 59.996C36.3649 59.492 36.7489 59.096 37.2289 58.808C37.7089 58.512 38.2529 58.364 38.8609 58.364C39.3489 58.364 39.7849 58.448 40.1689 58.616C40.5529 58.784 40.8769 59.016 41.1409 59.312C41.4049 59.6 41.6049 59.932 41.7409 60.308C41.8849 60.684 41.9569 61.084 41.9569 61.508C41.9569 61.612 41.9529 61.72 41.9449 61.832C41.9369 61.944 41.9209 62.048 41.8969 62.144H36.7249V61.064H41.1289L40.4809 61.556C40.5609 61.164 40.5329 60.816 40.3969 60.512C40.2689 60.2 40.0689 59.956 39.7969 59.78C39.5329 59.596 39.2209 59.504 38.8609 59.504C38.5009 59.504 38.1809 59.596 37.9009 59.78C37.6209 59.956 37.4049 60.212 37.2529 60.548C37.1009 60.876 37.0409 61.276 37.0729 61.748C37.0329 62.188 37.0929 62.572 37.2529 62.9C37.4209 63.228 37.6529 63.484 37.9489 63.668C38.2529 63.852 38.5969 63.944 38.9809 63.944C39.3729 63.944 39.7049 63.856 39.9769 63.68C40.2569 63.504 40.4769 63.276 40.6369 62.996L41.7409 63.536C41.6129 63.84 41.4129 64.116 41.1409 64.364C40.8769 64.604 40.5569 64.796 40.1809 64.94C39.8129 65.076 39.4089 65.144 38.9689 65.144ZM45.5099 65V56.06H46.8299L50.1899 60.716H49.5299L52.8299 56.06H54.1499V65H52.7459V57.728L53.2739 57.872L49.9019 62.48H49.7579L46.4579 57.872L46.9259 57.728V65H45.5099ZM58.9982 65.144C58.3742 65.144 57.8022 64.996 57.2822 64.7C56.7702 64.404 56.3622 64 56.0582 63.488C55.7542 62.976 55.6022 62.396 55.6022 61.748C55.6022 61.092 55.7542 60.512 56.0582 60.008C56.3622 59.496 56.7702 59.096 57.2822 58.808C57.7942 58.512 58.3662 58.364 58.9982 58.364C59.6382 58.364 60.2102 58.512 60.7142 58.808C61.2262 59.096 61.6302 59.496 61.9262 60.008C62.2302 60.512 62.3822 61.092 62.3822 61.748C62.3822 62.404 62.2302 62.988 61.9262 63.5C61.6222 64.012 61.2142 64.416 60.7022 64.712C60.1902 65 59.6222 65.144 58.9982 65.144ZM58.9982 63.884C59.3822 63.884 59.7222 63.792 60.0182 63.608C60.3142 63.424 60.5462 63.172 60.7142 62.852C60.8902 62.524 60.9782 62.156 60.9782 61.748C60.9782 61.34 60.8902 60.976 60.7142 60.656C60.5462 60.336 60.3142 60.084 60.0182 59.9C59.7222 59.716 59.3822 59.624 58.9982 59.624C58.6222 59.624 58.2822 59.716 57.9782 59.9C57.6822 60.084 57.4462 60.336 57.2702 60.656C57.1022 60.976 57.0182 61.34 57.0182 61.748C57.0182 62.156 57.1022 62.524 57.2702 62.852C57.4462 63.172 57.6822 63.424 57.9782 63.608C58.2822 63.792 58.6222 63.884 58.9982 63.884ZM63.7061 65V58.508H65.0021V59.816L64.8821 59.624C65.0261 59.2 65.2581 58.896 65.5781 58.712C65.8981 58.52 66.2821 58.424 66.7301 58.424H67.1261V59.66H66.5621C66.1141 59.66 65.7501 59.8 65.4701 60.08C65.1981 60.352 65.0621 60.744 65.0621 61.256V65H63.7061ZM71.1017 65.144C70.4537 65.144 69.8777 64.996 69.3737 64.7C68.8777 64.396 68.4897 63.988 68.2097 63.476C67.9297 62.956 67.7897 62.376 67.7897 61.736C67.7897 61.08 67.9297 60.5 68.2097 59.996C68.4977 59.492 68.8817 59.096 69.3617 58.808C69.8417 58.512 70.3857 58.364 70.9937 58.364C71.4817 58.364 71.9177 58.448 72.3017 58.616C72.6857 58.784 73.0097 59.016 73.2737 59.312C73.5377 59.6 73.7377 59.932 73.8737 60.308C74.0177 60.684 74.0897 61.084 74.0897 61.508C74.0897 61.612 74.0857 61.72 74.0777 61.832C74.0697 61.944 74.0537 62.048 74.0297 62.144H68.8577V61.064H73.2617L72.6137 61.556C72.6937 61.164 72.6657 60.816 72.5297 60.512C72.4017 60.2 72.2017 59.956 71.9297 59.78C71.6657 59.596 71.3537 59.504 70.9937 59.504C70.6337 59.504 70.3137 59.596 70.0337 59.78C69.7537 59.956 69.5377 60.212 69.3857 60.548C69.2337 60.876 69.1737 61.276 69.2057 61.748C69.1657 62.188 69.2257 62.572 69.3857 62.9C69.5537 63.228 69.7857 63.484 70.0817 63.668C70.3857 63.852 70.7297 63.944 71.1137 63.944C71.5057 63.944 71.8377 63.856 72.1097 63.68C72.3897 63.504 72.6097 63.276 72.7697 62.996L73.8737 63.536C73.7457 63.84 73.5457 64.116 73.2737 64.364C73.0097 64.604 72.6897 64.796 72.3137 64.94C71.9457 65.076 71.5417 65.144 71.1017 65.144ZM80.5468 65L84.0268 61.268V62.18L80.5468 58.508H82.1908L85.0468 61.424V62.024L82.1908 65H80.5468ZM77.5588 62.36V61.136H83.9308V62.36H77.5588Z" fill="#F2F2F7"/>
<path d="M326.833 52.1718C327.82 51.3015 328.952 50.9064 330.23 50.9865C331.509 51.0667 332.582 51.6001 333.449 52.5867L340.295 60.4736C341.166 61.4604 341.562 62.5728 341.484 63.8109C341.407 65.0489 340.875 66.1032 339.888 66.9735C338.901 67.8438 337.789 68.2402 336.55 68.1625C335.312 68.0849 334.258 67.5527 333.388 66.5659L326.418 58.7877C325.548 57.801 325.152 56.67 325.232 55.3948C325.312 54.1195 325.846 53.0452 326.833 52.1718ZM334.969 -3.25026C335.839 -2.26348 336.235 -1.13093 336.154 0.147374C336.074 1.42568 335.541 2.49845 334.554 3.36569L326.783 10.2195C325.797 11.0898 324.666 11.485 323.39 11.4051C322.115 11.3251 321.041 10.7916 320.167 9.80466C319.294 8.81769 318.899 7.68669 318.982 6.41167C319.065 5.13666 319.598 4.06234 320.582 3.18872L328.469 -3.65783C329.456 -4.52816 330.568 -4.92451 331.807 -4.84687C333.045 -4.76924 334.099 -4.23703 334.969 -3.25026ZM260.685 -7.90828C261.672 -8.77861 262.804 -9.17369 264.083 -9.09354C265.361 -9.01338 266.434 -8.48001 267.301 -7.49343L274.147 0.393522C275.018 1.3803 275.414 2.49273 275.336 3.7308C275.259 4.96887 274.727 6.02307 273.74 6.89339C272.753 7.76372 271.622 8.15891 270.347 8.07894C269.072 7.99898 267.997 7.46551 267.124 6.47854L260.27 -1.29234C259.4 -2.27912 259.005 -3.41011 259.084 -4.68533C259.164 -5.96054 259.698 -7.03486 260.685 -7.90828ZM261.834 48.096C262.704 49.0828 263.1 50.2154 263.019 51.4937C262.939 52.772 262.406 53.8447 261.419 54.712L253.648 61.5658C252.662 62.4361 251.531 62.8313 250.255 62.7513C248.98 62.6714 247.906 62.1379 247.032 61.1509C246.159 60.164 245.764 59.033 245.847 57.758C245.93 56.4829 246.463 55.4086 247.447 54.535L255.334 47.6885C256.321 46.8181 257.433 46.4218 258.672 46.4994C259.91 46.577 260.964 47.1093 261.834 48.096ZM293.671 60.6962L273.676 71.0949C272.791 71.5832 271.886 71.7596 270.963 71.624C270.039 71.4883 269.246 71.1279 268.583 70.5426C267.921 69.9572 267.422 69.247 267.086 68.4118C266.75 67.5766 266.729 66.6618 267.025 65.6673L273.507 44.0505L257.369 28.2398C256.639 27.4948 256.206 26.6707 256.07 25.7672C255.934 24.8638 256.046 23.9976 256.406 23.1688C256.765 22.3399 257.273 21.6726 257.93 21.1668C258.586 20.6611 259.459 20.3663 260.549 20.2823L283.19 19.7211L293.19 -0.393311C293.635 -1.2976 294.28 -1.95637 295.123 -2.3696C295.966 -2.78283 296.812 -2.96286 297.66 -2.90968C298.508 -2.8565 299.324 -2.57225 300.109 -2.05693C300.894 -1.54161 301.451 -0.80754 301.779 0.145274L309.189 21.3514L331.583 24.7366C332.656 24.9593 333.486 25.3608 334.071 25.9413C334.656 26.5218 335.077 27.2473 335.333 28.1179C335.589 28.9885 335.593 29.8635 335.345 30.7428C335.097 31.6222 334.563 32.3842 333.743 33.0288L315.756 46.6997L319.488 68.957C319.657 69.9775 319.523 70.8826 319.085 71.6724C318.647 72.4622 318.063 73.1045 317.332 73.5994C316.602 74.0943 315.77 74.3529 314.837 74.3751C313.903 74.3973 313.028 74.1094 312.211 73.5113L293.671 60.6962Z" fill="white" fill-opacity="0.22"/>
</g>
<defs>
<linearGradient id="paint0_linear_6317_2488" x1="0" y1="44" x2="360" y2="44" gradientUnits="userSpaceOnUse">
<stop stop-color="#0077D4"/>
<stop offset="1" stop-color="#4CB0FF"/>
</linearGradient>
<clipPath id="clip0_6317_2488">
<path d="M0 12C0 5.37258 5.37258 0 12 0H348C354.627 0 360 5.37258 360 12V76C360 82.6274 354.627 88 348 88H12C5.37259 88 0 82.6274 0 76V12Z" fill="white"/>
</clipPath>
</defs>
</svg>
