<svg width="1127" height="199" viewBox="0 0 1127 199" fill="none" xmlns="http://www.w3.org/2000/svg">
<g clip-path="url(#clip0_6399_7421)">
<path d="M0 27.5C0 12.5883 12.0883 0.5 27 0.5H1100C1114.91 0.5 1127 12.5883 1127 27.5V171.5C1127 186.412 1114.91 198.5 1100 198.5H27C12.0883 198.5 0 186.412 0 171.5V27.5Z" fill="url(#paint0_linear_6399_7421)"/>
<path d="M48.465 95.5V61.975H60.66C62.91 61.975 64.89 62.395 66.6 63.235C68.31 64.045 69.645 65.245 70.605 66.835C71.595 68.395 72.09 70.27 72.09 72.46C72.09 74.77 71.505 76.75 70.335 78.4C69.195 80.05 67.65 81.25 65.7 82L73.44 95.5H67.41L59.175 80.875L62.64 82.9H53.775V95.5H48.465ZM53.775 78.175H60.75C61.98 78.175 63.045 77.935 63.945 77.455C64.845 76.975 65.535 76.315 66.015 75.475C66.525 74.605 66.78 73.585 66.78 72.415C66.78 71.245 66.525 70.24 66.015 69.4C65.535 68.53 64.845 67.87 63.945 67.42C63.045 66.94 61.98 66.7 60.75 66.7H53.775V78.175ZM87.2561 96.04C84.8261 96.04 82.6661 95.485 80.7761 94.375C78.9161 93.235 77.4611 91.705 76.4111 89.785C75.3611 87.835 74.8361 85.66 74.8361 83.26C74.8361 80.8 75.3611 78.625 76.4111 76.735C77.4911 74.845 78.9311 73.36 80.7311 72.28C82.5311 71.17 84.5711 70.615 86.8511 70.615C88.6811 70.615 90.3161 70.93 91.7561 71.56C93.1961 72.19 94.4111 73.06 95.4011 74.17C96.3911 75.25 97.1411 76.495 97.6511 77.905C98.1911 79.315 98.4611 80.815 98.4611 82.405C98.4611 82.795 98.4461 83.2 98.4161 83.62C98.3861 84.04 98.3261 84.43 98.2361 84.79H78.8411V80.74H95.3561L92.9261 82.585C93.2261 81.115 93.1211 79.81 92.6111 78.67C92.1311 77.5 91.3811 76.585 90.3611 75.925C89.3711 75.235 88.2011 74.89 86.8511 74.89C85.5011 74.89 84.3011 75.235 83.2511 75.925C82.2011 76.585 81.3911 77.545 80.8211 78.805C80.2511 80.035 80.0261 81.535 80.1461 83.305C79.9961 84.955 80.2211 86.395 80.8211 87.625C81.4511 88.855 82.3211 89.815 83.4311 90.505C84.5711 91.195 85.8611 91.54 87.3011 91.54C88.7711 91.54 90.0161 91.21 91.0361 90.55C92.0861 89.89 92.9111 89.035 93.5111 87.985L97.6511 90.01C97.1711 91.15 96.4211 92.185 95.4011 93.115C94.4111 94.015 93.2111 94.735 91.8011 95.275C90.4211 95.785 88.9061 96.04 87.2561 96.04ZM110.269 96.04C108.619 96.04 107.164 95.755 105.904 95.185C104.674 94.585 103.714 93.775 103.024 92.755C102.334 91.705 101.989 90.475 101.989 89.065C101.989 87.745 102.274 86.56 102.844 85.51C103.444 84.46 104.359 83.575 105.589 82.855C106.819 82.135 108.364 81.625 110.224 81.325L118.684 79.93V83.935L111.214 85.24C109.864 85.48 108.874 85.915 108.244 86.545C107.614 87.145 107.299 87.925 107.299 88.885C107.299 89.815 107.644 90.58 108.334 91.18C109.054 91.75 109.969 92.035 111.079 92.035C112.459 92.035 113.659 91.735 114.679 91.135C115.729 90.535 116.539 89.74 117.109 88.75C117.679 87.73 117.964 86.605 117.964 85.375V79.12C117.964 77.92 117.514 76.945 116.614 76.195C115.744 75.415 114.574 75.025 113.104 75.025C111.754 75.025 110.569 75.385 109.549 76.105C108.559 76.795 107.824 77.695 107.344 78.805L103.114 76.69C103.564 75.49 104.299 74.44 105.319 73.54C106.339 72.61 107.524 71.89 108.874 71.38C110.254 70.87 111.709 70.615 113.239 70.615C115.159 70.615 116.854 70.975 118.324 71.695C119.824 72.415 120.979 73.42 121.789 74.71C122.629 75.97 123.049 77.44 123.049 79.12V95.5H118.189V91.09L119.224 91.225C118.654 92.215 117.919 93.07 117.019 93.79C116.149 94.51 115.144 95.065 114.004 95.455C112.894 95.845 111.649 96.04 110.269 96.04ZM140.02 96.04C137.68 96.04 135.58 95.485 133.72 94.375C131.89 93.235 130.435 91.705 129.355 89.785C128.305 87.865 127.78 85.705 127.78 83.305C127.78 80.905 128.32 78.745 129.4 76.825C130.48 74.905 131.935 73.39 133.765 72.28C135.595 71.17 137.665 70.615 139.975 70.615C141.925 70.615 143.65 71.005 145.15 71.785C146.65 72.565 147.835 73.645 148.705 75.025L147.94 76.195V61.435H152.98V95.5H148.165V90.55L148.75 91.495C147.91 92.965 146.71 94.09 145.15 94.87C143.59 95.65 141.88 96.04 140.02 96.04ZM140.515 91.315C141.925 91.315 143.185 90.97 144.295 90.28C145.435 89.59 146.32 88.645 146.95 87.445C147.61 86.215 147.94 84.835 147.94 83.305C147.94 81.775 147.61 80.41 146.95 79.21C146.32 78.01 145.435 77.065 144.295 76.375C143.185 75.685 141.925 75.34 140.515 75.34C139.105 75.34 137.83 75.685 136.69 76.375C135.55 77.065 134.665 78.01 134.035 79.21C133.405 80.41 133.09 81.775 133.09 83.305C133.09 84.835 133.405 86.215 134.035 87.445C134.665 88.645 135.535 89.59 136.645 90.28C137.785 90.97 139.075 91.315 140.515 91.315ZM160.851 105.4C160.251 105.4 159.651 105.34 159.051 105.22C158.481 105.13 157.956 104.98 157.476 104.77V100.405C157.836 100.495 158.271 100.57 158.781 100.63C159.291 100.72 159.786 100.765 160.266 100.765C161.676 100.765 162.711 100.45 163.371 99.82C164.061 99.22 164.676 98.29 165.216 97.03L166.836 93.34L166.746 97.615L156.216 71.155H161.661L169.446 91.45H167.601L175.341 71.155H180.831L170.076 98.155C169.506 99.595 168.786 100.855 167.916 101.935C167.076 103.045 166.071 103.9 164.901 104.5C163.761 105.1 162.411 105.4 160.851 105.4ZM202.257 95.77C199.707 95.77 197.727 95.05 196.317 93.61C194.907 92.17 194.202 90.145 194.202 87.535V75.745H189.927V71.155H190.602C191.742 71.155 192.627 70.825 193.257 70.165C193.887 69.505 194.202 68.605 194.202 67.465V65.575H199.287V71.155H204.822V75.745H199.287V87.31C199.287 88.15 199.422 88.87 199.692 89.47C199.962 90.04 200.397 90.49 200.997 90.82C201.597 91.12 202.377 91.27 203.337 91.27C203.577 91.27 203.847 91.255 204.147 91.225C204.447 91.195 204.732 91.165 205.002 91.135V95.5C204.582 95.56 204.117 95.62 203.607 95.68C203.097 95.74 202.647 95.77 202.257 95.77ZM221.045 96.04C218.705 96.04 216.56 95.485 214.61 94.375C212.69 93.265 211.16 91.75 210.02 89.83C208.88 87.91 208.31 85.735 208.31 83.305C208.31 80.845 208.88 78.67 210.02 76.78C211.16 74.86 212.69 73.36 214.61 72.28C216.53 71.17 218.675 70.615 221.045 70.615C223.445 70.615 225.59 71.17 227.48 72.28C229.4 73.36 230.915 74.86 232.025 76.78C233.165 78.67 233.735 80.845 233.735 83.305C233.735 85.765 233.165 87.955 232.025 89.875C230.885 91.795 229.355 93.31 227.435 94.42C225.515 95.5 223.385 96.04 221.045 96.04ZM221.045 91.315C222.485 91.315 223.76 90.97 224.87 90.28C225.98 89.59 226.85 88.645 227.48 87.445C228.14 86.215 228.47 84.835 228.47 83.305C228.47 81.775 228.14 80.41 227.48 79.21C226.85 78.01 225.98 77.065 224.87 76.375C223.76 75.685 222.485 75.34 221.045 75.34C219.635 75.34 218.36 75.685 217.22 76.375C216.11 77.065 215.225 78.01 214.565 79.21C213.935 80.41 213.62 81.775 213.62 83.305C213.62 84.835 213.935 86.215 214.565 87.445C215.225 88.645 216.11 89.59 217.22 90.28C218.36 90.97 219.635 91.315 221.045 91.315ZM256.646 95.77C254.096 95.77 252.116 95.05 250.706 93.61C249.296 92.17 248.591 90.145 248.591 87.535V75.745H244.316V71.155H244.991C246.131 71.155 247.016 70.825 247.646 70.165C248.276 69.505 248.591 68.605 248.591 67.465V65.575H253.676V71.155H259.211V75.745H253.676V87.31C253.676 88.15 253.811 88.87 254.081 89.47C254.351 90.04 254.786 90.49 255.386 90.82C255.986 91.12 256.766 91.27 257.726 91.27C257.966 91.27 258.236 91.255 258.536 91.225C258.836 91.195 259.121 91.165 259.391 91.135V95.5C258.971 95.56 258.506 95.62 257.996 95.68C257.486 95.74 257.036 95.77 256.646 95.77ZM275.119 96.04C272.689 96.04 270.529 95.485 268.639 94.375C266.779 93.235 265.324 91.705 264.274 89.785C263.224 87.835 262.699 85.66 262.699 83.26C262.699 80.8 263.224 78.625 264.274 76.735C265.354 74.845 266.794 73.36 268.594 72.28C270.394 71.17 272.434 70.615 274.714 70.615C276.544 70.615 278.179 70.93 279.619 71.56C281.059 72.19 282.274 73.06 283.264 74.17C284.254 75.25 285.004 76.495 285.514 77.905C286.054 79.315 286.324 80.815 286.324 82.405C286.324 82.795 286.309 83.2 286.279 83.62C286.249 84.04 286.189 84.43 286.099 84.79H266.704V80.74H283.219L280.789 82.585C281.089 81.115 280.984 79.81 280.474 78.67C279.994 77.5 279.244 76.585 278.224 75.925C277.234 75.235 276.064 74.89 274.714 74.89C273.364 74.89 272.164 75.235 271.114 75.925C270.064 76.585 269.254 77.545 268.684 78.805C268.114 80.035 267.889 81.535 268.009 83.305C267.859 84.955 268.084 86.395 268.684 87.625C269.314 88.855 270.184 89.815 271.294 90.505C272.434 91.195 273.724 91.54 275.164 91.54C276.634 91.54 277.879 91.21 278.899 90.55C279.949 89.89 280.774 89.035 281.374 87.985L285.514 90.01C285.034 91.15 284.284 92.185 283.264 93.115C282.274 94.015 281.074 94.735 279.664 95.275C278.284 95.785 276.769 96.04 275.119 96.04ZM300.061 96.04C297.571 96.04 295.381 95.425 293.491 94.195C291.631 92.965 290.326 91.315 289.576 89.245L293.491 87.4C294.151 88.78 295.051 89.875 296.191 90.685C297.361 91.495 298.651 91.9 300.061 91.9C301.261 91.9 302.236 91.63 302.986 91.09C303.736 90.55 304.111 89.815 304.111 88.885C304.111 88.285 303.946 87.805 303.616 87.445C303.286 87.055 302.866 86.74 302.356 86.5C301.876 86.26 301.381 86.08 300.871 85.96L297.046 84.88C294.946 84.28 293.371 83.38 292.321 82.18C291.301 80.95 290.791 79.525 290.791 77.905C290.791 76.435 291.166 75.16 291.916 74.08C292.666 72.97 293.701 72.115 295.021 71.515C296.341 70.915 297.826 70.615 299.476 70.615C301.696 70.615 303.676 71.17 305.416 72.28C307.156 73.36 308.386 74.875 309.106 76.825L305.191 78.67C304.711 77.5 303.946 76.57 302.896 75.88C301.876 75.19 300.721 74.845 299.431 74.845C298.321 74.845 297.436 75.115 296.776 75.655C296.116 76.165 295.786 76.84 295.786 77.68C295.786 78.25 295.936 78.73 296.236 79.12C296.536 79.48 296.926 79.78 297.406 80.02C297.886 80.23 298.381 80.41 298.891 80.56L302.851 81.73C304.861 82.3 306.406 83.2 307.486 84.43C308.566 85.63 309.106 87.07 309.106 88.75C309.106 90.19 308.716 91.465 307.936 92.575C307.186 93.655 306.136 94.51 304.786 95.14C303.436 95.74 301.861 96.04 300.061 96.04ZM324.394 95.77C321.844 95.77 319.864 95.05 318.454 93.61C317.044 92.17 316.339 90.145 316.339 87.535V75.745H312.064V71.155H312.739C313.879 71.155 314.764 70.825 315.394 70.165C316.024 69.505 316.339 68.605 316.339 67.465V65.575H321.424V71.155H326.959V75.745H321.424V87.31C321.424 88.15 321.559 88.87 321.829 89.47C322.099 90.04 322.534 90.49 323.134 90.82C323.734 91.12 324.514 91.27 325.474 91.27C325.714 91.27 325.984 91.255 326.284 91.225C326.584 91.195 326.869 91.165 327.139 91.135V95.5C326.719 95.56 326.254 95.62 325.744 95.68C325.234 95.74 324.784 95.77 324.394 95.77ZM341.677 105.4C341.077 105.4 340.477 105.34 339.877 105.22C339.307 105.13 338.782 104.98 338.302 104.77V100.405C338.662 100.495 339.097 100.57 339.607 100.63C340.117 100.72 340.612 100.765 341.092 100.765C342.502 100.765 343.537 100.45 344.197 99.82C344.887 99.22 345.502 98.29 346.042 97.03L347.662 93.34L347.572 97.615L337.042 71.155H342.487L350.272 91.45H348.427L356.167 71.155H361.657L350.902 98.155C350.332 99.595 349.612 100.855 348.742 101.935C347.902 103.045 346.897 103.9 345.727 104.5C344.587 105.1 343.237 105.4 341.677 105.4ZM376.218 96.04C373.878 96.04 371.733 95.485 369.783 94.375C367.863 93.265 366.333 91.75 365.193 89.83C364.053 87.91 363.483 85.735 363.483 83.305C363.483 80.845 364.053 78.67 365.193 76.78C366.333 74.86 367.863 73.36 369.783 72.28C371.703 71.17 373.848 70.615 376.218 70.615C378.618 70.615 380.763 71.17 382.653 72.28C384.573 73.36 386.088 74.86 387.198 76.78C388.338 78.67 388.908 80.845 388.908 83.305C388.908 85.765 388.338 87.955 387.198 89.875C386.058 91.795 384.528 93.31 382.608 94.42C380.688 95.5 378.558 96.04 376.218 96.04ZM376.218 91.315C377.658 91.315 378.933 90.97 380.043 90.28C381.153 89.59 382.023 88.645 382.653 87.445C383.313 86.215 383.643 84.835 383.643 83.305C383.643 81.775 383.313 80.41 382.653 79.21C382.023 78.01 381.153 77.065 380.043 76.375C378.933 75.685 377.658 75.34 376.218 75.34C374.808 75.34 373.533 75.685 372.393 76.375C371.283 77.065 370.398 78.01 369.738 79.21C369.108 80.41 368.793 81.775 368.793 83.305C368.793 84.835 369.108 86.215 369.738 87.445C370.398 88.645 371.283 89.59 372.393 90.28C373.533 90.97 374.808 91.315 376.218 91.315ZM402.332 96.04C400.502 96.04 398.897 95.635 397.517 94.825C396.137 93.985 395.057 92.83 394.277 91.36C393.527 89.86 393.152 88.135 393.152 86.185V71.155H398.237V85.735C398.237 86.845 398.462 87.82 398.912 88.66C399.362 89.5 399.992 90.16 400.802 90.64C401.612 91.09 402.542 91.315 403.592 91.315C404.672 91.315 405.617 91.075 406.427 90.595C407.237 90.115 407.867 89.44 408.317 88.57C408.797 87.7 409.037 86.68 409.037 85.51V71.155H414.077V95.5H409.262V90.73L409.802 91.36C409.232 92.86 408.287 94.015 406.967 94.825C405.647 95.635 404.102 96.04 402.332 96.04ZM419.79 95.5V71.155H424.65V76.06L424.2 75.34C424.74 73.75 425.61 72.61 426.81 71.92C428.01 71.2 429.45 70.84 431.13 70.84H432.615V75.475H430.5C428.82 75.475 427.455 76 426.405 77.05C425.385 78.07 424.875 79.54 424.875 81.46V95.5H419.79ZM452.509 96.04C450.019 96.04 447.829 95.425 445.939 94.195C444.079 92.965 442.774 91.315 442.024 89.245L445.939 87.4C446.599 88.78 447.499 89.875 448.639 90.685C449.809 91.495 451.099 91.9 452.509 91.9C453.709 91.9 454.684 91.63 455.434 91.09C456.184 90.55 456.559 89.815 456.559 88.885C456.559 88.285 456.394 87.805 456.064 87.445C455.734 87.055 455.314 86.74 454.804 86.5C454.324 86.26 453.829 86.08 453.319 85.96L449.494 84.88C447.394 84.28 445.819 83.38 444.769 82.18C443.749 80.95 443.239 79.525 443.239 77.905C443.239 76.435 443.614 75.16 444.364 74.08C445.114 72.97 446.149 72.115 447.469 71.515C448.789 70.915 450.274 70.615 451.924 70.615C454.144 70.615 456.124 71.17 457.864 72.28C459.604 73.36 460.834 74.875 461.554 76.825L457.639 78.67C457.159 77.5 456.394 76.57 455.344 75.88C454.324 75.19 453.169 74.845 451.879 74.845C450.769 74.845 449.884 75.115 449.224 75.655C448.564 76.165 448.234 76.84 448.234 77.68C448.234 78.25 448.384 78.73 448.684 79.12C448.984 79.48 449.374 79.78 449.854 80.02C450.334 80.23 450.829 80.41 451.339 80.56L455.299 81.73C457.309 82.3 458.854 83.2 459.934 84.43C461.014 85.63 461.554 87.07 461.554 88.75C461.554 90.19 461.164 91.465 460.384 92.575C459.634 93.655 458.584 94.51 457.234 95.14C455.884 95.74 454.309 96.04 452.509 96.04ZM466.312 95.5V61.435H471.397V84.25L469.417 83.755L481.612 71.155H487.957L478.777 80.92L488.362 95.5H482.512L473.962 82.585L476.977 82.18L469.777 89.83L471.397 86.455V95.5H466.312ZM491.619 95.5V71.155H496.704V95.5H491.619ZM491.619 67.825V61.975H496.704V67.825H491.619ZM502.424 95.5V61.435H507.509V95.5H502.424ZM513.23 95.5V61.435H518.315V95.5H513.23ZM529.885 85.51V84.745C529.885 83.425 530.095 82.255 530.515 81.235C530.965 80.215 531.52 79.3 532.18 78.49C532.87 77.65 533.575 76.885 534.295 76.195C535.315 75.235 536.215 74.305 536.995 73.405C537.805 72.505 538.21 71.455 538.21 70.255C538.21 69.505 538.03 68.83 537.67 68.23C537.31 67.6 536.77 67.105 536.05 66.745C535.36 66.355 534.505 66.16 533.485 66.16C532.075 66.16 530.86 66.595 529.84 67.465C528.85 68.305 528.22 69.445 527.95 70.885L523.225 69.76C523.495 68.11 524.095 66.67 525.025 65.44C525.985 64.18 527.185 63.205 528.625 62.515C530.095 61.795 531.745 61.435 533.575 61.435C535.645 61.435 537.415 61.855 538.885 62.695C540.385 63.505 541.525 64.57 542.305 65.89C543.085 67.21 543.475 68.635 543.475 70.165C543.475 71.395 543.22 72.505 542.71 73.495C542.23 74.455 541.6 75.34 540.82 76.15C540.07 76.96 539.29 77.755 538.48 78.535C537.52 79.465 536.665 80.44 535.915 81.46C535.195 82.45 534.835 83.62 534.835 84.97V85.51H529.885ZM529.885 95.5V89.65H535.06V95.5H529.885Z" fill="white"/>
<path d="M54.126 146.824C52.866 146.824 51.696 146.59 50.616 146.122C49.536 145.636 48.618 144.979 47.862 144.151C47.106 143.323 46.548 142.369 46.188 141.289L48.888 140.155C49.374 141.397 50.085 142.351 51.021 143.017C51.957 143.683 53.037 144.016 54.261 144.016C54.981 144.016 55.611 143.908 56.151 143.692C56.691 143.458 57.105 143.134 57.393 142.72C57.699 142.306 57.852 141.829 57.852 141.289C57.852 140.551 57.645 139.966 57.231 139.534C56.817 139.102 56.205 138.76 55.395 138.508L51.615 137.32C50.103 136.852 48.951 136.141 48.159 135.187C47.367 134.215 46.971 133.081 46.971 131.785C46.971 130.651 47.25 129.661 47.808 128.815C48.366 127.951 49.131 127.276 50.103 126.79C51.093 126.304 52.218 126.061 53.478 126.061C54.684 126.061 55.782 126.277 56.772 126.709C57.762 127.123 58.608 127.699 59.31 128.437C60.03 129.175 60.552 130.03 60.876 131.002L58.23 132.163C57.834 131.101 57.213 130.282 56.367 129.706C55.539 129.13 54.576 128.842 53.478 128.842C52.812 128.842 52.227 128.959 51.723 129.193C51.219 129.409 50.823 129.733 50.535 130.165C50.265 130.579 50.13 131.065 50.13 131.623C50.13 132.271 50.337 132.847 50.751 133.351C51.165 133.855 51.795 134.233 52.641 134.485L56.151 135.592C57.753 136.078 58.959 136.78 59.769 137.698C60.579 138.598 60.984 139.723 60.984 141.073C60.984 142.189 60.687 143.179 60.093 144.043C59.517 144.907 58.716 145.591 57.69 146.095C56.664 146.581 55.476 146.824 54.126 146.824ZM71.1214 146.824C69.6634 146.824 68.3674 146.491 67.2334 145.825C66.1174 145.141 65.2444 144.223 64.6144 143.071C63.9844 141.901 63.6694 140.596 63.6694 139.156C63.6694 137.68 63.9844 136.375 64.6144 135.241C65.2624 134.107 66.1264 133.216 67.2064 132.568C68.2864 131.902 69.5104 131.569 70.8784 131.569C71.9764 131.569 72.9574 131.758 73.8214 132.136C74.6854 132.514 75.4144 133.036 76.0084 133.702C76.6024 134.35 77.0524 135.097 77.3584 135.943C77.6824 136.789 77.8444 137.689 77.8444 138.643C77.8444 138.877 77.8354 139.12 77.8174 139.372C77.7994 139.624 77.7634 139.858 77.7094 140.074H66.0724V137.644H75.9814L74.5234 138.751C74.7034 137.869 74.6404 137.086 74.3344 136.402C74.0464 135.7 73.5964 135.151 72.9844 134.755C72.3904 134.341 71.6884 134.134 70.8784 134.134C70.0684 134.134 69.3484 134.341 68.7184 134.755C68.0884 135.151 67.6024 135.727 67.2604 136.483C66.9184 137.221 66.7834 138.121 66.8554 139.183C66.7654 140.173 66.9004 141.037 67.2604 141.775C67.6384 142.513 68.1604 143.089 68.8264 143.503C69.5104 143.917 70.2844 144.124 71.1484 144.124C72.0304 144.124 72.7774 143.926 73.3894 143.53C74.0194 143.134 74.5144 142.621 74.8744 141.991L77.3584 143.206C77.0704 143.89 76.6204 144.511 76.0084 145.069C75.4144 145.609 74.6944 146.041 73.8484 146.365C73.0204 146.671 72.1114 146.824 71.1214 146.824ZM87.68 146.824C86.222 146.824 84.926 146.491 83.792 145.825C82.676 145.141 81.803 144.223 81.173 143.071C80.543 141.901 80.228 140.596 80.228 139.156C80.228 137.68 80.543 136.375 81.173 135.241C81.821 134.107 82.685 133.216 83.765 132.568C84.845 131.902 86.069 131.569 87.437 131.569C88.535 131.569 89.516 131.758 90.38 132.136C91.244 132.514 91.973 133.036 92.567 133.702C93.161 134.35 93.611 135.097 93.917 135.943C94.241 136.789 94.403 137.689 94.403 138.643C94.403 138.877 94.394 139.12 94.376 139.372C94.358 139.624 94.322 139.858 94.268 140.074H82.631V137.644H92.54L91.082 138.751C91.262 137.869 91.199 137.086 90.893 136.402C90.605 135.7 90.155 135.151 89.543 134.755C88.949 134.341 88.247 134.134 87.437 134.134C86.627 134.134 85.907 134.341 85.277 134.755C84.647 135.151 84.161 135.727 83.819 136.483C83.477 137.221 83.342 138.121 83.414 139.183C83.324 140.173 83.459 141.037 83.819 141.775C84.197 142.513 84.719 143.089 85.385 143.503C86.069 143.917 86.843 144.124 87.707 144.124C88.589 144.124 89.336 143.926 89.948 143.53C90.578 143.134 91.073 142.621 91.433 141.991L93.917 143.206C93.629 143.89 93.179 144.511 92.567 145.069C91.973 145.609 91.253 146.041 90.407 146.365C89.579 146.671 88.67 146.824 87.68 146.824ZM102.397 146.5V126.385H105.367L112.927 136.861H111.442L118.867 126.385H121.837V146.5H118.678V130.138L119.866 130.462L112.279 140.83H111.955L104.53 130.462L105.583 130.138V146.5H102.397ZM132.746 146.824C131.342 146.824 130.055 146.491 128.885 145.825C127.733 145.159 126.815 144.25 126.131 143.098C125.447 141.946 125.105 140.641 125.105 139.183C125.105 137.707 125.447 136.402 126.131 135.268C126.815 134.116 127.733 133.216 128.885 132.568C130.037 131.902 131.324 131.569 132.746 131.569C134.186 131.569 135.473 131.902 136.607 132.568C137.759 133.216 138.668 134.116 139.334 135.268C140.018 136.402 140.36 137.707 140.36 139.183C140.36 140.659 140.018 141.973 139.334 143.125C138.65 144.277 137.732 145.186 136.58 145.852C135.428 146.5 134.15 146.824 132.746 146.824ZM132.746 143.989C133.61 143.989 134.375 143.782 135.041 143.368C135.707 142.954 136.229 142.387 136.607 141.667C137.003 140.929 137.201 140.101 137.201 139.183C137.201 138.265 137.003 137.446 136.607 136.726C136.229 136.006 135.707 135.439 135.041 135.025C134.375 134.611 133.61 134.404 132.746 134.404C131.9 134.404 131.135 134.611 130.451 135.025C129.785 135.439 129.254 136.006 128.858 136.726C128.48 137.446 128.291 138.265 128.291 139.183C128.291 140.101 128.48 140.929 128.858 141.667C129.254 142.387 129.785 142.954 130.451 143.368C131.135 143.782 131.9 143.989 132.746 143.989ZM143.339 146.5V131.893H146.255V134.836L145.985 134.404C146.309 133.45 146.831 132.766 147.551 132.352C148.271 131.92 149.135 131.704 150.143 131.704H151.034V134.485H149.765C148.757 134.485 147.938 134.8 147.308 135.43C146.696 136.042 146.39 136.924 146.39 138.076V146.5H143.339ZM159.979 146.824C158.521 146.824 157.225 146.491 156.091 145.825C154.975 145.141 154.102 144.223 153.472 143.071C152.842 141.901 152.527 140.596 152.527 139.156C152.527 137.68 152.842 136.375 153.472 135.241C154.12 134.107 154.984 133.216 156.064 132.568C157.144 131.902 158.368 131.569 159.736 131.569C160.834 131.569 161.815 131.758 162.679 132.136C163.543 132.514 164.272 133.036 164.866 133.702C165.46 134.35 165.91 135.097 166.216 135.943C166.54 136.789 166.702 137.689 166.702 138.643C166.702 138.877 166.693 139.12 166.675 139.372C166.657 139.624 166.621 139.858 166.567 140.074H154.93V137.644H164.839L163.381 138.751C163.561 137.869 163.498 137.086 163.192 136.402C162.904 135.7 162.454 135.151 161.842 134.755C161.248 134.341 160.546 134.134 159.736 134.134C158.926 134.134 158.206 134.341 157.576 134.755C156.946 135.151 156.46 135.727 156.118 136.483C155.776 137.221 155.641 138.121 155.713 139.183C155.623 140.173 155.758 141.037 156.118 141.775C156.496 142.513 157.018 143.089 157.684 143.503C158.368 143.917 159.142 144.124 160.006 144.124C160.888 144.124 161.635 143.926 162.247 143.53C162.877 143.134 163.372 142.621 163.732 141.991L166.216 143.206C165.928 143.89 165.478 144.511 164.866 145.069C164.272 145.609 163.552 146.041 162.706 146.365C161.878 146.671 160.969 146.824 159.979 146.824ZM181.23 146.5L189.06 138.103V140.155L181.23 131.893H184.929L191.355 138.454V139.804L184.929 146.5H181.23ZM174.507 140.56V137.806H188.844V140.56H174.507Z" fill="#F2F2F7"/>
<path d="M1037.37 113.138C1039.59 111.18 1042.14 110.291 1045.02 110.471C1047.89 110.652 1050.31 111.852 1052.26 114.071L1067.66 131.817C1069.62 134.037 1070.51 136.54 1070.34 139.326C1070.17 142.112 1068.97 144.484 1066.75 146.442C1064.53 148.4 1062.02 149.292 1059.24 149.117C1056.45 148.942 1054.08 147.745 1052.12 145.525L1036.44 128.024C1034.48 125.804 1033.59 123.259 1033.77 120.39C1033.95 117.52 1035.15 115.103 1037.37 113.138ZM1055.68 -11.5616C1057.64 -9.34136 1058.53 -6.79314 1058.35 -3.91695C1058.17 -1.04075 1056.97 1.37298 1054.75 3.32425L1037.26 18.7454C1035.04 20.7036 1032.5 21.5928 1029.63 21.4129C1026.76 21.2329 1024.34 20.0326 1022.38 17.8119C1020.41 15.5913 1019.52 13.0465 1019.71 10.1777C1019.9 7.30894 1021.1 4.89172 1023.31 2.92608L1041.06 -12.4787C1043.28 -14.4369 1045.78 -15.3287 1048.56 -15.154C1051.35 -14.9793 1053.72 -13.7819 1055.68 -11.5616ZM888.541 -22.0422C890.761 -24.0004 893.309 -24.8893 896.186 -24.709C899.062 -24.5286 901.475 -23.3286 903.427 -21.1087L918.832 -3.36311C920.79 -1.14286 921.682 1.3601 921.507 4.14576C921.332 6.93141 920.135 9.30336 917.914 11.2616C915.694 13.2198 913.149 14.109 910.28 13.9291C907.411 13.7492 904.994 12.5489 903.029 10.3282L887.607 -7.1563C885.649 -9.37655 884.76 -11.9213 884.94 -14.7905C885.12 -17.6598 886.32 -20.077 888.541 -22.0422ZM891.127 103.968C893.085 106.188 893.974 108.736 893.794 111.612C893.613 114.488 892.413 116.902 890.193 118.853L872.709 134.274C870.489 136.233 867.944 137.122 865.075 136.942C862.205 136.762 859.788 135.562 857.823 133.341C855.858 131.12 854.969 128.576 855.155 125.707C855.342 122.838 856.543 120.421 858.756 118.455L876.502 103.05C878.722 101.092 881.225 100.2 884.011 100.375C886.797 100.55 889.168 101.747 891.127 103.968ZM962.76 132.318L917.771 155.715C915.779 156.814 913.744 157.21 911.666 156.905C909.587 156.6 907.803 155.789 906.313 154.472C904.822 153.155 903.699 151.557 902.943 149.678C902.187 147.799 902.141 145.74 902.805 143.503L917.391 94.865L881.081 59.291C879.438 57.6149 878.464 55.7604 878.158 53.7277C877.852 51.6949 878.104 49.7461 878.913 47.8812C879.722 46.0162 880.865 44.5148 882.341 43.3769C883.818 42.2389 885.782 41.5756 888.234 41.3867L939.177 40.124L961.678 -5.13349C962.68 -7.16815 964.129 -8.65036 966.026 -9.58013C967.923 -10.5099 969.826 -10.915 971.734 -10.7953C973.642 -10.6757 975.479 -10.0361 977.245 -8.87663C979.011 -7.71716 980.264 -6.0655 981.004 -3.92167L997.676 43.7922L1048.06 51.4088C1050.48 51.9098 1052.34 52.8134 1053.66 54.1194C1054.98 55.4255 1055.92 57.0579 1056.5 59.0167C1057.07 60.9756 1057.08 62.9443 1056.53 64.9229C1055.97 66.9015 1054.77 68.6159 1052.92 70.0663L1012.45 100.826L1020.85 150.905C1021.23 153.201 1020.93 155.237 1019.94 157.014C1018.95 158.791 1017.64 160.237 1016 161.35C1014.35 162.464 1012.48 163.045 1010.38 163.095C1008.28 163.145 1006.31 162.498 1004.47 161.152L962.76 132.318Z" fill="white" fill-opacity="0.22"/>
</g>
<defs>
<linearGradient id="paint0_linear_6399_7421" x1="0" y1="99.5" x2="1127" y2="99.5" gradientUnits="userSpaceOnUse">
<stop stop-color="#0077D4"/>
<stop offset="1" stop-color="#4CB0FF"/>
</linearGradient>
<clipPath id="clip0_6399_7421">
<path d="M0 27.5C0 12.5883 12.0883 0.5 27 0.5H1100C1114.91 0.5 1127 12.5883 1127 27.5V171.5C1127 186.412 1114.91 198.5 1100 198.5H27C12.0883 198.5 0 186.412 0 171.5V27.5Z" fill="white"/>
</clipPath>
</defs>
</svg>
