<?xml version="1.0" standalone="no"?>
<!DOCTYPE svg PUBLIC "-//W3C//DTD SVG 20010904//EN"
 "http://www.w3.org/TR/2001/REC-SVG-20010904/DTD/svg10.dtd">
<svg version="1.0" xmlns="http://www.w3.org/2000/svg"
 width="1133.000000pt" height="1244.000000pt" viewBox="0 0 1133.000000 1244.000000"
 preserveAspectRatio="xMidYMid meet">

<g transform="translate(0.000000,1244.000000) scale(0.100000,-0.100000)"
fill="#000000" stroke="none">
<path d="M4235 11079 c-754 -435 -1374 -794 -1378 -798 -7 -7 1308 -774 1328
-774 6 1 327 184 715 409 387 224 709 407 715 407 5 0 326 -183 712 -407 386
-223 706 -407 710 -408 7 -2 1146 649 1316 752 l27 17 -1379 797 c-759 438
-1383 796 -1388 796 -5 0 -625 -356 -1378 -791z"/>
<path d="M1390 6112 l0 -3249 656 -379 c361 -208 661 -380 665 -382 5 -2 9
1080 9 2467 0 1359 3 2471 6 2471 3 0 649 -371 1435 -825 786 -454 1435 -828
1443 -831 7 -3 661 369 1452 826 l1439 830 5 -2473 5 -2473 660 382 660 381 3
3248 c2 2866 0 3246 -13 3241 -14 -5 -671 -384 -3000 -1729 -638 -369 -1171
-675 -1185 -680 -22 -8 -110 39 -795 435 -423 245 -1368 790 -2100 1213 -731
422 -1333 769 -1337 772 -5 2 -8 -1458 -8 -3245z"/>
<path d="M4230 2822 l0 -1599 680 -392 c374 -216 688 -395 698 -397 10 -2 310
166 697 390 l680 393 3 1598 c2 1360 0 1596 -12 1592 -7 -3 -274 -156 -592
-340 -319 -184 -622 -359 -675 -389 l-97 -56 -648 375 c-357 206 -668 386
-691 399 l-43 25 0 -1599z"/>
</g>
</svg>
