<svg width="18" height="18" viewBox="0 0 18 18" fill="none" xmlns="http://www.w3.org/2000/svg">
<path fill-rule="evenodd" clip-rule="evenodd" d="M3.16669 2.33317C2.94567 2.33317 2.73371 2.42097 2.57743 2.57725C2.42115 2.73353 2.33335 2.94549 2.33335 3.1665V14.8332C2.33335 15.0542 2.42115 15.2661 2.57743 15.4224C2.73371 15.5787 2.94567 15.6665 3.16669 15.6665H6.50002C6.96026 15.6665 7.33335 16.0396 7.33335 16.4998C7.33335 16.9601 6.96026 17.3332 6.50002 17.3332H3.16669C2.50365 17.3332 1.86776 17.0698 1.39892 16.6009C0.930079 16.1321 0.666687 15.4962 0.666687 14.8332V3.1665C0.666687 2.50346 0.930079 1.86758 1.39892 1.39874C1.86776 0.929896 2.50365 0.666504 3.16669 0.666504H6.50002C6.96026 0.666504 7.33335 1.0396 7.33335 1.49984C7.33335 1.96007 6.96026 2.33317 6.50002 2.33317H3.16669ZM11.7441 4.24391C12.0695 3.91848 12.5972 3.91848 12.9226 4.24391L17.0893 8.41058C17.4147 8.73602 17.4147 9.26366 17.0893 9.58909L12.9226 13.7558C12.5972 14.0812 12.0695 14.0812 11.7441 13.7558C11.4187 13.4303 11.4187 12.9027 11.7441 12.5772L14.4882 9.83317H6.50002C6.03978 9.83317 5.66669 9.46007 5.66669 8.99984C5.66669 8.5396 6.03978 8.1665 6.50002 8.1665H14.4882L11.7441 5.42243C11.4187 5.09699 11.4187 4.56935 11.7441 4.24391Z" fill="#0077D4"/>
</svg>
