<svg width="360" height="135" viewBox="0 0 360 135" fill="none" xmlns="http://www.w3.org/2000/svg">
<path d="M0 16C0 7.16345 7.16344 0 16 0H344C352.837 0 360 7.16344 360 16V119C360 127.837 352.837 135 344 135H16C7.16344 135 0 127.837 0 119V16Z" fill="url(#paint0_linear_6317_2355)"/>
<path d="M20.924 42.5V33.56H23.852C24.78 33.56 25.584 33.748 26.264 34.124C26.952 34.492 27.484 35.012 27.86 35.684C28.236 36.356 28.424 37.136 28.424 38.024C28.424 38.904 28.236 39.684 27.86 40.364C27.484 41.036 26.952 41.56 26.264 41.936C25.584 42.312 24.78 42.5 23.852 42.5H20.924ZM22.34 41.24H23.876C24.508 41.24 25.056 41.108 25.52 40.844C25.992 40.58 26.356 40.208 26.612 39.728C26.868 39.248 26.996 38.68 26.996 38.024C26.996 37.368 26.864 36.804 26.6 36.332C26.344 35.852 25.984 35.48 25.52 35.216C25.056 34.952 24.508 34.82 23.876 34.82H22.34V41.24ZM29.6865 42.5V36.008H31.0425V42.5H29.6865ZM29.6865 35.12V33.56H31.0425V35.12H29.6865ZM35.6279 42.644C35.0039 42.644 34.4439 42.496 33.9479 42.2C33.4599 41.896 33.0719 41.488 32.7839 40.976C32.5039 40.464 32.3639 39.888 32.3639 39.248C32.3639 38.608 32.5079 38.032 32.7959 37.52C33.0839 37.008 33.4719 36.604 33.9599 36.308C34.4479 36.012 34.9999 35.864 35.6159 35.864C36.1359 35.864 36.5959 35.968 36.9959 36.176C37.3959 36.384 37.7119 36.672 37.9439 37.04L37.7399 37.352V33.416H39.0839V42.5H37.7999V41.18L37.9559 41.432C37.7319 41.824 37.4119 42.124 36.9959 42.332C36.5799 42.54 36.1239 42.644 35.6279 42.644ZM35.7599 41.384C36.1359 41.384 36.4719 41.292 36.7679 41.108C37.0719 40.924 37.3079 40.672 37.4759 40.352C37.6519 40.024 37.7399 39.656 37.7399 39.248C37.7399 38.84 37.6519 38.476 37.4759 38.156C37.3079 37.836 37.0719 37.584 36.7679 37.4C36.4719 37.216 36.1359 37.124 35.7599 37.124C35.3839 37.124 35.0439 37.216 34.7399 37.4C34.4359 37.584 34.1999 37.836 34.0319 38.156C33.8639 38.476 33.7799 38.84 33.7799 39.248C33.7799 39.656 33.8639 40.024 34.0319 40.352C34.1999 40.672 34.4319 40.924 34.7279 41.108C35.0319 41.292 35.3759 41.384 35.7599 41.384ZM45.1647 42.5V38.468L42.1047 33.56H43.7007L46.1487 37.532H45.5847L48.0207 33.56H49.6167L46.5687 38.468V42.5H45.1647ZM52.5412 42.644C51.9172 42.644 51.3452 42.496 50.8252 42.2C50.3132 41.904 49.9052 41.5 49.6012 40.988C49.2972 40.476 49.1452 39.896 49.1452 39.248C49.1452 38.592 49.2972 38.012 49.6012 37.508C49.9052 36.996 50.3132 36.596 50.8252 36.308C51.3372 36.012 51.9092 35.864 52.5412 35.864C53.1812 35.864 53.7532 36.012 54.2572 36.308C54.7692 36.596 55.1732 36.996 55.4692 37.508C55.7732 38.012 55.9252 38.592 55.9252 39.248C55.9252 39.904 55.7732 40.488 55.4692 41C55.1652 41.512 54.7572 41.916 54.2452 42.212C53.7332 42.5 53.1652 42.644 52.5412 42.644ZM52.5412 41.384C52.9252 41.384 53.2652 41.292 53.5612 41.108C53.8572 40.924 54.0892 40.672 54.2572 40.352C54.4332 40.024 54.5212 39.656 54.5212 39.248C54.5212 38.84 54.4332 38.476 54.2572 38.156C54.0892 37.836 53.8572 37.584 53.5612 37.4C53.2652 37.216 52.9252 37.124 52.5412 37.124C52.1652 37.124 51.8252 37.216 51.5212 37.4C51.2252 37.584 50.9892 37.836 50.8132 38.156C50.6452 38.476 50.5612 38.84 50.5612 39.248C50.5612 39.656 50.6452 40.024 50.8132 40.352C50.9892 40.672 51.2252 40.924 51.5212 41.108C51.8252 41.292 52.1652 41.384 52.5412 41.384ZM59.565 42.644C59.077 42.644 58.649 42.536 58.281 42.32C57.913 42.096 57.625 41.788 57.417 41.396C57.217 40.996 57.117 40.536 57.117 40.016V36.008H58.473V39.896C58.473 40.192 58.533 40.452 58.653 40.676C58.773 40.9 58.941 41.076 59.157 41.204C59.373 41.324 59.621 41.384 59.901 41.384C60.189 41.384 60.441 41.32 60.657 41.192C60.873 41.064 61.041 40.884 61.161 40.652C61.289 40.42 61.353 40.148 61.353 39.836V36.008H62.697V42.5H61.413V41.228L61.557 41.396C61.405 41.796 61.153 42.104 60.801 42.32C60.449 42.536 60.037 42.644 59.565 42.644ZM66.5099 42.5V33.56H67.9259V38.408L67.5539 38.264L71.5979 33.56H73.3619L69.7859 37.748L69.8579 36.74L73.5059 42.5H71.8379L69.2219 38.408L67.9259 39.92V42.5H66.5099ZM74.4287 42.5V36.008H75.7247V37.28L75.5687 37.112C75.7287 36.704 75.9847 36.396 76.3367 36.188C76.6887 35.972 77.0967 35.864 77.5607 35.864C78.0407 35.864 78.4647 35.968 78.8327 36.176C79.2007 36.384 79.4887 36.672 79.6967 37.04C79.9047 37.408 80.0087 37.832 80.0087 38.312V42.5H78.6647V38.672C78.6647 38.344 78.6047 38.068 78.4847 37.844C78.3647 37.612 78.1927 37.436 77.9687 37.316C77.7527 37.188 77.5047 37.124 77.2247 37.124C76.9447 37.124 76.6927 37.188 76.4687 37.316C76.2527 37.436 76.0847 37.612 75.9647 37.844C75.8447 38.076 75.7847 38.352 75.7847 38.672V42.5H74.4287ZM84.592 42.644C83.968 42.644 83.396 42.496 82.876 42.2C82.364 41.904 81.956 41.5 81.652 40.988C81.348 40.476 81.196 39.896 81.196 39.248C81.196 38.592 81.348 38.012 81.652 37.508C81.956 36.996 82.364 36.596 82.876 36.308C83.388 36.012 83.96 35.864 84.592 35.864C85.232 35.864 85.804 36.012 86.308 36.308C86.82 36.596 87.224 36.996 87.52 37.508C87.824 38.012 87.976 38.592 87.976 39.248C87.976 39.904 87.824 40.488 87.52 41C87.216 41.512 86.808 41.916 86.296 42.212C85.784 42.5 85.216 42.644 84.592 42.644ZM84.592 41.384C84.976 41.384 85.316 41.292 85.612 41.108C85.908 40.924 86.14 40.672 86.308 40.352C86.484 40.024 86.572 39.656 86.572 39.248C86.572 38.84 86.484 38.476 86.308 38.156C86.14 37.836 85.908 37.584 85.612 37.4C85.316 37.216 84.976 37.124 84.592 37.124C84.216 37.124 83.876 37.216 83.572 37.4C83.276 37.584 83.04 37.836 82.864 38.156C82.696 38.476 82.612 38.84 82.612 39.248C82.612 39.656 82.696 40.024 82.864 40.352C83.04 40.672 83.276 40.924 83.572 41.108C83.876 41.292 84.216 41.384 84.592 41.384ZM90.7546 42.5L88.5226 36.008H89.9626L91.6666 41.18H91.1626L92.9026 36.008H94.1386L95.8666 41.18H95.3626L97.0786 36.008H98.5186L96.2746 42.5H95.0506L93.2986 37.208H93.7426L91.9906 42.5H90.7546ZM101.008 39.836V39.632C101.008 39.28 101.064 38.968 101.176 38.696C101.296 38.424 101.444 38.18 101.62 37.964C101.804 37.74 101.992 37.536 102.184 37.352C102.456 37.096 102.696 36.848 102.904 36.608C103.12 36.368 103.228 36.088 103.228 35.768C103.228 35.568 103.18 35.388 103.084 35.228C102.988 35.06 102.844 34.928 102.652 34.832C102.468 34.728 102.24 34.676 101.968 34.676C101.592 34.676 101.268 34.792 100.996 35.024C100.732 35.248 100.564 35.552 100.492 35.936L99.2323 35.636C99.3043 35.196 99.4643 34.812 99.7123 34.484C99.9683 34.148 100.288 33.888 100.672 33.704C101.064 33.512 101.504 33.416 101.992 33.416C102.544 33.416 103.016 33.528 103.408 33.752C103.808 33.968 104.112 34.252 104.32 34.604C104.528 34.956 104.632 35.336 104.632 35.744C104.632 36.072 104.564 36.368 104.428 36.632C104.3 36.888 104.132 37.124 103.924 37.34C103.724 37.556 103.516 37.768 103.3 37.976C103.044 38.224 102.816 38.484 102.616 38.756C102.424 39.02 102.328 39.332 102.328 39.692V39.836H101.008ZM101.008 42.5V40.94H102.388V42.5H101.008Z" fill="white"/>
<path d="M21.54 71.5V56.6H23.74L29.34 64.36H28.24L33.74 56.6H35.94V71.5H33.6V59.38L34.48 59.62L28.86 67.3H28.62L23.12 59.62L23.9 59.38V71.5H21.54ZM38.9205 71.5V56.6H41.2805V71.5H38.9205ZM44.2697 71.5V56.6H46.6297V69.4H53.0697V71.5H44.2697ZM60.747 71.5L57.027 60.68H59.427L62.267 69.3H61.427L64.327 60.68H66.387L69.267 69.3H68.427L71.287 60.68H73.687L69.947 71.5H67.907L64.987 62.68H65.727L62.807 71.5H60.747ZM77.9858 71.74C77.2524 71.74 76.6058 71.6133 76.0458 71.36C75.4991 71.0933 75.0724 70.7333 74.7658 70.28C74.4591 69.8133 74.3058 69.2667 74.3058 68.64C74.3058 68.0533 74.4324 67.5267 74.6858 67.06C74.9524 66.5933 75.3591 66.2 75.9058 65.88C76.4524 65.56 77.1391 65.3333 77.9658 65.2L81.7258 64.58V66.36L78.4058 66.94C77.8058 67.0467 77.3658 67.24 77.0858 67.52C76.8058 67.7867 76.6658 68.1333 76.6658 68.56C76.6658 68.9733 76.8191 69.3133 77.1258 69.58C77.4458 69.8333 77.8524 69.96 78.3458 69.96C78.9591 69.96 79.4924 69.8267 79.9458 69.56C80.4124 69.2933 80.7724 68.94 81.0258 68.5C81.2791 68.0467 81.4058 67.5467 81.4058 67V64.22C81.4058 63.6867 81.2058 63.2533 80.8058 62.92C80.4191 62.5733 79.8991 62.4 79.2458 62.4C78.6458 62.4 78.1191 62.56 77.6658 62.88C77.2258 63.1867 76.8991 63.5867 76.6858 64.08L74.8058 63.14C75.0058 62.6067 75.3324 62.14 75.7858 61.74C76.2391 61.3267 76.7658 61.0067 77.3658 60.78C77.9791 60.5533 78.6258 60.44 79.3058 60.44C80.1591 60.44 80.9124 60.6 81.5658 60.92C82.2324 61.24 82.7458 61.6867 83.1058 62.26C83.4791 62.82 83.6658 63.4733 83.6658 64.22V71.5H81.5058V69.54L81.9658 69.6C81.7124 70.04 81.3858 70.42 80.9858 70.74C80.5991 71.06 80.1524 71.3067 79.6458 71.48C79.1524 71.6533 78.5991 71.74 77.9858 71.74ZM90.2083 71.74C89.1016 71.74 88.1283 71.4667 87.2883 70.92C86.4616 70.3733 85.8816 69.64 85.5483 68.72L87.2883 67.9C87.5816 68.5133 87.9816 69 88.4883 69.36C89.0083 69.72 89.5816 69.9 90.2083 69.9C90.7416 69.9 91.1749 69.78 91.5083 69.54C91.8416 69.3 92.0083 68.9733 92.0083 68.56C92.0083 68.2933 91.9349 68.08 91.7883 67.92C91.6416 67.7467 91.4549 67.6067 91.2283 67.5C91.0149 67.3933 90.7949 67.3133 90.5683 67.26L88.8683 66.78C87.9349 66.5133 87.2349 66.1133 86.7683 65.58C86.3149 65.0333 86.0883 64.4 86.0883 63.68C86.0883 63.0267 86.2549 62.46 86.5883 61.98C86.9216 61.4867 87.3816 61.1067 87.9683 60.84C88.5549 60.5733 89.2149 60.44 89.9483 60.44C90.9349 60.44 91.8149 60.6867 92.5883 61.18C93.3616 61.66 93.9083 62.3333 94.2283 63.2L92.4883 64.02C92.2749 63.5 91.9349 63.0867 91.4683 62.78C91.0149 62.4733 90.5016 62.32 89.9283 62.32C89.4349 62.32 89.0416 62.44 88.7483 62.68C88.4549 62.9067 88.3083 63.2067 88.3083 63.58C88.3083 63.8333 88.3749 64.0467 88.5083 64.22C88.6416 64.38 88.8149 64.5133 89.0283 64.62C89.2416 64.7133 89.4616 64.7933 89.6883 64.86L91.4483 65.38C92.3416 65.6333 93.0283 66.0333 93.5083 66.58C93.9883 67.1133 94.2283 67.7533 94.2283 68.5C94.2283 69.14 94.0549 69.7067 93.7083 70.2C93.3749 70.68 92.9083 71.06 92.3083 71.34C91.7083 71.6067 91.0083 71.74 90.2083 71.74ZM100.959 71.5V62.72H98.9587V60.68H100.959V60.12C100.959 59.3067 101.125 58.6267 101.459 58.08C101.792 57.52 102.252 57.0933 102.839 56.8C103.439 56.5067 104.125 56.36 104.899 56.36C105.045 56.36 105.212 56.3733 105.399 56.4C105.585 56.4133 105.739 56.4333 105.859 56.46V58.42C105.752 58.3933 105.632 58.38 105.499 58.38C105.365 58.3667 105.259 58.36 105.179 58.36C104.579 58.36 104.099 58.5 103.739 58.78C103.379 59.0467 103.199 59.4933 103.199 60.12V60.68H105.679V62.72H103.199V71.5H100.959ZM112.495 71.74C111.455 71.74 110.502 71.4933 109.635 71C108.782 70.5067 108.102 69.8333 107.595 68.98C107.089 68.1267 106.835 67.16 106.835 66.08C106.835 64.9867 107.089 64.02 107.595 63.18C108.102 62.3267 108.782 61.66 109.635 61.18C110.489 60.6867 111.442 60.44 112.495 60.44C113.562 60.44 114.515 60.6867 115.355 61.18C116.209 61.66 116.882 62.3267 117.375 63.18C117.882 64.02 118.135 64.9867 118.135 66.08C118.135 67.1733 117.882 68.1467 117.375 69C116.869 69.8533 116.189 70.5267 115.335 71.02C114.482 71.5 113.535 71.74 112.495 71.74ZM112.495 69.64C113.135 69.64 113.702 69.4867 114.195 69.18C114.689 68.8733 115.075 68.4533 115.355 67.92C115.649 67.3733 115.795 66.76 115.795 66.08C115.795 65.4 115.649 64.7933 115.355 64.26C115.075 63.7267 114.689 63.3067 114.195 63C113.702 62.6933 113.135 62.54 112.495 62.54C111.869 62.54 111.302 62.6933 110.795 63C110.302 63.3067 109.909 63.7267 109.615 64.26C109.335 64.7933 109.195 65.4 109.195 66.08C109.195 66.76 109.335 67.3733 109.615 67.92C109.909 68.4533 110.302 68.8733 110.795 69.18C111.302 69.4867 111.869 69.64 112.495 69.64ZM124.102 71.74C123.289 71.74 122.575 71.56 121.962 71.2C121.349 70.8267 120.869 70.3133 120.522 69.66C120.189 68.9933 120.022 68.2267 120.022 67.36V60.68H122.282V67.16C122.282 67.6533 122.382 68.0867 122.582 68.46C122.782 68.8333 123.062 69.1267 123.422 69.34C123.782 69.54 124.195 69.64 124.662 69.64C125.142 69.64 125.562 69.5333 125.922 69.32C126.282 69.1067 126.562 68.8067 126.762 68.42C126.975 68.0333 127.082 67.58 127.082 67.06V60.68H129.322V71.5H127.182V69.38L127.422 69.66C127.169 70.3267 126.749 70.84 126.162 71.2C125.575 71.56 124.889 71.74 124.102 71.74ZM131.861 71.5V60.68H134.021V62.8L133.761 62.52C134.027 61.84 134.454 61.3267 135.041 60.98C135.627 60.62 136.307 60.44 137.081 60.44C137.881 60.44 138.587 60.6133 139.201 60.96C139.814 61.3067 140.294 61.7867 140.641 62.4C140.987 63.0133 141.161 63.72 141.161 64.52V71.5H138.921V65.12C138.921 64.5733 138.821 64.1133 138.621 63.74C138.421 63.3533 138.134 63.06 137.761 62.86C137.401 62.6467 136.987 62.54 136.521 62.54C136.054 62.54 135.634 62.6467 135.261 62.86C134.901 63.06 134.621 63.3533 134.421 63.74C134.221 64.1267 134.121 64.5867 134.121 65.12V71.5H131.861ZM148.479 71.74C147.439 71.74 146.506 71.4933 145.679 71C144.866 70.4933 144.219 69.8133 143.739 68.96C143.273 68.1067 143.039 67.1467 143.039 66.08C143.039 65.0133 143.279 64.0533 143.759 63.2C144.239 62.3467 144.886 61.6733 145.699 61.18C146.513 60.6867 147.433 60.44 148.459 60.44C149.326 60.44 150.093 60.6133 150.759 60.96C151.426 61.3067 151.953 61.7867 152.339 62.4L151.999 62.92V56.36H154.239V71.5H152.099V69.3L152.359 69.72C151.986 70.3733 151.453 70.8733 150.759 71.22C150.066 71.5667 149.306 71.74 148.479 71.74ZM148.699 69.64C149.326 69.64 149.886 69.4867 150.379 69.18C150.886 68.8733 151.279 68.4533 151.559 67.92C151.853 67.3733 151.999 66.76 151.999 66.08C151.999 65.4 151.853 64.7933 151.559 64.26C151.279 63.7267 150.886 63.3067 150.379 63C149.886 62.6933 149.326 62.54 148.699 62.54C148.073 62.54 147.506 62.6933 146.999 63C146.493 63.3067 146.099 63.7267 145.819 64.26C145.539 64.7933 145.399 65.4 145.399 66.08C145.399 66.76 145.539 67.3733 145.819 67.92C146.099 68.4533 146.486 68.8733 146.979 69.18C147.486 69.4867 148.059 69.64 148.699 69.64ZM161.858 71.74C160.778 71.74 159.818 71.4933 158.978 71C158.151 70.4933 157.504 69.8133 157.038 68.96C156.571 68.0933 156.338 67.1267 156.338 66.06C156.338 64.9667 156.571 64 157.038 63.16C157.518 62.32 158.158 61.66 158.958 61.18C159.758 60.6867 160.664 60.44 161.678 60.44C162.491 60.44 163.218 60.58 163.858 60.86C164.498 61.14 165.038 61.5267 165.478 62.02C165.918 62.5 166.251 63.0533 166.478 63.68C166.718 64.3067 166.838 64.9733 166.838 65.68C166.838 65.8533 166.831 66.0333 166.818 66.22C166.804 66.4067 166.778 66.58 166.738 66.74H158.118V64.94H165.458L164.378 65.76C164.511 65.1067 164.464 64.5267 164.238 64.02C164.024 63.5 163.691 63.0933 163.238 62.8C162.798 62.4933 162.278 62.34 161.678 62.34C161.078 62.34 160.544 62.4933 160.078 62.8C159.611 63.0933 159.251 63.52 158.998 64.08C158.744 64.6267 158.644 65.2933 158.698 66.08C158.631 66.8133 158.731 67.4533 158.998 68C159.278 68.5467 159.664 68.9733 160.158 69.28C160.664 69.5867 161.238 69.74 161.878 69.74C162.531 69.74 163.084 69.5933 163.538 69.3C164.004 69.0067 164.371 68.6267 164.638 68.16L166.478 69.06C166.264 69.5667 165.931 70.0267 165.478 70.44C165.038 70.84 164.504 71.16 163.878 71.4C163.264 71.6267 162.591 71.74 161.858 71.74ZM173.943 71.74C172.903 71.74 171.97 71.4933 171.143 71C170.33 70.4933 169.683 69.8133 169.203 68.96C168.737 68.1067 168.503 67.1467 168.503 66.08C168.503 65.0133 168.743 64.0533 169.223 63.2C169.703 62.3467 170.35 61.6733 171.163 61.18C171.977 60.6867 172.897 60.44 173.923 60.44C174.79 60.44 175.557 60.6133 176.223 60.96C176.89 61.3067 177.417 61.7867 177.803 62.4L177.463 62.92V56.36H179.703V71.5H177.563V69.3L177.823 69.72C177.45 70.3733 176.917 70.8733 176.223 71.22C175.53 71.5667 174.77 71.74 173.943 71.74ZM174.163 69.64C174.79 69.64 175.35 69.4867 175.843 69.18C176.35 68.8733 176.743 68.4533 177.023 67.92C177.317 67.3733 177.463 66.76 177.463 66.08C177.463 65.4 177.317 64.7933 177.023 64.26C176.743 63.7267 176.35 63.3067 175.843 63C175.35 62.6933 174.79 62.54 174.163 62.54C173.537 62.54 172.97 62.6933 172.463 63C171.957 63.3067 171.563 63.7267 171.283 64.26C171.003 64.7933 170.863 65.4 170.863 66.08C170.863 66.76 171.003 67.3733 171.283 67.92C171.563 68.4533 171.95 68.8733 172.443 69.18C172.95 69.4867 173.523 69.64 174.163 69.64ZM185.638 71.5V60.68H187.898V71.5H185.638ZM185.638 59.2V56.6H187.898V59.2H185.638ZM190.44 71.5V60.68H192.6V62.8L192.34 62.52C192.607 61.84 193.034 61.3267 193.62 60.98C194.207 60.62 194.887 60.44 195.66 60.44C196.46 60.44 197.167 60.6133 197.78 60.96C198.394 61.3067 198.874 61.7867 199.22 62.4C199.567 63.0133 199.74 63.72 199.74 64.52V71.5H197.5V65.12C197.5 64.5733 197.4 64.1133 197.2 63.74C197 63.3533 196.714 63.06 196.34 62.86C195.98 62.6467 195.567 62.54 195.1 62.54C194.634 62.54 194.214 62.6467 193.84 62.86C193.48 63.06 193.2 63.3533 193 63.74C192.8 64.1267 192.7 64.5867 192.7 65.12V71.5H190.44ZM23.52 99.5V86.6H20.66V84.6H25.86V99.5H23.52ZM29.952 99.5L35.052 92.9L35.452 93.16C35.2654 93.36 35.0587 93.52 34.832 93.64C34.6187 93.76 34.3854 93.8467 34.132 93.9C33.892 93.9533 33.632 93.98 33.352 93.98C32.4587 93.98 31.6587 93.78 30.952 93.38C30.2454 92.9667 29.6854 92.4067 29.272 91.7C28.872 90.98 28.672 90.1667 28.672 89.26C28.672 88.3133 28.892 87.4733 29.332 86.74C29.772 86.0067 30.372 85.4267 31.132 85C31.892 84.5733 32.7587 84.36 33.732 84.36C34.7187 84.36 35.5854 84.5733 36.332 85C37.092 85.4267 37.6854 86.0133 38.112 86.76C38.552 87.4933 38.772 88.3333 38.772 89.28C38.772 89.7867 38.7187 90.2867 38.612 90.78C38.5054 91.2733 38.3187 91.7867 38.052 92.32C37.7854 92.84 37.412 93.4133 36.932 94.04L32.772 99.5H29.952ZM33.732 92C34.252 92 34.712 91.88 35.112 91.64C35.512 91.4 35.832 91.0733 36.072 90.66C36.312 90.2467 36.432 89.7733 36.432 89.24C36.432 88.6933 36.312 88.2133 36.072 87.8C35.832 87.3733 35.5054 87.0467 35.092 86.82C34.692 86.58 34.2387 86.46 33.732 86.46C33.2254 86.46 32.7654 86.58 32.352 86.82C31.952 87.0467 31.632 87.3733 31.392 87.8C31.152 88.2133 31.032 88.6933 31.032 89.24C31.032 89.7733 31.1454 90.2467 31.372 90.66C31.612 91.0733 31.9387 91.4 32.352 91.64C32.7654 91.88 33.2254 92 33.732 92ZM41.8637 99.5L46.9637 92.9L47.3637 93.16C47.1771 93.36 46.9704 93.52 46.7437 93.64C46.5304 93.76 46.2971 93.8467 46.0437 93.9C45.8037 93.9533 45.5437 93.98 45.2637 93.98C44.3704 93.98 43.5704 93.78 42.8637 93.38C42.1571 92.9667 41.5971 92.4067 41.1837 91.7C40.7837 90.98 40.5837 90.1667 40.5837 89.26C40.5837 88.3133 40.8037 87.4733 41.2437 86.74C41.6837 86.0067 42.2837 85.4267 43.0437 85C43.8037 84.5733 44.6704 84.36 45.6437 84.36C46.6304 84.36 47.4971 84.5733 48.2437 85C49.0037 85.4267 49.5971 86.0133 50.0238 86.76C50.4638 87.4933 50.6838 88.3333 50.6838 89.28C50.6838 89.7867 50.6304 90.2867 50.5237 90.78C50.4171 91.2733 50.2304 91.7867 49.9637 92.32C49.6971 92.84 49.3237 93.4133 48.8437 94.04L44.6837 99.5H41.8637ZM45.6437 92C46.1637 92 46.6237 91.88 47.0237 91.64C47.4237 91.4 47.7437 91.0733 47.9837 90.66C48.2237 90.2467 48.3437 89.7733 48.3437 89.24C48.3437 88.6933 48.2237 88.2133 47.9837 87.8C47.7437 87.3733 47.4171 87.0467 47.0037 86.82C46.6037 86.58 46.1504 86.46 45.6437 86.46C45.1371 86.46 44.6771 86.58 44.2637 86.82C43.8637 87.0467 43.5437 87.3733 43.3037 87.8C43.0637 88.2133 42.9437 88.6933 42.9437 89.24C42.9437 89.7733 43.0571 90.2467 43.2837 90.66C43.5237 91.0733 43.8504 91.4 44.2637 91.64C44.6771 91.88 45.1371 92 45.6437 92ZM58.7355 99.74C57.5488 99.74 56.5088 99.42 55.6155 98.78C54.7221 98.1267 54.0221 97.2267 53.5155 96.08C53.0221 94.92 52.7755 93.5733 52.7755 92.04C52.7755 90.4933 53.0221 89.1467 53.5155 88C54.0221 86.8533 54.7155 85.96 55.5955 85.32C56.4888 84.68 57.5288 84.36 58.7155 84.36C59.9021 84.36 60.9355 84.68 61.8155 85.32C62.7088 85.96 63.4021 86.86 63.8955 88.02C64.4021 89.1667 64.6555 90.5067 64.6555 92.04C64.6555 93.5733 64.4088 94.92 63.9155 96.08C63.4221 97.2267 62.7288 98.1267 61.8355 98.78C60.9555 99.42 59.9221 99.74 58.7355 99.74ZM58.7355 97.58C59.4688 97.58 60.1021 97.3533 60.6355 96.9C61.1688 96.4467 61.5821 95.8067 61.8755 94.98C62.1688 94.1533 62.3155 93.1733 62.3155 92.04C62.3155 90.9067 62.1688 89.9267 61.8755 89.1C61.5821 88.2733 61.1688 87.6333 60.6355 87.18C60.1021 86.7267 59.4621 86.5 58.7155 86.5C57.9821 86.5 57.3488 86.7267 56.8155 87.18C56.2821 87.6333 55.8688 88.2733 55.5755 89.1C55.2821 89.9267 55.1355 90.9067 55.1355 92.04C55.1355 93.16 55.2821 94.14 55.5755 94.98C55.8688 95.8067 56.2821 96.4467 56.8155 96.9C57.3621 97.3533 58.0021 97.58 58.7355 97.58ZM76.268 99.74C75.428 99.74 74.6613 99.5667 73.968 99.22C73.288 98.8733 72.7613 98.3733 72.388 97.72L72.648 97.3V99.5H70.488V84.36H72.748V90.92L72.388 90.4C72.788 89.7867 73.3213 89.3067 73.988 88.96C74.6546 88.6133 75.4146 88.44 76.268 88.44C77.2946 88.44 78.2146 88.6867 79.028 89.18C79.8546 89.6733 80.5013 90.3467 80.968 91.2C81.448 92.0533 81.688 93.0133 81.688 94.08C81.688 95.1467 81.448 96.1067 80.968 96.96C80.5013 97.8133 79.8613 98.4933 79.048 99C78.2346 99.4933 77.308 99.74 76.268 99.74ZM76.048 97.64C76.688 97.64 77.2546 97.4867 77.748 97.18C78.2413 96.8733 78.628 96.4533 78.908 95.92C79.2013 95.3733 79.348 94.76 79.348 94.08C79.348 93.4 79.2013 92.7933 78.908 92.26C78.628 91.7267 78.2413 91.3067 77.748 91C77.2546 90.6933 76.688 90.54 76.048 90.54C75.4213 90.54 74.8546 90.6933 74.348 91C73.8546 91.3067 73.4613 91.7267 73.168 92.26C72.888 92.7933 72.748 93.4 72.748 94.08C72.748 94.76 72.888 95.3733 73.168 95.92C73.4613 96.4533 73.8546 96.8733 74.348 97.18C74.8546 97.4867 75.4213 97.64 76.048 97.64ZM84.5511 103.9C84.2844 103.9 84.0178 103.873 83.7511 103.82C83.4978 103.78 83.2644 103.713 83.0511 103.62V101.68C83.2111 101.72 83.4044 101.753 83.6311 101.78C83.8578 101.82 84.0778 101.84 84.2911 101.84C84.9178 101.84 85.3778 101.7 85.6711 101.42C85.9778 101.153 86.2511 100.74 86.4911 100.18L87.2111 98.54L87.1711 100.44L82.4911 88.68H84.9111L88.3711 97.7H87.5511L90.9911 88.68H93.4311L88.6511 100.68C88.3978 101.32 88.0778 101.88 87.6911 102.36C87.3178 102.853 86.8711 103.233 86.3511 103.5C85.8444 103.767 85.2444 103.9 84.5511 103.9ZM97.8339 99.5V97.3H98.6939C99.3606 97.3 99.8939 97.1067 100.294 96.72C100.694 96.32 100.894 95.7867 100.894 95.12V84.6H103.234V95.04C103.234 95.9467 103.047 96.7333 102.674 97.4C102.314 98.0667 101.787 98.5867 101.094 98.96C100.414 99.32 99.6139 99.5 98.6939 99.5H97.8339ZM111.187 99.74C110.147 99.74 109.194 99.4933 108.327 99C107.474 98.5067 106.794 97.8333 106.287 96.98C105.78 96.1267 105.527 95.16 105.527 94.08C105.527 92.9867 105.78 92.02 106.287 91.18C106.794 90.3267 107.474 89.66 108.327 89.18C109.18 88.6867 110.134 88.44 111.187 88.44C112.254 88.44 113.207 88.6867 114.047 89.18C114.9 89.66 115.574 90.3267 116.067 91.18C116.574 92.02 116.827 92.9867 116.827 94.08C116.827 95.1733 116.574 96.1467 116.067 97C115.56 97.8533 114.88 98.5267 114.027 99.02C113.174 99.5 112.227 99.74 111.187 99.74ZM111.187 97.64C111.827 97.64 112.394 97.4867 112.887 97.18C113.38 96.8733 113.767 96.4533 114.047 95.92C114.34 95.3733 114.487 94.76 114.487 94.08C114.487 93.4 114.34 92.7933 114.047 92.26C113.767 91.7267 113.38 91.3067 112.887 91C112.394 90.6933 111.827 90.54 111.187 90.54C110.56 90.54 109.994 90.6933 109.487 91C108.994 91.3067 108.6 91.7267 108.307 92.26C108.027 92.7933 107.887 93.4 107.887 94.08C107.887 94.76 108.027 95.3733 108.307 95.92C108.6 96.4533 108.994 96.8733 109.487 97.18C109.994 97.4867 110.56 97.64 111.187 97.64ZM118.933 99.5V84.36H121.193V90.8L120.833 90.52C121.1 89.84 121.527 89.3267 122.113 88.98C122.7 88.62 123.38 88.44 124.153 88.44C124.953 88.44 125.66 88.6133 126.273 88.96C126.887 89.3067 127.367 89.7867 127.713 90.4C128.06 91.0133 128.233 91.7133 128.233 92.5V99.5H125.993V93.12C125.993 92.5733 125.887 92.1133 125.673 91.74C125.473 91.3533 125.193 91.06 124.833 90.86C124.473 90.6467 124.06 90.54 123.593 90.54C123.14 90.54 122.727 90.6467 122.353 90.86C121.993 91.06 121.707 91.3533 121.493 91.74C121.293 92.1267 121.193 92.5867 121.193 93.12V99.5H118.933ZM130.552 99.5V88.68H132.712V90.8L132.452 90.52C132.719 89.84 133.145 89.3267 133.732 88.98C134.319 88.62 134.999 88.44 135.772 88.44C136.572 88.44 137.279 88.6133 137.892 88.96C138.505 89.3067 138.985 89.7867 139.332 90.4C139.679 91.0133 139.852 91.72 139.852 92.52V99.5H137.612V93.12C137.612 92.5733 137.512 92.1133 137.312 91.74C137.112 91.3533 136.825 91.06 136.452 90.86C136.092 90.6467 135.679 90.54 135.212 90.54C134.745 90.54 134.325 90.6467 133.952 90.86C133.592 91.06 133.312 91.3533 133.112 91.74C132.912 92.1267 132.812 92.5867 132.812 93.12V99.5H130.552ZM145.787 99.5V84.6H150.667C152.214 84.6 153.554 84.9133 154.687 85.54C155.834 86.1533 156.72 87.02 157.347 88.14C157.974 89.26 158.287 90.56 158.287 92.04C158.287 93.5067 157.974 94.8067 157.347 95.94C156.72 97.06 155.834 97.9333 154.687 98.56C153.554 99.1867 152.214 99.5 150.667 99.5H145.787ZM148.147 97.4H150.707C151.76 97.4 152.674 97.18 153.447 96.74C154.234 96.3 154.84 95.68 155.267 94.88C155.694 94.08 155.907 93.1333 155.907 92.04C155.907 90.9467 155.687 90.0067 155.247 89.22C154.82 88.42 154.22 87.8 153.447 87.36C152.674 86.92 151.76 86.7 150.707 86.7H148.147V97.4ZM165.511 99.74C164.471 99.74 163.518 99.4933 162.651 99C161.798 98.5067 161.118 97.8333 160.611 96.98C160.104 96.1267 159.851 95.16 159.851 94.08C159.851 92.9867 160.104 92.02 160.611 91.18C161.118 90.3267 161.798 89.66 162.651 89.18C163.504 88.6867 164.458 88.44 165.511 88.44C166.578 88.44 167.531 88.6867 168.371 89.18C169.224 89.66 169.898 90.3267 170.391 91.18C170.898 92.02 171.151 92.9867 171.151 94.08C171.151 95.1733 170.898 96.1467 170.391 97C169.884 97.8533 169.204 98.5267 168.351 99.02C167.498 99.5 166.551 99.74 165.511 99.74ZM165.511 97.64C166.151 97.64 166.718 97.4867 167.211 97.18C167.704 96.8733 168.091 96.4533 168.371 95.92C168.664 95.3733 168.811 94.76 168.811 94.08C168.811 93.4 168.664 92.7933 168.371 92.26C168.091 91.7267 167.704 91.3067 167.211 91C166.718 90.6933 166.151 90.54 165.511 90.54C164.884 90.54 164.318 90.6933 163.811 91C163.318 91.3067 162.924 91.7267 162.631 92.26C162.351 92.7933 162.211 93.4 162.211 94.08C162.211 94.76 162.351 95.3733 162.631 95.92C162.924 96.4533 163.318 96.8733 163.811 97.18C164.318 97.4867 164.884 97.64 165.511 97.64ZM178.338 99.74C177.258 99.74 176.298 99.4933 175.458 99C174.631 98.4933 173.984 97.8133 173.518 96.96C173.051 96.0933 172.818 95.1267 172.818 94.06C172.818 92.9667 173.051 92 173.518 91.16C173.998 90.32 174.638 89.66 175.438 89.18C176.238 88.6867 177.144 88.44 178.158 88.44C178.971 88.44 179.698 88.58 180.338 88.86C180.978 89.14 181.518 89.5267 181.958 90.02C182.398 90.5 182.731 91.0533 182.957 91.68C183.198 92.3067 183.318 92.9733 183.318 93.68C183.318 93.8533 183.311 94.0333 183.298 94.22C183.284 94.4067 183.258 94.58 183.218 94.74H174.598V92.94H181.938L180.858 93.76C180.991 93.1067 180.944 92.5267 180.718 92.02C180.504 91.5 180.171 91.0933 179.718 90.8C179.278 90.4933 178.758 90.34 178.158 90.34C177.558 90.34 177.024 90.4933 176.558 90.8C176.091 91.0933 175.731 91.52 175.478 92.08C175.224 92.6267 175.124 93.2933 175.178 94.08C175.111 94.8133 175.211 95.4533 175.478 96C175.758 96.5467 176.144 96.9733 176.638 97.28C177.144 97.5867 177.718 97.74 178.358 97.74C179.011 97.74 179.564 97.5933 180.018 97.3C180.484 97.0067 180.851 96.6267 181.118 96.16L182.957 97.06C182.744 97.5667 182.411 98.0267 181.958 98.44C181.518 98.84 180.984 99.16 180.358 99.4C179.744 99.6267 179.071 99.74 178.338 99.74Z" fill="white"/>
<mask id="mask0_6317_2355" style="mask-type:alpha" maskUnits="userSpaceOnUse" x="0" y="0" width="360" height="135">
<path d="M0 16C0 7.16345 7.16344 0 16 0H344C352.837 0 360 7.16344 360 16V119C360 127.837 352.837 135 344 135H16C7.16344 135 0 127.837 0 119V16Z" fill="url(#paint1_linear_6317_2355)"/>
<path d="M20.924 42.5V33.56H23.852C24.78 33.56 25.584 33.748 26.264 34.124C26.952 34.492 27.484 35.012 27.86 35.684C28.236 36.356 28.424 37.136 28.424 38.024C28.424 38.904 28.236 39.684 27.86 40.364C27.484 41.036 26.952 41.56 26.264 41.936C25.584 42.312 24.78 42.5 23.852 42.5H20.924ZM22.34 41.24H23.876C24.508 41.24 25.056 41.108 25.52 40.844C25.992 40.58 26.356 40.208 26.612 39.728C26.868 39.248 26.996 38.68 26.996 38.024C26.996 37.368 26.864 36.804 26.6 36.332C26.344 35.852 25.984 35.48 25.52 35.216C25.056 34.952 24.508 34.82 23.876 34.82H22.34V41.24ZM29.6865 42.5V36.008H31.0425V42.5H29.6865ZM29.6865 35.12V33.56H31.0425V35.12H29.6865ZM35.6279 42.644C35.0039 42.644 34.4439 42.496 33.9479 42.2C33.4599 41.896 33.0719 41.488 32.7839 40.976C32.5039 40.464 32.3639 39.888 32.3639 39.248C32.3639 38.608 32.5079 38.032 32.7959 37.52C33.0839 37.008 33.4719 36.604 33.9599 36.308C34.4479 36.012 34.9999 35.864 35.6159 35.864C36.1359 35.864 36.5959 35.968 36.9959 36.176C37.3959 36.384 37.7119 36.672 37.9439 37.04L37.7399 37.352V33.416H39.0839V42.5H37.7999V41.18L37.9559 41.432C37.7319 41.824 37.4119 42.124 36.9959 42.332C36.5799 42.54 36.1239 42.644 35.6279 42.644ZM35.7599 41.384C36.1359 41.384 36.4719 41.292 36.7679 41.108C37.0719 40.924 37.3079 40.672 37.4759 40.352C37.6519 40.024 37.7399 39.656 37.7399 39.248C37.7399 38.84 37.6519 38.476 37.4759 38.156C37.3079 37.836 37.0719 37.584 36.7679 37.4C36.4719 37.216 36.1359 37.124 35.7599 37.124C35.3839 37.124 35.0439 37.216 34.7399 37.4C34.4359 37.584 34.1999 37.836 34.0319 38.156C33.8639 38.476 33.7799 38.84 33.7799 39.248C33.7799 39.656 33.8639 40.024 34.0319 40.352C34.1999 40.672 34.4319 40.924 34.7279 41.108C35.0319 41.292 35.3759 41.384 35.7599 41.384ZM45.1647 42.5V38.468L42.1047 33.56H43.7007L46.1487 37.532H45.5847L48.0207 33.56H49.6167L46.5687 38.468V42.5H45.1647ZM52.5412 42.644C51.9172 42.644 51.3452 42.496 50.8252 42.2C50.3132 41.904 49.9052 41.5 49.6012 40.988C49.2972 40.476 49.1452 39.896 49.1452 39.248C49.1452 38.592 49.2972 38.012 49.6012 37.508C49.9052 36.996 50.3132 36.596 50.8252 36.308C51.3372 36.012 51.9092 35.864 52.5412 35.864C53.1812 35.864 53.7532 36.012 54.2572 36.308C54.7692 36.596 55.1732 36.996 55.4692 37.508C55.7732 38.012 55.9252 38.592 55.9252 39.248C55.9252 39.904 55.7732 40.488 55.4692 41C55.1652 41.512 54.7572 41.916 54.2452 42.212C53.7332 42.5 53.1652 42.644 52.5412 42.644ZM52.5412 41.384C52.9252 41.384 53.2652 41.292 53.5612 41.108C53.8572 40.924 54.0892 40.672 54.2572 40.352C54.4332 40.024 54.5212 39.656 54.5212 39.248C54.5212 38.84 54.4332 38.476 54.2572 38.156C54.0892 37.836 53.8572 37.584 53.5612 37.4C53.2652 37.216 52.9252 37.124 52.5412 37.124C52.1652 37.124 51.8252 37.216 51.5212 37.4C51.2252 37.584 50.9892 37.836 50.8132 38.156C50.6452 38.476 50.5612 38.84 50.5612 39.248C50.5612 39.656 50.6452 40.024 50.8132 40.352C50.9892 40.672 51.2252 40.924 51.5212 41.108C51.8252 41.292 52.1652 41.384 52.5412 41.384ZM59.565 42.644C59.077 42.644 58.649 42.536 58.281 42.32C57.913 42.096 57.625 41.788 57.417 41.396C57.217 40.996 57.117 40.536 57.117 40.016V36.008H58.473V39.896C58.473 40.192 58.533 40.452 58.653 40.676C58.773 40.9 58.941 41.076 59.157 41.204C59.373 41.324 59.621 41.384 59.901 41.384C60.189 41.384 60.441 41.32 60.657 41.192C60.873 41.064 61.041 40.884 61.161 40.652C61.289 40.42 61.353 40.148 61.353 39.836V36.008H62.697V42.5H61.413V41.228L61.557 41.396C61.405 41.796 61.153 42.104 60.801 42.32C60.449 42.536 60.037 42.644 59.565 42.644ZM66.5099 42.5V33.56H67.9259V38.408L67.5539 38.264L71.5979 33.56H73.3619L69.7859 37.748L69.8579 36.74L73.5059 42.5H71.8379L69.2219 38.408L67.9259 39.92V42.5H66.5099ZM74.4287 42.5V36.008H75.7247V37.28L75.5687 37.112C75.7287 36.704 75.9847 36.396 76.3367 36.188C76.6887 35.972 77.0967 35.864 77.5607 35.864C78.0407 35.864 78.4647 35.968 78.8327 36.176C79.2007 36.384 79.4887 36.672 79.6967 37.04C79.9047 37.408 80.0087 37.832 80.0087 38.312V42.5H78.6647V38.672C78.6647 38.344 78.6047 38.068 78.4847 37.844C78.3647 37.612 78.1927 37.436 77.9687 37.316C77.7527 37.188 77.5047 37.124 77.2247 37.124C76.9447 37.124 76.6927 37.188 76.4687 37.316C76.2527 37.436 76.0847 37.612 75.9647 37.844C75.8447 38.076 75.7847 38.352 75.7847 38.672V42.5H74.4287ZM84.592 42.644C83.968 42.644 83.396 42.496 82.876 42.2C82.364 41.904 81.956 41.5 81.652 40.988C81.348 40.476 81.196 39.896 81.196 39.248C81.196 38.592 81.348 38.012 81.652 37.508C81.956 36.996 82.364 36.596 82.876 36.308C83.388 36.012 83.96 35.864 84.592 35.864C85.232 35.864 85.804 36.012 86.308 36.308C86.82 36.596 87.224 36.996 87.52 37.508C87.824 38.012 87.976 38.592 87.976 39.248C87.976 39.904 87.824 40.488 87.52 41C87.216 41.512 86.808 41.916 86.296 42.212C85.784 42.5 85.216 42.644 84.592 42.644ZM84.592 41.384C84.976 41.384 85.316 41.292 85.612 41.108C85.908 40.924 86.14 40.672 86.308 40.352C86.484 40.024 86.572 39.656 86.572 39.248C86.572 38.84 86.484 38.476 86.308 38.156C86.14 37.836 85.908 37.584 85.612 37.4C85.316 37.216 84.976 37.124 84.592 37.124C84.216 37.124 83.876 37.216 83.572 37.4C83.276 37.584 83.04 37.836 82.864 38.156C82.696 38.476 82.612 38.84 82.612 39.248C82.612 39.656 82.696 40.024 82.864 40.352C83.04 40.672 83.276 40.924 83.572 41.108C83.876 41.292 84.216 41.384 84.592 41.384ZM90.7546 42.5L88.5226 36.008H89.9626L91.6666 41.18H91.1626L92.9026 36.008H94.1386L95.8666 41.18H95.3626L97.0786 36.008H98.5186L96.2746 42.5H95.0506L93.2986 37.208H93.7426L91.9906 42.5H90.7546ZM101.008 39.836V39.632C101.008 39.28 101.064 38.968 101.176 38.696C101.296 38.424 101.444 38.18 101.62 37.964C101.804 37.74 101.992 37.536 102.184 37.352C102.456 37.096 102.696 36.848 102.904 36.608C103.12 36.368 103.228 36.088 103.228 35.768C103.228 35.568 103.18 35.388 103.084 35.228C102.988 35.06 102.844 34.928 102.652 34.832C102.468 34.728 102.24 34.676 101.968 34.676C101.592 34.676 101.268 34.792 100.996 35.024C100.732 35.248 100.564 35.552 100.492 35.936L99.2323 35.636C99.3043 35.196 99.4643 34.812 99.7123 34.484C99.9683 34.148 100.288 33.888 100.672 33.704C101.064 33.512 101.504 33.416 101.992 33.416C102.544 33.416 103.016 33.528 103.408 33.752C103.808 33.968 104.112 34.252 104.32 34.604C104.528 34.956 104.632 35.336 104.632 35.744C104.632 36.072 104.564 36.368 104.428 36.632C104.3 36.888 104.132 37.124 103.924 37.34C103.724 37.556 103.516 37.768 103.3 37.976C103.044 38.224 102.816 38.484 102.616 38.756C102.424 39.02 102.328 39.332 102.328 39.692V39.836H101.008ZM101.008 42.5V40.94H102.388V42.5H101.008Z" fill="#F2F2F7"/>
<path d="M21.54 71.5V56.6H23.74L29.34 64.36H28.24L33.74 56.6H35.94V71.5H33.6V59.38L34.48 59.62L28.86 67.3H28.62L23.12 59.62L23.9 59.38V71.5H21.54ZM38.9205 71.5V56.6H41.2805V71.5H38.9205ZM44.2697 71.5V56.6H46.6297V69.4H53.0697V71.5H44.2697ZM60.747 71.5L57.027 60.68H59.427L62.267 69.3H61.427L64.327 60.68H66.387L69.267 69.3H68.427L71.287 60.68H73.687L69.947 71.5H67.907L64.987 62.68H65.727L62.807 71.5H60.747ZM77.9858 71.74C77.2524 71.74 76.6058 71.6133 76.0458 71.36C75.4991 71.0933 75.0724 70.7333 74.7658 70.28C74.4591 69.8133 74.3058 69.2667 74.3058 68.64C74.3058 68.0533 74.4324 67.5267 74.6858 67.06C74.9524 66.5933 75.3591 66.2 75.9058 65.88C76.4524 65.56 77.1391 65.3333 77.9658 65.2L81.7258 64.58V66.36L78.4058 66.94C77.8058 67.0467 77.3658 67.24 77.0858 67.52C76.8058 67.7867 76.6658 68.1333 76.6658 68.56C76.6658 68.9733 76.8191 69.3133 77.1258 69.58C77.4458 69.8333 77.8524 69.96 78.3458 69.96C78.9591 69.96 79.4924 69.8267 79.9458 69.56C80.4124 69.2933 80.7724 68.94 81.0258 68.5C81.2791 68.0467 81.4058 67.5467 81.4058 67V64.22C81.4058 63.6867 81.2058 63.2533 80.8058 62.92C80.4191 62.5733 79.8991 62.4 79.2458 62.4C78.6458 62.4 78.1191 62.56 77.6658 62.88C77.2258 63.1867 76.8991 63.5867 76.6858 64.08L74.8058 63.14C75.0058 62.6067 75.3324 62.14 75.7858 61.74C76.2391 61.3267 76.7658 61.0067 77.3658 60.78C77.9791 60.5533 78.6258 60.44 79.3058 60.44C80.1591 60.44 80.9124 60.6 81.5658 60.92C82.2324 61.24 82.7458 61.6867 83.1058 62.26C83.4791 62.82 83.6658 63.4733 83.6658 64.22V71.5H81.5058V69.54L81.9658 69.6C81.7124 70.04 81.3858 70.42 80.9858 70.74C80.5991 71.06 80.1524 71.3067 79.6458 71.48C79.1524 71.6533 78.5991 71.74 77.9858 71.74ZM90.2083 71.74C89.1016 71.74 88.1283 71.4667 87.2883 70.92C86.4616 70.3733 85.8816 69.64 85.5483 68.72L87.2883 67.9C87.5816 68.5133 87.9816 69 88.4883 69.36C89.0083 69.72 89.5816 69.9 90.2083 69.9C90.7416 69.9 91.1749 69.78 91.5083 69.54C91.8416 69.3 92.0083 68.9733 92.0083 68.56C92.0083 68.2933 91.9349 68.08 91.7883 67.92C91.6416 67.7467 91.4549 67.6067 91.2283 67.5C91.0149 67.3933 90.7949 67.3133 90.5683 67.26L88.8683 66.78C87.9349 66.5133 87.2349 66.1133 86.7683 65.58C86.3149 65.0333 86.0883 64.4 86.0883 63.68C86.0883 63.0267 86.2549 62.46 86.5883 61.98C86.9216 61.4867 87.3816 61.1067 87.9683 60.84C88.5549 60.5733 89.2149 60.44 89.9483 60.44C90.9349 60.44 91.8149 60.6867 92.5883 61.18C93.3616 61.66 93.9083 62.3333 94.2283 63.2L92.4883 64.02C92.2749 63.5 91.9349 63.0867 91.4683 62.78C91.0149 62.4733 90.5016 62.32 89.9283 62.32C89.4349 62.32 89.0416 62.44 88.7483 62.68C88.4549 62.9067 88.3083 63.2067 88.3083 63.58C88.3083 63.8333 88.3749 64.0467 88.5083 64.22C88.6416 64.38 88.8149 64.5133 89.0283 64.62C89.2416 64.7133 89.4616 64.7933 89.6883 64.86L91.4483 65.38C92.3416 65.6333 93.0283 66.0333 93.5083 66.58C93.9883 67.1133 94.2283 67.7533 94.2283 68.5C94.2283 69.14 94.0549 69.7067 93.7083 70.2C93.3749 70.68 92.9083 71.06 92.3083 71.34C91.7083 71.6067 91.0083 71.74 90.2083 71.74ZM100.959 71.5V62.72H98.9587V60.68H100.959V60.12C100.959 59.3067 101.125 58.6267 101.459 58.08C101.792 57.52 102.252 57.0933 102.839 56.8C103.439 56.5067 104.125 56.36 104.899 56.36C105.045 56.36 105.212 56.3733 105.399 56.4C105.585 56.4133 105.739 56.4333 105.859 56.46V58.42C105.752 58.3933 105.632 58.38 105.499 58.38C105.365 58.3667 105.259 58.36 105.179 58.36C104.579 58.36 104.099 58.5 103.739 58.78C103.379 59.0467 103.199 59.4933 103.199 60.12V60.68H105.679V62.72H103.199V71.5H100.959ZM112.495 71.74C111.455 71.74 110.502 71.4933 109.635 71C108.782 70.5067 108.102 69.8333 107.595 68.98C107.089 68.1267 106.835 67.16 106.835 66.08C106.835 64.9867 107.089 64.02 107.595 63.18C108.102 62.3267 108.782 61.66 109.635 61.18C110.489 60.6867 111.442 60.44 112.495 60.44C113.562 60.44 114.515 60.6867 115.355 61.18C116.209 61.66 116.882 62.3267 117.375 63.18C117.882 64.02 118.135 64.9867 118.135 66.08C118.135 67.1733 117.882 68.1467 117.375 69C116.869 69.8533 116.189 70.5267 115.335 71.02C114.482 71.5 113.535 71.74 112.495 71.74ZM112.495 69.64C113.135 69.64 113.702 69.4867 114.195 69.18C114.689 68.8733 115.075 68.4533 115.355 67.92C115.649 67.3733 115.795 66.76 115.795 66.08C115.795 65.4 115.649 64.7933 115.355 64.26C115.075 63.7267 114.689 63.3067 114.195 63C113.702 62.6933 113.135 62.54 112.495 62.54C111.869 62.54 111.302 62.6933 110.795 63C110.302 63.3067 109.909 63.7267 109.615 64.26C109.335 64.7933 109.195 65.4 109.195 66.08C109.195 66.76 109.335 67.3733 109.615 67.92C109.909 68.4533 110.302 68.8733 110.795 69.18C111.302 69.4867 111.869 69.64 112.495 69.64ZM124.102 71.74C123.289 71.74 122.575 71.56 121.962 71.2C121.349 70.8267 120.869 70.3133 120.522 69.66C120.189 68.9933 120.022 68.2267 120.022 67.36V60.68H122.282V67.16C122.282 67.6533 122.382 68.0867 122.582 68.46C122.782 68.8333 123.062 69.1267 123.422 69.34C123.782 69.54 124.195 69.64 124.662 69.64C125.142 69.64 125.562 69.5333 125.922 69.32C126.282 69.1067 126.562 68.8067 126.762 68.42C126.975 68.0333 127.082 67.58 127.082 67.06V60.68H129.322V71.5H127.182V69.38L127.422 69.66C127.169 70.3267 126.749 70.84 126.162 71.2C125.575 71.56 124.889 71.74 124.102 71.74ZM131.861 71.5V60.68H134.021V62.8L133.761 62.52C134.027 61.84 134.454 61.3267 135.041 60.98C135.627 60.62 136.307 60.44 137.081 60.44C137.881 60.44 138.587 60.6133 139.201 60.96C139.814 61.3067 140.294 61.7867 140.641 62.4C140.987 63.0133 141.161 63.72 141.161 64.52V71.5H138.921V65.12C138.921 64.5733 138.821 64.1133 138.621 63.74C138.421 63.3533 138.134 63.06 137.761 62.86C137.401 62.6467 136.987 62.54 136.521 62.54C136.054 62.54 135.634 62.6467 135.261 62.86C134.901 63.06 134.621 63.3533 134.421 63.74C134.221 64.1267 134.121 64.5867 134.121 65.12V71.5H131.861ZM148.479 71.74C147.439 71.74 146.506 71.4933 145.679 71C144.866 70.4933 144.219 69.8133 143.739 68.96C143.273 68.1067 143.039 67.1467 143.039 66.08C143.039 65.0133 143.279 64.0533 143.759 63.2C144.239 62.3467 144.886 61.6733 145.699 61.18C146.513 60.6867 147.433 60.44 148.459 60.44C149.326 60.44 150.093 60.6133 150.759 60.96C151.426 61.3067 151.953 61.7867 152.339 62.4L151.999 62.92V56.36H154.239V71.5H152.099V69.3L152.359 69.72C151.986 70.3733 151.453 70.8733 150.759 71.22C150.066 71.5667 149.306 71.74 148.479 71.74ZM148.699 69.64C149.326 69.64 149.886 69.4867 150.379 69.18C150.886 68.8733 151.279 68.4533 151.559 67.92C151.853 67.3733 151.999 66.76 151.999 66.08C151.999 65.4 151.853 64.7933 151.559 64.26C151.279 63.7267 150.886 63.3067 150.379 63C149.886 62.6933 149.326 62.54 148.699 62.54C148.073 62.54 147.506 62.6933 146.999 63C146.493 63.3067 146.099 63.7267 145.819 64.26C145.539 64.7933 145.399 65.4 145.399 66.08C145.399 66.76 145.539 67.3733 145.819 67.92C146.099 68.4533 146.486 68.8733 146.979 69.18C147.486 69.4867 148.059 69.64 148.699 69.64ZM161.858 71.74C160.778 71.74 159.818 71.4933 158.978 71C158.151 70.4933 157.504 69.8133 157.038 68.96C156.571 68.0933 156.338 67.1267 156.338 66.06C156.338 64.9667 156.571 64 157.038 63.16C157.518 62.32 158.158 61.66 158.958 61.18C159.758 60.6867 160.664 60.44 161.678 60.44C162.491 60.44 163.218 60.58 163.858 60.86C164.498 61.14 165.038 61.5267 165.478 62.02C165.918 62.5 166.251 63.0533 166.478 63.68C166.718 64.3067 166.838 64.9733 166.838 65.68C166.838 65.8533 166.831 66.0333 166.818 66.22C166.804 66.4067 166.778 66.58 166.738 66.74H158.118V64.94H165.458L164.378 65.76C164.511 65.1067 164.464 64.5267 164.238 64.02C164.024 63.5 163.691 63.0933 163.238 62.8C162.798 62.4933 162.278 62.34 161.678 62.34C161.078 62.34 160.544 62.4933 160.078 62.8C159.611 63.0933 159.251 63.52 158.998 64.08C158.744 64.6267 158.644 65.2933 158.698 66.08C158.631 66.8133 158.731 67.4533 158.998 68C159.278 68.5467 159.664 68.9733 160.158 69.28C160.664 69.5867 161.238 69.74 161.878 69.74C162.531 69.74 163.084 69.5933 163.538 69.3C164.004 69.0067 164.371 68.6267 164.638 68.16L166.478 69.06C166.264 69.5667 165.931 70.0267 165.478 70.44C165.038 70.84 164.504 71.16 163.878 71.4C163.264 71.6267 162.591 71.74 161.858 71.74ZM173.943 71.74C172.903 71.74 171.97 71.4933 171.143 71C170.33 70.4933 169.683 69.8133 169.203 68.96C168.737 68.1067 168.503 67.1467 168.503 66.08C168.503 65.0133 168.743 64.0533 169.223 63.2C169.703 62.3467 170.35 61.6733 171.163 61.18C171.977 60.6867 172.897 60.44 173.923 60.44C174.79 60.44 175.557 60.6133 176.223 60.96C176.89 61.3067 177.417 61.7867 177.803 62.4L177.463 62.92V56.36H179.703V71.5H177.563V69.3L177.823 69.72C177.45 70.3733 176.917 70.8733 176.223 71.22C175.53 71.5667 174.77 71.74 173.943 71.74ZM174.163 69.64C174.79 69.64 175.35 69.4867 175.843 69.18C176.35 68.8733 176.743 68.4533 177.023 67.92C177.317 67.3733 177.463 66.76 177.463 66.08C177.463 65.4 177.317 64.7933 177.023 64.26C176.743 63.7267 176.35 63.3067 175.843 63C175.35 62.6933 174.79 62.54 174.163 62.54C173.537 62.54 172.97 62.6933 172.463 63C171.957 63.3067 171.563 63.7267 171.283 64.26C171.003 64.7933 170.863 65.4 170.863 66.08C170.863 66.76 171.003 67.3733 171.283 67.92C171.563 68.4533 171.95 68.8733 172.443 69.18C172.95 69.4867 173.523 69.64 174.163 69.64ZM185.638 71.5V60.68H187.898V71.5H185.638ZM185.638 59.2V56.6H187.898V59.2H185.638ZM190.44 71.5V60.68H192.6V62.8L192.34 62.52C192.607 61.84 193.034 61.3267 193.62 60.98C194.207 60.62 194.887 60.44 195.66 60.44C196.46 60.44 197.167 60.6133 197.78 60.96C198.394 61.3067 198.874 61.7867 199.22 62.4C199.567 63.0133 199.74 63.72 199.74 64.52V71.5H197.5V65.12C197.5 64.5733 197.4 64.1133 197.2 63.74C197 63.3533 196.714 63.06 196.34 62.86C195.98 62.6467 195.567 62.54 195.1 62.54C194.634 62.54 194.214 62.6467 193.84 62.86C193.48 63.06 193.2 63.3533 193 63.74C192.8 64.1267 192.7 64.5867 192.7 65.12V71.5H190.44ZM23.52 99.5V86.6H20.66V84.6H25.86V99.5H23.52ZM29.952 99.5L35.052 92.9L35.452 93.16C35.2654 93.36 35.0587 93.52 34.832 93.64C34.6187 93.76 34.3854 93.8467 34.132 93.9C33.892 93.9533 33.632 93.98 33.352 93.98C32.4587 93.98 31.6587 93.78 30.952 93.38C30.2454 92.9667 29.6854 92.4067 29.272 91.7C28.872 90.98 28.672 90.1667 28.672 89.26C28.672 88.3133 28.892 87.4733 29.332 86.74C29.772 86.0067 30.372 85.4267 31.132 85C31.892 84.5733 32.7587 84.36 33.732 84.36C34.7187 84.36 35.5854 84.5733 36.332 85C37.092 85.4267 37.6854 86.0133 38.112 86.76C38.552 87.4933 38.772 88.3333 38.772 89.28C38.772 89.7867 38.7187 90.2867 38.612 90.78C38.5054 91.2733 38.3187 91.7867 38.052 92.32C37.7854 92.84 37.412 93.4133 36.932 94.04L32.772 99.5H29.952ZM33.732 92C34.252 92 34.712 91.88 35.112 91.64C35.512 91.4 35.832 91.0733 36.072 90.66C36.312 90.2467 36.432 89.7733 36.432 89.24C36.432 88.6933 36.312 88.2133 36.072 87.8C35.832 87.3733 35.5054 87.0467 35.092 86.82C34.692 86.58 34.2387 86.46 33.732 86.46C33.2254 86.46 32.7654 86.58 32.352 86.82C31.952 87.0467 31.632 87.3733 31.392 87.8C31.152 88.2133 31.032 88.6933 31.032 89.24C31.032 89.7733 31.1454 90.2467 31.372 90.66C31.612 91.0733 31.9387 91.4 32.352 91.64C32.7654 91.88 33.2254 92 33.732 92ZM41.8637 99.5L46.9637 92.9L47.3637 93.16C47.1771 93.36 46.9704 93.52 46.7437 93.64C46.5304 93.76 46.2971 93.8467 46.0437 93.9C45.8037 93.9533 45.5437 93.98 45.2637 93.98C44.3704 93.98 43.5704 93.78 42.8637 93.38C42.1571 92.9667 41.5971 92.4067 41.1837 91.7C40.7837 90.98 40.5837 90.1667 40.5837 89.26C40.5837 88.3133 40.8037 87.4733 41.2437 86.74C41.6837 86.0067 42.2837 85.4267 43.0437 85C43.8037 84.5733 44.6704 84.36 45.6437 84.36C46.6304 84.36 47.4971 84.5733 48.2437 85C49.0037 85.4267 49.5971 86.0133 50.0238 86.76C50.4638 87.4933 50.6838 88.3333 50.6838 89.28C50.6838 89.7867 50.6304 90.2867 50.5237 90.78C50.4171 91.2733 50.2304 91.7867 49.9637 92.32C49.6971 92.84 49.3237 93.4133 48.8437 94.04L44.6837 99.5H41.8637ZM45.6437 92C46.1637 92 46.6237 91.88 47.0237 91.64C47.4237 91.4 47.7437 91.0733 47.9837 90.66C48.2237 90.2467 48.3437 89.7733 48.3437 89.24C48.3437 88.6933 48.2237 88.2133 47.9837 87.8C47.7437 87.3733 47.4171 87.0467 47.0037 86.82C46.6037 86.58 46.1504 86.46 45.6437 86.46C45.1371 86.46 44.6771 86.58 44.2637 86.82C43.8637 87.0467 43.5437 87.3733 43.3037 87.8C43.0637 88.2133 42.9437 88.6933 42.9437 89.24C42.9437 89.7733 43.0571 90.2467 43.2837 90.66C43.5237 91.0733 43.8504 91.4 44.2637 91.64C44.6771 91.88 45.1371 92 45.6437 92ZM58.7355 99.74C57.5488 99.74 56.5088 99.42 55.6155 98.78C54.7221 98.1267 54.0221 97.2267 53.5155 96.08C53.0221 94.92 52.7755 93.5733 52.7755 92.04C52.7755 90.4933 53.0221 89.1467 53.5155 88C54.0221 86.8533 54.7155 85.96 55.5955 85.32C56.4888 84.68 57.5288 84.36 58.7155 84.36C59.9021 84.36 60.9355 84.68 61.8155 85.32C62.7088 85.96 63.4021 86.86 63.8955 88.02C64.4021 89.1667 64.6555 90.5067 64.6555 92.04C64.6555 93.5733 64.4088 94.92 63.9155 96.08C63.4221 97.2267 62.7288 98.1267 61.8355 98.78C60.9555 99.42 59.9221 99.74 58.7355 99.74ZM58.7355 97.58C59.4688 97.58 60.1021 97.3533 60.6355 96.9C61.1688 96.4467 61.5821 95.8067 61.8755 94.98C62.1688 94.1533 62.3155 93.1733 62.3155 92.04C62.3155 90.9067 62.1688 89.9267 61.8755 89.1C61.5821 88.2733 61.1688 87.6333 60.6355 87.18C60.1021 86.7267 59.4621 86.5 58.7155 86.5C57.9821 86.5 57.3488 86.7267 56.8155 87.18C56.2821 87.6333 55.8688 88.2733 55.5755 89.1C55.2821 89.9267 55.1355 90.9067 55.1355 92.04C55.1355 93.16 55.2821 94.14 55.5755 94.98C55.8688 95.8067 56.2821 96.4467 56.8155 96.9C57.3621 97.3533 58.0021 97.58 58.7355 97.58ZM76.268 99.74C75.428 99.74 74.6613 99.5667 73.968 99.22C73.288 98.8733 72.7613 98.3733 72.388 97.72L72.648 97.3V99.5H70.488V84.36H72.748V90.92L72.388 90.4C72.788 89.7867 73.3213 89.3067 73.988 88.96C74.6546 88.6133 75.4146 88.44 76.268 88.44C77.2946 88.44 78.2146 88.6867 79.028 89.18C79.8546 89.6733 80.5013 90.3467 80.968 91.2C81.448 92.0533 81.688 93.0133 81.688 94.08C81.688 95.1467 81.448 96.1067 80.968 96.96C80.5013 97.8133 79.8613 98.4933 79.048 99C78.2346 99.4933 77.308 99.74 76.268 99.74ZM76.048 97.64C76.688 97.64 77.2546 97.4867 77.748 97.18C78.2413 96.8733 78.628 96.4533 78.908 95.92C79.2013 95.3733 79.348 94.76 79.348 94.08C79.348 93.4 79.2013 92.7933 78.908 92.26C78.628 91.7267 78.2413 91.3067 77.748 91C77.2546 90.6933 76.688 90.54 76.048 90.54C75.4213 90.54 74.8546 90.6933 74.348 91C73.8546 91.3067 73.4613 91.7267 73.168 92.26C72.888 92.7933 72.748 93.4 72.748 94.08C72.748 94.76 72.888 95.3733 73.168 95.92C73.4613 96.4533 73.8546 96.8733 74.348 97.18C74.8546 97.4867 75.4213 97.64 76.048 97.64ZM84.5511 103.9C84.2844 103.9 84.0178 103.873 83.7511 103.82C83.4978 103.78 83.2644 103.713 83.0511 103.62V101.68C83.2111 101.72 83.4044 101.753 83.6311 101.78C83.8578 101.82 84.0778 101.84 84.2911 101.84C84.9178 101.84 85.3778 101.7 85.6711 101.42C85.9778 101.153 86.2511 100.74 86.4911 100.18L87.2111 98.54L87.1711 100.44L82.4911 88.68H84.9111L88.3711 97.7H87.5511L90.9911 88.68H93.4311L88.6511 100.68C88.3978 101.32 88.0778 101.88 87.6911 102.36C87.3178 102.853 86.8711 103.233 86.3511 103.5C85.8444 103.767 85.2444 103.9 84.5511 103.9ZM97.8339 99.5V97.3H98.6939C99.3606 97.3 99.8939 97.1067 100.294 96.72C100.694 96.32 100.894 95.7867 100.894 95.12V84.6H103.234V95.04C103.234 95.9467 103.047 96.7333 102.674 97.4C102.314 98.0667 101.787 98.5867 101.094 98.96C100.414 99.32 99.6139 99.5 98.6939 99.5H97.8339ZM111.187 99.74C110.147 99.74 109.194 99.4933 108.327 99C107.474 98.5067 106.794 97.8333 106.287 96.98C105.78 96.1267 105.527 95.16 105.527 94.08C105.527 92.9867 105.78 92.02 106.287 91.18C106.794 90.3267 107.474 89.66 108.327 89.18C109.18 88.6867 110.134 88.44 111.187 88.44C112.254 88.44 113.207 88.6867 114.047 89.18C114.9 89.66 115.574 90.3267 116.067 91.18C116.574 92.02 116.827 92.9867 116.827 94.08C116.827 95.1733 116.574 96.1467 116.067 97C115.56 97.8533 114.88 98.5267 114.027 99.02C113.174 99.5 112.227 99.74 111.187 99.74ZM111.187 97.64C111.827 97.64 112.394 97.4867 112.887 97.18C113.38 96.8733 113.767 96.4533 114.047 95.92C114.34 95.3733 114.487 94.76 114.487 94.08C114.487 93.4 114.34 92.7933 114.047 92.26C113.767 91.7267 113.38 91.3067 112.887 91C112.394 90.6933 111.827 90.54 111.187 90.54C110.56 90.54 109.994 90.6933 109.487 91C108.994 91.3067 108.6 91.7267 108.307 92.26C108.027 92.7933 107.887 93.4 107.887 94.08C107.887 94.76 108.027 95.3733 108.307 95.92C108.6 96.4533 108.994 96.8733 109.487 97.18C109.994 97.4867 110.56 97.64 111.187 97.64ZM118.933 99.5V84.36H121.193V90.8L120.833 90.52C121.1 89.84 121.527 89.3267 122.113 88.98C122.7 88.62 123.38 88.44 124.153 88.44C124.953 88.44 125.66 88.6133 126.273 88.96C126.887 89.3067 127.367 89.7867 127.713 90.4C128.06 91.0133 128.233 91.7133 128.233 92.5V99.5H125.993V93.12C125.993 92.5733 125.887 92.1133 125.673 91.74C125.473 91.3533 125.193 91.06 124.833 90.86C124.473 90.6467 124.06 90.54 123.593 90.54C123.14 90.54 122.727 90.6467 122.353 90.86C121.993 91.06 121.707 91.3533 121.493 91.74C121.293 92.1267 121.193 92.5867 121.193 93.12V99.5H118.933ZM130.552 99.5V88.68H132.712V90.8L132.452 90.52C132.719 89.84 133.145 89.3267 133.732 88.98C134.319 88.62 134.999 88.44 135.772 88.44C136.572 88.44 137.279 88.6133 137.892 88.96C138.505 89.3067 138.985 89.7867 139.332 90.4C139.679 91.0133 139.852 91.72 139.852 92.52V99.5H137.612V93.12C137.612 92.5733 137.512 92.1133 137.312 91.74C137.112 91.3533 136.825 91.06 136.452 90.86C136.092 90.6467 135.679 90.54 135.212 90.54C134.745 90.54 134.325 90.6467 133.952 90.86C133.592 91.06 133.312 91.3533 133.112 91.74C132.912 92.1267 132.812 92.5867 132.812 93.12V99.5H130.552ZM145.787 99.5V84.6H150.667C152.214 84.6 153.554 84.9133 154.687 85.54C155.834 86.1533 156.72 87.02 157.347 88.14C157.974 89.26 158.287 90.56 158.287 92.04C158.287 93.5067 157.974 94.8067 157.347 95.94C156.72 97.06 155.834 97.9333 154.687 98.56C153.554 99.1867 152.214 99.5 150.667 99.5H145.787ZM148.147 97.4H150.707C151.76 97.4 152.674 97.18 153.447 96.74C154.234 96.3 154.84 95.68 155.267 94.88C155.694 94.08 155.907 93.1333 155.907 92.04C155.907 90.9467 155.687 90.0067 155.247 89.22C154.82 88.42 154.22 87.8 153.447 87.36C152.674 86.92 151.76 86.7 150.707 86.7H148.147V97.4ZM165.511 99.74C164.471 99.74 163.518 99.4933 162.651 99C161.798 98.5067 161.118 97.8333 160.611 96.98C160.104 96.1267 159.851 95.16 159.851 94.08C159.851 92.9867 160.104 92.02 160.611 91.18C161.118 90.3267 161.798 89.66 162.651 89.18C163.504 88.6867 164.458 88.44 165.511 88.44C166.578 88.44 167.531 88.6867 168.371 89.18C169.224 89.66 169.898 90.3267 170.391 91.18C170.898 92.02 171.151 92.9867 171.151 94.08C171.151 95.1733 170.898 96.1467 170.391 97C169.884 97.8533 169.204 98.5267 168.351 99.02C167.498 99.5 166.551 99.74 165.511 99.74ZM165.511 97.64C166.151 97.64 166.718 97.4867 167.211 97.18C167.704 96.8733 168.091 96.4533 168.371 95.92C168.664 95.3733 168.811 94.76 168.811 94.08C168.811 93.4 168.664 92.7933 168.371 92.26C168.091 91.7267 167.704 91.3067 167.211 91C166.718 90.6933 166.151 90.54 165.511 90.54C164.884 90.54 164.318 90.6933 163.811 91C163.318 91.3067 162.924 91.7267 162.631 92.26C162.351 92.7933 162.211 93.4 162.211 94.08C162.211 94.76 162.351 95.3733 162.631 95.92C162.924 96.4533 163.318 96.8733 163.811 97.18C164.318 97.4867 164.884 97.64 165.511 97.64ZM178.338 99.74C177.258 99.74 176.298 99.4933 175.458 99C174.631 98.4933 173.984 97.8133 173.518 96.96C173.051 96.0933 172.818 95.1267 172.818 94.06C172.818 92.9667 173.051 92 173.518 91.16C173.998 90.32 174.638 89.66 175.438 89.18C176.238 88.6867 177.144 88.44 178.158 88.44C178.971 88.44 179.698 88.58 180.338 88.86C180.978 89.14 181.518 89.5267 181.958 90.02C182.398 90.5 182.731 91.0533 182.957 91.68C183.198 92.3067 183.318 92.9733 183.318 93.68C183.318 93.8533 183.311 94.0333 183.298 94.22C183.284 94.4067 183.258 94.58 183.218 94.74H174.598V92.94H181.938L180.858 93.76C180.991 93.1067 180.944 92.5267 180.718 92.02C180.504 91.5 180.171 91.0933 179.718 90.8C179.278 90.4933 178.758 90.34 178.158 90.34C177.558 90.34 177.024 90.4933 176.558 90.8C176.091 91.0933 175.731 91.52 175.478 92.08C175.224 92.6267 175.124 93.2933 175.178 94.08C175.111 94.8133 175.211 95.4533 175.478 96C175.758 96.5467 176.144 96.9733 176.638 97.28C177.144 97.5867 177.718 97.74 178.358 97.74C179.011 97.74 179.564 97.5933 180.018 97.3C180.484 97.0067 180.851 96.6267 181.118 96.16L182.957 97.06C182.744 97.5667 182.411 98.0267 181.958 98.44C181.518 98.84 180.984 99.16 180.358 99.4C179.744 99.6267 179.071 99.74 178.338 99.74Z" fill="white"/>
</mask>
<g mask="url(#mask0_6317_2355)">
<path fill-rule="evenodd" clip-rule="evenodd" d="M238.744 49.7782C232.716 52.5095 224.197 56.3698 220.713 67.76C219.664 71.1928 221.607 74.7882 225.054 75.7905C228.501 76.7927 232.146 74.8222 233.196 71.3894C234.876 65.8984 238.268 64.172 244.436 61.3724C244.535 61.3275 244.635 61.2823 244.735 61.2368C250.804 58.4849 259.364 54.6037 262.881 43.1054C267.246 28.8343 256.489 15.6789 244.504 12.1945C232.52 8.7101 216.13 13.9727 211.765 28.2437C210.716 31.6765 212.659 35.272 216.106 36.2742C219.553 37.2764 223.198 35.3058 224.248 31.8731C225.954 26.2974 233.619 22.5666 240.702 24.6261C247.786 26.6856 252.103 33.9002 250.398 39.476C248.69 45.061 245.252 46.8243 239.124 49.6059C238.998 49.6629 238.872 49.7203 238.744 49.7782ZM219.549 93.7916C222.66 94.6962 225.935 92.9703 226.863 89.9365C227.79 86.9027 226.02 83.71 222.909 82.8053C219.797 81.9007 216.522 83.6266 215.595 86.6604C214.667 89.6942 216.437 92.8869 219.549 93.7916Z" fill="white" fill-opacity="0.5"/>
<path d="M238.33 87.0145C243.54 81.1163 253.944 84.5569 258.495 87.0145C267.177 94.3191 279.332 109.502 258.495 111.795C232.449 114.663 231.819 94.3873 238.33 87.0145Z" fill="#FFFCF5" stroke="#0077D4" stroke-width="1.6384" stroke-linecap="round" stroke-linejoin="round"/>
<path d="M257.558 86.2151C257.39 42.6337 285.258 28.4099 299.148 26.6183C365.709 18.0331 367.625 78.2279 371.616 82.1191C425.599 174.893 305.322 195.447 274.362 170.183C255.038 154.413 257.768 140.692 257.558 86.2151Z" fill="#FFFCF5" stroke="#0077D4" stroke-width="1.6384" stroke-linecap="round" stroke-linejoin="round"/>
<path d="M261.339 41.0941C265.708 35.3597 272.402 39.6605 275.202 42.5277C275.623 47.8525 274.572 58.1335 267.01 56.6589C257.558 54.8157 255.878 48.2621 261.339 41.0941Z" fill="#FFFCF5"/>
<path d="M342.893 24.0976C335.796 22.3235 333.372 29.7735 333.047 33.7202C336.158 38.1155 343.612 45.4592 348.535 39.6724C354.69 32.4388 351.764 26.3152 342.893 24.0976Z" fill="#FFFCF5"/>
<path d="M273.732 41.1594C263.44 30.4452 250.416 50.5156 263.44 55.6356M333.597 31.329C333.597 17.7476 360.693 24.9156 347.88 40.0707" stroke="#0077D4" stroke-width="1.6384" stroke-linecap="round" stroke-linejoin="round"/>
<path d="M287.175 69.9707L289.906 67.1035" stroke="#0077D4" stroke-width="2.4576" stroke-linecap="round" stroke-linejoin="round"/>
<path d="M319.943 60.5508L323.304 61.5748" stroke="#0077D4" stroke-width="2.4576" stroke-linecap="round" stroke-linejoin="round"/>
<path d="M302.929 68.9473C302.19 70.1923 301.801 71.3178 301.039 71.6097C301.529 74.9756 304.61 79.3921 306.5 79.3921C310.339 79.3921 308.811 72.421 307.76 69.8571C305.754 70.1873 303.838 69.4891 302.929 68.9473Z" fill="#FFB9DA"/>
<path d="M298.098 71.6097C298.644 72.0193 299.894 72.0477 301.039 71.6097M309.651 68.7425C308.902 69.2443 308.534 69.7297 307.76 69.8571M301.039 71.6097C301.801 71.3178 302.19 70.1923 302.929 68.9473C303.838 69.4891 305.754 70.1873 307.76 69.8571M301.039 71.6097C301.529 74.9756 304.61 79.3921 306.5 79.3921C310.339 79.3921 308.811 72.421 307.76 69.8571M301.459 68.3329L303.769 67.5137" stroke="#0077D4" stroke-width="1.6384" stroke-linecap="round" stroke-linejoin="round"/>
<path d="M343.258 29.4208C340.069 28.3843 334.478 30.6905 339.687 36.5888C346.199 43.9616 350.19 31.6736 343.258 29.4208Z" fill="#FFB9DA"/>
<path d="M265.813 42.7684C269.002 41.732 274.593 44.0382 269.383 49.9364C262.872 57.3092 258.881 45.0212 265.813 42.7684Z" fill="#FFB9DA"/>
<ellipse cx="4.05298" cy="2.05181" rx="4.05298" ry="2.05181" transform="matrix(0.965214 -0.261461 0.274045 0.961717 282.764 73.7285)" fill="#FFB9DA"/>
<ellipse cx="4.05298" cy="2.05181" rx="4.05298" ry="2.05181" transform="matrix(0.965214 -0.261461 0.274045 0.961717 320.152 65.5371)" fill="#FFB9DA"/>
<path d="M317.423 104.173C293.477 111.074 285.997 98.0292 285.582 91.8081C285.24 86.6989 287.356 88.0853 291.551 89.7871C317.423 100.282 322.254 85.3316 330.926 80.5138C336.399 77.4733 337.026 78.3477 337.424 80.1011C339.899 84.5124 336.423 98.6977 317.423 104.173Z" fill="#C6E4FC"/>
<path d="M327.295 45.6006C336.483 45.6008 343.904 52.8594 343.904 61.7803C343.904 70.7009 336.482 77.9588 327.295 77.959C318.107 77.959 310.685 70.7011 310.684 61.7803C310.684 52.8593 318.107 45.6006 327.295 45.6006Z" fill="#C6E4FC" fill-opacity="0.57" stroke="#0077D4" stroke-width="1.2288"/>
<rect width="2.57253" height="27.8009" transform="matrix(0.886082 0.463528 -0.482115 0.876108 337.81 51.6582)" fill="#FFFCF5" fill-opacity="0.63"/>
<rect width="2.57253" height="27.8009" transform="matrix(0.886082 0.463528 -0.482115 0.876108 324.313 41.709)" fill="#FFFCF5" fill-opacity="0.63"/>
<rect width="4.59556" height="22.4979" transform="matrix(0.886082 0.463528 -0.482115 0.876108 339.836 55.5605)" fill="#FFFCF5" fill-opacity="0.63"/>
<path d="M327.295 44.9863C336.807 44.9865 344.518 52.5048 344.518 61.7793C344.518 71.054 336.807 78.573 327.295 78.5732C317.782 78.5732 310.07 71.0541 310.07 61.7793C310.07 52.5047 317.782 44.9863 327.295 44.9863ZM327.295 48.6729C319.87 48.6729 313.851 54.5405 313.851 61.7793C313.851 69.0182 319.87 74.8867 327.295 74.8867C334.719 74.8867 340.738 69.0182 340.738 61.7793C340.738 54.5405 334.719 48.6729 327.295 48.6729Z" fill="#0077D4"/>
<rect width="4.57479" height="11.1747" transform="matrix(0.779745 -0.626097 0.645275 0.763951 336.117 76.1123)" fill="#0077D4"/>
<path d="M337.068 81.8389C346.744 67.0619 359.518 74.1578 364.696 79.5529C377.318 92.8138 358.132 102.636 346.962 105.89C341.665 102.355 332.271 92.5949 337.068 81.8389Z" fill="#FFFCF5"/>
<path d="M365.306 79.2972C359.809 74.2711 346.658 67.5216 338.026 80.7324C327.237 97.2459 352.305 109.148 353.472 108.024" stroke="#0077D4" stroke-width="1.6384" stroke-linecap="round" stroke-linejoin="round"/>
</g>
<defs>
<linearGradient id="paint0_linear_6317_2355" x1="0" y1="67.5" x2="360" y2="67.5" gradientUnits="userSpaceOnUse">
<stop stop-color="#EF5BA1"/>
<stop offset="1" stop-color="#FFB9DA"/>
</linearGradient>
<linearGradient id="paint1_linear_6317_2355" x1="0" y1="67.5" x2="360" y2="67.5" gradientUnits="userSpaceOnUse">
<stop stop-color="#218E44"/>
<stop offset="1" stop-color="#60CA82"/>
</linearGradient>
</defs>
</svg>
