<svg width="1127" height="304" viewBox="0 0 1127 304" fill="none" xmlns="http://www.w3.org/2000/svg">
<path d="M0 36C0 16.1178 16.1178 0 36 0H1091C1110.88 0 1127 16.1177 1127 36V267.75C1127 287.632 1110.88 303.75 1091 303.75H36C16.1177 303.75 0 287.632 0 267.75V36Z" fill="url(#paint0_linear_6399_7287)"/>
<path d="M47.079 95.375V75.26H53.667C55.755 75.26 57.564 75.683 59.094 76.529C60.642 77.357 61.839 78.527 62.685 80.039C63.531 81.551 63.954 83.306 63.954 85.304C63.954 87.284 63.531 89.039 62.685 90.569C61.839 92.081 60.642 93.26 59.094 94.106C57.564 94.952 55.755 95.375 53.667 95.375H47.079ZM50.265 92.54H53.721C55.143 92.54 56.376 92.243 57.42 91.649C58.482 91.055 59.301 90.218 59.877 89.138C60.453 88.058 60.741 86.78 60.741 85.304C60.741 83.828 60.444 82.559 59.85 81.497C59.274 80.417 58.464 79.58 57.42 78.986C56.376 78.392 55.143 78.095 53.721 78.095H50.265V92.54ZM66.7947 95.375V80.768H69.8457V95.375H66.7947ZM66.7947 78.77V75.26H69.8457V78.77H66.7947ZM80.1629 95.699C78.7589 95.699 77.4989 95.366 76.3829 94.7C75.2849 94.016 74.4119 93.098 73.7639 91.946C73.1339 90.794 72.8189 89.498 72.8189 88.058C72.8189 86.618 73.1429 85.322 73.7909 84.17C74.4389 83.018 75.3119 82.109 76.4099 81.443C77.5079 80.777 78.7499 80.444 80.1359 80.444C81.3059 80.444 82.3409 80.678 83.2409 81.146C84.1409 81.614 84.8519 82.262 85.3739 83.09L84.9149 83.792V74.936H87.9389V95.375H85.0499V92.405L85.4009 92.972C84.8969 93.854 84.1769 94.529 83.2409 94.997C82.3049 95.465 81.2789 95.699 80.1629 95.699ZM80.4599 92.864C81.3059 92.864 82.0619 92.657 82.7279 92.243C83.4119 91.829 83.9429 91.262 84.3209 90.542C84.7169 89.804 84.9149 88.976 84.9149 88.058C84.9149 87.14 84.7169 86.321 84.3209 85.601C83.9429 84.881 83.4119 84.314 82.7279 83.9C82.0619 83.486 81.3059 83.279 80.4599 83.279C79.6139 83.279 78.8489 83.486 78.1649 83.9C77.4809 84.314 76.9499 84.881 76.5719 85.601C76.1939 86.321 76.0049 87.14 76.0049 88.058C76.0049 88.976 76.1939 89.804 76.5719 90.542C76.9499 91.262 77.4719 91.829 78.1379 92.243C78.8219 92.657 79.5959 92.864 80.4599 92.864ZM101.62 95.375V86.303L94.7355 75.26H98.3265L103.834 84.197H102.565L108.046 75.26H111.637L104.779 86.303V95.375H101.62ZM118.218 95.699C116.814 95.699 115.527 95.366 114.357 94.7C113.205 94.034 112.287 93.125 111.603 91.973C110.919 90.821 110.577 89.516 110.577 88.058C110.577 86.582 110.919 85.277 111.603 84.143C112.287 82.991 113.205 82.091 114.357 81.443C115.509 80.777 116.796 80.444 118.218 80.444C119.658 80.444 120.945 80.777 122.079 81.443C123.231 82.091 124.14 82.991 124.806 84.143C125.49 85.277 125.832 86.582 125.832 88.058C125.832 89.534 125.49 90.848 124.806 92C124.122 93.152 123.204 94.061 122.052 94.727C120.9 95.375 119.622 95.699 118.218 95.699ZM118.218 92.864C119.082 92.864 119.847 92.657 120.513 92.243C121.179 91.829 121.701 91.262 122.079 90.542C122.475 89.804 122.673 88.976 122.673 88.058C122.673 87.14 122.475 86.321 122.079 85.601C121.701 84.881 121.179 84.314 120.513 83.9C119.847 83.486 119.082 83.279 118.218 83.279C117.372 83.279 116.607 83.486 115.923 83.9C115.257 84.314 114.726 84.881 114.33 85.601C113.952 86.321 113.763 87.14 113.763 88.058C113.763 88.976 113.952 89.804 114.33 90.542C114.726 91.262 115.257 91.829 115.923 92.243C116.607 92.657 117.372 92.864 118.218 92.864ZM134.021 95.699C132.923 95.699 131.96 95.456 131.132 94.97C130.304 94.466 129.656 93.773 129.188 92.891C128.738 91.991 128.513 90.956 128.513 89.786V80.768H131.564V89.516C131.564 90.182 131.699 90.767 131.969 91.271C132.239 91.775 132.617 92.171 133.103 92.459C133.589 92.729 134.147 92.864 134.777 92.864C135.425 92.864 135.992 92.72 136.478 92.432C136.964 92.144 137.342 91.739 137.612 91.217C137.9 90.695 138.044 90.083 138.044 89.381V80.768H141.068V95.375H138.179V92.513L138.503 92.891C138.161 93.791 137.594 94.484 136.802 94.97C136.01 95.456 135.083 95.699 134.021 95.699ZM149.647 95.375V75.26H152.833V86.168L151.996 85.844L161.095 75.26H165.064L157.018 84.683L157.18 82.415L165.388 95.375H161.635L155.749 86.168L152.833 89.57V95.375H149.647ZM167.465 95.375V80.768H170.381V83.63L170.03 83.252C170.39 82.334 170.966 81.641 171.758 81.173C172.55 80.687 173.468 80.444 174.512 80.444C175.592 80.444 176.546 80.678 177.374 81.146C178.202 81.614 178.85 82.262 179.318 83.09C179.786 83.918 180.02 84.872 180.02 85.952V95.375H176.996V86.762C176.996 86.024 176.861 85.403 176.591 84.899C176.321 84.377 175.934 83.981 175.43 83.711C174.944 83.423 174.386 83.279 173.756 83.279C173.126 83.279 172.559 83.423 172.055 83.711C171.569 83.981 171.191 84.377 170.921 84.899C170.651 85.421 170.516 86.042 170.516 86.762V95.375H167.465ZM190.332 95.699C188.928 95.699 187.641 95.366 186.471 94.7C185.319 94.034 184.401 93.125 183.717 91.973C183.033 90.821 182.691 89.516 182.691 88.058C182.691 86.582 183.033 85.277 183.717 84.143C184.401 82.991 185.319 82.091 186.471 81.443C187.623 80.777 188.91 80.444 190.332 80.444C191.772 80.444 193.059 80.777 194.193 81.443C195.345 82.091 196.254 82.991 196.92 84.143C197.604 85.277 197.946 86.582 197.946 88.058C197.946 89.534 197.604 90.848 196.92 92C196.236 93.152 195.318 94.061 194.166 94.727C193.014 95.375 191.736 95.699 190.332 95.699ZM190.332 92.864C191.196 92.864 191.961 92.657 192.627 92.243C193.293 91.829 193.815 91.262 194.193 90.542C194.589 89.804 194.787 88.976 194.787 88.058C194.787 87.14 194.589 86.321 194.193 85.601C193.815 84.881 193.293 84.314 192.627 83.9C191.961 83.486 191.196 83.279 190.332 83.279C189.486 83.279 188.721 83.486 188.037 83.9C187.371 84.314 186.84 84.881 186.444 85.601C186.066 86.321 185.877 87.14 185.877 88.058C185.877 88.976 186.066 89.804 186.444 90.542C186.84 91.262 187.371 91.829 188.037 92.243C188.721 92.657 189.486 92.864 190.332 92.864ZM204.198 95.375L199.176 80.768H202.416L206.25 92.405H205.116L209.031 80.768H211.812L215.7 92.405H214.566L218.427 80.768H221.667L216.618 95.375H213.864L209.922 83.468H210.921L206.979 95.375H204.198ZM227.269 89.381V88.922C227.269 88.13 227.395 87.428 227.647 86.816C227.917 86.204 228.25 85.655 228.646 85.169C229.06 84.665 229.483 84.206 229.915 83.792C230.527 83.216 231.067 82.658 231.535 82.118C232.021 81.578 232.264 80.948 232.264 80.228C232.264 79.778 232.156 79.373 231.94 79.013C231.724 78.635 231.4 78.338 230.968 78.122C230.554 77.888 230.041 77.771 229.429 77.771C228.583 77.771 227.854 78.032 227.242 78.554C226.648 79.058 226.27 79.742 226.108 80.606L223.273 79.931C223.435 78.941 223.795 78.077 224.353 77.339C224.929 76.583 225.649 75.998 226.513 75.584C227.395 75.152 228.385 74.936 229.483 74.936C230.725 74.936 231.787 75.188 232.669 75.692C233.569 76.178 234.253 76.817 234.721 77.609C235.189 78.401 235.423 79.256 235.423 80.174C235.423 80.912 235.27 81.578 234.964 82.172C234.676 82.748 234.298 83.279 233.83 83.765C233.38 84.251 232.912 84.728 232.426 85.196C231.85 85.754 231.337 86.339 230.887 86.951C230.455 87.545 230.239 88.247 230.239 89.057V89.381H227.269ZM227.269 95.375V91.865H230.374V95.375H227.269Z" fill="white"/>
<path d="M48.465 161.375V127.85H53.415L66.015 145.31H63.54L75.915 127.85H80.865V161.375H75.6V134.105L77.58 134.645L64.935 151.925H64.395L52.02 134.645L53.775 134.105V161.375H48.465ZM87.5711 161.375V127.85H92.8811V161.375H87.5711ZM99.6068 161.375V127.85H104.917V156.65H119.407V161.375H99.6068ZM136.681 161.375L128.311 137.03H133.711L140.101 156.425H138.211L144.736 137.03H149.371L155.851 156.425H153.961L160.396 137.03H165.796L157.381 161.375H152.791L146.221 141.53H147.886L141.316 161.375H136.681ZM175.468 161.915C173.818 161.915 172.363 161.63 171.103 161.06C169.873 160.46 168.913 159.65 168.223 158.63C167.533 157.58 167.188 156.35 167.188 154.94C167.188 153.62 167.473 152.435 168.043 151.385C168.643 150.335 169.558 149.45 170.788 148.73C172.018 148.01 173.563 147.5 175.423 147.2L183.883 145.805V149.81L176.413 151.115C175.063 151.355 174.073 151.79 173.443 152.42C172.813 153.02 172.498 153.8 172.498 154.76C172.498 155.69 172.843 156.455 173.533 157.055C174.253 157.625 175.168 157.91 176.278 157.91C177.658 157.91 178.858 157.61 179.878 157.01C180.928 156.41 181.738 155.615 182.308 154.625C182.878 153.605 183.163 152.48 183.163 151.25V144.995C183.163 143.795 182.713 142.82 181.813 142.07C180.943 141.29 179.773 140.9 178.303 140.9C176.953 140.9 175.768 141.26 174.748 141.98C173.758 142.67 173.023 143.57 172.543 144.68L168.313 142.565C168.763 141.365 169.498 140.315 170.518 139.415C171.538 138.485 172.723 137.765 174.073 137.255C175.453 136.745 176.908 136.49 178.438 136.49C180.358 136.49 182.053 136.85 183.523 137.57C185.023 138.29 186.178 139.295 186.988 140.585C187.828 141.845 188.248 143.315 188.248 144.995V161.375H183.388V156.965L184.423 157.1C183.853 158.09 183.118 158.945 182.218 159.665C181.348 160.385 180.343 160.94 179.203 161.33C178.093 161.72 176.848 161.915 175.468 161.915ZM202.969 161.915C200.479 161.915 198.289 161.3 196.399 160.07C194.539 158.84 193.234 157.19 192.484 155.12L196.399 153.275C197.059 154.655 197.959 155.75 199.099 156.56C200.269 157.37 201.559 157.775 202.969 157.775C204.169 157.775 205.144 157.505 205.894 156.965C206.644 156.425 207.019 155.69 207.019 154.76C207.019 154.16 206.854 153.68 206.524 153.32C206.194 152.93 205.774 152.615 205.264 152.375C204.784 152.135 204.289 151.955 203.779 151.835L199.954 150.755C197.854 150.155 196.279 149.255 195.229 148.055C194.209 146.825 193.699 145.4 193.699 143.78C193.699 142.31 194.074 141.035 194.824 139.955C195.574 138.845 196.609 137.99 197.929 137.39C199.249 136.79 200.734 136.49 202.384 136.49C204.604 136.49 206.584 137.045 208.324 138.155C210.064 139.235 211.294 140.75 212.014 142.7L208.099 144.545C207.619 143.375 206.854 142.445 205.804 141.755C204.784 141.065 203.629 140.72 202.339 140.72C201.229 140.72 200.344 140.99 199.684 141.53C199.024 142.04 198.694 142.715 198.694 143.555C198.694 144.125 198.844 144.605 199.144 144.995C199.444 145.355 199.834 145.655 200.314 145.895C200.794 146.105 201.289 146.285 201.799 146.435L205.759 147.605C207.769 148.175 209.314 149.075 210.394 150.305C211.474 151.505 212.014 152.945 212.014 154.625C212.014 156.065 211.624 157.34 210.844 158.45C210.094 159.53 209.044 160.385 207.694 161.015C206.344 161.615 204.769 161.915 202.969 161.915ZM227.157 161.375V141.62H222.657V137.03H227.157V135.77C227.157 133.94 227.532 132.41 228.282 131.18C229.032 129.92 230.067 128.96 231.387 128.3C232.737 127.64 234.282 127.31 236.022 127.31C236.352 127.31 236.727 127.34 237.147 127.4C237.567 127.43 237.912 127.475 238.182 127.535V131.945C237.942 131.885 237.672 131.855 237.372 131.855C237.072 131.825 236.832 131.81 236.652 131.81C235.302 131.81 234.222 132.125 233.412 132.755C232.602 133.355 232.197 134.36 232.197 135.77V137.03H237.777V141.62H232.197V161.375H227.157ZM253.115 161.915C250.775 161.915 248.63 161.36 246.68 160.25C244.76 159.14 243.23 157.625 242.09 155.705C240.95 153.785 240.38 151.61 240.38 149.18C240.38 146.72 240.95 144.545 242.09 142.655C243.23 140.735 244.76 139.235 246.68 138.155C248.6 137.045 250.745 136.49 253.115 136.49C255.515 136.49 257.66 137.045 259.55 138.155C261.47 139.235 262.985 140.735 264.095 142.655C265.235 144.545 265.805 146.72 265.805 149.18C265.805 151.64 265.235 153.83 264.095 155.75C262.955 157.67 261.425 159.185 259.505 160.295C257.585 161.375 255.455 161.915 253.115 161.915ZM253.115 157.19C254.555 157.19 255.83 156.845 256.94 156.155C258.05 155.465 258.92 154.52 259.55 153.32C260.21 152.09 260.54 150.71 260.54 149.18C260.54 147.65 260.21 146.285 259.55 145.085C258.92 143.885 258.05 142.94 256.94 142.25C255.83 141.56 254.555 141.215 253.115 141.215C251.705 141.215 250.43 141.56 249.29 142.25C248.18 142.94 247.295 143.885 246.635 145.085C246.005 146.285 245.69 147.65 245.69 149.18C245.69 150.71 246.005 152.09 246.635 153.32C247.295 154.52 248.18 155.465 249.29 156.155C250.43 156.845 251.705 157.19 253.115 157.19ZM279.229 161.915C277.399 161.915 275.794 161.51 274.414 160.7C273.034 159.86 271.954 158.705 271.174 157.235C270.424 155.735 270.049 154.01 270.049 152.06V137.03H275.134V151.61C275.134 152.72 275.359 153.695 275.809 154.535C276.259 155.375 276.889 156.035 277.699 156.515C278.509 156.965 279.439 157.19 280.489 157.19C281.569 157.19 282.514 156.95 283.324 156.47C284.134 155.99 284.764 155.315 285.214 154.445C285.694 153.575 285.934 152.555 285.934 151.385V137.03H290.974V161.375H286.159V156.605L286.699 157.235C286.129 158.735 285.184 159.89 283.864 160.7C282.544 161.51 280.999 161.915 279.229 161.915ZM296.686 161.375V137.03H301.546V141.8L300.961 141.17C301.561 139.64 302.521 138.485 303.841 137.705C305.161 136.895 306.691 136.49 308.431 136.49C310.231 136.49 311.821 136.88 313.201 137.66C314.581 138.44 315.661 139.52 316.441 140.9C317.221 142.28 317.611 143.87 317.611 145.67V161.375H312.571V147.02C312.571 145.79 312.346 144.755 311.896 143.915C311.446 143.045 310.801 142.385 309.961 141.935C309.151 141.455 308.221 141.215 307.171 141.215C306.121 141.215 305.176 141.455 304.336 141.935C303.526 142.385 302.896 143.045 302.446 143.915C301.996 144.785 301.771 145.82 301.771 147.02V161.375H296.686ZM334.079 161.915C331.739 161.915 329.639 161.36 327.779 160.25C325.949 159.11 324.494 157.58 323.414 155.66C322.364 153.74 321.839 151.58 321.839 149.18C321.839 146.78 322.379 144.62 323.459 142.7C324.539 140.78 325.994 139.265 327.824 138.155C329.654 137.045 331.724 136.49 334.034 136.49C335.984 136.49 337.709 136.88 339.209 137.66C340.709 138.44 341.894 139.52 342.764 140.9L341.999 142.07V127.31H347.039V161.375H342.224V156.425L342.809 157.37C341.969 158.84 340.769 159.965 339.209 160.745C337.649 161.525 335.939 161.915 334.079 161.915ZM334.574 157.19C335.984 157.19 337.244 156.845 338.354 156.155C339.494 155.465 340.379 154.52 341.009 153.32C341.669 152.09 341.999 150.71 341.999 149.18C341.999 147.65 341.669 146.285 341.009 145.085C340.379 143.885 339.494 142.94 338.354 142.25C337.244 141.56 335.984 141.215 334.574 141.215C333.164 141.215 331.889 141.56 330.749 142.25C329.609 142.94 328.724 143.885 328.094 145.085C327.464 146.285 327.149 147.65 327.149 149.18C327.149 150.71 327.464 152.09 328.094 153.32C328.724 154.52 329.594 155.465 330.704 156.155C331.844 156.845 333.134 157.19 334.574 157.19ZM364.18 161.915C361.75 161.915 359.59 161.36 357.7 160.25C355.84 159.11 354.385 157.58 353.335 155.66C352.285 153.71 351.76 151.535 351.76 149.135C351.76 146.675 352.285 144.5 353.335 142.61C354.415 140.72 355.855 139.235 357.655 138.155C359.455 137.045 361.495 136.49 363.775 136.49C365.605 136.49 367.24 136.805 368.68 137.435C370.12 138.065 371.335 138.935 372.325 140.045C373.315 141.125 374.065 142.37 374.575 143.78C375.115 145.19 375.385 146.69 375.385 148.28C375.385 148.67 375.37 149.075 375.34 149.495C375.31 149.915 375.25 150.305 375.16 150.665H355.765V146.615H372.28L369.85 148.46C370.15 146.99 370.045 145.685 369.535 144.545C369.055 143.375 368.305 142.46 367.285 141.8C366.295 141.11 365.125 140.765 363.775 140.765C362.425 140.765 361.225 141.11 360.175 141.8C359.125 142.46 358.315 143.42 357.745 144.68C357.175 145.91 356.95 147.41 357.07 149.18C356.92 150.83 357.145 152.27 357.745 153.5C358.375 154.73 359.245 155.69 360.355 156.38C361.495 157.07 362.785 157.415 364.225 157.415C365.695 157.415 366.94 157.085 367.96 156.425C369.01 155.765 369.835 154.91 370.435 153.86L374.575 155.885C374.095 157.025 373.345 158.06 372.325 158.99C371.335 159.89 370.135 160.61 368.725 161.15C367.345 161.66 365.83 161.915 364.18 161.915ZM391.373 161.915C389.033 161.915 386.933 161.36 385.073 160.25C383.243 159.11 381.788 157.58 380.708 155.66C379.658 153.74 379.133 151.58 379.133 149.18C379.133 146.78 379.673 144.62 380.753 142.7C381.833 140.78 383.288 139.265 385.118 138.155C386.948 137.045 389.018 136.49 391.328 136.49C393.278 136.49 395.003 136.88 396.503 137.66C398.003 138.44 399.188 139.52 400.058 140.9L399.293 142.07V127.31H404.333V161.375H399.518V156.425L400.103 157.37C399.263 158.84 398.063 159.965 396.503 160.745C394.943 161.525 393.233 161.915 391.373 161.915ZM391.868 157.19C393.278 157.19 394.538 156.845 395.648 156.155C396.788 155.465 397.673 154.52 398.303 153.32C398.963 152.09 399.293 150.71 399.293 149.18C399.293 147.65 398.963 146.285 398.303 145.085C397.673 143.885 396.788 142.94 395.648 142.25C394.538 141.56 393.278 141.215 391.868 141.215C390.458 141.215 389.183 141.56 388.043 142.25C386.903 142.94 386.018 143.885 385.388 145.085C384.758 146.285 384.443 147.65 384.443 149.18C384.443 150.71 384.758 152.09 385.388 153.32C386.018 154.52 386.888 155.465 387.998 156.155C389.138 156.845 390.428 157.19 391.868 157.19ZM417.685 161.375V137.03H422.77V161.375H417.685ZM417.685 133.7V127.85H422.77V133.7H417.685ZM428.491 161.375V137.03H433.351V141.8L432.766 141.17C433.366 139.64 434.326 138.485 435.646 137.705C436.966 136.895 438.496 136.49 440.236 136.49C442.036 136.49 443.626 136.88 445.006 137.66C446.386 138.44 447.466 139.52 448.246 140.9C449.026 142.28 449.416 143.87 449.416 145.67V161.375H444.376V147.02C444.376 145.79 444.151 144.755 443.701 143.915C443.251 143.045 442.606 142.385 441.766 141.935C440.956 141.455 440.026 141.215 438.976 141.215C437.926 141.215 436.981 141.455 436.141 141.935C435.331 142.385 434.701 143.045 434.251 143.915C433.801 144.785 433.576 145.82 433.576 147.02V161.375H428.491ZM52.92 224.375V195.35H46.485V190.85H58.185V224.375H52.92ZM67.3921 224.375L78.8671 209.525L79.7671 210.11C79.3471 210.56 78.8821 210.92 78.3721 211.19C77.8921 211.46 77.3671 211.655 76.7971 211.775C76.2571 211.895 75.6721 211.955 75.0421 211.955C73.0321 211.955 71.2321 211.505 69.6421 210.605C68.0521 209.675 66.7921 208.415 65.8621 206.825C64.9621 205.205 64.5121 203.375 64.5121 201.335C64.5121 199.205 65.0071 197.315 65.9971 195.665C66.9871 194.015 68.3371 192.71 70.0471 191.75C71.7571 190.79 73.7071 190.31 75.8971 190.31C78.1171 190.31 80.0671 190.79 81.7471 191.75C83.4571 192.71 84.7921 194.03 85.7521 195.71C86.7421 197.36 87.2371 199.25 87.2371 201.38C87.2371 202.52 87.1171 203.645 86.8771 204.755C86.6371 205.865 86.2171 207.02 85.6171 208.22C85.0171 209.39 84.1771 210.68 83.0971 212.09L73.7371 224.375H67.3921ZM75.8971 207.5C77.0671 207.5 78.1021 207.23 79.0021 206.69C79.9021 206.15 80.6221 205.415 81.1621 204.485C81.7021 203.555 81.9721 202.49 81.9721 201.29C81.9721 200.06 81.7021 198.98 81.1621 198.05C80.6221 197.09 79.8871 196.355 78.9571 195.845C78.0571 195.305 77.0371 195.035 75.8971 195.035C74.7571 195.035 73.7221 195.305 72.7921 195.845C71.8921 196.355 71.1721 197.09 70.6321 198.05C70.0921 198.98 69.8221 200.06 69.8221 201.29C69.8221 202.49 70.0771 203.555 70.5871 204.485C71.1271 205.415 71.8621 206.15 72.7921 206.69C73.7221 207.23 74.7571 207.5 75.8971 207.5ZM94.1934 224.375L105.668 209.525L106.568 210.11C106.148 210.56 105.683 210.92 105.173 211.19C104.693 211.46 104.168 211.655 103.598 211.775C103.058 211.895 102.473 211.955 101.843 211.955C99.8334 211.955 98.0334 211.505 96.4434 210.605C94.8534 209.675 93.5934 208.415 92.6634 206.825C91.7634 205.205 91.3134 203.375 91.3134 201.335C91.3134 199.205 91.8084 197.315 92.7984 195.665C93.7884 194.015 95.1384 192.71 96.8484 191.75C98.5584 190.79 100.508 190.31 102.698 190.31C104.918 190.31 106.868 190.79 108.548 191.75C110.258 192.71 111.593 194.03 112.553 195.71C113.543 197.36 114.038 199.25 114.038 201.38C114.038 202.52 113.918 203.645 113.678 204.755C113.438 205.865 113.018 207.02 112.418 208.22C111.818 209.39 110.978 210.68 109.898 212.09L100.538 224.375H94.1934ZM102.698 207.5C103.868 207.5 104.903 207.23 105.803 206.69C106.703 206.15 107.423 205.415 107.963 204.485C108.503 203.555 108.773 202.49 108.773 201.29C108.773 200.06 108.503 198.98 107.963 198.05C107.423 197.09 106.688 196.355 105.758 195.845C104.858 195.305 103.838 195.035 102.698 195.035C101.558 195.035 100.523 195.305 99.5934 195.845C98.6934 196.355 97.9734 197.09 97.4334 198.05C96.8934 198.98 96.6234 200.06 96.6234 201.29C96.6234 202.49 96.8784 203.555 97.3884 204.485C97.9284 205.415 98.6634 206.15 99.5934 206.69C100.523 207.23 101.558 207.5 102.698 207.5ZM132.155 224.915C129.485 224.915 127.145 224.195 125.135 222.755C123.125 221.285 121.55 219.26 120.41 216.68C119.3 214.07 118.745 211.04 118.745 207.59C118.745 204.11 119.3 201.08 120.41 198.5C121.55 195.92 123.11 193.91 125.09 192.47C127.1 191.03 129.44 190.31 132.11 190.31C134.78 190.31 137.105 191.03 139.085 192.47C141.095 193.91 142.655 195.935 143.765 198.545C144.905 201.125 145.475 204.14 145.475 207.59C145.475 211.04 144.92 214.07 143.81 216.68C142.7 219.26 141.14 221.285 139.13 222.755C137.15 224.195 134.825 224.915 132.155 224.915ZM132.155 220.055C133.805 220.055 135.23 219.545 136.43 218.525C137.63 217.505 138.56 216.065 139.22 214.205C139.88 212.345 140.21 210.14 140.21 207.59C140.21 205.04 139.88 202.835 139.22 200.975C138.56 199.115 137.63 197.675 136.43 196.655C135.23 195.635 133.79 195.125 132.11 195.125C130.46 195.125 129.035 195.635 127.835 196.655C126.635 197.675 125.705 199.115 125.045 200.975C124.385 202.835 124.055 205.04 124.055 207.59C124.055 210.11 124.385 212.315 125.045 214.205C125.705 216.065 126.635 217.505 127.835 218.525C129.065 219.545 130.505 220.055 132.155 220.055ZM171.603 224.915C169.713 224.915 167.988 224.525 166.428 223.745C164.898 222.965 163.713 221.84 162.873 220.37L163.458 219.425V224.375H158.598V190.31H163.683V205.07L162.873 203.9C163.773 202.52 164.973 201.44 166.473 200.66C167.973 199.88 169.683 199.49 171.603 199.49C173.913 199.49 175.983 200.045 177.813 201.155C179.673 202.265 181.128 203.78 182.178 205.7C183.258 207.62 183.798 209.78 183.798 212.18C183.798 214.58 183.258 216.74 182.178 218.66C181.128 220.58 179.688 222.11 177.858 223.25C176.028 224.36 173.943 224.915 171.603 224.915ZM171.108 220.19C172.548 220.19 173.823 219.845 174.933 219.155C176.043 218.465 176.913 217.52 177.543 216.32C178.203 215.09 178.533 213.71 178.533 212.18C178.533 210.65 178.203 209.285 177.543 208.085C176.913 206.885 176.043 205.94 174.933 205.25C173.823 204.56 172.548 204.215 171.108 204.215C169.698 204.215 168.423 204.56 167.283 205.25C166.173 205.94 165.288 206.885 164.628 208.085C163.998 209.285 163.683 210.65 163.683 212.18C163.683 213.71 163.998 215.09 164.628 216.32C165.288 217.52 166.173 218.465 167.283 219.155C168.423 219.845 169.698 220.19 171.108 220.19ZM190.24 234.275C189.64 234.275 189.04 234.215 188.44 234.095C187.87 234.005 187.345 233.855 186.865 233.645V229.28C187.225 229.37 187.66 229.445 188.17 229.505C188.68 229.595 189.175 229.64 189.655 229.64C191.065 229.64 192.1 229.325 192.76 228.695C193.45 228.095 194.065 227.165 194.605 225.905L196.225 222.215L196.135 226.49L185.605 200.03H191.05L198.835 220.325H196.99L204.73 200.03H210.22L199.465 227.03C198.895 228.47 198.175 229.73 197.305 230.81C196.465 231.92 195.46 232.775 194.29 233.375C193.15 233.975 191.8 234.275 190.24 234.275ZM220.126 224.375V219.425H222.061C223.561 219.425 224.761 218.99 225.661 218.12C226.561 217.22 227.011 216.02 227.011 214.52V190.85H232.276V214.34C232.276 216.38 231.856 218.15 231.016 219.65C230.206 221.15 229.021 222.32 227.461 223.16C225.931 223.97 224.131 224.375 222.061 224.375H220.126ZM250.17 224.915C247.83 224.915 245.685 224.36 243.735 223.25C241.815 222.14 240.285 220.625 239.145 218.705C238.005 216.785 237.435 214.61 237.435 212.18C237.435 209.72 238.005 207.545 239.145 205.655C240.285 203.735 241.815 202.235 243.735 201.155C245.655 200.045 247.8 199.49 250.17 199.49C252.57 199.49 254.715 200.045 256.605 201.155C258.525 202.235 260.04 203.735 261.15 205.655C262.29 207.545 262.86 209.72 262.86 212.18C262.86 214.64 262.29 216.83 261.15 218.75C260.01 220.67 258.48 222.185 256.56 223.295C254.64 224.375 252.51 224.915 250.17 224.915ZM250.17 220.19C251.61 220.19 252.885 219.845 253.995 219.155C255.105 218.465 255.975 217.52 256.605 216.32C257.265 215.09 257.595 213.71 257.595 212.18C257.595 210.65 257.265 209.285 256.605 208.085C255.975 206.885 255.105 205.94 253.995 205.25C252.885 204.56 251.61 204.215 250.17 204.215C248.76 204.215 247.485 204.56 246.345 205.25C245.235 205.94 244.35 206.885 243.69 208.085C243.06 209.285 242.745 210.65 242.745 212.18C242.745 213.71 243.06 215.09 243.69 216.32C244.35 217.52 245.235 218.465 246.345 219.155C247.485 219.845 248.76 220.19 250.17 220.19ZM267.6 224.375V190.31H272.685V204.8L271.875 204.17C272.475 202.64 273.435 201.485 274.755 200.705C276.075 199.895 277.605 199.49 279.345 199.49C281.145 199.49 282.735 199.88 284.115 200.66C285.495 201.44 286.575 202.52 287.355 203.9C288.135 205.28 288.525 206.855 288.525 208.625V224.375H283.485V210.02C283.485 208.79 283.245 207.755 282.765 206.915C282.315 206.045 281.685 205.385 280.875 204.935C280.065 204.455 279.135 204.215 278.085 204.215C277.065 204.215 276.135 204.455 275.295 204.935C274.485 205.385 273.84 206.045 273.36 206.915C272.91 207.785 272.685 208.82 272.685 210.02V224.375H267.6ZM293.742 224.375V200.03H298.602V204.8L298.017 204.17C298.617 202.64 299.577 201.485 300.897 200.705C302.217 199.895 303.747 199.49 305.487 199.49C307.287 199.49 308.877 199.88 310.257 200.66C311.637 201.44 312.717 202.52 313.497 203.9C314.277 205.28 314.667 206.87 314.667 208.67V224.375H309.627V210.02C309.627 208.79 309.402 207.755 308.952 206.915C308.502 206.045 307.857 205.385 307.017 204.935C306.207 204.455 305.277 204.215 304.227 204.215C303.177 204.215 302.232 204.455 301.392 204.935C300.582 205.385 299.952 206.045 299.502 206.915C299.052 207.785 298.827 208.82 298.827 210.02V224.375H293.742ZM328.02 224.375V190.85H339C342.48 190.85 345.495 191.555 348.045 192.965C350.625 194.345 352.62 196.295 354.03 198.815C355.44 201.335 356.145 204.26 356.145 207.59C356.145 210.89 355.44 213.815 354.03 216.365C352.62 218.885 350.625 220.85 348.045 222.26C345.495 223.67 342.48 224.375 339 224.375H328.02ZM333.33 219.65H339.09C341.46 219.65 343.515 219.155 345.255 218.165C347.025 217.175 348.39 215.78 349.35 213.98C350.31 212.18 350.79 210.05 350.79 207.59C350.79 205.13 350.295 203.015 349.305 201.245C348.345 199.445 346.995 198.05 345.255 197.06C343.515 196.07 341.46 195.575 339.09 195.575H333.33V219.65ZM372.4 224.915C370.06 224.915 367.915 224.36 365.965 223.25C364.045 222.14 362.515 220.625 361.375 218.705C360.235 216.785 359.665 214.61 359.665 212.18C359.665 209.72 360.235 207.545 361.375 205.655C362.515 203.735 364.045 202.235 365.965 201.155C367.885 200.045 370.03 199.49 372.4 199.49C374.8 199.49 376.945 200.045 378.835 201.155C380.755 202.235 382.27 203.735 383.38 205.655C384.52 207.545 385.09 209.72 385.09 212.18C385.09 214.64 384.52 216.83 383.38 218.75C382.24 220.67 380.71 222.185 378.79 223.295C376.87 224.375 374.74 224.915 372.4 224.915ZM372.4 220.19C373.84 220.19 375.115 219.845 376.225 219.155C377.335 218.465 378.205 217.52 378.835 216.32C379.495 215.09 379.825 213.71 379.825 212.18C379.825 210.65 379.495 209.285 378.835 208.085C378.205 206.885 377.335 205.94 376.225 205.25C375.115 204.56 373.84 204.215 372.4 204.215C370.99 204.215 369.715 204.56 368.575 205.25C367.465 205.94 366.58 206.885 365.92 208.085C365.29 209.285 364.975 210.65 364.975 212.18C364.975 213.71 365.29 215.09 365.92 216.32C366.58 217.52 367.465 218.465 368.575 219.155C369.715 219.845 370.99 220.19 372.4 220.19ZM401.259 224.915C398.829 224.915 396.669 224.36 394.779 223.25C392.919 222.11 391.464 220.58 390.414 218.66C389.364 216.71 388.839 214.535 388.839 212.135C388.839 209.675 389.364 207.5 390.414 205.61C391.494 203.72 392.934 202.235 394.734 201.155C396.534 200.045 398.574 199.49 400.854 199.49C402.684 199.49 404.319 199.805 405.759 200.435C407.199 201.065 408.414 201.935 409.404 203.045C410.394 204.125 411.144 205.37 411.654 206.78C412.194 208.19 412.464 209.69 412.464 211.28C412.464 211.67 412.449 212.075 412.419 212.495C412.389 212.915 412.329 213.305 412.239 213.665H392.844V209.615H409.359L406.929 211.46C407.229 209.99 407.124 208.685 406.614 207.545C406.134 206.375 405.384 205.46 404.364 204.8C403.374 204.11 402.204 203.765 400.854 203.765C399.504 203.765 398.304 204.11 397.254 204.8C396.204 205.46 395.394 206.42 394.824 207.68C394.254 208.91 394.029 210.41 394.149 212.18C393.999 213.83 394.224 215.27 394.824 216.5C395.454 217.73 396.324 218.69 397.434 219.38C398.574 220.07 399.864 220.415 401.304 220.415C402.774 220.415 404.019 220.085 405.039 219.425C406.089 218.765 406.914 217.91 407.514 216.86L411.654 218.885C411.174 220.025 410.424 221.06 409.404 221.99C408.414 222.89 407.214 223.61 405.804 224.15C404.424 224.66 402.909 224.915 401.259 224.915Z" fill="white"/>
<mask id="mask0_6399_7287" style="mask-type:alpha" maskUnits="userSpaceOnUse" x="0" y="0" width="1127" height="304">
<path d="M0 36C0 16.1178 16.1178 0 36 0H1091C1110.88 0 1127 16.1177 1127 36V267.75C1127 287.632 1110.88 303.75 1091 303.75H36C16.1177 303.75 0 287.632 0 267.75V36Z" fill="url(#paint1_linear_6399_7287)"/>
<path d="M47.079 95.375V75.26H53.667C55.755 75.26 57.564 75.683 59.094 76.529C60.642 77.357 61.839 78.527 62.685 80.039C63.531 81.551 63.954 83.306 63.954 85.304C63.954 87.284 63.531 89.039 62.685 90.569C61.839 92.081 60.642 93.26 59.094 94.106C57.564 94.952 55.755 95.375 53.667 95.375H47.079ZM50.265 92.54H53.721C55.143 92.54 56.376 92.243 57.42 91.649C58.482 91.055 59.301 90.218 59.877 89.138C60.453 88.058 60.741 86.78 60.741 85.304C60.741 83.828 60.444 82.559 59.85 81.497C59.274 80.417 58.464 79.58 57.42 78.986C56.376 78.392 55.143 78.095 53.721 78.095H50.265V92.54ZM66.7947 95.375V80.768H69.8457V95.375H66.7947ZM66.7947 78.77V75.26H69.8457V78.77H66.7947ZM80.1629 95.699C78.7589 95.699 77.4989 95.366 76.3829 94.7C75.2849 94.016 74.4119 93.098 73.7639 91.946C73.1339 90.794 72.8189 89.498 72.8189 88.058C72.8189 86.618 73.1429 85.322 73.7909 84.17C74.4389 83.018 75.3119 82.109 76.4099 81.443C77.5079 80.777 78.7499 80.444 80.1359 80.444C81.3059 80.444 82.3409 80.678 83.2409 81.146C84.1409 81.614 84.8519 82.262 85.3739 83.09L84.9149 83.792V74.936H87.9389V95.375H85.0499V92.405L85.4009 92.972C84.8969 93.854 84.1769 94.529 83.2409 94.997C82.3049 95.465 81.2789 95.699 80.1629 95.699ZM80.4599 92.864C81.3059 92.864 82.0619 92.657 82.7279 92.243C83.4119 91.829 83.9429 91.262 84.3209 90.542C84.7169 89.804 84.9149 88.976 84.9149 88.058C84.9149 87.14 84.7169 86.321 84.3209 85.601C83.9429 84.881 83.4119 84.314 82.7279 83.9C82.0619 83.486 81.3059 83.279 80.4599 83.279C79.6139 83.279 78.8489 83.486 78.1649 83.9C77.4809 84.314 76.9499 84.881 76.5719 85.601C76.1939 86.321 76.0049 87.14 76.0049 88.058C76.0049 88.976 76.1939 89.804 76.5719 90.542C76.9499 91.262 77.4719 91.829 78.1379 92.243C78.8219 92.657 79.5959 92.864 80.4599 92.864ZM101.62 95.375V86.303L94.7355 75.26H98.3265L103.834 84.197H102.565L108.046 75.26H111.637L104.779 86.303V95.375H101.62ZM118.218 95.699C116.814 95.699 115.527 95.366 114.357 94.7C113.205 94.034 112.287 93.125 111.603 91.973C110.919 90.821 110.577 89.516 110.577 88.058C110.577 86.582 110.919 85.277 111.603 84.143C112.287 82.991 113.205 82.091 114.357 81.443C115.509 80.777 116.796 80.444 118.218 80.444C119.658 80.444 120.945 80.777 122.079 81.443C123.231 82.091 124.14 82.991 124.806 84.143C125.49 85.277 125.832 86.582 125.832 88.058C125.832 89.534 125.49 90.848 124.806 92C124.122 93.152 123.204 94.061 122.052 94.727C120.9 95.375 119.622 95.699 118.218 95.699ZM118.218 92.864C119.082 92.864 119.847 92.657 120.513 92.243C121.179 91.829 121.701 91.262 122.079 90.542C122.475 89.804 122.673 88.976 122.673 88.058C122.673 87.14 122.475 86.321 122.079 85.601C121.701 84.881 121.179 84.314 120.513 83.9C119.847 83.486 119.082 83.279 118.218 83.279C117.372 83.279 116.607 83.486 115.923 83.9C115.257 84.314 114.726 84.881 114.33 85.601C113.952 86.321 113.763 87.14 113.763 88.058C113.763 88.976 113.952 89.804 114.33 90.542C114.726 91.262 115.257 91.829 115.923 92.243C116.607 92.657 117.372 92.864 118.218 92.864ZM134.021 95.699C132.923 95.699 131.96 95.456 131.132 94.97C130.304 94.466 129.656 93.773 129.188 92.891C128.738 91.991 128.513 90.956 128.513 89.786V80.768H131.564V89.516C131.564 90.182 131.699 90.767 131.969 91.271C132.239 91.775 132.617 92.171 133.103 92.459C133.589 92.729 134.147 92.864 134.777 92.864C135.425 92.864 135.992 92.72 136.478 92.432C136.964 92.144 137.342 91.739 137.612 91.217C137.9 90.695 138.044 90.083 138.044 89.381V80.768H141.068V95.375H138.179V92.513L138.503 92.891C138.161 93.791 137.594 94.484 136.802 94.97C136.01 95.456 135.083 95.699 134.021 95.699ZM149.647 95.375V75.26H152.833V86.168L151.996 85.844L161.095 75.26H165.064L157.018 84.683L157.18 82.415L165.388 95.375H161.635L155.749 86.168L152.833 89.57V95.375H149.647ZM167.465 95.375V80.768H170.381V83.63L170.03 83.252C170.39 82.334 170.966 81.641 171.758 81.173C172.55 80.687 173.468 80.444 174.512 80.444C175.592 80.444 176.546 80.678 177.374 81.146C178.202 81.614 178.85 82.262 179.318 83.09C179.786 83.918 180.02 84.872 180.02 85.952V95.375H176.996V86.762C176.996 86.024 176.861 85.403 176.591 84.899C176.321 84.377 175.934 83.981 175.43 83.711C174.944 83.423 174.386 83.279 173.756 83.279C173.126 83.279 172.559 83.423 172.055 83.711C171.569 83.981 171.191 84.377 170.921 84.899C170.651 85.421 170.516 86.042 170.516 86.762V95.375H167.465ZM190.332 95.699C188.928 95.699 187.641 95.366 186.471 94.7C185.319 94.034 184.401 93.125 183.717 91.973C183.033 90.821 182.691 89.516 182.691 88.058C182.691 86.582 183.033 85.277 183.717 84.143C184.401 82.991 185.319 82.091 186.471 81.443C187.623 80.777 188.91 80.444 190.332 80.444C191.772 80.444 193.059 80.777 194.193 81.443C195.345 82.091 196.254 82.991 196.92 84.143C197.604 85.277 197.946 86.582 197.946 88.058C197.946 89.534 197.604 90.848 196.92 92C196.236 93.152 195.318 94.061 194.166 94.727C193.014 95.375 191.736 95.699 190.332 95.699ZM190.332 92.864C191.196 92.864 191.961 92.657 192.627 92.243C193.293 91.829 193.815 91.262 194.193 90.542C194.589 89.804 194.787 88.976 194.787 88.058C194.787 87.14 194.589 86.321 194.193 85.601C193.815 84.881 193.293 84.314 192.627 83.9C191.961 83.486 191.196 83.279 190.332 83.279C189.486 83.279 188.721 83.486 188.037 83.9C187.371 84.314 186.84 84.881 186.444 85.601C186.066 86.321 185.877 87.14 185.877 88.058C185.877 88.976 186.066 89.804 186.444 90.542C186.84 91.262 187.371 91.829 188.037 92.243C188.721 92.657 189.486 92.864 190.332 92.864ZM204.198 95.375L199.176 80.768H202.416L206.25 92.405H205.116L209.031 80.768H211.812L215.7 92.405H214.566L218.427 80.768H221.667L216.618 95.375H213.864L209.922 83.468H210.921L206.979 95.375H204.198ZM227.269 89.381V88.922C227.269 88.13 227.395 87.428 227.647 86.816C227.917 86.204 228.25 85.655 228.646 85.169C229.06 84.665 229.483 84.206 229.915 83.792C230.527 83.216 231.067 82.658 231.535 82.118C232.021 81.578 232.264 80.948 232.264 80.228C232.264 79.778 232.156 79.373 231.94 79.013C231.724 78.635 231.4 78.338 230.968 78.122C230.554 77.888 230.041 77.771 229.429 77.771C228.583 77.771 227.854 78.032 227.242 78.554C226.648 79.058 226.27 79.742 226.108 80.606L223.273 79.931C223.435 78.941 223.795 78.077 224.353 77.339C224.929 76.583 225.649 75.998 226.513 75.584C227.395 75.152 228.385 74.936 229.483 74.936C230.725 74.936 231.787 75.188 232.669 75.692C233.569 76.178 234.253 76.817 234.721 77.609C235.189 78.401 235.423 79.256 235.423 80.174C235.423 80.912 235.27 81.578 234.964 82.172C234.676 82.748 234.298 83.279 233.83 83.765C233.38 84.251 232.912 84.728 232.426 85.196C231.85 85.754 231.337 86.339 230.887 86.951C230.455 87.545 230.239 88.247 230.239 89.057V89.381H227.269ZM227.269 95.375V91.865H230.374V95.375H227.269Z" fill="#F2F2F7"/>
<path d="M48.465 161.375V127.85H53.415L66.015 145.31H63.54L75.915 127.85H80.865V161.375H75.6V134.105L77.58 134.645L64.935 151.925H64.395L52.02 134.645L53.775 134.105V161.375H48.465ZM87.5711 161.375V127.85H92.8811V161.375H87.5711ZM99.6068 161.375V127.85H104.917V156.65H119.407V161.375H99.6068ZM136.681 161.375L128.311 137.03H133.711L140.101 156.425H138.211L144.736 137.03H149.371L155.851 156.425H153.961L160.396 137.03H165.796L157.381 161.375H152.791L146.221 141.53H147.886L141.316 161.375H136.681ZM175.468 161.915C173.818 161.915 172.363 161.63 171.103 161.06C169.873 160.46 168.913 159.65 168.223 158.63C167.533 157.58 167.188 156.35 167.188 154.94C167.188 153.62 167.473 152.435 168.043 151.385C168.643 150.335 169.558 149.45 170.788 148.73C172.018 148.01 173.563 147.5 175.423 147.2L183.883 145.805V149.81L176.413 151.115C175.063 151.355 174.073 151.79 173.443 152.42C172.813 153.02 172.498 153.8 172.498 154.76C172.498 155.69 172.843 156.455 173.533 157.055C174.253 157.625 175.168 157.91 176.278 157.91C177.658 157.91 178.858 157.61 179.878 157.01C180.928 156.41 181.738 155.615 182.308 154.625C182.878 153.605 183.163 152.48 183.163 151.25V144.995C183.163 143.795 182.713 142.82 181.813 142.07C180.943 141.29 179.773 140.9 178.303 140.9C176.953 140.9 175.768 141.26 174.748 141.98C173.758 142.67 173.023 143.57 172.543 144.68L168.313 142.565C168.763 141.365 169.498 140.315 170.518 139.415C171.538 138.485 172.723 137.765 174.073 137.255C175.453 136.745 176.908 136.49 178.438 136.49C180.358 136.49 182.053 136.85 183.523 137.57C185.023 138.29 186.178 139.295 186.988 140.585C187.828 141.845 188.248 143.315 188.248 144.995V161.375H183.388V156.965L184.423 157.1C183.853 158.09 183.118 158.945 182.218 159.665C181.348 160.385 180.343 160.94 179.203 161.33C178.093 161.72 176.848 161.915 175.468 161.915ZM202.969 161.915C200.479 161.915 198.289 161.3 196.399 160.07C194.539 158.84 193.234 157.19 192.484 155.12L196.399 153.275C197.059 154.655 197.959 155.75 199.099 156.56C200.269 157.37 201.559 157.775 202.969 157.775C204.169 157.775 205.144 157.505 205.894 156.965C206.644 156.425 207.019 155.69 207.019 154.76C207.019 154.16 206.854 153.68 206.524 153.32C206.194 152.93 205.774 152.615 205.264 152.375C204.784 152.135 204.289 151.955 203.779 151.835L199.954 150.755C197.854 150.155 196.279 149.255 195.229 148.055C194.209 146.825 193.699 145.4 193.699 143.78C193.699 142.31 194.074 141.035 194.824 139.955C195.574 138.845 196.609 137.99 197.929 137.39C199.249 136.79 200.734 136.49 202.384 136.49C204.604 136.49 206.584 137.045 208.324 138.155C210.064 139.235 211.294 140.75 212.014 142.7L208.099 144.545C207.619 143.375 206.854 142.445 205.804 141.755C204.784 141.065 203.629 140.72 202.339 140.72C201.229 140.72 200.344 140.99 199.684 141.53C199.024 142.04 198.694 142.715 198.694 143.555C198.694 144.125 198.844 144.605 199.144 144.995C199.444 145.355 199.834 145.655 200.314 145.895C200.794 146.105 201.289 146.285 201.799 146.435L205.759 147.605C207.769 148.175 209.314 149.075 210.394 150.305C211.474 151.505 212.014 152.945 212.014 154.625C212.014 156.065 211.624 157.34 210.844 158.45C210.094 159.53 209.044 160.385 207.694 161.015C206.344 161.615 204.769 161.915 202.969 161.915ZM227.157 161.375V141.62H222.657V137.03H227.157V135.77C227.157 133.94 227.532 132.41 228.282 131.18C229.032 129.92 230.067 128.96 231.387 128.3C232.737 127.64 234.282 127.31 236.022 127.31C236.352 127.31 236.727 127.34 237.147 127.4C237.567 127.43 237.912 127.475 238.182 127.535V131.945C237.942 131.885 237.672 131.855 237.372 131.855C237.072 131.825 236.832 131.81 236.652 131.81C235.302 131.81 234.222 132.125 233.412 132.755C232.602 133.355 232.197 134.36 232.197 135.77V137.03H237.777V141.62H232.197V161.375H227.157ZM253.115 161.915C250.775 161.915 248.63 161.36 246.68 160.25C244.76 159.14 243.23 157.625 242.09 155.705C240.95 153.785 240.38 151.61 240.38 149.18C240.38 146.72 240.95 144.545 242.09 142.655C243.23 140.735 244.76 139.235 246.68 138.155C248.6 137.045 250.745 136.49 253.115 136.49C255.515 136.49 257.66 137.045 259.55 138.155C261.47 139.235 262.985 140.735 264.095 142.655C265.235 144.545 265.805 146.72 265.805 149.18C265.805 151.64 265.235 153.83 264.095 155.75C262.955 157.67 261.425 159.185 259.505 160.295C257.585 161.375 255.455 161.915 253.115 161.915ZM253.115 157.19C254.555 157.19 255.83 156.845 256.94 156.155C258.05 155.465 258.92 154.52 259.55 153.32C260.21 152.09 260.54 150.71 260.54 149.18C260.54 147.65 260.21 146.285 259.55 145.085C258.92 143.885 258.05 142.94 256.94 142.25C255.83 141.56 254.555 141.215 253.115 141.215C251.705 141.215 250.43 141.56 249.29 142.25C248.18 142.94 247.295 143.885 246.635 145.085C246.005 146.285 245.69 147.65 245.69 149.18C245.69 150.71 246.005 152.09 246.635 153.32C247.295 154.52 248.18 155.465 249.29 156.155C250.43 156.845 251.705 157.19 253.115 157.19ZM279.229 161.915C277.399 161.915 275.794 161.51 274.414 160.7C273.034 159.86 271.954 158.705 271.174 157.235C270.424 155.735 270.049 154.01 270.049 152.06V137.03H275.134V151.61C275.134 152.72 275.359 153.695 275.809 154.535C276.259 155.375 276.889 156.035 277.699 156.515C278.509 156.965 279.439 157.19 280.489 157.19C281.569 157.19 282.514 156.95 283.324 156.47C284.134 155.99 284.764 155.315 285.214 154.445C285.694 153.575 285.934 152.555 285.934 151.385V137.03H290.974V161.375H286.159V156.605L286.699 157.235C286.129 158.735 285.184 159.89 283.864 160.7C282.544 161.51 280.999 161.915 279.229 161.915ZM296.686 161.375V137.03H301.546V141.8L300.961 141.17C301.561 139.64 302.521 138.485 303.841 137.705C305.161 136.895 306.691 136.49 308.431 136.49C310.231 136.49 311.821 136.88 313.201 137.66C314.581 138.44 315.661 139.52 316.441 140.9C317.221 142.28 317.611 143.87 317.611 145.67V161.375H312.571V147.02C312.571 145.79 312.346 144.755 311.896 143.915C311.446 143.045 310.801 142.385 309.961 141.935C309.151 141.455 308.221 141.215 307.171 141.215C306.121 141.215 305.176 141.455 304.336 141.935C303.526 142.385 302.896 143.045 302.446 143.915C301.996 144.785 301.771 145.82 301.771 147.02V161.375H296.686ZM334.079 161.915C331.739 161.915 329.639 161.36 327.779 160.25C325.949 159.11 324.494 157.58 323.414 155.66C322.364 153.74 321.839 151.58 321.839 149.18C321.839 146.78 322.379 144.62 323.459 142.7C324.539 140.78 325.994 139.265 327.824 138.155C329.654 137.045 331.724 136.49 334.034 136.49C335.984 136.49 337.709 136.88 339.209 137.66C340.709 138.44 341.894 139.52 342.764 140.9L341.999 142.07V127.31H347.039V161.375H342.224V156.425L342.809 157.37C341.969 158.84 340.769 159.965 339.209 160.745C337.649 161.525 335.939 161.915 334.079 161.915ZM334.574 157.19C335.984 157.19 337.244 156.845 338.354 156.155C339.494 155.465 340.379 154.52 341.009 153.32C341.669 152.09 341.999 150.71 341.999 149.18C341.999 147.65 341.669 146.285 341.009 145.085C340.379 143.885 339.494 142.94 338.354 142.25C337.244 141.56 335.984 141.215 334.574 141.215C333.164 141.215 331.889 141.56 330.749 142.25C329.609 142.94 328.724 143.885 328.094 145.085C327.464 146.285 327.149 147.65 327.149 149.18C327.149 150.71 327.464 152.09 328.094 153.32C328.724 154.52 329.594 155.465 330.704 156.155C331.844 156.845 333.134 157.19 334.574 157.19ZM364.18 161.915C361.75 161.915 359.59 161.36 357.7 160.25C355.84 159.11 354.385 157.58 353.335 155.66C352.285 153.71 351.76 151.535 351.76 149.135C351.76 146.675 352.285 144.5 353.335 142.61C354.415 140.72 355.855 139.235 357.655 138.155C359.455 137.045 361.495 136.49 363.775 136.49C365.605 136.49 367.24 136.805 368.68 137.435C370.12 138.065 371.335 138.935 372.325 140.045C373.315 141.125 374.065 142.37 374.575 143.78C375.115 145.19 375.385 146.69 375.385 148.28C375.385 148.67 375.37 149.075 375.34 149.495C375.31 149.915 375.25 150.305 375.16 150.665H355.765V146.615H372.28L369.85 148.46C370.15 146.99 370.045 145.685 369.535 144.545C369.055 143.375 368.305 142.46 367.285 141.8C366.295 141.11 365.125 140.765 363.775 140.765C362.425 140.765 361.225 141.11 360.175 141.8C359.125 142.46 358.315 143.42 357.745 144.68C357.175 145.91 356.95 147.41 357.07 149.18C356.92 150.83 357.145 152.27 357.745 153.5C358.375 154.73 359.245 155.69 360.355 156.38C361.495 157.07 362.785 157.415 364.225 157.415C365.695 157.415 366.94 157.085 367.96 156.425C369.01 155.765 369.835 154.91 370.435 153.86L374.575 155.885C374.095 157.025 373.345 158.06 372.325 158.99C371.335 159.89 370.135 160.61 368.725 161.15C367.345 161.66 365.83 161.915 364.18 161.915ZM391.373 161.915C389.033 161.915 386.933 161.36 385.073 160.25C383.243 159.11 381.788 157.58 380.708 155.66C379.658 153.74 379.133 151.58 379.133 149.18C379.133 146.78 379.673 144.62 380.753 142.7C381.833 140.78 383.288 139.265 385.118 138.155C386.948 137.045 389.018 136.49 391.328 136.49C393.278 136.49 395.003 136.88 396.503 137.66C398.003 138.44 399.188 139.52 400.058 140.9L399.293 142.07V127.31H404.333V161.375H399.518V156.425L400.103 157.37C399.263 158.84 398.063 159.965 396.503 160.745C394.943 161.525 393.233 161.915 391.373 161.915ZM391.868 157.19C393.278 157.19 394.538 156.845 395.648 156.155C396.788 155.465 397.673 154.52 398.303 153.32C398.963 152.09 399.293 150.71 399.293 149.18C399.293 147.65 398.963 146.285 398.303 145.085C397.673 143.885 396.788 142.94 395.648 142.25C394.538 141.56 393.278 141.215 391.868 141.215C390.458 141.215 389.183 141.56 388.043 142.25C386.903 142.94 386.018 143.885 385.388 145.085C384.758 146.285 384.443 147.65 384.443 149.18C384.443 150.71 384.758 152.09 385.388 153.32C386.018 154.52 386.888 155.465 387.998 156.155C389.138 156.845 390.428 157.19 391.868 157.19ZM417.685 161.375V137.03H422.77V161.375H417.685ZM417.685 133.7V127.85H422.77V133.7H417.685ZM428.491 161.375V137.03H433.351V141.8L432.766 141.17C433.366 139.64 434.326 138.485 435.646 137.705C436.966 136.895 438.496 136.49 440.236 136.49C442.036 136.49 443.626 136.88 445.006 137.66C446.386 138.44 447.466 139.52 448.246 140.9C449.026 142.28 449.416 143.87 449.416 145.67V161.375H444.376V147.02C444.376 145.79 444.151 144.755 443.701 143.915C443.251 143.045 442.606 142.385 441.766 141.935C440.956 141.455 440.026 141.215 438.976 141.215C437.926 141.215 436.981 141.455 436.141 141.935C435.331 142.385 434.701 143.045 434.251 143.915C433.801 144.785 433.576 145.82 433.576 147.02V161.375H428.491ZM52.92 224.375V195.35H46.485V190.85H58.185V224.375H52.92ZM67.3921 224.375L78.8671 209.525L79.7671 210.11C79.3471 210.56 78.8821 210.92 78.3721 211.19C77.8921 211.46 77.3671 211.655 76.7971 211.775C76.2571 211.895 75.6721 211.955 75.0421 211.955C73.0321 211.955 71.2321 211.505 69.6421 210.605C68.0521 209.675 66.7921 208.415 65.8621 206.825C64.9621 205.205 64.5121 203.375 64.5121 201.335C64.5121 199.205 65.0071 197.315 65.9971 195.665C66.9871 194.015 68.3371 192.71 70.0471 191.75C71.7571 190.79 73.7071 190.31 75.8971 190.31C78.1171 190.31 80.0671 190.79 81.7471 191.75C83.4571 192.71 84.7921 194.03 85.7521 195.71C86.7421 197.36 87.2371 199.25 87.2371 201.38C87.2371 202.52 87.1171 203.645 86.8771 204.755C86.6371 205.865 86.2171 207.02 85.6171 208.22C85.0171 209.39 84.1771 210.68 83.0971 212.09L73.7371 224.375H67.3921ZM75.8971 207.5C77.0671 207.5 78.1021 207.23 79.0021 206.69C79.9021 206.15 80.6221 205.415 81.1621 204.485C81.7021 203.555 81.9721 202.49 81.9721 201.29C81.9721 200.06 81.7021 198.98 81.1621 198.05C80.6221 197.09 79.8871 196.355 78.9571 195.845C78.0571 195.305 77.0371 195.035 75.8971 195.035C74.7571 195.035 73.7221 195.305 72.7921 195.845C71.8921 196.355 71.1721 197.09 70.6321 198.05C70.0921 198.98 69.8221 200.06 69.8221 201.29C69.8221 202.49 70.0771 203.555 70.5871 204.485C71.1271 205.415 71.8621 206.15 72.7921 206.69C73.7221 207.23 74.7571 207.5 75.8971 207.5ZM94.1934 224.375L105.668 209.525L106.568 210.11C106.148 210.56 105.683 210.92 105.173 211.19C104.693 211.46 104.168 211.655 103.598 211.775C103.058 211.895 102.473 211.955 101.843 211.955C99.8334 211.955 98.0334 211.505 96.4434 210.605C94.8534 209.675 93.5934 208.415 92.6634 206.825C91.7634 205.205 91.3134 203.375 91.3134 201.335C91.3134 199.205 91.8084 197.315 92.7984 195.665C93.7884 194.015 95.1384 192.71 96.8484 191.75C98.5584 190.79 100.508 190.31 102.698 190.31C104.918 190.31 106.868 190.79 108.548 191.75C110.258 192.71 111.593 194.03 112.553 195.71C113.543 197.36 114.038 199.25 114.038 201.38C114.038 202.52 113.918 203.645 113.678 204.755C113.438 205.865 113.018 207.02 112.418 208.22C111.818 209.39 110.978 210.68 109.898 212.09L100.538 224.375H94.1934ZM102.698 207.5C103.868 207.5 104.903 207.23 105.803 206.69C106.703 206.15 107.423 205.415 107.963 204.485C108.503 203.555 108.773 202.49 108.773 201.29C108.773 200.06 108.503 198.98 107.963 198.05C107.423 197.09 106.688 196.355 105.758 195.845C104.858 195.305 103.838 195.035 102.698 195.035C101.558 195.035 100.523 195.305 99.5934 195.845C98.6934 196.355 97.9734 197.09 97.4334 198.05C96.8934 198.98 96.6234 200.06 96.6234 201.29C96.6234 202.49 96.8784 203.555 97.3884 204.485C97.9284 205.415 98.6634 206.15 99.5934 206.69C100.523 207.23 101.558 207.5 102.698 207.5ZM132.155 224.915C129.485 224.915 127.145 224.195 125.135 222.755C123.125 221.285 121.55 219.26 120.41 216.68C119.3 214.07 118.745 211.04 118.745 207.59C118.745 204.11 119.3 201.08 120.41 198.5C121.55 195.92 123.11 193.91 125.09 192.47C127.1 191.03 129.44 190.31 132.11 190.31C134.78 190.31 137.105 191.03 139.085 192.47C141.095 193.91 142.655 195.935 143.765 198.545C144.905 201.125 145.475 204.14 145.475 207.59C145.475 211.04 144.92 214.07 143.81 216.68C142.7 219.26 141.14 221.285 139.13 222.755C137.15 224.195 134.825 224.915 132.155 224.915ZM132.155 220.055C133.805 220.055 135.23 219.545 136.43 218.525C137.63 217.505 138.56 216.065 139.22 214.205C139.88 212.345 140.21 210.14 140.21 207.59C140.21 205.04 139.88 202.835 139.22 200.975C138.56 199.115 137.63 197.675 136.43 196.655C135.23 195.635 133.79 195.125 132.11 195.125C130.46 195.125 129.035 195.635 127.835 196.655C126.635 197.675 125.705 199.115 125.045 200.975C124.385 202.835 124.055 205.04 124.055 207.59C124.055 210.11 124.385 212.315 125.045 214.205C125.705 216.065 126.635 217.505 127.835 218.525C129.065 219.545 130.505 220.055 132.155 220.055ZM171.603 224.915C169.713 224.915 167.988 224.525 166.428 223.745C164.898 222.965 163.713 221.84 162.873 220.37L163.458 219.425V224.375H158.598V190.31H163.683V205.07L162.873 203.9C163.773 202.52 164.973 201.44 166.473 200.66C167.973 199.88 169.683 199.49 171.603 199.49C173.913 199.49 175.983 200.045 177.813 201.155C179.673 202.265 181.128 203.78 182.178 205.7C183.258 207.62 183.798 209.78 183.798 212.18C183.798 214.58 183.258 216.74 182.178 218.66C181.128 220.58 179.688 222.11 177.858 223.25C176.028 224.36 173.943 224.915 171.603 224.915ZM171.108 220.19C172.548 220.19 173.823 219.845 174.933 219.155C176.043 218.465 176.913 217.52 177.543 216.32C178.203 215.09 178.533 213.71 178.533 212.18C178.533 210.65 178.203 209.285 177.543 208.085C176.913 206.885 176.043 205.94 174.933 205.25C173.823 204.56 172.548 204.215 171.108 204.215C169.698 204.215 168.423 204.56 167.283 205.25C166.173 205.94 165.288 206.885 164.628 208.085C163.998 209.285 163.683 210.65 163.683 212.18C163.683 213.71 163.998 215.09 164.628 216.32C165.288 217.52 166.173 218.465 167.283 219.155C168.423 219.845 169.698 220.19 171.108 220.19ZM190.24 234.275C189.64 234.275 189.04 234.215 188.44 234.095C187.87 234.005 187.345 233.855 186.865 233.645V229.28C187.225 229.37 187.66 229.445 188.17 229.505C188.68 229.595 189.175 229.64 189.655 229.64C191.065 229.64 192.1 229.325 192.76 228.695C193.45 228.095 194.065 227.165 194.605 225.905L196.225 222.215L196.135 226.49L185.605 200.03H191.05L198.835 220.325H196.99L204.73 200.03H210.22L199.465 227.03C198.895 228.47 198.175 229.73 197.305 230.81C196.465 231.92 195.46 232.775 194.29 233.375C193.15 233.975 191.8 234.275 190.24 234.275ZM220.126 224.375V219.425H222.061C223.561 219.425 224.761 218.99 225.661 218.12C226.561 217.22 227.011 216.02 227.011 214.52V190.85H232.276V214.34C232.276 216.38 231.856 218.15 231.016 219.65C230.206 221.15 229.021 222.32 227.461 223.16C225.931 223.97 224.131 224.375 222.061 224.375H220.126ZM250.17 224.915C247.83 224.915 245.685 224.36 243.735 223.25C241.815 222.14 240.285 220.625 239.145 218.705C238.005 216.785 237.435 214.61 237.435 212.18C237.435 209.72 238.005 207.545 239.145 205.655C240.285 203.735 241.815 202.235 243.735 201.155C245.655 200.045 247.8 199.49 250.17 199.49C252.57 199.49 254.715 200.045 256.605 201.155C258.525 202.235 260.04 203.735 261.15 205.655C262.29 207.545 262.86 209.72 262.86 212.18C262.86 214.64 262.29 216.83 261.15 218.75C260.01 220.67 258.48 222.185 256.56 223.295C254.64 224.375 252.51 224.915 250.17 224.915ZM250.17 220.19C251.61 220.19 252.885 219.845 253.995 219.155C255.105 218.465 255.975 217.52 256.605 216.32C257.265 215.09 257.595 213.71 257.595 212.18C257.595 210.65 257.265 209.285 256.605 208.085C255.975 206.885 255.105 205.94 253.995 205.25C252.885 204.56 251.61 204.215 250.17 204.215C248.76 204.215 247.485 204.56 246.345 205.25C245.235 205.94 244.35 206.885 243.69 208.085C243.06 209.285 242.745 210.65 242.745 212.18C242.745 213.71 243.06 215.09 243.69 216.32C244.35 217.52 245.235 218.465 246.345 219.155C247.485 219.845 248.76 220.19 250.17 220.19ZM267.6 224.375V190.31H272.685V204.8L271.875 204.17C272.475 202.64 273.435 201.485 274.755 200.705C276.075 199.895 277.605 199.49 279.345 199.49C281.145 199.49 282.735 199.88 284.115 200.66C285.495 201.44 286.575 202.52 287.355 203.9C288.135 205.28 288.525 206.855 288.525 208.625V224.375H283.485V210.02C283.485 208.79 283.245 207.755 282.765 206.915C282.315 206.045 281.685 205.385 280.875 204.935C280.065 204.455 279.135 204.215 278.085 204.215C277.065 204.215 276.135 204.455 275.295 204.935C274.485 205.385 273.84 206.045 273.36 206.915C272.91 207.785 272.685 208.82 272.685 210.02V224.375H267.6ZM293.742 224.375V200.03H298.602V204.8L298.017 204.17C298.617 202.64 299.577 201.485 300.897 200.705C302.217 199.895 303.747 199.49 305.487 199.49C307.287 199.49 308.877 199.88 310.257 200.66C311.637 201.44 312.717 202.52 313.497 203.9C314.277 205.28 314.667 206.87 314.667 208.67V224.375H309.627V210.02C309.627 208.79 309.402 207.755 308.952 206.915C308.502 206.045 307.857 205.385 307.017 204.935C306.207 204.455 305.277 204.215 304.227 204.215C303.177 204.215 302.232 204.455 301.392 204.935C300.582 205.385 299.952 206.045 299.502 206.915C299.052 207.785 298.827 208.82 298.827 210.02V224.375H293.742ZM328.02 224.375V190.85H339C342.48 190.85 345.495 191.555 348.045 192.965C350.625 194.345 352.62 196.295 354.03 198.815C355.44 201.335 356.145 204.26 356.145 207.59C356.145 210.89 355.44 213.815 354.03 216.365C352.62 218.885 350.625 220.85 348.045 222.26C345.495 223.67 342.48 224.375 339 224.375H328.02ZM333.33 219.65H339.09C341.46 219.65 343.515 219.155 345.255 218.165C347.025 217.175 348.39 215.78 349.35 213.98C350.31 212.18 350.79 210.05 350.79 207.59C350.79 205.13 350.295 203.015 349.305 201.245C348.345 199.445 346.995 198.05 345.255 197.06C343.515 196.07 341.46 195.575 339.09 195.575H333.33V219.65ZM372.4 224.915C370.06 224.915 367.915 224.36 365.965 223.25C364.045 222.14 362.515 220.625 361.375 218.705C360.235 216.785 359.665 214.61 359.665 212.18C359.665 209.72 360.235 207.545 361.375 205.655C362.515 203.735 364.045 202.235 365.965 201.155C367.885 200.045 370.03 199.49 372.4 199.49C374.8 199.49 376.945 200.045 378.835 201.155C380.755 202.235 382.27 203.735 383.38 205.655C384.52 207.545 385.09 209.72 385.09 212.18C385.09 214.64 384.52 216.83 383.38 218.75C382.24 220.67 380.71 222.185 378.79 223.295C376.87 224.375 374.74 224.915 372.4 224.915ZM372.4 220.19C373.84 220.19 375.115 219.845 376.225 219.155C377.335 218.465 378.205 217.52 378.835 216.32C379.495 215.09 379.825 213.71 379.825 212.18C379.825 210.65 379.495 209.285 378.835 208.085C378.205 206.885 377.335 205.94 376.225 205.25C375.115 204.56 373.84 204.215 372.4 204.215C370.99 204.215 369.715 204.56 368.575 205.25C367.465 205.94 366.58 206.885 365.92 208.085C365.29 209.285 364.975 210.65 364.975 212.18C364.975 213.71 365.29 215.09 365.92 216.32C366.58 217.52 367.465 218.465 368.575 219.155C369.715 219.845 370.99 220.19 372.4 220.19ZM401.259 224.915C398.829 224.915 396.669 224.36 394.779 223.25C392.919 222.11 391.464 220.58 390.414 218.66C389.364 216.71 388.839 214.535 388.839 212.135C388.839 209.675 389.364 207.5 390.414 205.61C391.494 203.72 392.934 202.235 394.734 201.155C396.534 200.045 398.574 199.49 400.854 199.49C402.684 199.49 404.319 199.805 405.759 200.435C407.199 201.065 408.414 201.935 409.404 203.045C410.394 204.125 411.144 205.37 411.654 206.78C412.194 208.19 412.464 209.69 412.464 211.28C412.464 211.67 412.449 212.075 412.419 212.495C412.389 212.915 412.329 213.305 412.239 213.665H392.844V209.615H409.359L406.929 211.46C407.229 209.99 407.124 208.685 406.614 207.545C406.134 206.375 405.384 205.46 404.364 204.8C403.374 204.11 402.204 203.765 400.854 203.765C399.504 203.765 398.304 204.11 397.254 204.8C396.204 205.46 395.394 206.42 394.824 207.68C394.254 208.91 394.029 210.41 394.149 212.18C393.999 213.83 394.224 215.27 394.824 216.5C395.454 217.73 396.324 218.69 397.434 219.38C398.574 220.07 399.864 220.415 401.304 220.415C402.774 220.415 404.019 220.085 405.039 219.425C406.089 218.765 406.914 217.91 407.514 216.86L411.654 218.885C411.174 220.025 410.424 221.06 409.404 221.99C408.414 222.89 407.214 223.61 405.804 224.15C404.424 224.66 402.909 224.915 401.259 224.915Z" fill="white"/>
</mask>
<g mask="url(#mask0_6399_7287)">
<path fill-rule="evenodd" clip-rule="evenodd" d="M766.679 96.6328C750.691 103.88 729.067 113.682 720.174 142.758C717.812 150.482 722.184 158.571 729.94 160.826C737.696 163.081 745.899 158.648 748.261 150.924C753.098 135.111 763.195 130.115 779.541 122.696C779.77 122.592 780 122.488 780.232 122.383C796.324 115.084 818.062 105.225 827.044 75.8583C838.091 39.7392 810.843 6.02538 780.026 -2.9345C749.209 -11.8943 707.472 1.76255 696.426 37.8816C694.063 45.6055 698.436 53.6952 706.192 55.9502C713.948 58.2052 722.15 53.7716 724.513 46.0478C729.576 29.4931 751.681 19.2828 771.471 25.0365C791.261 30.7903 804.02 51.1375 798.957 67.6922C794.046 83.748 783.843 88.8428 767.586 96.2211C767.286 96.3575 766.983 96.4947 766.679 96.6328ZM714.56 211.112C722.819 213.513 731.509 208.932 733.972 200.881C736.434 192.829 731.736 184.356 723.478 181.955C715.22 179.554 706.529 184.134 704.067 192.186C701.604 200.238 706.302 208.711 714.56 211.112Z" fill="white" fill-opacity="0.5"/>
<path d="M764.408 193.127C778.233 177.473 805.847 186.604 817.926 193.127C840.968 212.513 873.227 252.808 817.926 258.895C748.799 266.505 747.126 212.694 764.408 193.127Z" fill="#FFFCF5" stroke="#0077D4" stroke-width="3.6864" stroke-linecap="round" stroke-linejoin="round"/>
<path d="M815.439 191.005C814.993 75.3397 888.955 37.5897 925.82 32.8348C1102.47 10.0497 1107.56 169.807 1118.15 180.134C1261.42 426.358 942.204 480.907 860.037 413.857C808.749 372.004 815.997 335.587 815.439 191.005Z" fill="#FFFCF5" stroke="#0077D4" stroke-width="3.6864" stroke-linecap="round" stroke-linejoin="round"/>
<path d="M825.473 71.2537C837.068 56.0345 854.833 67.4489 862.266 75.0584C863.381 89.1905 860.594 116.476 840.525 112.563C815.438 107.671 810.978 90.2776 825.473 71.2537Z" fill="#FFFCF5"/>
<path d="M1041.92 26.1455C1023.08 21.437 1016.65 41.2094 1015.79 51.6841C1024.04 63.3491 1043.83 82.8395 1056.89 67.4811C1073.23 48.2831 1065.46 32.0312 1041.92 26.1455Z" fill="#FFFCF5"/>
<path d="M858.364 71.4274C831.048 42.9919 796.484 96.2588 831.048 109.847M1017.25 45.3375C1017.25 9.29238 1089.16 28.3163 1055.15 68.5383" stroke="#0077D4" stroke-width="3.6864" stroke-linecap="round" stroke-linejoin="round"/>
<path d="M894.043 147.892L901.29 140.282" stroke="#0077D4" stroke-width="5.5296" stroke-linecap="round" stroke-linejoin="round"/>
<path d="M981.008 122.893L989.928 125.61" stroke="#0077D4" stroke-width="5.5296" stroke-linecap="round" stroke-linejoin="round"/>
<path d="M935.853 145.177C933.891 148.481 932.86 151.468 930.836 152.243C932.137 161.176 940.313 172.897 945.331 172.897C955.52 172.897 951.463 154.396 948.675 147.592C943.351 148.468 938.267 146.615 935.853 145.177Z" fill="#FFB9DA"/>
<path d="M923.031 152.243C924.481 153.33 927.8 153.405 930.836 152.243M953.693 144.633C951.706 145.965 950.73 147.253 948.675 147.592M930.836 152.243C932.86 151.468 933.891 148.481 935.853 145.177C938.267 146.615 943.351 148.468 948.675 147.592M930.836 152.243C932.137 161.176 940.313 172.897 945.331 172.897C955.52 172.897 951.463 154.396 948.675 147.592M931.951 143.546L938.083 141.372" stroke="#0077D4" stroke-width="3.6864" stroke-linecap="round" stroke-linejoin="round"/>
<path d="M1042.89 40.274C1034.42 37.5232 1019.58 43.6439 1033.41 59.2979C1050.69 78.8653 1061.28 46.2529 1042.89 40.274Z" fill="#FFB9DA"/>
<path d="M837.346 75.6988C845.809 72.948 860.648 79.0687 846.823 94.7227C829.541 114.29 818.949 81.6777 837.346 75.6988Z" fill="#FFB9DA"/>
<ellipse cx="10.7566" cy="5.44551" rx="10.7566" ry="5.44551" transform="matrix(0.965214 -0.261461 0.274045 0.961717 882.336 157.865)" fill="#FFB9DA"/>
<ellipse cx="10.7566" cy="5.44551" rx="10.7566" ry="5.44551" transform="matrix(0.965214 -0.261461 0.274045 0.961717 981.562 136.127)" fill="#FFB9DA"/>
<path d="M974.321 238.667C910.768 256.982 890.917 222.361 889.813 205.85C888.908 192.29 894.521 195.969 905.656 200.486C974.321 228.34 987.143 188.661 1010.16 175.875C1024.68 167.805 1026.35 170.126 1027.4 174.779C1033.97 186.487 1024.75 224.135 974.321 238.667Z" fill="#C6E4FC"/>
<path d="M1000.52 82.9658C1025.04 82.9658 1044.85 102.334 1044.85 126.153C1044.85 149.973 1025.04 169.341 1000.52 169.341C976.002 169.341 956.189 149.972 956.189 126.153C956.189 102.334 976.002 82.966 1000.52 82.9658Z" fill="#C6E4FC" fill-opacity="0.57" stroke="#0077D4" stroke-width="2.7648"/>
<rect width="6.82751" height="73.7837" transform="matrix(0.886082 0.463528 -0.482115 0.876108 1028.43 99.291)" fill="#FFFCF5" fill-opacity="0.63"/>
<rect width="6.82751" height="73.7837" transform="matrix(0.886082 0.463528 -0.482115 0.876108 992.606 72.8867)" fill="#FFFCF5" fill-opacity="0.63"/>
<rect width="12.1966" height="59.7097" transform="matrix(0.886082 0.463528 -0.482115 0.876108 1033.81 109.648)" fill="#FFFCF5" fill-opacity="0.63"/>
<path d="M1000.52 81.583C1025.77 81.583 1046.23 101.538 1046.23 126.153C1046.23 150.769 1025.77 170.724 1000.52 170.724C975.272 170.723 954.806 150.769 954.806 126.153C954.806 101.538 975.272 81.5831 1000.52 81.583ZM1000.52 91.3652C980.816 91.3652 964.842 106.94 964.842 126.152C964.842 145.364 980.816 160.938 1000.52 160.938C1020.22 160.938 1036.2 145.364 1036.2 126.152C1036.2 106.94 1020.23 91.3655 1000.52 91.3652Z" fill="#0077D4"/>
<rect width="12.1415" height="29.6576" transform="matrix(0.779745 -0.626097 0.645275 0.763951 1023.93 164.191)" fill="#0077D4"/>
<path d="M1026.46 179.392C1052.14 140.173 1086.04 159.006 1099.78 173.324C1133.28 208.519 1082.36 234.588 1052.72 243.224C1038.66 233.841 1013.73 207.938 1026.46 179.392Z" fill="#FFFCF5"/>
<path d="M1101.4 172.645C1086.81 159.306 1051.91 141.393 1029 176.454C1000.37 220.281 1066.9 251.87 1069.99 248.886" stroke="#0077D4" stroke-width="3.6864" stroke-linecap="round" stroke-linejoin="round"/>
</g>
<defs>
<linearGradient id="paint0_linear_6399_7287" x1="0" y1="151.875" x2="1127" y2="151.875" gradientUnits="userSpaceOnUse">
<stop stop-color="#EF5BA1"/>
<stop offset="1" stop-color="#FFB9DA"/>
</linearGradient>
<linearGradient id="paint1_linear_6399_7287" x1="0" y1="151.875" x2="1127" y2="151.875" gradientUnits="userSpaceOnUse">
<stop stop-color="#218E44"/>
<stop offset="1" stop-color="#60CA82"/>
</linearGradient>
</defs>
</svg>
