<svg width="31" height="30" viewBox="0 0 31 30" fill="none" xmlns="http://www.w3.org/2000/svg">
<path d="M15.5 2.5C12.0483 2.5 9.25 5.29825 9.25 8.75C9.25 12.2017 12.0483 15 15.5 15C18.9518 15 21.75 12.2017 21.75 8.75C21.75 5.29825 18.9518 2.5 15.5 2.5ZM11.086 16.6406C7.81813 17.5337 5.5 20.3752 5.5 23.75V26.25C5.5 26.9404 6.05963 27.5 6.75 27.5H24.25C24.9404 27.5 25.5 26.9404 25.5 26.25V23.75C25.5 20.3752 23.1819 17.5337 19.914 16.6406C19.6339 16.564 19.3586 16.5994 19.0938 16.7187C17.9494 17.2345 16.7311 17.5 15.5 17.5C14.2689 17.5 13.0506 17.2345 11.9063 16.7187C11.6414 16.5994 11.3661 16.564 11.086 16.6406Z" fill="#A1A1AA"/>
</svg>
