<svg width="20" height="19" viewBox="0 0 20 19" fill="none" xmlns="http://www.w3.org/2000/svg">
<path d="M1.66669 16.4999C1.66657 15.4217 1.92795 14.3596 2.42842 13.4046C2.92889 12.4497 3.65351 11.6303 4.54015 11.0168C5.42679 10.4034 6.44899 10.0141 7.51909 9.88243C8.58919 9.75075 9.67527 9.88056 10.6842 10.2608M17.815 12.8549C18.147 12.523 18.3335 12.0727 18.3335 11.6033C18.3335 11.1338 18.147 10.6836 17.815 10.3516C17.4831 10.0196 17.0328 9.83313 16.5634 9.83313C16.0939 9.83313 15.6436 10.0196 15.3117 10.3516L11.97 13.6949C11.7719 13.8929 11.6269 14.1377 11.5484 14.4066L10.8509 16.7983C10.8299 16.87 10.8287 16.946 10.8472 17.0183C10.8658 17.0907 10.9034 17.1567 10.9562 17.2096C11.009 17.2624 11.0751 17.3 11.1474 17.3186C11.2198 17.3371 11.2958 17.3358 11.3675 17.3149L13.7592 16.6174C14.0281 16.5389 14.2728 16.3939 14.4709 16.1958L17.815 12.8549Z" stroke="#0077D4" stroke-width="1.66667" stroke-linecap="round" stroke-linejoin="round"/>
<path d="M8.33335 9.83333C10.6345 9.83333 12.5 7.96785 12.5 5.66667C12.5 3.36548 10.6345 1.5 8.33335 1.5C6.03217 1.5 4.16669 3.36548 4.16669 5.66667C4.16669 7.96785 6.03217 9.83333 8.33335 9.83333Z" stroke="#0077D4" stroke-width="1.66667" stroke-linecap="round" stroke-linejoin="round"/>
</svg>
