<svg width="68" height="68" viewBox="0 0 68 68" fill="none" xmlns="http://www.w3.org/2000/svg">
<rect width="68" height="68" rx="34" fill="white"/>
<path d="M23 17.5C19.9622 17.5 17.5 19.9622 17.5 23V28.5C17.5 29.512 18.3213 30.3333 19.3333 30.3333C20.3453 30.3333 21.1667 29.512 21.1667 28.5V23C21.1667 21.988 21.988 21.1667 23 21.1667H28.5C29.512 21.1667 30.3333 20.3453 30.3333 19.3333C30.3333 18.3213 29.512 17.5 28.5 17.5H23ZM39.5 17.5C38.488 17.5 37.6666 18.3213 37.6666 19.3333C37.6666 20.3453 38.488 21.1667 39.5 21.1667H45C46.012 21.1667 46.8333 21.988 46.8333 23V28.5C46.8333 29.512 47.6546 30.3333 48.6666 30.3333C49.6786 30.3333 50.4999 29.512 50.4999 28.5V23C50.4999 19.9622 48.0378 17.5 45 17.5H39.5ZM24.8333 26.6667V41.3333H26.6667V26.6667H24.8333ZM28.5 26.6667V41.3333H30.3333V26.6667H28.5ZM32.1666 26.6667V41.3333H34V26.6667H32.1666ZM35.8333 26.6667V41.3333H39.5V26.6667H35.8333ZM41.3333 26.6667V41.3333H43.1666V26.6667H41.3333ZM19.3333 37.6667C18.3213 37.6667 17.5 38.488 17.5 39.5V45C17.5 48.0378 19.9622 50.5 23 50.5H28.5C29.512 50.5 30.3333 49.6787 30.3333 48.6667C30.3333 47.6547 29.512 46.8333 28.5 46.8333H23C21.988 46.8333 21.1667 46.012 21.1667 45V39.5C21.1667 38.488 20.3453 37.6667 19.3333 37.6667ZM48.6666 37.6667C47.6546 37.6667 46.8333 38.488 46.8333 39.5V45C46.8333 46.012 46.012 46.8333 45 46.8333H39.5C38.488 46.8333 37.6666 47.6547 37.6666 48.6667C37.6666 49.6787 38.488 50.5 39.5 50.5H45C48.0378 50.5 50.4999 48.0378 50.4999 45V39.5C50.4999 38.488 49.6786 37.6667 48.6666 37.6667Z" fill="#0077D4"/>
</svg>
