<svg width="104" height="104" viewBox="0 0 104 104" fill="none" xmlns="http://www.w3.org/2000/svg">
<path fill-rule="evenodd" clip-rule="evenodd" d="M8.66947 12.5383C11.0838 10.1239 14.3584 8.76758 17.7728 8.76758H73.5604C76.9748 8.76758 80.2494 10.1239 82.6638 12.5383C85.0781 14.9527 86.4345 18.2272 86.4345 21.6416V68.8466H90.7259C93.0021 68.8466 95.1852 69.7508 96.7948 71.3604C98.4043 72.9699 99.3086 75.153 99.3086 77.4293V81.7206C99.3086 85.135 97.9522 88.4096 95.5378 90.824C93.1235 93.2383 89.8489 94.5947 86.4345 94.5947H34.9382C31.5238 94.5947 28.2492 93.2383 25.8349 90.824C23.4205 88.4096 22.0642 85.135 22.0642 81.7206V38.8071H13.4815C11.2052 38.8071 9.02213 37.9028 7.41256 36.2932C5.80299 34.6837 4.89874 32.5006 4.89874 30.2244V21.6416C4.89874 18.2272 6.25511 14.9527 8.66947 12.5383ZM30.6469 81.7206C30.6469 82.8588 31.099 83.9503 31.9038 84.7551C32.7086 85.5599 33.8001 86.012 34.9382 86.012C36.0764 86.012 37.1679 85.5599 37.9727 84.7551C38.7775 83.9503 39.2296 82.8588 39.2296 81.7206V77.4293C39.2296 75.153 40.1338 72.9699 41.7434 71.3604C43.353 69.7508 45.536 68.8466 47.8123 68.8466H77.8518V21.6416C77.8518 20.5035 77.3997 19.412 76.5949 18.6072C75.7901 17.8024 74.6986 17.3503 73.5604 17.3503H29.9106C30.3934 18.7158 30.6469 20.1657 30.6469 21.6416V81.7206ZM47.8123 77.4293V81.7206C47.8123 83.1966 47.5588 84.6465 47.076 86.012H86.4345C87.5726 86.012 88.6642 85.5599 89.4689 84.7551C90.2737 83.9503 90.7259 82.8588 90.7259 81.7206V77.4293L47.8123 77.4293ZM22.0642 30.2244H13.4815V21.6416C13.4815 20.5035 13.9336 19.412 14.7384 18.6072C15.5431 17.8024 16.6347 17.3503 17.7728 17.3503C18.9109 17.3503 20.0025 17.8024 20.8073 18.6072C21.612 19.412 22.0642 20.5035 22.0642 21.6416V30.2244ZM39.2296 34.5157C39.2296 32.1457 41.1509 30.2244 43.5209 30.2244H64.9777C67.3478 30.2244 69.2691 32.1457 69.2691 34.5157C69.2691 36.8858 67.3478 38.8071 64.9777 38.8071H43.5209C41.1509 38.8071 39.2296 36.8858 39.2296 34.5157ZM39.2296 51.6811C39.2296 49.3111 41.1509 47.3898 43.5209 47.3898H64.9777C67.3478 47.3898 69.2691 49.3111 69.2691 51.6811C69.2691 54.0512 67.3478 55.9725 64.9777 55.9725H43.5209C41.1509 55.9725 39.2296 54.0512 39.2296 51.6811Z" fill="white"/>
</svg>
