<svg width="21" height="20" viewBox="0 0 21 20" fill="none" xmlns="http://www.w3.org/2000/svg">
<path d="M4.19604 12.0126L5.06188 10.1767C5.0853 10.1243 5.12342 10.0797 5.17163 10.0484C5.21984 10.0171 5.27608 10.0005 5.33354 10.0005C5.39101 10.0005 5.44725 10.0171 5.49546 10.0484C5.54367 10.0797 5.58179 10.1243 5.60521 10.1767L6.47188 12.0126L8.40771 12.3092C8.65604 12.3467 8.75438 12.6667 8.57438 12.8501L7.17438 14.2776L7.50438 16.2951C7.54688 16.5542 7.28771 16.7517 7.06521 16.6292L5.33354 15.6767L3.60188 16.6292C3.37938 16.7517 3.12021 16.5542 3.16271 16.2959L3.49271 14.2776L2.09271 12.8501C1.91188 12.6667 2.01104 12.3467 2.25938 12.3084L4.19604 12.0126ZM14.196 12.0126L15.0619 10.1767C15.0853 10.1243 15.1234 10.0797 15.1716 10.0484C15.2198 10.0171 15.2761 10.0005 15.3335 10.0005C15.391 10.0005 15.4472 10.0171 15.4955 10.0484C15.5437 10.0797 15.5818 10.1243 15.6052 10.1767L16.4719 12.0126L18.4077 12.3092C18.656 12.3467 18.7544 12.6667 18.5744 12.8501L17.1744 14.2776L17.5044 16.2951C17.5469 16.5542 17.2877 16.7517 17.0652 16.6292L15.3335 15.6767L13.6019 16.6292C13.3794 16.7517 13.1202 16.5542 13.1627 16.2959L13.4927 14.2776L12.0927 12.8501C11.9127 12.6667 12.011 12.3467 12.2594 12.3084L14.196 12.0126ZM9.19604 4.51256L10.0619 2.67673C10.0853 2.62425 10.1234 2.57968 10.1716 2.54841C10.2198 2.51713 10.2761 2.50049 10.3335 2.50049C10.391 2.50049 10.4472 2.51713 10.4955 2.54841C10.5437 2.57968 10.5818 2.62425 10.6052 2.67673L11.4719 4.51256L13.4077 4.80923C13.656 4.84673 13.7544 5.16673 13.5744 5.35006L12.1744 6.77756L12.5044 8.79506C12.5469 9.05423 12.2877 9.25173 12.0652 9.12923L10.3335 8.17673L8.60188 9.12923C8.37938 9.25173 8.12021 9.05423 8.16271 8.7959L8.49271 6.77756L7.09271 5.35006C6.91188 5.16673 7.01104 4.84673 7.25938 4.8084L9.19604 4.51256Z" fill="white" stroke="white" stroke-width="1.25" stroke-linecap="round" stroke-linejoin="round"/>
</svg>
