<svg width="107" height="120" viewBox="0 0 107 120" fill="none" xmlns="http://www.w3.org/2000/svg">
<path d="M99.5818 63.2088C88.3833 63.2088 84.3538 62.4312 83.641 60.876C78.9754 63.144 72.7935 69.1964 85.3906 75.2616C101.137 82.8432 112.932 63.2088 99.5818 63.2088Z" fill="#C6E4FC" stroke="#0077D4" stroke-width="1.5552" stroke-linecap="round" stroke-linejoin="round"/>
<path d="M103.213 105.394C105.391 96.0624 98.5478 93.4704 94.8542 93.3408L71.915 112.975C81.4406 114.336 101.036 114.725 103.213 105.394Z" fill="#C6E4FC" stroke="#0077D4" stroke-width="1.5552" stroke-linecap="round" stroke-linejoin="round"/>
<path d="M80.504 5.86079C75.4978 3.42263 71.7219 6.57154 70.9503 9.11467C72.5387 12.0864 75.9832 15.0297 80.504 15.0297C83.7733 15.0297 84.5602 7.83624 80.504 5.86079Z" fill="#C6E4FC" stroke="#0077D4" stroke-width="1.5552" stroke-linecap="round" stroke-linejoin="round"/>
<path d="M97.5104 97.0899C96.1429 98.9539 94.2284 103.632 97.5104 107.435C101.613 112.188 104.934 95.9716 97.5104 97.0899Z" fill="#99CAF2"/>
<path d="M78.9807 9.1656C77.4255 7.92144 75.8703 9.1656 75.2871 9.9432L78.9807 13.248C80.5359 12.276 80.9247 10.7208 78.9807 9.1656Z" fill="#E995BD"/>
<path d="M84.1612 52.7112C99.3244 39.2976 81.8284 1.00082 52.2796 1.00082C31.6732 1.00082 12.0388 10.1376 9.31721 42.408C-18.6764 118.807 35.267 127.235 79.8844 110.448C119.153 95.6736 84.9388 65.736 84.1612 52.7112Z" fill="#FFFCF5" stroke="#0077D4" stroke-width="1.5552" stroke-linecap="round" stroke-linejoin="round"/>
<path d="M19.1052 16.164L25.5204 17.3304L30.5748 7.61044L27.27 3.91684H22.6044L16.9668 8.77684V13.4424L19.1052 16.164Z" fill="#FFFCF5"/>
<path d="M67.8998 117.446C50.4815 122.112 34.2038 116.28 28.2422 112.781C35.4998 104.292 52.9699 89.2196 64.7894 96.84C76.6089 104.461 71.7878 113.753 67.8998 117.446Z" fill="#FFFCF5"/>
<path d="M30.5747 8.97123C24.7427 -5.99758 7.82987 15.192 22.6043 16.9416" stroke="#0077D4" stroke-width="1.5552" stroke-linecap="round" stroke-linejoin="round"/>
<path d="M63.9826 97.3309C74.2479 98.784 73.9263 115.502 66.8607 117.641C61.0657 119.395 51.5031 120.362 30.3135 116.28" stroke="#0077D4" stroke-width="1.5552" stroke-linecap="round" stroke-linejoin="round"/>
<path d="M50.5312 34.0488C51.3088 35.2152 53.2917 36.8482 55.0024 34.0488M72.304 34.0488C72.952 35.3448 74.6757 37.1592 76.3864 34.0488M64.7224 38.3256H65.4028M66.0832 38.3256H65.4028M60.8344 40.8528C62.1304 41.76 64.8585 42.5247 65.4028 38.3256M65.4028 38.3256C65.6296 39.8808 66.6664 42.4469 68.9992 40.2696" stroke="#0077D4" stroke-width="1.5552" stroke-linecap="round" stroke-linejoin="round"/>
<path d="M56.0404 60.0984C53.4695 67.4437 66.0196 69.6888 71.2036 69.624C83.4508 67.8744 84.8116 59.5152 81.7012 56.2104C77.5367 51.7856 80.5348 61.6536 71.2036 63.792C61.8724 65.9304 58.762 52.3224 56.0404 60.0984Z" fill="#C6E4FC"/>
<path d="M76.5805 58.7376C74.0922 58.7376 70.7485 60.6816 69.3877 61.6536L92.9101 73.3176L105.935 61.6536L101.658 59.7096C100.103 59.8651 94.5301 67.4208 91.9381 71.1792C89.2943 68.0688 80.5981 61.5888 76.5805 58.7376Z" fill="#FFFCF5" stroke="#0077D4" stroke-width="1.5552" stroke-linecap="round" stroke-linejoin="round"/>
<path d="M105.935 61.2648L92.9098 73.1232L82.0234 96.4512L96.0202 82.4544L105.935 61.2648Z" fill="#FFB9DA" stroke="#0077D4" stroke-width="1.5552" stroke-linecap="round" stroke-linejoin="round"/>
<path d="M60.4453 83.232L68.8045 61.2648L92.9101 73.1232L81.6349 96.6456L60.4453 83.232Z" fill="#FFB9DA" stroke="#0077D4" stroke-width="1.5552" stroke-linecap="round" stroke-linejoin="round"/>
<path d="M69.8442 73.512L57.7914 71.1792L44.7666 86.7312L50.5986 88.2864L60.9018 89.064L69.8442 85.176L72.3714 78.372L69.8442 73.512Z" fill="#FFFCF5"/>
<path d="M54.224 69.2352C61.4168 73.7064 67.7499 70.254 71.3312 76.0392C73.8584 80.1216 69.776 94.896 44.1152 86.7312" stroke="#0077D4" stroke-width="1.5552" stroke-linecap="round" stroke-linejoin="round"/>
<ellipse cx="49.4322" cy="39.1032" rx="4.6656" ry="2.3328" fill="#FFB9DA"/>
<ellipse cx="77.814" cy="38.7144" rx="4.6656" ry="2.3328" fill="#FFB9DA"/>
<path d="M22.4097 9.36002C25.5201 6.0941 27.7233 10.0728 28.4361 12.4704C27.7233 12.924 26.1422 13.9867 25.5201 14.6088C24.7425 15.3864 18.5217 13.4424 22.4097 9.36002Z" fill="#FFB9DA"/>
<path d="M64.4 100.534C63.0392 103.126 61.134 109.632 64.4 114.919C68.4824 121.529 71.7872 98.9784 64.4 100.534Z" fill="#C6E4FC"/>
</svg>
