<svg width="16" height="16" viewBox="0 0 16 16" fill="none" xmlns="http://www.w3.org/2000/svg">
<path d="M5.93771 5.35824L7.76087 1.68665C7.81394 1.5804 7.89557 1.49102 7.99659 1.42856C8.09761 1.3661 8.21403 1.33301 8.3328 1.33301C8.45158 1.33301 8.568 1.3661 8.66902 1.42856C8.77004 1.49102 8.85166 1.5804 8.90473 1.68665L10.7279 5.35824L14.8037 5.95052C14.9213 5.96682 15.0319 6.01584 15.1229 6.092C15.2139 6.16815 15.2817 6.26837 15.3185 6.3812C15.3553 6.49404 15.3597 6.61495 15.3311 6.73013C15.3024 6.84532 15.242 6.95014 15.1567 7.03262L12.2079 9.88877L12.904 13.9239C12.9932 14.4418 12.4458 14.8361 11.9777 14.5919L8.3328 12.686L4.68718 14.5919C4.21981 14.8368 3.67245 14.4418 3.76157 13.9232L4.45771 9.88807L1.50893 7.03192C1.42401 6.94938 1.36395 6.84467 1.33558 6.72969C1.3072 6.61471 1.31165 6.49407 1.34842 6.3815C1.38519 6.26892 1.45281 6.16892 1.54358 6.09286C1.63435 6.01679 1.74464 5.96772 1.86192 5.95122L5.93771 5.35824Z" fill="white" stroke="white" stroke-width="1.05263" stroke-linecap="round" stroke-linejoin="round"/>
</svg>
