<svg width="495" height="188" viewBox="0 0 495 188" fill="none" xmlns="http://www.w3.org/2000/svg">
<path d="M430.159 6.65105C427.393 6.87938 426.138 7.25993 422.757 8.90901C418.455 10.9894 415.817 12.9175 412.231 16.4947C409.209 19.5138 408.825 19.8183 407.16 20.4271C405.445 21.0614 405.086 21.0868 399.093 21.1883C393.074 21.2644 392.742 21.3151 390.821 21.9494C387.927 22.9388 387.005 23.4716 385.775 24.8416C384.444 26.3638 383.957 27.3025 382.958 30.2962C380.909 36.4358 378.348 39.9369 374.891 41.2308C373.918 41.6114 372.099 42.1695 370.87 42.474C368.181 43.1082 368.232 43.1844 372.074 44.529C373.482 45.011 375.685 45.9243 376.94 46.5586C381.165 48.639 382.164 48.8419 389.694 48.9434L396.301 49.0449L398.273 49.9582C400.758 51.1253 403.677 53.2817 405.009 54.9562C406.853 57.2395 410.567 60.8675 412.18 61.933C414.05 63.1762 416.56 63.988 418.455 63.988C420.299 63.988 424.601 63.1508 426.189 62.4658C426.983 62.136 428.008 61.3749 428.802 60.5377C430.236 59.0154 431.849 55.9964 432.003 54.4488C432.054 53.8906 432.182 52.8758 432.259 52.1908C432.387 51.2775 432.31 50.6432 432.029 49.9582C431.081 47.7764 428.264 45.7214 426.241 45.7468C424.832 45.7468 423.116 46.5586 422.476 47.4973C421.579 48.7658 421.656 50.7447 422.604 51.6834C423.295 52.3938 424.166 52.8251 424.858 52.8251C425.6 52.8251 426.497 51.6327 426.497 50.6686C426.497 49.9329 426.625 49.7299 427.137 49.5269C429.391 48.6897 430.85 51.8103 429.16 53.8399C426.394 57.0873 420.222 55.9964 418.583 51.9625C418.122 50.8969 418.019 50.1866 418.096 48.918C418.173 47.2943 418.147 47.2436 417.456 46.9645C416.611 46.6093 414.178 44.0723 413.333 42.6008C412.59 41.3323 411.54 38.4401 411.13 36.4866C410.925 35.4718 410.925 34.4316 411.105 32.7318C411.309 30.7782 411.54 30.0171 412.411 28.3427C413.742 25.7042 415.868 23.3447 417.738 22.406C418.557 22.0001 419.556 21.4927 419.991 21.2644C420.427 21.036 421.682 20.6301 422.783 20.351C431.491 18.1438 438.252 23.3701 436.997 31.311C436.408 35.1419 434.154 37.5521 430.389 38.3386C427.137 39.0236 425.062 38.4401 423.577 36.4105C421.195 33.1377 421.861 29.5097 425.216 27.5055C427.111 26.3892 428.904 26.4145 429.698 27.6323C430.287 28.4949 429.954 29.1545 428.674 29.7634C427.316 30.3977 426.42 31.2603 425.984 32.3005C425.319 33.8481 426.753 35.5225 428.878 35.7508C430.159 35.9031 431.824 35.2181 432.438 34.254C432.925 33.5182 433.488 29.5097 433.258 28.5457C433.027 27.5816 432.003 25.8818 431.311 25.2475C429.16 23.3447 425.062 23.3447 421.221 25.1968C419.146 26.2116 416.227 29.256 415.612 30.9812C414.485 34.3047 416.047 39.8862 418.993 43.159L420.248 44.5543L421.426 43.7425C422.527 43.0068 423.884 42.4486 425.523 42.0681C426.573 41.8397 429.8 42.6262 431.107 43.4381C432.566 44.3514 433.642 45.4677 434.743 47.2436C435.896 49.0449 436.485 50.5925 436.485 51.6834C436.485 52.2162 436.613 52.5714 436.818 52.5714C436.971 52.5714 438.252 52.0132 439.609 51.3282C442.35 49.9582 443.784 48.7658 446.576 45.4677C447.574 44.2753 448.932 42.7531 449.598 42.0681L450.801 40.8503L452.543 41.0025C457.742 41.5099 458.356 41.4845 460.866 40.7742C466.347 39.2266 470.342 36.9432 473.16 33.7466C476.182 30.2962 477.462 28.1651 477.846 25.8818L478 24.9684L476.412 25.4505C473.621 26.3131 470.624 26.4907 466.321 26.034C461.891 25.6027 460.2 25.1968 457.588 24.0297C453.926 22.3807 452.21 20.8331 448.573 15.9873C443.989 9.84771 440.659 7.56438 434.999 6.62568C434.205 6.49882 433.309 6.42271 433.027 6.42271C432.746 6.44808 431.465 6.54956 430.159 6.65105Z" fill="white" fill-opacity="0.12"/>
<path d="M392.818 18.0679C392.408 18.2452 392.383 18.2959 392.741 18.2959C392.972 18.3212 393.253 18.1946 393.33 18.0679C393.51 17.7893 393.51 17.7893 392.818 18.0679Z" fill="white" fill-opacity="0.12"/>
<path d="M449.162 47.7769C449.06 47.9289 449.034 48.0809 449.111 48.1569C449.162 48.2329 449.29 48.1062 449.367 47.8782C449.546 47.4476 449.393 47.3717 449.162 47.7769Z" fill="white" fill-opacity="0.12"/>
<path d="M420.042 67.7178C420.196 67.7682 420.503 67.7682 420.683 67.7178C420.836 67.6423 420.708 67.5919 420.35 67.5919C419.991 67.5919 419.863 67.6423 420.042 67.7178Z" fill="white" fill-opacity="0.12"/>
<path d="M255.159 26.9748C252.393 27.2031 251.138 27.5837 247.757 29.2327C243.455 31.3131 240.817 33.2413 237.231 36.8185C234.209 39.8375 233.825 40.142 232.16 40.7509C230.445 41.3851 230.086 41.4105 224.093 41.512C218.074 41.5881 217.742 41.6388 215.821 42.2731C212.927 43.2625 212.005 43.7953 210.775 45.1653C209.444 46.6875 208.957 47.6262 207.958 50.6199C205.909 56.7596 203.348 60.2607 199.891 61.5546C198.918 61.9351 197.099 62.4933 195.87 62.7977C193.181 63.432 193.232 63.5081 197.074 64.8527C198.482 65.3347 200.685 66.2481 201.94 66.8823C206.165 68.9627 207.164 69.1657 214.694 69.2671L221.301 69.3686L223.273 70.282C225.758 71.449 228.677 73.6055 230.009 75.2799C231.853 77.5633 235.567 81.1912 237.18 82.2568C239.05 83.4999 241.56 84.3118 243.455 84.3118C245.299 84.3118 249.601 83.4745 251.189 82.7895C251.983 82.4597 253.008 81.6986 253.802 80.8614C255.236 79.3392 256.849 76.3201 257.003 74.7725C257.054 74.2144 257.182 73.1996 257.259 72.5146C257.387 71.6012 257.31 70.967 257.029 70.282C256.081 68.1001 253.264 66.0451 251.241 66.0705C249.832 66.0705 248.116 66.8823 247.476 67.821C246.579 69.0896 246.656 71.0684 247.604 72.0071C248.295 72.7175 249.166 73.1488 249.858 73.1488C250.6 73.1488 251.497 71.9564 251.497 70.9923C251.497 70.2566 251.625 70.0536 252.137 69.8507C254.391 69.0134 255.85 72.134 254.16 74.1636C251.394 77.411 245.222 76.3201 243.583 72.2862C243.122 71.2207 243.019 70.5103 243.096 69.2418C243.173 67.6181 243.147 67.5673 242.456 67.2883C241.611 66.9331 239.178 64.396 238.333 62.9246C237.59 61.656 236.54 58.7638 236.13 56.8103C235.925 55.7955 235.925 54.7553 236.105 53.0555C236.309 51.102 236.54 50.3409 237.411 48.6664C238.742 46.0279 240.868 43.6685 242.738 42.7298C243.557 42.3238 244.556 41.8164 244.991 41.5881C245.427 41.3598 246.682 40.9538 247.783 40.6748C256.491 38.4675 263.252 43.6938 261.997 51.6348C261.408 55.4657 259.154 57.8759 255.389 58.6623C252.137 59.3473 250.062 58.7638 248.577 56.7342C246.195 53.4614 246.861 49.8335 250.216 47.8292C252.111 46.7129 253.904 46.7383 254.698 47.9561C255.287 48.8186 254.954 49.4783 253.674 50.0872C252.316 50.7214 251.42 51.584 250.984 52.6242C250.319 54.1718 251.753 55.8462 253.878 56.0746C255.159 56.2268 256.824 55.5418 257.438 54.5777C257.925 53.842 258.488 49.8335 258.258 48.8694C258.027 47.9053 257.003 46.2055 256.311 45.5712C254.16 43.6685 250.062 43.6685 246.221 45.5205C244.146 46.5353 241.227 49.5798 240.612 51.3049C239.485 54.6285 241.047 60.2099 243.993 63.4827L245.248 64.8781L246.426 64.0662C247.527 63.3305 248.884 62.7723 250.523 62.3918C251.573 62.1635 254.8 62.9499 256.107 63.7618C257.566 64.6751 258.642 65.7914 259.743 67.5673C260.896 69.3686 261.485 70.9162 261.485 72.0071C261.485 72.5399 261.613 72.8951 261.818 72.8951C261.971 72.8951 263.252 72.337 264.609 71.652C267.35 70.282 268.784 69.0896 271.576 65.7914C272.574 64.599 273.932 63.0768 274.598 62.3918L275.801 61.174L277.543 61.3262C282.742 61.8336 283.356 61.8083 285.866 61.0979C291.347 59.5503 295.342 57.267 298.16 54.0703C301.182 50.6199 302.462 48.4888 302.846 46.2055L303 45.2922L301.412 45.7742C298.621 46.6368 295.624 46.8144 291.321 46.3577C286.891 45.9264 285.2 45.5205 282.588 44.3535C278.926 42.7044 277.21 41.1568 273.573 36.3111C268.989 30.1714 265.659 27.8881 259.999 26.9494C259.205 26.8226 258.309 26.7464 258.027 26.7464C257.746 26.7718 256.465 26.8733 255.159 26.9748Z" fill="white" fill-opacity="0.12"/>
<path d="M217.818 38.3916C217.408 38.5689 217.383 38.6195 217.741 38.6195C217.972 38.6449 218.253 38.5182 218.33 38.3916C218.51 38.113 218.51 38.113 217.818 38.3916Z" fill="white" fill-opacity="0.12"/>
<path d="M274.162 68.1007C274.06 68.2526 274.034 68.4046 274.111 68.4806C274.162 68.5566 274.29 68.4299 274.367 68.202C274.546 67.7714 274.393 67.6954 274.162 68.1007Z" fill="white" fill-opacity="0.12"/>
<path d="M245.042 88.0416C245.196 88.0919 245.503 88.0919 245.683 88.0416C245.836 87.966 245.708 87.9157 245.35 87.9157C244.991 87.9157 244.863 87.966 245.042 88.0416Z" fill="white" fill-opacity="0.12"/>
<path d="M254.159 126.651C251.393 126.879 250.138 127.26 246.757 128.909C242.455 130.989 239.817 132.918 236.231 136.495C233.209 139.514 232.825 139.818 231.16 140.427C229.445 141.061 229.086 141.087 223.093 141.188C217.074 141.264 216.742 141.315 214.821 141.949C211.927 142.939 211.005 143.472 209.775 144.842C208.444 146.364 207.957 147.303 206.958 150.296C204.909 156.436 202.348 159.937 198.891 161.231C197.918 161.611 196.099 162.17 194.87 162.474C192.181 163.108 192.232 163.184 196.074 164.529C197.482 165.011 199.685 165.924 200.94 166.559C205.165 168.639 206.164 168.842 213.694 168.943L220.301 169.045L222.273 169.958C224.758 171.125 227.677 173.282 229.009 174.956C230.853 177.24 234.567 180.867 236.18 181.933C238.05 183.176 240.56 183.988 242.455 183.988C244.299 183.988 248.601 183.151 250.189 182.466C250.983 182.136 252.008 181.375 252.802 180.538C254.236 179.015 255.849 175.996 256.003 174.449C256.054 173.891 256.182 172.876 256.259 172.191C256.387 171.277 256.31 170.643 256.029 169.958C255.081 167.776 252.264 165.721 250.241 165.747C248.832 165.747 247.116 166.559 246.476 167.497C245.579 168.766 245.656 170.745 246.604 171.683C247.295 172.394 248.166 172.825 248.858 172.825C249.6 172.825 250.497 171.633 250.497 170.669C250.497 169.933 250.625 169.73 251.137 169.527C253.391 168.69 254.85 171.81 253.16 173.84C250.394 177.087 244.222 175.996 242.583 171.962C242.122 170.897 242.019 170.187 242.096 168.918C242.173 167.294 242.147 167.244 241.456 166.965C240.611 166.609 238.178 164.072 237.333 162.601C236.59 161.332 235.54 158.44 235.13 156.487C234.925 155.472 234.925 154.432 235.105 152.732C235.309 150.778 235.54 150.017 236.411 148.343C237.742 145.704 239.868 143.345 241.738 142.406C242.557 142 243.556 141.493 243.991 141.264C244.427 141.036 245.682 140.63 246.783 140.351C255.491 138.144 262.252 143.37 260.997 151.311C260.408 155.142 258.154 157.552 254.389 158.339C251.137 159.024 249.062 158.44 247.577 156.41C245.195 153.138 245.861 149.51 249.216 147.505C251.111 146.389 252.904 146.415 253.698 147.632C254.287 148.495 253.954 149.155 252.674 149.763C251.316 150.398 250.42 151.26 249.984 152.3C249.319 153.848 250.753 155.523 252.878 155.751C254.159 155.903 255.824 155.218 256.438 154.254C256.925 153.518 257.488 149.51 257.258 148.546C257.027 147.582 256.003 145.882 255.311 145.248C253.16 143.345 249.062 143.345 245.221 145.197C243.146 146.212 240.227 149.256 239.612 150.981C238.485 154.305 240.047 159.886 242.993 163.159L244.248 164.554L245.426 163.742C246.527 163.007 247.884 162.449 249.523 162.068C250.573 161.84 253.8 162.626 255.107 163.438C256.566 164.351 257.642 165.468 258.743 167.244C259.896 169.045 260.485 170.592 260.485 171.683C260.485 172.216 260.613 172.571 260.818 172.571C260.971 172.571 262.252 172.013 263.609 171.328C266.35 169.958 267.784 168.766 270.576 165.468C271.574 164.275 272.932 162.753 273.598 162.068L274.801 160.85L276.543 161.002C281.742 161.51 282.356 161.485 284.866 160.774C290.347 159.227 294.342 156.943 297.16 153.747C300.182 150.296 301.462 148.165 301.846 145.882L302 144.968L300.412 145.45C297.621 146.313 294.624 146.491 290.321 146.034C285.891 145.603 284.2 145.197 281.588 144.03C277.926 142.381 276.21 140.833 272.573 135.987C267.989 129.848 264.659 127.564 258.999 126.626C258.205 126.499 257.309 126.423 257.027 126.423C256.746 126.448 255.465 126.55 254.159 126.651Z" fill="white" fill-opacity="0.12"/>
<path d="M216.818 138.068C216.408 138.245 216.383 138.296 216.741 138.296C216.972 138.321 217.253 138.194 217.33 138.068C217.51 137.789 217.51 137.789 216.818 138.068Z" fill="white" fill-opacity="0.12"/>
<path d="M273.162 167.777C273.06 167.929 273.034 168.081 273.111 168.157C273.162 168.233 273.29 168.106 273.367 167.878C273.546 167.448 273.393 167.372 273.162 167.777Z" fill="white" fill-opacity="0.12"/>
<path d="M244.042 187.718C244.196 187.768 244.503 187.768 244.683 187.718C244.836 187.642 244.708 187.592 244.35 187.592C243.991 187.592 243.863 187.642 244.042 187.718Z" fill="white" fill-opacity="0.12"/>
<path d="M84.159 0.228316C81.393 0.45665 80.1381 0.837205 76.7574 2.48628C72.4548 4.56665 69.8169 6.49479 66.2314 10.072C63.2093 13.0911 62.8252 13.3955 61.1605 14.0044C59.4445 14.6387 59.086 14.664 53.093 14.7655C47.0745 14.8416 46.7416 14.8924 44.8207 15.5266C41.9267 16.5161 41.0047 17.0489 39.7754 18.4189C38.4436 19.9411 37.957 20.8798 36.9582 23.8735C34.9094 30.0131 32.3483 33.5142 28.8908 34.8081C27.9176 35.1887 26.0992 35.7468 24.8699 36.0513C22.1808 36.6855 22.232 36.7616 26.0736 38.1062C27.4822 38.5883 29.6847 39.5016 30.9397 40.1359C35.1655 42.2162 36.1643 42.4192 43.6939 42.5207L50.3015 42.6222L52.2735 43.5355C54.7577 44.7025 57.6774 46.859 59.0091 48.5335C60.8531 50.8168 64.5667 54.4448 66.1802 55.5103C68.0498 56.7535 70.5596 57.5653 72.4548 57.5653C74.2988 57.5653 78.6014 56.7281 80.1893 56.0431C80.9832 55.7133 82.0077 54.9522 82.8016 54.1149C84.2358 52.5927 85.8493 49.5736 86.003 48.0261C86.0542 47.4679 86.1822 46.4531 86.2591 45.7681C86.3871 44.8548 86.3103 44.2205 86.0286 43.5355C85.081 41.3537 82.2638 39.2987 80.2405 39.324C78.8319 39.324 77.116 40.1359 76.4757 41.0746C75.5793 42.3431 75.6562 44.322 76.6038 45.2607C77.2953 45.9711 78.166 46.4024 78.8575 46.4024C79.6002 46.4024 80.4966 45.2099 80.4966 44.2459C80.4966 43.5101 80.6247 43.3072 81.1369 43.1042C83.3906 42.267 84.8505 45.3875 83.1601 47.4172C80.3942 50.6646 74.222 49.5736 72.5829 45.5398C72.1219 44.4742 72.0194 43.7638 72.0963 42.4953C72.1731 40.8716 72.1475 40.8209 71.456 40.5418C70.6108 40.1866 68.1778 37.6496 67.3327 36.1781C66.5899 34.9096 65.5399 32.0174 65.1301 30.0638C64.9252 29.049 64.9252 28.0088 65.1045 26.309C65.3094 24.3555 65.5399 23.5944 66.4107 21.92C67.7424 19.2814 69.8681 16.922 71.7377 15.9833C72.5573 15.5774 73.5561 15.07 73.9915 14.8416C74.4269 14.6133 75.6818 14.2074 76.7831 13.9283C85.4907 11.7211 92.252 16.9474 90.9971 24.8883C90.408 28.7192 88.1543 31.1294 84.3895 31.9159C81.1369 32.6009 79.0624 32.0174 77.577 29.9877C75.1952 26.715 75.8611 23.087 79.2161 21.0827C81.1113 19.9664 82.904 19.9918 83.698 21.2096C84.287 22.0722 83.9541 22.7318 82.6735 23.3407C81.3162 23.975 80.4198 24.8376 79.9844 25.8777C79.3185 27.4253 80.7527 29.0998 82.8784 29.3281C84.159 29.4803 85.8237 28.7953 86.4383 27.8313C86.9249 27.0955 87.4884 23.087 87.2579 22.1229C87.0274 21.1589 86.003 19.459 85.3115 18.8248C83.1601 16.922 79.0624 16.922 75.2208 18.774C73.1463 19.7889 70.2267 22.8333 69.612 24.5585C68.4851 27.882 70.0474 33.4635 72.9927 36.7363L74.2476 38.1316L75.4257 37.3198C76.5269 36.584 77.8843 36.0259 79.5234 35.6453C80.5735 35.417 83.8004 36.2035 85.1066 37.0153C86.5664 37.9287 87.642 39.045 88.7433 40.8209C89.8958 42.6222 90.4848 44.1698 90.4848 45.2607C90.4848 45.7935 90.6129 46.1487 90.8178 46.1487C90.9715 46.1487 92.252 45.5905 93.6094 44.9055C96.3497 43.5355 97.7839 42.3431 100.576 39.045C101.574 37.8525 102.932 36.3303 103.598 35.6453L104.801 34.4275L106.543 34.5798C111.742 35.0872 112.356 35.0618 114.866 34.3514C120.347 32.8038 124.342 30.5205 127.16 27.3239C130.182 23.8735 131.462 21.7424 131.846 19.459L132 18.5457L130.412 19.0277C127.621 19.8903 124.624 20.0679 120.321 19.6113C115.891 19.18 114.2 18.774 111.588 17.607C107.926 15.9579 106.21 14.4103 102.573 9.56461C97.9888 3.42498 94.6594 1.14165 88.9994 0.202946C88.2055 0.0760943 87.3091 -1.67768e-05 87.0274 -1.67768e-05C86.7457 0.0253536 85.4651 0.126835 84.159 0.228316Z" fill="white" fill-opacity="0.12"/>
<path d="M46.8181 11.6452C46.4083 11.8225 46.3827 11.8731 46.7412 11.8731C46.9717 11.8985 47.2534 11.7718 47.3303 11.6452C47.5095 11.3666 47.5095 11.3666 46.8181 11.6452Z" fill="white" fill-opacity="0.12"/>
<path d="M103.162 41.3542C103.06 41.5062 103.034 41.6581 103.111 41.7341C103.162 41.8101 103.29 41.6835 103.367 41.4555C103.546 41.0249 103.393 40.9489 103.162 41.3542Z" fill="white" fill-opacity="0.12"/>
<path d="M74.0424 61.2951C74.196 61.3455 74.5034 61.3455 74.6826 61.2951C74.8363 61.2196 74.7082 61.1692 74.3497 61.1692C73.9911 61.1692 73.8631 61.2196 74.0424 61.2951Z" fill="white" fill-opacity="0.12"/>
<path d="M61.159 95.3269C58.393 95.5553 57.1381 95.9358 53.7574 97.5849C49.4548 99.6653 46.8169 101.593 43.2314 105.171C40.2093 108.19 39.8252 108.494 38.1605 109.103C36.4445 109.737 36.086 109.763 30.093 109.864C24.0745 109.94 23.7416 109.991 21.8207 110.625C18.9267 111.615 18.0047 112.147 16.7754 113.517C15.4436 115.04 14.957 115.978 13.9582 118.972C11.9094 125.112 9.34827 128.613 5.89081 129.907C4.91759 130.287 3.09923 130.845 1.86991 131.15C-0.819231 131.784 -0.768009 131.86 3.07362 133.205C4.48221 133.687 6.68474 134.6 7.93967 135.235C12.1655 137.315 13.1643 137.518 20.6939 137.619L27.3015 137.721L29.2735 138.634C31.7577 139.801 34.6774 141.958 36.0091 143.632C37.8531 145.915 41.5667 149.543 43.1802 150.609C45.0498 151.852 47.5596 152.664 49.4548 152.664C51.2988 152.664 55.6014 151.827 57.1893 151.142C57.9832 150.812 59.0077 150.051 59.8016 149.214C61.2358 147.691 62.8493 144.672 63.003 143.125C63.0542 142.567 63.1822 141.552 63.2591 140.867C63.3871 139.953 63.3103 139.319 63.0286 138.634C62.081 136.452 59.2638 134.397 57.2405 134.423C55.8319 134.423 54.116 135.235 53.4757 136.173C52.5793 137.442 52.6562 139.421 53.6038 140.359C54.2953 141.07 55.166 141.501 55.8575 141.501C56.6002 141.501 57.4966 140.309 57.4966 139.345C57.4966 138.609 57.6247 138.406 58.1369 138.203C60.3906 137.366 61.8505 140.486 60.1601 142.516C57.3942 145.763 51.222 144.672 49.5829 140.638C49.1219 139.573 49.0194 138.862 49.0963 137.594C49.1731 135.97 49.1475 135.92 48.456 135.64C47.6108 135.285 45.1778 132.748 44.3327 131.277C43.5899 130.008 42.5399 127.116 42.1301 125.162C41.9252 124.148 41.9252 123.107 42.1045 121.408C42.3094 119.454 42.5399 118.693 43.4107 117.019C44.7424 114.38 46.8681 112.021 48.7377 111.082C49.5573 110.676 50.5561 110.169 50.9915 109.94C51.4269 109.712 52.6818 109.306 53.7831 109.027C62.4907 106.82 69.252 112.046 67.9971 119.987C67.408 123.818 65.1543 126.228 61.3895 127.015C58.1369 127.7 56.0624 127.116 54.577 125.086C52.1952 121.814 52.8611 118.186 56.2161 116.181C58.1113 115.065 59.904 115.09 60.698 116.308C61.287 117.171 60.9541 117.83 59.6735 118.439C58.3162 119.074 57.4198 119.936 56.9844 120.976C56.3185 122.524 57.7527 124.198 59.8784 124.427C61.159 124.579 62.8237 123.894 63.4383 122.93C63.9249 122.194 64.4884 118.186 64.2579 117.222C64.0274 116.257 63.003 114.558 62.3115 113.923C60.1601 112.021 56.0624 112.021 52.2208 113.873C50.1463 114.887 47.2267 117.932 46.612 119.657C45.4851 122.981 47.0474 128.562 49.9927 131.835L51.2476 133.23L52.4257 132.418C53.5269 131.683 54.8843 131.125 56.5234 130.744C57.5735 130.516 60.8004 131.302 62.1066 132.114C63.5664 133.027 64.642 134.144 65.7433 135.92C66.8958 137.721 67.4848 139.268 67.4848 140.359C67.4848 140.892 67.6129 141.247 67.8178 141.247C67.9715 141.247 69.252 140.689 70.6094 140.004C73.3497 138.634 74.7839 137.442 77.5755 134.144C78.5743 132.951 79.9317 131.429 80.5976 130.744L81.8013 129.526L83.5428 129.678C88.7418 130.186 89.3565 130.16 91.8664 129.45C97.3471 127.902 101.342 125.619 104.16 122.422C107.182 118.972 108.462 116.841 108.846 114.558L109 113.644L107.412 114.126C104.621 114.989 101.624 115.167 97.3215 114.71C92.8908 114.279 91.2005 113.873 88.5882 112.706C84.9258 111.057 83.2099 109.509 79.5732 104.663C74.9888 98.5236 71.6594 96.2403 65.9994 95.3016C65.2055 95.1747 64.3091 95.0986 64.0274 95.0986C63.7457 95.124 62.4651 95.2255 61.159 95.3269Z" fill="white" fill-opacity="0.12"/>
<path d="M23.8181 106.744C23.4083 106.921 23.3827 106.972 23.7412 106.972C23.9717 106.997 24.2534 106.87 24.3303 106.744C24.5095 106.465 24.5095 106.465 23.8181 106.744Z" fill="white" fill-opacity="0.12"/>
<path d="M80.1623 136.453C80.0599 136.605 80.0342 136.757 80.1111 136.833C80.1623 136.909 80.2904 136.782 80.3672 136.554C80.5465 136.124 80.3928 136.048 80.1623 136.453Z" fill="white" fill-opacity="0.12"/>
<path d="M51.0424 156.394C51.196 156.444 51.5034 156.444 51.6826 156.394C51.8363 156.318 51.7082 156.268 51.3497 156.268C50.9911 156.268 50.8631 156.318 51.0424 156.394Z" fill="white" fill-opacity="0.12"/>
<path d="M447.159 98.2988C444.393 98.5271 443.138 98.9076 439.757 100.557C435.455 102.637 432.817 104.565 429.231 108.142C426.209 111.162 425.825 111.466 424.16 112.075C422.445 112.709 422.086 112.734 416.093 112.836C410.074 112.912 409.742 112.963 407.821 113.597C404.927 114.587 404.005 115.119 402.775 116.489C401.444 118.012 400.957 118.95 399.958 121.944C397.909 128.084 395.348 131.585 391.891 132.879C390.918 133.259 389.099 133.817 387.87 134.122C385.181 134.756 385.232 134.832 389.074 136.177C390.482 136.659 392.685 137.572 393.94 138.206C398.165 140.287 399.164 140.49 406.694 140.591L413.301 140.693L415.273 141.606C417.758 142.773 420.677 144.929 422.009 146.604C423.853 148.887 427.567 152.515 429.18 153.581C431.05 154.824 433.56 155.636 435.455 155.636C437.299 155.636 441.601 154.799 443.189 154.114C443.983 153.784 445.008 153.023 445.802 152.185C447.236 150.663 448.849 147.644 449.003 146.096C449.054 145.538 449.182 144.524 449.259 143.839C449.387 142.925 449.31 142.291 449.029 141.606C448.081 139.424 445.264 137.369 443.241 137.394C441.832 137.394 440.116 138.206 439.476 139.145C438.579 140.414 438.656 142.392 439.604 143.331C440.295 144.041 441.166 144.473 441.858 144.473C442.6 144.473 443.497 143.28 443.497 142.316C443.497 141.581 443.625 141.378 444.137 141.175C446.391 140.337 447.85 143.458 446.16 145.488C443.394 148.735 437.222 147.644 435.583 143.61C435.122 142.545 435.019 141.834 435.096 140.566C435.173 138.942 435.147 138.891 434.456 138.612C433.611 138.257 431.178 135.72 430.333 134.249C429.59 132.98 428.54 130.088 428.13 128.134C427.925 127.119 427.925 126.079 428.105 124.379C428.309 122.426 428.54 121.665 429.411 119.99C430.742 117.352 432.868 114.992 434.738 114.054C435.557 113.648 436.556 113.14 436.991 112.912C437.427 112.684 438.682 112.278 439.783 111.999C448.491 109.792 455.252 115.018 453.997 122.959C453.408 126.79 451.154 129.2 447.389 129.986C444.137 130.671 442.062 130.088 440.577 128.058C438.195 124.785 438.861 121.157 442.216 119.153C444.111 118.037 445.904 118.062 446.698 119.28C447.287 120.143 446.954 120.802 445.674 121.411C444.316 122.045 443.42 122.908 442.984 123.948C442.319 125.496 443.753 127.17 445.878 127.399C447.159 127.551 448.824 126.866 449.438 125.902C449.925 125.166 450.488 121.157 450.258 120.193C450.027 119.229 449.003 117.529 448.311 116.895C446.16 114.992 442.062 114.992 438.221 116.844C436.146 117.859 433.227 120.904 432.612 122.629C431.485 125.952 433.047 131.534 435.993 134.807L437.248 136.202L438.426 135.39C439.527 134.654 440.884 134.096 442.523 133.716C443.573 133.487 446.8 134.274 448.107 135.086C449.566 135.999 450.642 137.115 451.743 138.891C452.896 140.693 453.485 142.24 453.485 143.331C453.485 143.864 453.613 144.219 453.818 144.219C453.971 144.219 455.252 143.661 456.609 142.976C459.35 141.606 460.784 140.414 463.576 137.115C464.574 135.923 465.932 134.401 466.598 133.716L467.801 132.498L469.543 132.65C474.742 133.158 475.356 133.132 477.866 132.422C483.347 130.874 487.342 128.591 490.16 125.394C493.182 121.944 494.462 119.813 494.846 117.529L495 116.616L493.412 117.098C490.621 117.961 487.624 118.138 483.321 117.682C478.891 117.25 477.2 116.844 474.588 115.677C470.926 114.028 469.21 112.481 465.573 107.635C460.989 101.495 457.659 99.2121 451.999 98.2734C451.205 98.1465 450.309 98.0704 450.027 98.0704C449.746 98.0958 448.465 98.1973 447.159 98.2988Z" fill="white" fill-opacity="0.12"/>
<path d="M409.818 109.716C409.408 109.893 409.383 109.944 409.741 109.944C409.972 109.969 410.253 109.842 410.33 109.716C410.51 109.437 410.51 109.437 409.818 109.716Z" fill="white" fill-opacity="0.12"/>
<path d="M466.162 139.425C466.06 139.577 466.034 139.729 466.111 139.805C466.162 139.881 466.29 139.754 466.367 139.526C466.546 139.095 466.393 139.019 466.162 139.425Z" fill="white" fill-opacity="0.12"/>
<path d="M437.042 159.366C437.196 159.416 437.503 159.416 437.683 159.366C437.836 159.29 437.708 159.24 437.35 159.24C436.991 159.24 436.863 159.29 437.042 159.366Z" fill="white" fill-opacity="0.12"/>
</svg>
