<svg width="109" height="62" viewBox="0 0 109 62" fill="none" xmlns="http://www.w3.org/2000/svg">
<path d="M61.159 0.55217C58.393 0.780502 57.1381 1.16106 53.7574 2.81013C49.4548 4.8905 46.8169 6.81865 43.2314 10.3959C40.2093 13.4149 39.8252 13.7194 38.1604 14.3283C36.4445 14.9625 36.086 14.9879 30.093 15.0894C24.0745 15.1655 23.7416 15.2162 21.8207 15.8505C18.9267 16.8399 18.0047 17.3727 16.7754 18.7427C15.4436 20.2649 14.957 21.2036 13.9582 24.1973C11.9094 30.337 9.34827 33.8381 5.89081 35.132C4.91759 35.5125 3.09923 36.0707 1.86991 36.3751C-0.819231 37.0094 -0.768009 37.0855 3.07362 38.4301C4.48221 38.9121 6.68474 39.8255 7.93967 40.4597C12.1655 42.5401 13.1643 42.7431 20.6939 42.8445L27.3015 42.946L29.2735 43.8594C31.7577 45.0264 34.6774 47.1829 36.0091 48.8573C37.8531 51.1406 41.5667 54.7686 43.1802 55.8342C45.0498 57.0773 47.5596 57.8892 49.4548 57.8892C51.2988 57.8892 55.6014 57.0519 57.1893 56.3669C57.9832 56.0371 59.0077 55.276 59.8016 54.4388C61.2358 52.9166 62.8493 49.8975 63.003 48.3499C63.0542 47.7918 63.1822 46.7769 63.2591 46.0919C63.3871 45.1786 63.3103 44.5444 63.0286 43.8594C62.081 41.6775 59.2638 39.6225 57.2405 39.6479C55.8319 39.6479 54.116 40.4597 53.4757 41.3984C52.5793 42.667 52.6562 44.6458 53.6038 45.5845C54.2953 46.2949 55.166 46.7262 55.8575 46.7262C56.6002 46.7262 57.4966 45.5338 57.4966 44.5697C57.4966 43.834 57.6247 43.631 58.1369 43.4281C60.3906 42.5908 61.8505 45.7114 60.1601 47.741C57.3942 50.9884 51.222 49.8975 49.5829 45.8636C49.1219 44.7981 49.0194 44.0877 49.0963 42.8192C49.1731 41.1955 49.1475 41.1447 48.456 40.8657C47.6108 40.5105 45.1778 37.9734 44.3327 36.502C43.5899 35.2334 42.5399 32.3412 42.1301 30.3877C41.9252 29.3729 41.9252 28.3327 42.1045 26.6329C42.3094 24.6794 42.5399 23.9183 43.4107 22.2438C44.7424 19.6053 46.8681 17.2459 48.7377 16.3072C49.5573 15.9012 50.5561 15.3938 50.9915 15.1655C51.4269 14.9372 52.6818 14.5312 53.7831 14.2522C62.4907 12.0449 69.252 17.2712 67.9971 25.2122C67.408 29.0431 65.1543 31.4533 61.3895 32.2397C58.1369 32.9247 56.0624 32.3412 54.577 30.3116C52.1952 27.0388 52.8611 23.4109 56.2161 21.4066C58.1113 20.2903 59.904 20.3157 60.698 21.5334C61.287 22.396 60.9541 23.0557 59.6735 23.6646C58.3162 24.2988 57.4198 25.1614 56.9844 26.2016C56.3185 27.7492 57.7527 29.4236 59.8784 29.652C61.159 29.8042 62.8237 29.1192 63.4383 28.1551C63.9249 27.4194 64.4884 23.4109 64.2579 22.4468C64.0274 21.4827 63.003 19.7829 62.3115 19.1486C60.1601 17.2459 56.0624 17.2459 52.2208 19.0979C50.1463 20.1127 47.2267 23.1572 46.612 24.8823C45.4851 28.2059 47.0474 33.7873 49.9927 37.0601L51.2476 38.4555L52.4257 37.6436C53.5269 36.9079 54.8843 36.3497 56.5234 35.9692C57.5735 35.7408 60.8004 36.5273 62.1066 37.3392C63.5664 38.2525 64.642 39.3688 65.7433 41.1447C66.8958 42.946 67.4848 44.4936 67.4848 45.5845C67.4848 46.1173 67.6129 46.4725 67.8178 46.4725C67.9715 46.4725 69.252 45.9144 70.6094 45.2294C73.3497 43.8594 74.7839 42.667 77.5755 39.3688C78.5743 38.1764 79.9317 36.6542 80.5976 35.9692L81.8013 34.7514L83.5428 34.9036C88.7418 35.411 89.3565 35.3857 91.8664 34.6753C97.3471 33.1277 101.342 30.8444 104.16 27.6477C107.182 24.1973 108.462 22.0662 108.846 19.7829L109 18.8696L107.412 19.3516C104.621 20.2142 101.624 20.3918 97.3215 19.9351C92.8908 19.5038 91.2005 19.0979 88.5882 17.9309C84.9258 16.2818 83.2099 14.7342 79.5732 9.88846C74.9888 3.74883 71.6594 1.4655 65.9994 0.526798C65.2055 0.399948 64.3091 0.323837 64.0274 0.323837C63.7457 0.349205 62.4651 0.450687 61.159 0.55217Z" fill="white" fill-opacity="0.12"/>
<path d="M23.8181 11.969C23.4083 12.1463 23.3827 12.197 23.7412 12.197C23.9717 12.2223 24.2534 12.0957 24.3303 11.969C24.5095 11.6904 24.5095 11.6904 23.8181 11.969Z" fill="white" fill-opacity="0.12"/>
<path d="M80.1623 41.678C80.0599 41.83 80.0342 41.982 80.1111 42.058C80.1623 42.134 80.2904 42.0073 80.3672 41.7794C80.5465 41.3488 80.3928 41.2728 80.1623 41.678Z" fill="white" fill-opacity="0.12"/>
<path d="M51.0424 61.619C51.196 61.6694 51.5034 61.6694 51.6826 61.619C51.8363 61.5435 51.7082 61.4931 51.3497 61.4931C50.9911 61.4931 50.8631 61.5435 51.0424 61.619Z" fill="white" fill-opacity="0.12"/>
</svg>
