<svg width="21" height="20" viewBox="0 0 21 20" fill="none" xmlns="http://www.w3.org/2000/svg">
<path d="M13.0435 8.90747C12.221 7.92413 11.8102 7.43247 11.3369 7.50747C10.8644 7.5833 10.6435 8.17663 10.2019 9.3633L10.0869 9.66997C9.96186 10.0075 9.89853 10.1758 9.77603 10.3C9.65436 10.4241 9.48603 10.49 9.15103 10.6216L8.84519 10.7408C7.66436 11.2033 7.07353 11.435 7.00603 11.9075C6.93853 12.38 7.43936 12.7816 8.44019 13.5833L8.69853 13.7916C8.98353 14.0191 9.12603 14.1333 9.20769 14.2891C9.29103 14.445 9.30353 14.6258 9.32936 14.9866L9.35353 15.315C9.44519 16.5841 9.49186 17.2191 9.92269 17.4358C10.3535 17.6525 10.8844 17.3066 11.9452 16.6166L12.2194 16.4375C12.521 16.2416 12.6719 16.1433 12.8444 16.115C13.0177 16.0875 13.1944 16.1333 13.5452 16.225L13.866 16.3083C15.1035 16.63 15.7227 16.7916 16.0569 16.4525C16.391 16.1133 16.2177 15.4991 15.8727 14.2691L15.7827 13.9525C15.6852 13.6025 15.636 13.4275 15.6602 13.255C15.6852 13.0816 15.781 12.93 15.9719 12.625L16.1469 12.3483C16.8194 11.2775 17.1552 10.7425 16.9302 10.3166C16.706 9.8908 16.0694 9.8558 14.7952 9.78747L14.4652 9.76913C14.1035 9.74997 13.9219 9.73997 13.7644 9.6608C13.606 9.58163 13.4894 9.44163 13.256 9.16163L13.0435 8.90747Z" fill="white"/>
<path d="M12.7318 4.30599L12.8843 4.74099C13.0518 5.21849 13.1359 5.45766 13.2984 5.63266C13.4618 5.80933 13.6851 5.90266 14.1326 6.08849L14.5401 6.25849C16.1151 6.91349 16.9026 7.24183 16.9918 7.91099C17.0293 8.18933 16.9359 8.45099 16.7168 8.74266C16.6468 8.72369 16.5762 8.70702 16.5051 8.69266C16.0668 8.60349 15.5093 8.57349 14.9409 8.54266L14.5326 8.52099L14.3409 8.51016L14.2151 8.36016L13.9518 8.04599C13.5851 7.60599 13.2268 7.17683 12.8918 6.87849C12.5359 6.56016 11.9409 6.14516 11.1393 6.27349C10.3293 6.40349 9.8976 6.99266 9.66426 7.41266C9.44843 7.80266 9.25426 8.32433 9.0576 8.85183L8.91593 9.23349L8.85593 9.39433C8.81149 9.41099 8.75787 9.4321 8.6951 9.45766L8.3151 9.60599C7.7901 9.81183 7.27093 10.0143 6.88426 10.2368C6.46926 10.476 5.88426 10.9177 5.76843 11.731C5.65426 12.5368 6.08343 13.1252 6.4076 13.4743C6.64926 13.7335 6.9751 14.0077 7.3226 14.2893C6.0151 14.6435 5.3201 14.776 4.9251 14.3493C4.4801 13.8693 4.7101 12.9993 5.17093 11.2577L5.28926 10.8077C5.4201 10.3118 5.48593 10.0652 5.45343 9.81933C5.4201 9.57433 5.2926 9.35849 5.0376 8.92766L4.80593 8.53599C3.90843 7.01849 3.4601 6.26016 3.75843 5.65599C4.05843 5.05266 4.9076 5.00349 6.60676 4.90599L7.04593 4.88099C7.52926 4.85266 7.7701 4.83933 7.98093 4.72683C8.19093 4.61433 8.34676 4.41683 8.65843 4.02016L8.94176 3.66016C10.0384 2.26599 10.5868 1.56933 11.2168 1.67683C11.8468 1.78433 12.1418 2.62433 12.7309 4.30516" fill="#D5D7FF"/>
</svg>
