<svg width="500" height="304" viewBox="0 0 500 304" fill="none" xmlns="http://www.w3.org/2000/svg">
<path fill-rule="evenodd" clip-rule="evenodd" d="M60.5099 -7.61316C54.8924 -5.08619 43.8518 -0.119693 39.499 14.0743C37.5176 20.5355 40.2526 27.2497 45.7427 30.5879C44.5615 31.2242 43.6258 32.2933 43.2094 33.651C42.3653 36.4037 43.9758 39.3006 46.8065 40.1215C49.6373 40.9423 52.6164 39.3762 53.4606 36.6236C53.8769 35.2658 53.6962 33.873 53.0663 32.7116C59.54 32.8425 65.6104 28.6816 67.5917 22.2205C67.6193 22.1307 67.6375 22.0483 67.655 21.9697C67.8022 21.3056 67.8898 20.9106 72.9888 18.6025C73.1501 18.5294 73.3168 18.4544 73.4883 18.3771C79.1604 15.8215 90.2173 10.8397 94.5973 -3.44286C100.366 -22.2532 86.2266 -38.1533 72.0695 -42.2587C57.9123 -46.3639 37.1261 -40.5912 31.3576 -21.7807C28.9897 -14.0585 33.3587 -5.97475 41.1162 -3.72527C48.8415 -1.48515 57.0125 -5.87616 59.419 -13.5389C59.503 -13.6289 59.7165 -13.8052 60.1836 -14.0106C60.666 -14.2226 61.2702 -14.3809 61.9205 -14.429C62.5708 -14.4772 63.1138 -14.4043 63.4939 -14.2941C63.8739 -14.1838 64.3686 -13.9558 64.8853 -13.5693C65.4023 -13.1827 65.8187 -12.7284 66.1029 -12.2941C66.382 -11.8674 66.4593 -11.6047 66.4774 -11.4871C66.4625 -11.4325 66.4496 -11.3802 66.4371 -11.3295C66.2481 -10.5659 66.1488 -10.1647 61.076 -7.86831C60.8942 -7.78603 60.7054 -7.70107 60.5099 -7.61316Z" fill="white" fill-opacity="0.5"/>
<path d="M136.443 193.127C150.305 177.473 177.992 186.604 190.103 193.127C213.207 212.513 245.552 252.808 190.103 258.895C120.792 266.505 119.115 212.694 136.443 193.127Z" fill="#FFFCF5" stroke="#0077D4" stroke-width="3.6864" stroke-linecap="round" stroke-linejoin="round"/>
<path d="M187.61 191.005C187.163 75.3397 261.321 37.5897 298.284 32.8348C475.408 10.0497 480.506 169.807 491.126 180.134C634.779 426.358 314.712 480.907 232.327 413.857C180.902 372.004 188.169 335.587 187.61 191.005Z" fill="#FFFCF5" stroke="#0077D4" stroke-width="3.6864" stroke-linecap="round" stroke-linejoin="round"/>
<path d="M197.67 71.2537C209.297 56.0345 227.109 67.4489 234.562 75.0584C235.68 89.1905 232.885 116.476 212.762 112.563C187.609 107.671 183.137 90.2776 197.67 71.2537Z" fill="#FFFCF5"/>
<path d="M414.691 26.1455C395.805 21.437 389.354 41.2094 388.489 51.6841C396.769 63.3491 416.604 82.8395 429.706 67.4811C446.084 48.2831 438.299 32.0312 414.691 26.1455Z" fill="#FFFCF5"/>
<path d="M230.649 71.4274C203.26 42.9919 168.604 96.2588 203.26 109.847M389.953 45.3375C389.953 9.29238 462.059 28.3163 427.962 68.5383" stroke="#0077D4" stroke-width="3.6864" stroke-linecap="round" stroke-linejoin="round"/>
<path d="M266.423 147.892L273.689 140.282" stroke="#0077D4" stroke-width="5.5296" stroke-linecap="round" stroke-linejoin="round"/>
<path d="M353.619 122.893L362.563 125.61" stroke="#0077D4" stroke-width="5.5296" stroke-linecap="round" stroke-linejoin="round"/>
<path d="M308.345 145.177C306.378 148.481 305.344 151.468 303.314 152.243C304.618 161.176 312.817 172.897 317.847 172.897C328.064 172.897 323.996 154.396 321.201 147.592C315.862 148.468 310.765 146.615 308.345 145.177Z" fill="#FFB9DA"/>
<path d="M295.489 152.243C296.942 153.33 300.27 153.405 303.314 152.243M326.232 144.633C324.239 145.965 323.261 147.253 321.201 147.592M303.314 152.243C305.344 151.468 306.378 148.481 308.345 145.177C310.765 146.615 315.862 148.468 321.201 147.592M303.314 152.243C304.618 161.176 312.817 172.897 317.847 172.897C328.064 172.897 323.996 154.396 321.201 147.592M304.432 143.546L310.581 141.372" stroke="#0077D4" stroke-width="3.6864" stroke-linecap="round" stroke-linejoin="round"/>
<path d="M415.662 40.274C407.176 37.5232 392.298 43.6439 406.16 59.2979C423.488 78.8653 434.108 46.2529 415.662 40.274Z" fill="#FFB9DA"/>
<path d="M209.575 75.6988C218.061 72.948 232.939 79.0687 219.077 94.7227C201.749 114.29 191.129 81.6777 209.575 75.6988Z" fill="#FFB9DA"/>
<ellipse cx="10.7833" cy="5.4466" rx="10.7833" ry="5.4466" transform="matrix(0.965389 -0.260815 0.27472 0.961524 254.685 157.865)" fill="#FFB9DA"/>
<ellipse cx="10.7833" cy="5.4466" rx="10.7833" ry="5.4466" transform="matrix(0.965389 -0.260815 0.27472 0.961524 354.175 136.127)" fill="#FFB9DA"/>
<path d="M346.914 238.667C283.193 256.982 263.288 222.361 262.182 205.85C261.274 192.29 266.903 195.969 278.067 200.486C346.914 228.34 359.77 188.661 382.846 175.875C397.409 167.805 399.079 170.126 400.137 174.779C406.723 186.487 397.474 224.135 346.914 238.667Z" fill="#C6E4FC"/>
<path d="M373.182 82.9658C397.769 82.9659 417.634 102.338 417.634 126.153C417.634 149.969 397.769 169.341 373.182 169.341C348.595 169.341 328.73 149.969 328.73 126.153C328.73 102.337 348.595 82.9658 373.182 82.9658Z" fill="#C6E4FC" fill-opacity="0.57" stroke="#0077D4" stroke-width="2.7648"/>
<rect width="6.84179" height="73.8294" transform="matrix(0.886587 0.462561 -0.483099 0.875566 401.166 99.291)" fill="#FFFCF5" fill-opacity="0.63"/>
<rect width="6.84179" height="73.8294" transform="matrix(0.886587 0.462561 -0.483099 0.875566 365.248 72.8867)" fill="#FFFCF5" fill-opacity="0.63"/>
<rect width="12.2221" height="59.7466" transform="matrix(0.886587 0.462561 -0.483099 0.875566 406.558 109.648)" fill="#FFFCF5" fill-opacity="0.63"/>
<path d="M373.182 81.583C398.496 81.5831 419.017 101.538 419.017 126.153C419.017 150.769 398.496 170.724 373.182 170.724C347.868 170.724 327.347 150.769 327.347 126.153C327.347 101.538 347.868 81.583 373.182 81.583ZM373.183 91.3652C353.426 91.3653 337.41 106.939 337.41 126.151C337.41 145.363 353.426 160.938 373.183 160.938C392.94 160.938 408.957 145.363 408.957 126.151C408.956 106.939 392.94 91.3652 373.183 91.3652Z" fill="#0077D4"/>
<rect width="12.1612" height="29.6905" transform="matrix(0.780557 -0.625085 0.646276 0.763104 396.659 164.191)" fill="#0077D4"/>
<path d="M399.191 179.392C424.939 140.173 458.932 159.006 472.71 173.324C506.298 208.519 455.244 234.588 425.518 243.224C411.423 233.841 386.424 207.938 399.191 179.392Z" fill="#FFFCF5"/>
<path d="M474.334 172.645C459.706 159.306 424.709 141.393 401.74 176.454C373.029 220.281 439.736 251.87 442.842 248.886" stroke="#0077D4" stroke-width="3.6864" stroke-linecap="round" stroke-linejoin="round"/>
</svg>
