<svg width="115" height="107" viewBox="0 0 115 107" fill="none" xmlns="http://www.w3.org/2000/svg">
<path d="M41.4139 75.0808L6.00488 96.2164L76.2738 105L111.683 79.4726L41.4139 75.0808Z" fill="#C6E4FC" stroke="#0077D4" stroke-width="2"/>
<path d="M109.741 64.1013C106.227 72.4457 108.277 78.1002 109.741 80.845L76.5476 105C72.8878 101.798 67.764 93.746 76.5476 87.1583L109.741 64.1013Z" fill="#FFFCF5" stroke="#0077D4" stroke-width="2"/>
<path d="M4.08318 95.9419C-1.84576 88.2562 1.8873 80.5705 6.00461 79.4726L76.2736 87.1583C72.7601 95.5027 74.5351 102.255 75.9991 105L4.08318 95.9419Z" fill="#A1C1AB" stroke="#0077D4" stroke-width="2"/>
<path d="M41.4139 58.6115L6.00488 79.7471L76.2738 88.5307L111.683 63.0033L41.4139 58.6115Z" fill="#C6E4FC" stroke="#0077D4" stroke-width="2"/>
<path d="M41.139 58.6115L5.45557 79.4726L76.2735 87.1583L111.408 63.0033L41.139 58.6115Z" fill="#C6E4FC" stroke="#0077D4" stroke-width="2"/>
<path d="M109.741 47.632C106.227 55.9764 108.277 61.6309 109.741 64.3757L76.5476 88.5307C72.8878 85.3283 67.764 77.2767 76.5476 70.689L109.741 47.632Z" fill="#FFFCF5" stroke="#0077D4" stroke-width="2"/>
<path d="M4.08318 79.4726C-1.84576 71.7869 1.8873 64.1013 6.00461 63.0033L76.2736 70.689C72.7601 79.0334 74.5351 85.7858 75.9991 88.5307L4.08318 79.4726Z" fill="#C6E4FC" stroke="#0077D4" stroke-width="2"/>
<path d="M41.139 42.1422L5.45557 63.0033L76.2735 70.689L111.408 46.534L41.139 42.1422Z" fill="#C6E4FC" stroke="#0077D4" stroke-width="2"/>
<path d="M41.6243 41.5932L6.21533 62.7288L76.4843 71.5124L111.893 45.985L41.6243 41.5932Z" fill="#C6E4FC" stroke="#0077D4" stroke-width="2"/>
<path d="M109.951 30.6137C106.438 38.9581 108.488 44.6126 109.951 47.3575L76.7586 71.5124C73.0987 68.3101 67.975 60.2584 76.7586 53.6707L109.951 30.6137Z" fill="#FFFCF5" stroke="#0077D4" stroke-width="2"/>
<path d="M4.29363 62.4543C-1.63531 54.7687 2.09775 47.083 6.21506 45.985L76.484 53.6707C72.9706 62.0152 74.7456 68.7676 76.2095 71.5124L4.29363 62.4543Z" fill="#FFEFCC" stroke="#0077D4" stroke-width="2"/>
<path d="M41.3495 25.1239L5.66602 45.985L76.484 53.6707L111.618 29.5158L41.3495 25.1239Z" fill="#FFEFCC" stroke="#0077D4" stroke-width="2"/>
<path d="M80.8761 26.7709C77.8018 23.9162 74.2884 24.1175 72.9159 24.575C64.5715 31.3823 72.733 32.3521 77.8567 31.9862C77.8567 31.7117 84.7189 30.3392 80.8761 26.7709Z" fill="#C6E4FC" stroke="#0077D4" stroke-width="2"/>
<path d="M26.8018 52.0238C26.5823 51.365 28.3573 48.4554 29.2722 47.083C31.2485 45.7654 36.3174 47.998 38.6048 49.2789L35.5855 54.7687C30.6447 56.6901 27.0763 52.8472 26.8018 52.0238Z" fill="#FFCA89" stroke="#0077D4" stroke-width="2"/>
<path d="M41.6241 55.3177C41.4045 53.3413 42.6306 50.1024 43.2711 48.7299C46.8394 46.0766 54.2506 41.703 55.3486 45.4361C56.4465 49.1691 53.2441 54.8602 51.5057 57.2391C49.9686 55.9215 44.2775 55.4091 41.6241 55.3177Z" fill="#FFCA89" stroke="#0077D4" stroke-width="2"/>
<path d="M78.4058 30.3392C72.9161 41.7579 57.8192 46.6255 50.957 47.632L41.8989 29.5158C46.8397 27.4113 58.2584 22.9829 64.407 22.1046C70.5555 21.2262 76.3014 27.2284 78.4058 30.3392Z" fill="#FFCA89" stroke="#0077D4" stroke-width="2"/>
<mask id="mask0_6243_2321" style="mask-type:alpha" maskUnits="userSpaceOnUse" x="40" y="21" width="40" height="28">
<path d="M78.4058 30.3392C72.9161 41.7579 57.8192 46.6255 50.957 47.632L41.8989 29.5158C46.8397 27.4113 58.2584 22.9829 64.407 22.1046C70.5555 21.2262 76.3014 27.2284 78.4058 30.3392Z" fill="#52A8EB" stroke="#0077D4" stroke-width="2"/>
</mask>
<g mask="url(#mask0_6243_2321)">
<path d="M64.8826 42.1422C62.5744 36.3069 55.8773 32.9778 52.2927 30.0788L51.5059 26.7122C54.1287 26.1512 58.6401 22.7285 64.0957 23.6263C68.8169 26.4317 73.0257 29.1444 75.3863 33.6331C70.4455 39.6718 64.8826 42.1422 64.8826 42.1422Z" fill="#FFFCF5"/>
</g>
<path d="M29.272 4.81183C30.0286 5.2374 38.6441 20.7155 38.6441 20.7155C40.8006 20.1832 41.8985 20.4576 44.0944 21.2811C43.8199 19.3597 42.2828 13.9797 44.9179 6.73325C48.2117 -2.32486 56.7774 1.35622 56.1719 4.26286C54.7995 10.8506 53.3355 19.2682 52.8781 25.6729C54.159 27.0454 55.7876 30.998 56.4464 38.0249C57.2184 46.2595 49.8981 49.5534 38.6441 49.0044C27.3901 48.4554 25.7432 45.985 26.0177 37.2014C26.2373 30.1745 29.3635 25.7644 30.919 24.026C18.2925 19.0852 24.8803 2.34143 29.272 4.81183Z" fill="#FFFCF5" stroke="#0077D4" stroke-width="2"/>
<path d="M38.056 43.2402C37.3973 44.5577 35.8601 43.5146 36.1346 44.3381C36.9581 46.8085 38.3305 47.7967 39.4285 47.3575C40.5264 46.9183 40.8009 43.5146 40.2519 43.7891C39.3736 44.2283 38.422 43.6061 38.056 43.2402Z" fill="#FFB9DA"/>
<path d="M33.1152 39.9463C33.6512 40.6967 33.9387 41.0442 33.9387 41.0442M43.2713 41.0442C43.7537 40.7227 44.5065 40.2208 44.5065 40.2208M34.2132 35.28C34.5348 35.7088 34.7151 35.9492 35.0367 36.378M43.2713 35.28C43.0033 35.4944 42.5851 35.829 42.5851 35.829C42.5851 35.829 42.1668 36.1636 41.8989 36.378M36.1346 44.3381C35.8601 43.5146 37.3973 44.5577 38.056 43.2402C38.422 43.6061 39.3736 44.2283 40.2519 43.7891C40.8009 43.5146 40.5264 46.9183 39.4285 47.3575C38.3305 47.7967 36.9581 46.8085 36.1346 44.3381Z" stroke="#0077D4" stroke-width="2" stroke-linecap="round"/>
<path d="M49.7722 9.20714C45.8196 9.42673 46.2954 18.2652 47.0273 22.6571C48.3449 22.6571 49.9552 23.755 50.5957 24.304C51.9681 19.1802 53.7248 8.98754 49.7722 9.20714Z" fill="#FFB9DA"/>
<path d="M28.0876 11.6775C30.5031 11.0188 32.205 18.8142 35.4988 22.1081C33.8006 22.6741 32.7713 23.2706 32.205 23.7211C25.3428 19.0887 25.0683 12.501 28.0876 11.6775Z" fill="#FFB9DA"/>
<path d="M63.3085 18.8107C60.597 19.2174 56.9968 24.1701 63.3085 25.6729C69.0728 27.0454 68.7983 17.9872 63.3085 18.8107Z" fill="#FFFCF5" stroke="#0077D4" stroke-width="2"/>
<path d="M29.547 58.337C26.2531 57.788 26.8021 54.9517 27.6256 53.1218C30.0411 51.1454 33.5728 53.3962 35.0368 54.7687C34.6708 56.2326 33.0194 58.9158 29.547 58.337Z" fill="#FFFCF5"/>
<path d="M46.2908 60.5329C42.4479 60.2584 42.4479 57.1476 42.9969 55.3176C45.8516 52.9022 49.6761 54.8602 51.2316 56.1411C51.2316 57.5136 50.2394 60.815 46.2908 60.5329Z" fill="#FFFCF5"/>
<path d="M29.547 58.337C26.2531 57.788 26.8021 54.9517 27.6256 53.1218C30.0411 51.1454 33.5728 53.3962 35.0368 54.7687C34.6708 56.2326 33.0194 58.9158 29.547 58.337Z" stroke="#0077D4" stroke-width="2"/>
<path d="M46.2908 60.5329C42.4479 60.2584 42.4479 57.1476 42.9969 55.3176C45.8516 52.9022 49.6761 54.8602 51.2316 56.1411C51.2316 57.5136 50.2394 60.815 46.2908 60.5329Z" stroke="#0077D4" stroke-width="2"/>
<ellipse cx="46.2907" cy="43.2402" rx="2.47039" ry="1.09795" fill="#FFB9DA"/>
<path d="M33.9388 43.2402C33.9388 43.8465 32.8328 44.3381 31.4684 44.3381C30.1041 44.3381 28.998 43.8465 28.998 43.2402C28.998 42.6338 30.1041 42.1422 31.4684 42.1422C32.8328 42.1422 33.9388 42.6338 33.9388 43.2402Z" fill="#FFB9DA"/>
</svg>
