<svg width="119" height="119" viewBox="0 0 119 119" fill="none" xmlns="http://www.w3.org/2000/svg">
<path d="M90.8342 75.1723C91.821 74.302 92.9535 73.9069 94.2318 73.987C95.5101 74.0672 96.5829 74.6006 97.4501 75.5871L104.297 83.4741C105.167 84.4609 105.563 85.5733 105.486 86.8114C105.408 88.0494 104.876 89.1036 103.889 89.974C102.902 90.8443 101.79 91.2406 100.552 91.163C99.3138 91.0854 98.2596 90.5532 97.3893 89.5664L90.4194 81.7882C89.549 80.8014 89.1538 79.6705 89.2338 78.3952C89.3138 77.12 89.8472 76.0457 90.8342 75.1723ZM98.9705 19.7502C99.8408 20.737 100.236 21.8696 100.156 23.1479C100.076 24.4262 99.5422 25.4989 98.5556 26.3662L90.7848 33.22C89.798 34.0903 88.667 34.4855 87.3918 34.4056C86.1166 34.3256 85.0422 33.7921 84.1688 32.8051C83.2954 31.8182 82.9002 30.6872 82.9833 29.4122C83.0663 28.1371 83.5998 27.0628 84.5837 26.1892L92.4706 19.3427C93.4574 18.4723 94.5698 18.076 95.8079 18.1536C97.046 18.2312 98.1002 18.7635 98.9705 19.7502ZM24.6863 15.0922C25.673 14.2219 26.8056 13.8268 28.0839 13.907C29.3622 13.9871 30.435 14.5205 31.3022 15.5071L38.1487 23.394C39.0191 24.3808 39.4154 25.4932 39.3378 26.7313C39.2602 27.9694 38.7279 29.0236 37.7412 29.8939C36.7544 30.7642 35.6234 31.1594 34.3482 31.0794C33.073 30.9995 31.9987 30.466 31.1252 29.479L24.2714 21.7081C23.4011 20.7214 23.0059 19.5904 23.0858 18.3152C23.1658 17.0399 23.6993 15.9656 24.6863 15.0922ZM25.8355 71.0965C26.7058 72.0833 27.1009 73.2158 27.0208 74.4941C26.9406 75.7725 26.4072 76.8452 25.4206 77.7125L17.6498 84.5663C16.663 85.4366 15.532 85.8318 14.2568 85.7518C12.9816 85.6719 11.9072 85.1384 11.0338 84.1514C10.1604 83.1645 9.76522 82.0335 9.84828 80.7584C9.93133 79.4834 10.4648 78.4091 11.4487 77.5355L19.3356 70.6889C20.3224 69.8186 21.4348 69.4223 22.6729 69.4999C23.911 69.5775 24.9652 70.1097 25.8355 71.0965ZM57.6725 83.6967L37.6772 94.0954C36.7921 94.5837 35.8877 94.7601 34.964 94.6244C34.0403 94.4888 33.2472 94.1284 32.5848 93.5431C31.9223 92.9577 31.4231 92.2475 31.087 91.4123C30.751 90.5771 30.7307 89.6622 31.0261 88.6678L37.5087 67.0509L21.3708 51.2403C20.6407 50.4953 20.2077 49.6711 20.0716 48.7677C19.9356 47.8643 20.0474 46.9981 20.407 46.1692C20.7666 45.3404 21.2746 44.6731 21.9309 44.1673C22.5872 43.6616 23.4602 43.3668 24.5499 43.2828L47.191 42.7216L57.1917 22.6072C57.6369 21.7029 58.281 21.0441 59.1241 20.6309C59.9673 20.2177 60.8129 20.0376 61.661 20.0908C62.5091 20.144 63.3256 20.4282 64.1105 20.9436C64.8954 21.4589 65.4522 22.1929 65.7809 23.1458L73.1905 44.3519L95.5842 47.7371C96.6578 47.9598 97.4872 48.3613 98.0722 48.9418C98.6573 49.5223 99.0779 50.2478 99.3341 51.1184C99.5902 51.989 99.5944 52.864 99.3466 53.7433C99.0988 54.6227 98.5647 55.3847 97.7443 56.0293L79.7578 69.7002L83.4893 91.9575C83.6584 92.978 83.5239 93.8831 83.086 94.6729C82.6481 95.4627 82.064 96.105 81.3338 96.5999C80.6036 97.0948 79.7717 97.3533 78.8381 97.3756C77.9045 97.3978 77.0292 97.1099 76.2122 96.5118L57.6725 83.6967Z" fill="white" fill-opacity="1"/>
</svg>
